  0
SECTION
  2
HEADER
  9
$ACADVER
  1
AC1006
  9
$INSBASE
 10
0.0
 20
0.0
  9
$EXTMIN
 10
0.0
 20
0.0
  9
$EXTMAX
 10
42.00
 20
24.00
  9
$LIMMIN
 10
0.0
 20
0.0
  9
$LIMMAX
 10
42.00
 20
24.00
  9
$ORTHOMODE
 70
     0
  9
$REGENMODE
 70
     1
  9
$FILLMODE
 70
     1
  9
$QTEXTMODE
 70
     0
  9
$MIRRTEXT
 70
     1
  9
$DRAGMODE
 70
     2
  9
$LTSCALE
 40
1.0
  9
$OSMODE
 70
     0
  9
$ATTMODE
 70
     1
  9
$TEXTSIZE
 40
3.0
  9
$TRACEWID
 40
0.05
  9
$TEXTSTYLE
  7
STANDARD
  9
$CLAYER
  8
0
  9
$CELTYPE
  6
BYLAYER
  9
$CECOLOR
 62
     2
  9
$DIMSCALE
 40
1.0
  9
$DIMASZ
 40
0.18
  9
$DIMEXO
 40
0.0625
  9
$DIMDLI
 40
0.38
  9
$DIMRND
 40
0.0
  9
$DIMDLE
 40
0.0
  9
$DIMEXE
 40
0.18
  9
$DIMTP
 40
0.0
  9
$DIMTM
 40
0.0
  9
$DIMTXT
 40
3.0
  9
$DIMCEN
 40
0.09
  9
$DIMTSZ
 40
0.0
  9
$DIMTOL
 70
     0
  9
$DIMLIM
 70
     0
  9
$DIMTIH
 70
     1
  9
$DIMTOH
 70
     1
  9
$DIMSE1
 70
     0
  9
$DIMSE2
 70
     0
  9
$DIMTAD
 70
     0
  9
$DIMZIN
 70
     0
  9
$DIMBLK
  1

  9
$DIMALT
 70
     0
  9
$DIMALTD
 70
     2
  9
$DIMALTF
 40
25.4
  9
$DIMLFAC
 40
1.0
  9
$LUNITS
 70
     2
  9
$LUPREC
 70
     4
  9
$AXISMODE
 70
     0
  9
$AXISUNIT
 10
0.0
 20
0.0
  9
$SKETCHINC
 40
0.1
  9
$AUNITS
 70
     0
  9
$AUPREC
 70
     0
  9
$LIMCHECK
 70
     1
  9
$BLIPMODE
 70
     1
  9
$SKPOLY
 70
     0
  9
$ANGBASE
 50
0.0
  9
$ANGDIR
 70
     0
  9
$COORDS
 70
     0
  0
ENDSEC
  0
SECTION
  2
TABLES
  0
TABLE
  2
LTYPE
 70
     6
  0
LTYPE
  2
CONTINUOUS
 70
    64
  3
é¿ê¸
 72
    65
 73
     0
 40
0.0
  0
LTYPE
  2
HIDDEN
 70
    64
  3
îjê¸
 72
    65
 73
     2
 40
0.375
 49
0.25
 49
-0.125
  0
LTYPE
  2
DASHED
 70
    64
  3
í∑îjê¸
 72
    65
 73
     2
 40
0.75
 49
0.5
 49
-0.25
  0
LTYPE
  2
CENTER
 70
    64
  3
àÍì_çΩê¸
 72
    65
 73
     4
 40
2.0
 49
1.25
 49
-0.25
 49
0.25
 49
-0.25
  0
LTYPE
  2
DOT
 70
    64
  3
ëaîjê¸
 72
    65
 73
     2
 40
0.25
 49
0
 49
-0.25
  0
LTYPE
  2
PHANTOM
 70
    64
  3
ìÒì_çΩê¸
 72
    65
 73
     6
 40
2.5
 49
1.25
 49
-0.25
 49
0.25
 49
-0.25
 49
0.25
 49
-0.25
  0
ENDTAB
  0
TABLE
  2
LAYER
 70
     1
  0
LAYER
  2
0
 70
     0
 62
     7
  6
CONTINUOUS
  0
ENDTAB
  0
TABLE
  2
STYLE
 70
     1
  0
STYLE
  2
STANDARD
 70
     0
 40
0.0
 41
1.0
 50
0.0
 71
     0
 42
3.0
  3
TXT
  4
EXTFONT
  0
ENDTAB
  0
ENDSEC
  0
SECTION
  2
ENTITIES
  0
LINE
  8
0
  6
CENTER
 10
8.40000000
 20
11.50000000
 11
17.40000000
 21
11.50000000
  0
LINE
  8
0
  6
CONTINUOUS
 10
8.90000000
 20
6.30000000
 11
8.90000000
 21
16.70000000
  0
LINE
  8
0
  6
CONTINUOUS
 10
8.90000000
 20
6.30000000
 11
9.20000000
 21
6.00000000
  0
LINE
  8
0
  6
CONTINUOUS
 10
8.90000000
 20
16.70000000
 11
9.20000000
 21
17.00000000
  0
LINE
  8
0
  6
CONTINUOUS
 10
9.20000000
 20
6.00000000
 11
11.60000000
 21
6.00000000
  0
LINE
  8
0
  6
CONTINUOUS
 10
9.20000000
 20
17.00000000
 11
11.60000000
 21
17.00000000
  0
LINE
  8
0
  6
CONTINUOUS
 10
11.60000000
 20
6.00000000
 11
11.90000000
 21
6.30000000
  0
LINE
  8
0
  6
CONTINUOUS
 10
11.60000000
 20
17.00000000
 11
11.90000000
 21
16.70000000
  0
LINE
  8
0
  6
CONTINUOUS
 10
11.90000000
 20
6.30000000
 11
11.90000000
 21
7.25000000
  0
LINE
  8
0
  6
CONTINUOUS
 10
11.90000000
 20
16.70000000
 11
11.90000000
 21
15.75000000
  0
LINE
  8
0
  6
CONTINUOUS
 10
11.90000000
 20
7.25000000
 11
16.60000000
 21
7.25000000
  0
LINE
  8
0
  6
CONTINUOUS
 10
11.90000000
 20
15.75000000
 11
16.60000000
 21
15.75000000
  0
LINE
  8
0
  6
CONTINUOUS
 10
16.60000000
 20
7.25000000
 11
16.90000000
 21
7.55000000
  0
LINE
  8
0
  6
CONTINUOUS
 10
16.60000000
 20
15.75000000
 11
16.90000000
 21
15.45000000
  0
LINE
  8
0
  6
CONTINUOUS
 10
16.90000000
 20
7.55000000
 11
16.90000000
 21
15.45000000
  0
LINE
  8
0
  6
CONTINUOUS
 10
8.90000000
 20
7.12500000
 11
11.90000000
 21
7.12500000
  0
LINE
  8
0
  6
CONTINUOUS
 10
8.90000000
 20
15.87500000
 11
11.90000000
 21
15.87500000
  0
LINE
  8
0
  6
CENTER
 10
8.40000000
 20
6.50000000
 11
12.40000000
 21
6.50000000
  0
LINE
  8
0
  6
CENTER
 10
8.40000000
 20
16.50000000
 11
12.40000000
 21
16.50000000
  0
LINE
  8
0
  6
CONTINUOUS
 10
9.20000000
 20
10.00000000
 11
9.20000000
 21
13.00000000
  0
LINE
  8
0
  6
CONTINUOUS
 10
9.20000000
 20
10.00000000
 11
8.90000000
 21
9.70000000
  0
LINE
  8
0
  6
CONTINUOUS
 10
9.20000000
 20
13.00000000
 11
8.90000000
 21
13.30000000
  0
LINE
  8
0
  6
CONTINUOUS
 10
9.20000000
 20
10.00000000
 11
16.60000000
 21
10.00000000
  0
LINE
  8
0
  6
CONTINUOUS
 10
9.20000000
 20
13.00000000
 11
16.60000000
 21
13.00000000
  0
LINE
  8
0
  6
CONTINUOUS
 10
16.60000000
 20
10.00000000
 11
16.60000000
 21
13.00000000
  0
LINE
  8
0
  6
CONTINUOUS
 10
16.60000000
 20
10.00000000
 11
16.90000000
 21
9.70000000
  0
LINE
  8
0
  6
CONTINUOUS
 10
16.60000000
 20
13.00000000
 11
16.90000000
 21
13.30000000
  0
LINE
  8
0
  6
CENTER
 10
14.40000000
 20
16.25000000
 11
14.40000000
 21
12.50000000
  0
LINE
  8
0
  6
CONTINUOUS
 10
12.90000000
 20
15.75000000
 11
12.90000000
 21
13.00000000
  0
LINE
  8
0
  6
CONTINUOUS
 10
15.90000000
 20
15.75000000
 11
15.90000000
 21
13.00000000
  0
LINE
  8
0
  6
CONTINUOUS
 10
13.17050000
 20
15.75000000
 11
13.17050000
 21
13.00000000
  0
LINE
  8
0
  6
CONTINUOUS
 10
15.62950000
 20
15.75000000
 11
15.62950000
 21
13.00000000
  0
LINE
  8
0
  6
CENTER
 10
22.10000000
 20
11.50000000
 11
34.10000000
 21
11.50000000
  0
LINE
  8
0
  6
CENTER
 10
28.10000000
 20
5.50000000
 11
28.10000000
 21
17.50000000
  0
CIRCLE
  8
0
  6
CONTINUOUS
 10
28.10000000
 20
11.50000000
 40
5.50000000
  0
CIRCLE
  8
0
  6
CENTER
 10
28.10000000
 20
11.50000000
 40
5.00000000
  0
CIRCLE
  8
0
  6
CONTINUOUS
 10
28.10000000
 20
11.50000000
 40
4.25000000
  0
CIRCLE
  8
0
  6
CONTINUOUS
 10
28.10000000
 20
11.50000000
 40
1.50000000
  0
LINE
  8
0
  6
HIDDEN
 10
26.60000000
 20
15.47649343
 11
26.60000000
 21
11.50000000
  0
LINE
  8
0
  6
HIDDEN
 10
29.60000000
 20
15.47649343
 11
29.60000000
 21
11.50000000
  0
LINE
  8
0
  6
HIDDEN
 10
26.87050000
 20
15.56827110
 11
26.87050000
 21
12.35926117
  0
LINE
  8
0
  6
HIDDEN
 10
29.32950000
 20
15.56827110
 11
29.32950000
 21
12.35926117
  0
TEXT
  8
0
 10
1.50000000
 20
0.00000000
 40
3.0
  1
S50B 20B+0303
 50
0.0
 41
1.0
 51
0.0
  7
STANDARD
 72
     0
  0
ENDSEC
  0
EOF
