%TF.GenerationSoftware,KiCad,Pcbnew,no-vcs-found-0b1eb56~60~ubuntu17.04.1*%
%TF.CreationDate,2017-11-06T00:21:04+01:00*%
%TF.ProjectId,perenquen,706572656E7175656E2E6B696361645F,rev?*%
%TF.SameCoordinates,Original*%
%TF.FileFunction,Profile,NP*%
%FSLAX46Y46*%
G04 Gerber Fmt 4.6, Leading zero omitted, Abs format (unit mm)*
G04 Created by KiCad (PCBNEW no-vcs-found-0b1eb56~60~ubuntu17.04.1) date Mon Nov  6 00:21:04 2017*
%MOMM*%
%LPD*%
G01*
G04 APERTURE LIST*
%ADD10C,0.150000*%
%ADD11C,0.100000*%
G04 APERTURE END LIST*
D10*
X42500000Y-1060000D02*
X42500000Y-15060000D01*
X30500000Y-1060000D02*
X42500000Y-1060000D01*
X30500000Y-15060000D02*
X30500000Y-1060000D01*
X42500000Y-15060000D02*
X30500000Y-15060000D01*
X42020000Y21050000D02*
X42020000Y7050000D01*
X30020000Y21050000D02*
X42020000Y21050000D01*
X30020000Y7050000D02*
X30020000Y21050000D01*
X42020000Y7050000D02*
X30020000Y7050000D01*
D11*
X25461175Y64721179D02*
X25296415Y64885939D01*
X28650454Y61237686D02*
X28497463Y61425983D01*
X24778598Y65380218D02*
X24602070Y65544978D01*
X27885498Y62143865D02*
X27732506Y62320394D01*
X32487003Y55859456D02*
X32357549Y56059521D01*
X32604689Y55659390D02*
X32487003Y55859456D01*
X-23519559Y66533537D02*
X-23696088Y66368777D01*
X24084254Y66015720D02*
X23907725Y66180480D01*
X-26391087Y63767926D02*
X-26555847Y63603166D01*
X-26238096Y63944454D02*
X-26391087Y63767926D01*
X-27509002Y62567533D02*
X-27661993Y62391005D01*
X-27356011Y62744062D02*
X-27509002Y62567533D01*
X-28426949Y61508363D02*
X-28579941Y61320066D01*
X-28273958Y61684891D02*
X-28426949Y61508363D01*
X-18294320Y70499541D02*
X-18482617Y70370087D01*
X-33687494Y53752884D02*
X-33805180Y53552819D01*
X-33581577Y53964718D02*
X-33687494Y53752884D01*
X-28732932Y61143538D02*
X-28874154Y60955241D01*
X-28579941Y61320066D02*
X-28732932Y61143538D01*
X-33463892Y54164783D02*
X-33581577Y53964718D01*
X-33346206Y54376617D02*
X-33463892Y54164783D01*
X-20789254Y68746026D02*
X-20977551Y68604803D01*
X31463139Y57448211D02*
X31333685Y57648276D01*
X31604361Y57248146D02*
X31463139Y57448211D01*
X-34122931Y52929085D02*
X-34228848Y52717251D01*
X-34017014Y53129151D02*
X-34122931Y52929085D01*
X-36853236Y46444610D02*
X-36923847Y46221008D01*
X-36782625Y46668213D02*
X-36853236Y46444610D01*
X-18682682Y70240632D02*
X-18882748Y70111178D01*
X-34334765Y52505417D02*
X-34440682Y52293583D01*
X-34228848Y52717251D02*
X-34334765Y52505417D01*
X-18882748Y70111178D02*
X-19071045Y69969956D01*
X-25402528Y64768253D02*
X-25579056Y64603493D01*
X-25237768Y64933013D02*
X-25402528Y64768253D01*
X-18094255Y70628995D02*
X-18294320Y70499541D01*
X18694255Y70228864D02*
X18494189Y70358318D01*
X-24037376Y66062795D02*
X-24213904Y65898035D01*
X29968532Y59566551D02*
X29827310Y59754848D01*
X-34946730Y51234413D02*
X-35052647Y51022579D01*
X-34852581Y51446247D02*
X-34946730Y51234413D01*
X23025084Y66957205D02*
X22836787Y67110196D01*
X-36382494Y47774457D02*
X-36464874Y47550855D01*
X-36311882Y47998060D02*
X-36382494Y47774457D01*
X-35335092Y50387076D02*
X-35429241Y50163474D01*
X-35240944Y50598911D02*
X-35335092Y50387076D01*
X22660258Y67263188D02*
X22483730Y67416178D01*
X-31263172Y57765962D02*
X-31392626Y57565897D01*
X-31121949Y57954259D02*
X-31263172Y57765962D01*
X34322898Y52552491D02*
X34205213Y52764325D01*
X34417047Y52340657D02*
X34322898Y52552491D01*
X-17894189Y70746680D02*
X-18094255Y70628995D01*
X22295433Y67557401D02*
X22118905Y67710393D01*
X18494189Y70358318D02*
X18294124Y70487772D01*
X-34746664Y51658081D02*
X-34852581Y51446247D01*
X-34652516Y51869915D02*
X-34746664Y51658081D01*
X-19459407Y69711047D02*
X-19647704Y69569824D01*
X-24390432Y65745044D02*
X-24555192Y65580283D01*
X-24213904Y65898035D02*
X-24390432Y65745044D01*
X-24731720Y65427293D02*
X-24896480Y65262532D01*
X-24555192Y65580283D02*
X-24731720Y65427293D01*
X-36052974Y48645330D02*
X-36135354Y48433496D01*
X-35970594Y48868933D02*
X-36052974Y48645330D01*
X18882551Y70099409D02*
X18694255Y70228864D01*
X-20600957Y68887248D02*
X-20789254Y68746026D01*
X-21718970Y68028144D02*
X-21895498Y67886921D01*
X28944668Y60872861D02*
X28803445Y61061158D01*
X-17694123Y70876134D02*
X-17894189Y70746680D01*
X24260782Y65862729D02*
X24084254Y66015720D01*
X-36229503Y48209894D02*
X-36311882Y47998060D01*
X-36135354Y48433496D02*
X-36229503Y48209894D01*
X-20036067Y69299148D02*
X-20224363Y69169694D01*
X19282682Y69828733D02*
X19082617Y69969956D01*
X23731197Y66333471D02*
X23554669Y66498231D01*
X24955127Y65215459D02*
X24778598Y65380218D01*
X23907725Y66180480D02*
X23731197Y66333471D01*
X19082617Y69969956D02*
X18882551Y70099409D01*
X-34546599Y52081749D02*
X-34652516Y51869915D01*
X-34440682Y52293583D02*
X-34546599Y52081749D01*
X-17505826Y71005589D02*
X-17694123Y70876134D01*
X25625935Y64556419D02*
X25461175Y64721179D01*
X24602070Y65544978D02*
X24437310Y65697969D01*
X19659276Y69558056D02*
X19470980Y69699279D01*
X-25073009Y65097773D02*
X-25237768Y64933013D01*
X-24896480Y65262532D02*
X-25073009Y65097773D01*
X26120214Y64050371D02*
X25955454Y64215131D01*
X-29027146Y60778713D02*
X-29168368Y60590416D01*
X-28874154Y60955241D02*
X-29027146Y60778713D01*
X-26720607Y63426638D02*
X-26873598Y63261878D01*
X-26555847Y63603166D02*
X-26720607Y63426638D01*
X31980955Y56659718D02*
X31851501Y56859783D01*
X32110409Y56459652D02*
X31980955Y56659718D01*
X26944013Y63191267D02*
X26779253Y63367795D01*
X-19259342Y69840502D02*
X-19459407Y69711047D01*
X-36700245Y46891816D02*
X-36782625Y46668213D01*
X-36629633Y47115418D02*
X-36700245Y46891816D01*
X-26073336Y64109214D02*
X-26238096Y63944454D01*
X-25908576Y64273974D02*
X-26073336Y64109214D01*
X-33004918Y54988583D02*
X-33122604Y54776749D01*
X-32887233Y55188648D02*
X-33004918Y54988583D01*
X-23872616Y66215786D02*
X-24037376Y66062795D01*
X-23696088Y66368777D02*
X-23872616Y66215786D01*
X31733816Y57059848D02*
X31604361Y57248146D01*
X31851501Y56859783D02*
X31733816Y57059848D01*
X19470980Y69699279D02*
X19282682Y69828733D01*
X-23343031Y66686528D02*
X-23519559Y66533537D01*
X-23166503Y66839519D02*
X-23343031Y66686528D01*
X-27038358Y63085350D02*
X-27191349Y62920590D01*
X-26873598Y63261878D02*
X-27038358Y63085350D01*
X23554669Y66498231D02*
X23378140Y66651222D01*
X29533095Y60131442D02*
X29391873Y60319739D01*
X-21165848Y68463580D02*
X-21342376Y68322358D01*
X26284974Y63885612D02*
X26120214Y64050371D01*
X22483730Y67416178D02*
X22295433Y67557401D01*
X-19071045Y69969956D02*
X-19259342Y69840502D01*
X26449734Y63709083D02*
X26284974Y63885612D01*
X18000237Y-30003608D02*
X25501874Y-22501972D01*
X-25502070Y-22501972D02*
X-18000433Y-30003608D01*
X27732506Y62320394D02*
X27579515Y62496922D01*
X26779253Y63367795D02*
X26614493Y63544323D01*
X29827310Y59754848D02*
X29686087Y59943145D01*
X29391873Y60319739D02*
X29238882Y60508036D01*
X17505630Y71005589D02*
X-17505826Y71005589D01*
X22118905Y67710393D02*
X21930608Y67863384D01*
X32722375Y55447556D02*
X32604689Y55659390D01*
X32851829Y55247491D02*
X32722375Y55447556D01*
X-30992495Y58154324D02*
X-31121949Y57954259D01*
X-30863041Y58342621D02*
X-30992495Y58154324D01*
X34099296Y52976159D02*
X33993379Y53187993D01*
X34205213Y52764325D02*
X34099296Y52976159D01*
X-35699918Y49516203D02*
X-35794066Y49304369D01*
X-35617538Y49739806D02*
X-35699918Y49516203D01*
X28191480Y61779040D02*
X28038489Y61967337D01*
X20047638Y69287379D02*
X19859342Y69428602D01*
X-32028128Y56589107D02*
X-32157582Y56389041D01*
X-31898674Y56789172D02*
X-32028128Y56589107D01*
X-32769547Y55388714D02*
X-32887233Y55188648D01*
X-32651861Y55588779D02*
X-32769547Y55388714D01*
X-32522407Y55788844D02*
X-32651861Y55588779D01*
X-32404721Y55988910D02*
X-32522407Y55788844D01*
X22836787Y67110196D02*
X22660258Y67263188D01*
X29238882Y60508036D02*
X29097659Y60684564D01*
X-33911097Y53340985D02*
X-34017014Y53129151D01*
X-33805180Y53552819D02*
X-33911097Y53340985D01*
X-33240289Y54576683D02*
X-33346206Y54376617D01*
X-33122604Y54776749D02*
X-33240289Y54576683D01*
X25790694Y64391659D02*
X25625935Y64556419D01*
X32239863Y56259587D02*
X32110409Y56459652D01*
X32357549Y56059521D02*
X32239863Y56259587D01*
X30392200Y59001660D02*
X30250978Y59189957D01*
X-25743817Y64438734D02*
X-25908576Y64273974D01*
X-25579056Y64603493D02*
X-25743817Y64438734D01*
X-18000433Y-30003608D02*
X18000237Y-30003608D01*
X25501874Y-22501972D02*
X25501874Y25001645D01*
X-25502070Y25001645D02*
X-25502070Y-22501972D01*
X25501874Y25001645D02*
X37907687Y25001645D01*
X-25502070Y25001645D02*
X-37907785Y25001645D01*
X33663859Y53811727D02*
X33546173Y54011792D01*
X33769776Y53599893D02*
X33663859Y53811727D01*
X-31780988Y56977468D02*
X-31898674Y56789172D01*
X-31651534Y57177534D02*
X-31780988Y56977468D01*
X26614493Y63544323D02*
X26449734Y63709083D01*
X23378140Y66651222D02*
X23201612Y66804214D01*
X19859342Y69428602D02*
X19659276Y69558056D01*
X33440256Y54223627D02*
X33322571Y54435461D01*
X33546173Y54011792D02*
X33440256Y54223627D01*
X-22260323Y67592707D02*
X-22448620Y67439716D01*
X-22083795Y67733929D02*
X-22260323Y67592707D01*
X-31522080Y57377599D02*
X-31651534Y57177534D01*
X-31392626Y57565897D02*
X-31522080Y57377599D01*
X-21530673Y68181135D02*
X-21718970Y68028144D01*
X30109755Y59378254D02*
X29968532Y59566551D01*
X33887462Y53388059D02*
X33769776Y53599893D01*
X33993379Y53187993D02*
X33887462Y53388059D01*
X-35888214Y49092535D02*
X-35970594Y48868933D01*
X-35794066Y49304369D02*
X-35888214Y49092535D01*
X36547155Y47339021D02*
X36464776Y47562623D01*
X36617767Y47115418D02*
X36547155Y47339021D01*
X36382396Y47786226D02*
X36300016Y48009828D01*
X36464776Y47562623D02*
X36382396Y47786226D01*
X36217636Y48233431D02*
X36135256Y48445265D01*
X36300016Y48009828D02*
X36217636Y48233431D01*
X36052876Y48668867D02*
X35958728Y48892470D01*
X36135256Y48445265D02*
X36052876Y48668867D01*
X35876348Y49104304D02*
X35782199Y49327907D01*
X35958728Y48892470D02*
X35876348Y49104304D01*
X35699819Y49551509D02*
X35605671Y49763343D01*
X35782199Y49327907D02*
X35699819Y49551509D01*
X35511523Y49986946D02*
X35417374Y50198780D01*
X35605671Y49763343D02*
X35511523Y49986946D01*
X35323226Y50410614D02*
X35229077Y50634216D01*
X35417374Y50198780D02*
X35323226Y50410614D01*
X36994361Y45997405D02*
X36923750Y46221008D01*
X37907687Y25001645D02*
X36994361Y45997405D01*
X-29603805Y60037294D02*
X-29745028Y59860765D01*
X-29462582Y60225590D02*
X-29603805Y60037294D01*
X36853138Y46444610D02*
X36782527Y46668213D01*
X36923750Y46221008D02*
X36853138Y46444610D01*
X-29321360Y60413887D02*
X-29462582Y60225590D01*
X-29168368Y60590416D02*
X-29321360Y60413887D01*
X-30168696Y59295874D02*
X-30309919Y59107577D01*
X-30027473Y59484171D02*
X-30168696Y59295874D01*
X36700147Y46891816D02*
X36617767Y47115418D01*
X36782527Y46668213D02*
X36700147Y46891816D01*
X-32275267Y56188975D02*
X-32404721Y55988910D01*
X-32157582Y56389041D02*
X-32275267Y56188975D01*
X28803445Y61061158D02*
X28650454Y61237686D01*
X17705696Y70876134D02*
X17505630Y71005589D01*
X35134928Y50846050D02*
X35029011Y51057884D01*
X35229077Y50634216D02*
X35134928Y50846050D01*
X-29886251Y59672468D02*
X-30027473Y59484171D01*
X-29745028Y59860765D02*
X-29886251Y59672468D01*
X34934863Y51281487D02*
X34828946Y51493321D01*
X35029011Y51057884D02*
X34934863Y51281487D01*
X34734798Y51705155D02*
X34628881Y51916989D01*
X34828946Y51493321D02*
X34734798Y51705155D01*
X-30721818Y58530918D02*
X-30863041Y58342621D01*
X-30592364Y58719215D02*
X-30721818Y58530918D01*
X-30451141Y58919280D02*
X-30592364Y58719215D01*
X-30309919Y59107577D02*
X-30451141Y58919280D01*
X25119886Y65050698D02*
X24955127Y65215459D01*
X-21342376Y68322358D02*
X-21530673Y68181135D01*
X20436001Y69016702D02*
X20235936Y69146156D01*
X30933554Y58236704D02*
X30804100Y58425001D01*
X31074776Y58036639D02*
X30933554Y58236704D01*
X20235936Y69146156D02*
X20047638Y69287379D01*
X-27191251Y62920590D02*
X-27356011Y62744062D01*
X30521654Y58813363D02*
X30392200Y59001660D01*
X20812595Y68734257D02*
X20624298Y68875480D01*
X-22989974Y66992510D02*
X-23166503Y66839519D01*
X-20224363Y69169694D02*
X-20412660Y69028471D01*
X20624298Y68875480D02*
X20436001Y69016702D01*
X28038489Y61967337D02*
X27885498Y62143865D01*
X17893992Y70746680D02*
X17705696Y70876134D01*
X33204885Y54635526D02*
X33087200Y54835591D01*
X33322571Y54435461D02*
X33204885Y54635526D01*
X-22801677Y67145502D02*
X-22989974Y66992510D01*
X-22625149Y67286724D02*
X-22801677Y67145502D01*
X-20412660Y69028471D02*
X-20600957Y68887248D01*
X-19647704Y69569824D02*
X-19836001Y69440370D01*
X21189189Y68440043D02*
X21000892Y68581266D01*
X21742311Y68004607D02*
X21554014Y68157598D01*
X27414755Y62673450D02*
X27261764Y62849979D01*
X-35523389Y49951640D02*
X-35617538Y49739806D01*
X-35429241Y50163474D02*
X-35523389Y49951640D01*
X27579515Y62496922D02*
X27414755Y62673450D01*
X-36994459Y45997405D02*
X-37907785Y25001645D01*
X-36923847Y46221008D02*
X-36994459Y45997405D01*
X-27814985Y62214477D02*
X-27979744Y62037948D01*
X-27661993Y62391005D02*
X-27814985Y62214477D01*
X29686087Y59943145D02*
X29533095Y60131442D01*
X28497463Y61425983D02*
X28344471Y61602511D01*
X21000892Y68581266D02*
X20812595Y68734257D01*
X-19836001Y69440370D02*
X-20036067Y69299148D01*
X25296415Y64885939D02*
X25119886Y65050698D01*
X31204231Y57836573D02*
X31074776Y58036639D01*
X31333685Y57648276D02*
X31204231Y57836573D01*
X18094058Y70617226D02*
X17893992Y70746680D01*
X32969514Y55047425D02*
X32851829Y55247491D01*
X33087200Y54835591D02*
X32969514Y55047425D01*
X23201612Y66804214D02*
X23025084Y66957205D01*
X-35146796Y50810745D02*
X-35240944Y50598911D01*
X-35052647Y51022579D02*
X-35146796Y50810745D01*
X21554014Y68157598D02*
X21377486Y68298820D01*
X-36547254Y47327252D02*
X-36629633Y47115418D01*
X-36464874Y47550855D02*
X-36547254Y47327252D01*
X21377486Y68298820D02*
X21189189Y68440043D01*
X-21895498Y67886921D02*
X-22083795Y67733929D01*
X28344471Y61602511D02*
X28191480Y61779040D01*
X30250978Y59189957D02*
X30109755Y59378254D01*
X30662877Y58613298D02*
X30521654Y58813363D01*
X30804100Y58425001D02*
X30662877Y58613298D01*
X-28132736Y61861420D02*
X-28273958Y61684891D01*
X-27979744Y62037948D02*
X-28132736Y61861420D01*
X27261764Y62849979D02*
X27097004Y63026507D01*
X25955454Y64215131D02*
X25790694Y64391659D01*
X18294124Y70487772D02*
X18094058Y70617226D01*
X34522964Y52128823D02*
X34417047Y52340657D01*
X34628881Y51916989D02*
X34522964Y52128823D01*
X-18482617Y70370087D02*
X-18682682Y70240632D01*
X29097659Y60684564D02*
X28944668Y60872861D01*
X24437310Y65697969D02*
X24260782Y65862729D01*
X-20977551Y68604803D02*
X-21165848Y68463580D01*
X-22448620Y67439716D02*
X-22625149Y67286724D01*
X27097004Y63026507D02*
X26944013Y63191267D01*
X21930608Y67863384D02*
X21742311Y68004607D01*
M02*
