%FSLAX45Y45*%
G04 Gerber Fmt 4.5, Leading zero omitted, Abs format (unit mm)*
G04 Created by KiCad (PCBNEW no-vcs-found-0b1eb56~60~ubuntu17.04.1) date Mon Nov  6 00:20:57 2017*
%MOMM*%
%LPD*%
G01*
G04 APERTURE LIST*
%ADD10C,0.150000*%
%ADD11C,0.100000*%
%ADD12C,0.200000*%
%ADD13C,0.300000*%
G04 APERTURE END LIST*
D10*
X4250000Y-106000D02*
X4250000Y-1506000D01*
X3050000Y-106000D02*
X4250000Y-106000D01*
X3050000Y-1506000D02*
X3050000Y-106000D01*
X4250000Y-1506000D02*
X3050000Y-1506000D01*
X4202000Y2105000D02*
X4202000Y705000D01*
X3002000Y2105000D02*
X4202000Y2105000D01*
X3002000Y705000D02*
X3002000Y2105000D01*
X4202000Y705000D02*
X3002000Y705000D01*
D11*
X2546118Y6472118D02*
X2529642Y6488594D01*
X2865045Y6123769D02*
X2849746Y6142598D01*
X2477860Y6538022D02*
X2460207Y6554498D01*
X2788550Y6214386D02*
X2773251Y6232039D01*
X3248700Y5585946D02*
X3235755Y5605952D01*
X3260469Y5565939D02*
X3248700Y5585946D01*
X-2351956Y6653354D02*
X-2369609Y6636878D01*
X2408425Y6601572D02*
X2390773Y6618048D01*
X-2639109Y6376793D02*
X-2655585Y6360317D01*
X-2623810Y6394445D02*
X-2639109Y6376793D01*
X-2750900Y6256753D02*
X-2766199Y6239100D01*
X-2735601Y6274406D02*
X-2750900Y6256753D01*
X-2842695Y6150836D02*
X-2857994Y6132007D01*
X-2827396Y6168489D02*
X-2842695Y6150836D01*
X-1829432Y7049954D02*
X-1848262Y7037009D01*
X-3368749Y5375288D02*
X-3380518Y5355282D01*
X-3358158Y5396472D02*
X-3368749Y5375288D01*
X-2873293Y6114354D02*
X-2887415Y6095524D01*
X-2857994Y6132007D02*
X-2873293Y6114354D01*
X-3346389Y5416478D02*
X-3358158Y5396472D01*
X-3334621Y5437662D02*
X-3346389Y5416478D01*
X-2078925Y6874603D02*
X-2097755Y6860480D01*
X3146314Y5744821D02*
X3133368Y5764828D01*
X3160436Y5724815D02*
X3146314Y5744821D01*
X-3412293Y5292909D02*
X-3422885Y5271725D01*
X-3401701Y5312915D02*
X-3412293Y5292909D01*
X-3685324Y4644461D02*
X-3692385Y4622101D01*
X-3678262Y4666821D02*
X-3685324Y4644461D01*
X-1868268Y7024063D02*
X-1888275Y7011118D01*
X-3433476Y5250542D02*
X-3444068Y5229358D01*
X-3422885Y5271725D02*
X-3433476Y5250542D01*
X-1888275Y7011118D02*
X-1907104Y6996996D01*
X-2540253Y6476825D02*
X-2557906Y6460349D01*
X-2523777Y6493301D02*
X-2540253Y6476825D01*
X-1809425Y7062899D02*
X-1829432Y7049954D01*
X1869425Y7022886D02*
X1849419Y7035832D01*
X-2403738Y6606279D02*
X-2421390Y6589803D01*
X2996853Y5956655D02*
X2982731Y5975485D01*
X-3494673Y5123441D02*
X-3505265Y5102258D01*
X-3485258Y5144625D02*
X-3494673Y5123441D01*
X2302508Y6695720D02*
X2283679Y6711020D01*
X-3638249Y4777446D02*
X-3646487Y4755086D01*
X-3631188Y4799806D02*
X-3638249Y4777446D01*
X-3533509Y5038708D02*
X-3542924Y5016347D01*
X-3524094Y5059891D02*
X-3533509Y5038708D01*
X2266026Y6726319D02*
X2248373Y6741618D01*
X-3126317Y5776596D02*
X-3139263Y5756590D01*
X-3112195Y5795426D02*
X-3126317Y5776596D01*
X3432290Y5255249D02*
X3420521Y5276433D01*
X3441705Y5234066D02*
X3432290Y5255249D01*
X-1789419Y7074668D02*
X-1809425Y7062899D01*
X2229543Y6755740D02*
X2211891Y6771039D01*
X1849419Y7035832D02*
X1829412Y7048777D01*
X-3474666Y5165808D02*
X-3485258Y5144625D01*
X-3465252Y5186992D02*
X-3474666Y5165808D01*
X-1945941Y6971105D02*
X-1964770Y6956982D01*
X-2439043Y6574504D02*
X-2455519Y6558028D01*
X-2421390Y6589803D02*
X-2439043Y6574504D01*
X-2473172Y6542729D02*
X-2489648Y6526253D01*
X-2455519Y6558028D02*
X-2473172Y6542729D01*
X-3605297Y4864533D02*
X-3613535Y4843350D01*
X-3597059Y4886893D02*
X-3605297Y4864533D01*
X1888255Y7009941D02*
X1869425Y7022886D01*
X-2060096Y6888725D02*
X-2078925Y6874603D01*
X-2171897Y6802814D02*
X-2189550Y6788692D01*
X2894467Y6087286D02*
X2880344Y6106116D01*
X-1769412Y7087613D02*
X-1789419Y7074668D01*
X2426078Y6586273D02*
X2408425Y6601572D01*
X-3622950Y4820989D02*
X-3631188Y4799806D01*
X-3613535Y4843350D02*
X-3622950Y4820989D01*
X-2003607Y6929915D02*
X-2022436Y6916969D01*
X1928268Y6982873D02*
X1908262Y6996996D01*
X2373120Y6633347D02*
X2355467Y6649823D01*
X2495513Y6521546D02*
X2477860Y6538022D01*
X2390773Y6618048D02*
X2373120Y6633347D01*
X1908262Y6996996D02*
X1888255Y7009941D01*
X-3454660Y5208175D02*
X-3465252Y5186992D01*
X-3444068Y5229358D02*
X-3454660Y5208175D01*
X-1750583Y7100559D02*
X-1769412Y7087613D01*
X2562594Y6455642D02*
X2546118Y6472118D01*
X2460207Y6554498D02*
X2443731Y6569797D01*
X1965928Y6955806D02*
X1947098Y6969928D01*
X-2507301Y6509777D02*
X-2523777Y6493301D01*
X-2489648Y6526253D02*
X-2507301Y6509777D01*
X2612021Y6405037D02*
X2595545Y6421513D01*
X-2902715Y6077871D02*
X-2916837Y6059042D01*
X-2887415Y6095524D02*
X-2902715Y6077871D01*
X-2672061Y6342664D02*
X-2687360Y6326188D01*
X-2655585Y6360317D02*
X-2672061Y6342664D01*
X3198095Y5665972D02*
X3185150Y5685978D01*
X3211041Y5645965D02*
X3198095Y5665972D01*
X2694401Y6319127D02*
X2677925Y6336779D01*
X-1925934Y6984050D02*
X-1945941Y6971105D01*
X-3670024Y4689182D02*
X-3678262Y4666821D01*
X-3662963Y4711542D02*
X-3670024Y4689182D01*
X-2607334Y6410921D02*
X-2623810Y6394445D01*
X-2590858Y6427397D02*
X-2607334Y6410921D01*
X-3300492Y5498858D02*
X-3312260Y5477675D01*
X-3288723Y5518865D02*
X-3300492Y5498858D01*
X-2387262Y6621579D02*
X-2403738Y6606279D01*
X-2369609Y6636878D02*
X-2387262Y6621579D01*
X3173382Y5705985D02*
X3160436Y5724815D01*
X3185150Y5685978D02*
X3173382Y5705985D01*
X1947098Y6969928D02*
X1928268Y6982873D01*
X-2334303Y6668653D02*
X-2351956Y6653354D01*
X-2316650Y6683952D02*
X-2334303Y6668653D01*
X-2703836Y6308535D02*
X-2719135Y6292059D01*
X-2687360Y6326188D02*
X-2703836Y6308535D01*
X2355467Y6649823D02*
X2337814Y6665122D01*
X2953309Y6013144D02*
X2939187Y6031974D01*
X-2116585Y6846358D02*
X-2134238Y6832236D01*
X2628497Y6388561D02*
X2612021Y6405037D01*
X2248373Y6741618D02*
X2229543Y6755740D01*
X-1907104Y6996996D02*
X-1925934Y6984050D01*
X2644973Y6370908D02*
X2628497Y6388561D01*
X1800024Y-3000361D02*
X2550187Y-2250197D01*
X-2550207Y-2250197D02*
X-1800043Y-3000361D01*
X2773251Y6232039D02*
X2757952Y6249692D01*
X2677925Y6336779D02*
X2661449Y6354432D01*
X2982731Y5975485D02*
X2968609Y5994314D01*
X2939187Y6031974D02*
X2923888Y6050804D01*
X1750563Y7100559D02*
X-1750583Y7100559D01*
X2211891Y6771039D02*
X2193061Y6786338D01*
X3272237Y5544756D02*
X3260469Y5565939D01*
X3285183Y5524749D02*
X3272237Y5544756D01*
X-3099249Y5815432D02*
X-3112195Y5795426D01*
X-3086304Y5834262D02*
X-3099249Y5815432D01*
X3409930Y5297616D02*
X3399338Y5318799D01*
X3420521Y5276433D02*
X3409930Y5297616D01*
X-3569992Y4951620D02*
X-3579407Y4930437D01*
X-3561754Y4973981D02*
X-3569992Y4951620D01*
X2819148Y6177904D02*
X2803849Y6196734D01*
X2004764Y6928738D02*
X1985934Y6942860D01*
X-3202813Y5658911D02*
X-3215758Y5638904D01*
X-3189867Y5678917D02*
X-3202813Y5658911D01*
X-3276955Y5538871D02*
X-3288723Y5518865D01*
X-3265186Y5558878D02*
X-3276955Y5538871D01*
X-3252241Y5578884D02*
X-3265186Y5558878D01*
X-3240472Y5598891D02*
X-3252241Y5578884D01*
X2283679Y6711020D02*
X2266026Y6726319D01*
X2923888Y6050804D02*
X2909766Y6068456D01*
X-3391110Y5334099D02*
X-3401701Y5312915D01*
X-3380518Y5355282D02*
X-3391110Y5334099D01*
X-3324029Y5457668D02*
X-3334621Y5437662D01*
X-3312260Y5477675D02*
X-3324029Y5457668D01*
X2579069Y6439166D02*
X2562594Y6455642D01*
X3223986Y5625959D02*
X3211041Y5645965D01*
X3235755Y5605952D02*
X3223986Y5625959D01*
X3039220Y5900166D02*
X3025098Y5918996D01*
X-2574382Y6443873D02*
X-2590858Y6427397D01*
X-2557906Y6460349D02*
X-2574382Y6443873D01*
X-1800043Y-3000361D02*
X1800024Y-3000361D01*
X2550187Y-2250197D02*
X2550187Y2500165D01*
X-2550207Y2500165D02*
X-2550207Y-2250197D01*
X2550187Y2500165D02*
X3790769Y2500165D01*
X-2550207Y2500165D02*
X-3790778Y2500165D01*
X3366386Y5381173D02*
X3354617Y5401179D01*
X3376978Y5359989D02*
X3366386Y5381173D01*
X-3178099Y5697747D02*
X-3189867Y5678917D01*
X-3165153Y5717753D02*
X-3178099Y5697747D01*
X2661449Y6354432D02*
X2644973Y6370908D01*
X2337814Y6665122D02*
X2320161Y6680421D01*
X1985934Y6942860D02*
X1965928Y6955806D01*
X3344026Y5422363D02*
X3332257Y5443546D01*
X3354617Y5401179D02*
X3344026Y5422363D01*
X-2226032Y6759271D02*
X-2244862Y6743972D01*
X-2208380Y6773393D02*
X-2226032Y6759271D01*
X-3152208Y5737760D02*
X-3165153Y5717753D01*
X-3139263Y5756590D02*
X-3152208Y5737760D01*
X-2153067Y6818113D02*
X-2171897Y6802814D01*
X3010975Y5937825D02*
X2996853Y5956655D01*
X3388746Y5338806D02*
X3376978Y5359989D01*
X3399338Y5318799D02*
X3388746Y5338806D01*
X-3588821Y4909254D02*
X-3597059Y4886893D01*
X-3579407Y4930437D02*
X-3588821Y4909254D01*
X3654715Y4733902D02*
X3646478Y4756262D01*
X3661777Y4711542D02*
X3654715Y4733902D01*
X3638240Y4778623D02*
X3630002Y4800983D01*
X3646478Y4756262D02*
X3638240Y4778623D01*
X3621764Y4823343D02*
X3613526Y4844527D01*
X3630002Y4800983D02*
X3621764Y4823343D01*
X3605288Y4866887D02*
X3595873Y4889247D01*
X3613526Y4844527D02*
X3605288Y4866887D01*
X3587635Y4910430D02*
X3578220Y4932791D01*
X3595873Y4889247D02*
X3587635Y4910430D01*
X3569982Y4955151D02*
X3560567Y4976334D01*
X3578220Y4932791D02*
X3569982Y4955151D01*
X3551152Y4998695D02*
X3541737Y5019878D01*
X3560567Y4976334D02*
X3551152Y4998695D01*
X3532323Y5041061D02*
X3522908Y5063422D01*
X3541737Y5019878D02*
X3532323Y5041061D01*
X3699436Y4599741D02*
X3692375Y4622101D01*
X3790769Y2500165D02*
X3699436Y4599741D01*
X-2960380Y6003729D02*
X-2974503Y5986076D01*
X-2946258Y6022559D02*
X-2960380Y6003729D01*
X3685314Y4644461D02*
X3678253Y4666821D01*
X3692375Y4622101D02*
X3685314Y4644461D01*
X-2932136Y6041389D02*
X-2946258Y6022559D01*
X-2916837Y6059042D02*
X-2932136Y6041389D01*
X-3016870Y5929587D02*
X-3030992Y5910758D01*
X-3002747Y5948417D02*
X-3016870Y5929587D01*
X3670015Y4689182D02*
X3661777Y4711542D01*
X3678253Y4666821D02*
X3670015Y4689182D01*
X-3227527Y5618897D02*
X-3240472Y5598891D01*
X-3215758Y5638904D02*
X-3227527Y5618897D01*
X2880344Y6106116D02*
X2865045Y6123769D01*
X1770570Y7087613D02*
X1750563Y7100559D01*
X3513493Y5084605D02*
X3502901Y5105788D01*
X3522908Y5063422D02*
X3513493Y5084605D01*
X-2988625Y5967247D02*
X-3002747Y5948417D01*
X-2974503Y5986076D02*
X-2988625Y5967247D01*
X3493486Y5128149D02*
X3482895Y5149332D01*
X3502901Y5105788D02*
X3493486Y5128149D01*
X3473480Y5170516D02*
X3462888Y5191699D01*
X3482895Y5149332D02*
X3473480Y5170516D01*
X-3072182Y5853092D02*
X-3086304Y5834262D01*
X-3059236Y5871921D02*
X-3072182Y5853092D01*
X-3045114Y5891928D02*
X-3059236Y5871921D01*
X-3030992Y5910758D02*
X-3045114Y5891928D01*
X2511989Y6505070D02*
X2495513Y6521546D01*
X-2134238Y6832236D02*
X-2153067Y6818113D01*
X2043600Y6901670D02*
X2023594Y6914616D01*
X3093355Y5823670D02*
X3080410Y5842500D01*
X3107478Y5803664D02*
X3093355Y5823670D01*
X2023594Y6914616D02*
X2004764Y6928738D01*
X-2719125Y6292059D02*
X-2735601Y6274406D01*
X3052165Y5881336D02*
X3039220Y5900166D01*
X2081259Y6873426D02*
X2062430Y6887548D01*
X-2298997Y6699251D02*
X-2316650Y6683952D01*
X-2022436Y6916969D02*
X-2041266Y6902847D01*
X2062430Y6887548D02*
X2043600Y6901670D01*
X2803849Y6196734D02*
X2788550Y6214386D01*
X1789399Y7074668D02*
X1770570Y7087613D01*
X3320488Y5463553D02*
X3308720Y5483559D01*
X3332257Y5443546D02*
X3320488Y5463553D01*
X-2280168Y6714550D02*
X-2298997Y6699251D01*
X-2262515Y6728672D02*
X-2280168Y6714550D01*
X-2041266Y6902847D02*
X-2060096Y6888725D01*
X-1964770Y6956982D02*
X-1983600Y6944037D01*
X2118919Y6844004D02*
X2100089Y6858127D01*
X2174231Y6800461D02*
X2155401Y6815760D01*
X2741476Y6267345D02*
X2726176Y6284998D01*
X-3552339Y4995164D02*
X-3561754Y4973981D01*
X-3542924Y5016347D02*
X-3552339Y4995164D01*
X2757952Y6249692D02*
X2741476Y6267345D01*
X-3699446Y4599741D02*
X-3790778Y2500165D01*
X-3692385Y4622101D02*
X-3699446Y4599741D01*
X-2781499Y6221448D02*
X-2797974Y6203795D01*
X-2766199Y6239100D02*
X-2781499Y6221448D01*
X2968609Y5994314D02*
X2953309Y6013144D01*
X2849746Y6142598D02*
X2834447Y6160251D01*
X2100089Y6858127D02*
X2081259Y6873426D01*
X-1983600Y6944037D02*
X-2003607Y6929915D01*
X2529642Y6488594D02*
X2511989Y6505070D01*
X3120423Y5783657D02*
X3107478Y5803664D01*
X3133368Y5764828D02*
X3120423Y5783657D01*
X1809406Y7061723D02*
X1789399Y7074668D01*
X3296951Y5504743D02*
X3285183Y5524749D01*
X3308720Y5483559D02*
X3296951Y5504743D01*
X2320161Y6680421D02*
X2302508Y6695720D01*
X-3514680Y5081075D02*
X-3524094Y5059891D01*
X-3505265Y5102258D02*
X-3514680Y5081075D01*
X2155401Y6815760D02*
X2137749Y6829882D01*
X-3654725Y4732725D02*
X-3662963Y4711542D01*
X-3646487Y4755086D02*
X-3654725Y4732725D01*
X2137749Y6829882D02*
X2118919Y6844004D01*
X-2189550Y6788692D02*
X-2208380Y6773393D01*
X2834447Y6160251D02*
X2819148Y6177904D01*
X3025098Y5918996D02*
X3010975Y5937825D01*
X3066288Y5861330D02*
X3052165Y5881336D01*
X3080410Y5842500D02*
X3066288Y5861330D01*
X-2813274Y6186142D02*
X-2827396Y6168489D01*
X-2797974Y6203795D02*
X-2813274Y6186142D01*
X2726176Y6284998D02*
X2709700Y6302651D01*
X2595545Y6421513D02*
X2579069Y6439166D01*
X1829412Y7048777D02*
X1809406Y7061723D01*
X3452296Y5212882D02*
X3441705Y5234066D01*
X3462888Y5191699D02*
X3452296Y5212882D01*
X-1848262Y7037009D02*
X-1868268Y7024063D01*
X2909766Y6068456D02*
X2894467Y6087286D01*
X2443731Y6569797D02*
X2426078Y6586273D01*
X-2097755Y6860480D02*
X-2116585Y6846358D01*
X-2244862Y6743972D02*
X-2262515Y6728672D01*
X2709700Y6302651D02*
X2694401Y6319127D01*
X2193061Y6786338D02*
X2174231Y6800461D01*
D12*
X-3525200Y3271200D02*
X-3485200Y3231200D01*
X-3485200Y3271200D02*
X-3525200Y3231200D01*
X-2852100Y5265100D02*
X-2812100Y5225100D01*
X-2812100Y5265100D02*
X-2852100Y5225100D01*
X-2153600Y4566600D02*
X-2113600Y4526600D01*
X-2113600Y4566600D02*
X-2153600Y4526600D01*
X-1747200Y4414200D02*
X-1707200Y4374200D01*
X-1707200Y4414200D02*
X-1747200Y4374200D01*
X-1658300Y2179000D02*
X-1618300Y2139000D01*
X-1618300Y2179000D02*
X-1658300Y2139000D01*
X-1391600Y3766500D02*
X-1351600Y3726500D01*
X-1351600Y3766500D02*
X-1391600Y3726500D01*
X-1391600Y1112200D02*
X-1351600Y1072200D01*
X-1351600Y1112200D02*
X-1391600Y1072200D01*
X-1150300Y5100000D02*
X-1110300Y5060000D01*
X-1110300Y5100000D02*
X-1150300Y5060000D01*
X-1099500Y2052000D02*
X-1059500Y2012000D01*
X-1059500Y2052000D02*
X-1099500Y2012000D01*
X-934400Y5887400D02*
X-894400Y5847400D01*
X-894400Y5887400D02*
X-934400Y5847400D01*
X-934400Y5201600D02*
X-894400Y5161600D01*
X-894400Y5201600D02*
X-934400Y5161600D01*
X-883600Y4185600D02*
X-843600Y4145600D01*
X-843600Y4185600D02*
X-883600Y4145600D01*
X-794700Y3982400D02*
X-754700Y3942400D01*
X-754700Y3982400D02*
X-794700Y3942400D01*
X-756600Y3449000D02*
X-716600Y3409000D01*
X-716600Y3449000D02*
X-756600Y3409000D01*
X-756600Y3029900D02*
X-716600Y2989900D01*
X-716600Y3029900D02*
X-756600Y2989900D01*
X-591500Y4452300D02*
X-551500Y4412300D01*
X-551500Y4452300D02*
X-591500Y4412300D01*
X-528000Y4592000D02*
X-488000Y4552000D01*
X-488000Y4592000D02*
X-528000Y4552000D01*
X-464500Y3677600D02*
X-424500Y3637600D01*
X-424500Y3677600D02*
X-464500Y3637600D01*
X-464500Y2864800D02*
X-424500Y2824800D01*
X-424500Y2864800D02*
X-464500Y2824800D01*
X-451800Y4084000D02*
X-411800Y4044000D01*
X-411800Y4084000D02*
X-451800Y4044000D01*
X-223200Y2242500D02*
X-183200Y2202500D01*
X-183200Y2242500D02*
X-223200Y2202500D01*
X-147000Y4312600D02*
X-107000Y4272600D01*
X-107000Y4312600D02*
X-147000Y4272600D01*
X-121600Y2242500D02*
X-81600Y2202500D01*
X-81600Y2242500D02*
X-121600Y2202500D01*
X-70800Y4401500D02*
X-30800Y4361500D01*
X-30800Y4401500D02*
X-70800Y4361500D01*
X-20000Y2242500D02*
X20000Y2202500D01*
X20000Y2242500D02*
X-20000Y2202500D01*
X30800Y3880800D02*
X70800Y3840800D01*
X70800Y3880800D02*
X30800Y3840800D01*
X81598Y1188400D02*
X121598Y1148400D01*
X121598Y1188400D02*
X81598Y1148400D01*
X183200Y4134800D02*
X223200Y4094800D01*
X223200Y4134800D02*
X183200Y4094800D01*
X310200Y2725099D02*
X350200Y2685099D01*
X350200Y2725099D02*
X310200Y2685099D01*
X335600Y3449000D02*
X375600Y3409000D01*
X375600Y3449000D02*
X335600Y3409000D01*
X335600Y3156900D02*
X375600Y3116900D01*
X375600Y3156900D02*
X335600Y3116900D01*
X486118Y5728501D02*
X526118Y5688501D01*
X526118Y5728501D02*
X486118Y5688501D01*
X488000Y4934900D02*
X528000Y4894900D01*
X528000Y4934900D02*
X488000Y4894900D01*
X538800Y2826700D02*
X578800Y2786700D01*
X578800Y2826700D02*
X538800Y2786700D01*
X627700Y5643500D02*
X667700Y5603500D01*
X667700Y5643500D02*
X627700Y5603500D01*
X665800Y4934900D02*
X705800Y4894900D01*
X705800Y4934900D02*
X665800Y4894900D01*
X703900Y4668200D02*
X743900Y4628200D01*
X743900Y4668200D02*
X703900Y4628200D01*
X805500Y4045900D02*
X845500Y4005900D01*
X845500Y4045900D02*
X805500Y4005900D01*
X836602Y3855400D02*
X876602Y3815400D01*
X876602Y3855400D02*
X836602Y3815400D01*
X919800Y2636200D02*
X959800Y2596200D01*
X959800Y2636200D02*
X919800Y2596200D01*
X926041Y3747863D02*
X966041Y3707863D01*
X966041Y3747863D02*
X926041Y3707863D01*
X932500Y2013900D02*
X972500Y1973900D01*
X972500Y2013900D02*
X932500Y1973900D01*
X945200Y4871400D02*
X985200Y4831400D01*
X985200Y4871400D02*
X945200Y4831400D01*
X970600Y6865300D02*
X1010600Y6825300D01*
X1010600Y6865300D02*
X970600Y6825300D01*
X1008578Y2572596D02*
X1048578Y2532596D01*
X1048578Y2572596D02*
X1008578Y2532596D01*
X1008700Y3677600D02*
X1048700Y3637600D01*
X1048700Y3677600D02*
X1008700Y3637600D01*
X1084795Y2637336D02*
X1124795Y2597336D01*
X1124795Y2637336D02*
X1084795Y2597336D01*
X1084900Y3753800D02*
X1124900Y3713800D01*
X1124900Y3753800D02*
X1084900Y3713800D01*
X1161100Y3677600D02*
X1201100Y3637600D01*
X1201100Y3677600D02*
X1161100Y3637600D01*
X1161100Y2572701D02*
X1201100Y2532701D01*
X1201100Y2572701D02*
X1161100Y2532701D01*
X1262700Y3753800D02*
X1302700Y3713800D01*
X1302700Y3753800D02*
X1262700Y3713800D01*
X1262700Y2826700D02*
X1302700Y2786700D01*
X1302700Y2826700D02*
X1262700Y2786700D01*
X1338900Y3677600D02*
X1378900Y3637600D01*
X1378900Y3677600D02*
X1338900Y3637600D01*
X1339111Y2725311D02*
X1379111Y2685311D01*
X1379111Y2725311D02*
X1339111Y2685311D01*
X1377000Y959800D02*
X1417000Y919800D01*
X1417000Y959800D02*
X1377000Y919800D01*
X1377001Y1112200D02*
X1417001Y1072200D01*
X1417001Y1112200D02*
X1377001Y1072200D01*
X1377003Y807400D02*
X1417003Y767400D01*
X1417003Y807400D02*
X1377003Y767400D01*
X1415100Y3753800D02*
X1455100Y3713800D01*
X1455100Y3753800D02*
X1415100Y3713800D01*
X1415100Y2826700D02*
X1455100Y2786700D01*
X1455100Y2826700D02*
X1415100Y2786700D01*
X1453200Y5531800D02*
X1493200Y5491800D01*
X1493200Y5531800D02*
X1453200Y5491800D01*
X1491299Y4985700D02*
X1531299Y4945700D01*
X1531299Y4985700D02*
X1491299Y4945700D01*
X1491300Y5188900D02*
X1531300Y5148900D01*
X1531300Y5188900D02*
X1491300Y5148900D01*
X1491300Y3677601D02*
X1531300Y3637601D01*
X1531300Y3677601D02*
X1491300Y3637601D01*
X1493534Y2727334D02*
X1533534Y2687334D01*
X1533534Y2727334D02*
X1493534Y2687334D01*
X1542101Y1721800D02*
X1582101Y1681800D01*
X1582101Y1721800D02*
X1542101Y1681800D01*
X1592900Y-653100D02*
X1632900Y-693100D01*
X1632900Y-653100D02*
X1592900Y-693100D01*
X1631000Y2064700D02*
X1671000Y2024700D01*
X1671000Y2064700D02*
X1631000Y2024700D01*
X1897700Y4287200D02*
X1937700Y4247200D01*
X1937700Y4287200D02*
X1897700Y4247200D01*
X1935800Y3741100D02*
X1975800Y3701100D01*
X1975800Y3741100D02*
X1935800Y3701100D01*
X2151701Y4249100D02*
X2191701Y4209100D01*
X2191701Y4249100D02*
X2151701Y4209100D01*
X2431100Y3957000D02*
X2471100Y3917000D01*
X2471100Y3957000D02*
X2431100Y3917000D01*
X2697799Y3410900D02*
X2737799Y3370900D01*
X2737799Y3410900D02*
X2697799Y3370900D01*
X2926400Y3017200D02*
X2966400Y2977200D01*
X2966400Y3017200D02*
X2926400Y2977200D01*
X3409000Y3017200D02*
X3449000Y2977200D01*
X3449000Y3017200D02*
X3409000Y2977200D01*
X-1550000Y2984500D02*
G75*
G03X-1550000Y2984500I-37500J0D01*
G01*
X-1550000Y2784500D02*
G75*
G03X-1550000Y2784500I-37500J0D01*
G01*
X-1550000Y2584500D02*
G75*
G03X-1550000Y2584500I-37500J0D01*
G01*
X-1854200Y5023400D02*
X-1854200Y4933400D01*
X-1899200Y4978400D02*
X-1809200Y4978400D01*
X-1600200Y5023400D02*
X-1600200Y4933400D01*
X-1645200Y4978400D02*
X-1555200Y4978400D01*
X-1476270Y5919369D02*
X-1476270Y5829369D01*
X-1521270Y5874369D02*
X-1431270Y5874369D01*
X-1349270Y6139340D02*
X-1349270Y6049340D01*
X-1394270Y6094340D02*
X-1304270Y6094340D01*
X-1863450Y5432160D02*
X-1863450Y5342160D01*
X-1908450Y5387160D02*
X-1818450Y5387160D01*
X-1736450Y5652130D02*
X-1736450Y5562130D01*
X-1781450Y5607130D02*
X-1691450Y5607130D01*
X3245535Y3846284D02*
X3245535Y3756284D01*
X3200535Y3801284D02*
X3290535Y3801284D01*
X3499380Y3837420D02*
X3499380Y3747420D01*
X3454380Y3792420D02*
X3544380Y3792420D01*
X-3504905Y3846195D02*
X-3504905Y3756195D01*
X-3549905Y3801195D02*
X-3459905Y3801195D01*
X-3251060Y3855060D02*
X-3251060Y3765060D01*
X-3296060Y3810060D02*
X-3206060Y3810060D01*
X1724780Y5668500D02*
X1724780Y5578501D01*
X1679780Y5623500D02*
X1769780Y5623500D01*
X1851780Y5448530D02*
X1851780Y5358530D01*
X1806780Y5403530D02*
X1896780Y5403530D01*
X2599445Y3846284D02*
X2599445Y3756284D01*
X2554445Y3801284D02*
X2644445Y3801284D01*
X2853290Y3837420D02*
X2853290Y3747420D01*
X2808290Y3792420D02*
X2898290Y3792420D01*
X-2901185Y3846195D02*
X-2901185Y3756195D01*
X-2946185Y3801195D02*
X-2856185Y3801195D01*
X-2647340Y3855060D02*
X-2647340Y3765060D01*
X-2692340Y3810060D02*
X-2602340Y3810060D01*
X1336420Y6146310D02*
X1336420Y6056310D01*
X1291420Y6101310D02*
X1381420Y6101310D01*
X1463420Y5926340D02*
X1463420Y5836340D01*
X1418420Y5881340D02*
X1508420Y5881340D01*
X3304356Y-1125556D02*
X3304356Y-1054844D01*
X3233644Y-1054844D01*
X3233644Y-1125556D01*
X3304356Y-1125556D01*
X3558356Y-1125556D02*
X3558356Y-1054844D01*
X3487644Y-1054844D01*
X3487644Y-1125556D01*
X3558356Y-1125556D01*
X3812356Y-1125556D02*
X3812356Y-1054844D01*
X3741644Y-1054844D01*
X3741644Y-1125556D01*
X3812356Y-1125556D01*
X4066356Y-1125556D02*
X4066356Y-1054844D01*
X3995644Y-1054844D01*
X3995644Y-1125556D01*
X4066356Y-1125556D01*
X-472644Y5984444D02*
X-472644Y6055156D01*
X-543356Y6055156D01*
X-543356Y5984444D01*
X-472644Y5984444D01*
X-218644Y5984444D02*
X-218644Y6055156D01*
X-289356Y6055156D01*
X-289356Y5984444D01*
X-218644Y5984444D01*
X35356Y5984444D02*
X35356Y6055156D01*
X-35356Y6055156D01*
X-35356Y5984444D01*
X35356Y5984444D01*
X289356Y5984444D02*
X289356Y6055156D01*
X218644Y6055156D01*
X218644Y5984444D01*
X289356Y5984444D01*
X543356Y5984444D02*
X543356Y6055156D01*
X472644Y6055156D01*
X472644Y5984444D01*
X543356Y5984444D01*
X-2187144Y3012644D02*
X-2187144Y3083356D01*
X-2257856Y3083356D01*
X-2257856Y3012644D01*
X-2187144Y3012644D01*
X-2187144Y2758644D02*
X-2187144Y2829356D01*
X-2257856Y2829356D01*
X-2257856Y2758644D01*
X-2187144Y2758644D01*
X-2187144Y2504644D02*
X-2187144Y2575356D01*
X-2257856Y2575356D01*
X-2257856Y2504644D01*
X-2187144Y2504644D01*
X3256356Y1085444D02*
X3256356Y1156156D01*
X3185644Y1156156D01*
X3185644Y1085444D01*
X3256356Y1085444D01*
X3510356Y1085444D02*
X3510356Y1156156D01*
X3439644Y1156156D01*
X3439644Y1085444D01*
X3510356Y1085444D01*
X3764356Y1085444D02*
X3764356Y1156156D01*
X3693644Y1156156D01*
X3693644Y1085444D01*
X3764356Y1085444D01*
X4018356Y1085444D02*
X4018356Y1156156D01*
X3947644Y1156156D01*
X3947644Y1085444D01*
X4018356Y1085444D01*
X-614644Y-1200356D02*
X-614644Y-1129644D01*
X-685356Y-1129644D01*
X-685356Y-1200356D01*
X-614644Y-1200356D01*
X-614644Y-1454356D02*
X-614644Y-1383644D01*
X-685356Y-1383644D01*
X-685356Y-1454356D01*
X-614644Y-1454356D01*
X-614644Y-1708356D02*
X-614644Y-1637644D01*
X-685356Y-1637644D01*
X-685356Y-1708356D01*
X-614644Y-1708356D01*
X-614644Y-1962356D02*
X-614644Y-1891644D01*
X-685356Y-1891644D01*
X-685356Y-1962356D01*
X-614644Y-1962356D01*
X-34644Y317644D02*
X-34644Y388356D01*
X-105356Y388356D01*
X-105356Y317644D01*
X-34644Y317644D01*
X-34644Y-388356D02*
X-34644Y-317644D01*
X-105356Y-317644D01*
X-105356Y-388356D01*
X-34644Y-388356D01*
X105356Y317644D02*
X105356Y388356D01*
X34644Y388356D01*
X34644Y317644D01*
X105356Y317644D01*
X105356Y-388356D02*
X105356Y-317644D01*
X34644Y-317644D01*
X34644Y-388356D01*
X105356Y-388356D01*
X685356Y-1200356D02*
X685356Y-1129644D01*
X614644Y-1129644D01*
X614644Y-1200356D01*
X685356Y-1200356D01*
X685356Y-1454356D02*
X685356Y-1383644D01*
X614644Y-1383644D01*
X614644Y-1454356D01*
X685356Y-1454356D01*
X685356Y-1708356D02*
X685356Y-1637644D01*
X614644Y-1637644D01*
X614644Y-1708356D01*
X685356Y-1708356D01*
X685356Y-1962356D02*
X685356Y-1891644D01*
X614644Y-1891644D01*
X614644Y-1962356D01*
X685356Y-1962356D01*
X289356Y-1051356D02*
X289356Y-980644D01*
X218644Y-980644D01*
X218644Y-1051356D01*
X289356Y-1051356D01*
X289356Y-1305356D02*
X289356Y-1234644D01*
X218644Y-1234644D01*
X218644Y-1305356D01*
X289356Y-1305356D01*
X289356Y-1559356D02*
X289356Y-1488644D01*
X218644Y-1488644D01*
X218644Y-1559356D01*
X289356Y-1559356D01*
X289356Y-1813356D02*
X289356Y-1742644D01*
X218644Y-1742644D01*
X218644Y-1813356D01*
X289356Y-1813356D01*
X289356Y-2067356D02*
X289356Y-1996644D01*
X218644Y-1996644D01*
X218644Y-2067356D01*
X289356Y-2067356D01*
X289356Y-2321356D02*
X289356Y-2250644D01*
X218644Y-2250644D01*
X218644Y-2321356D01*
X289356Y-2321356D01*
D13*
X-3509350Y-3471075D02*
X-3509350Y-3171075D01*
X-3437921Y-3171075D01*
X-3395064Y-3185361D01*
X-3366493Y-3213932D01*
X-3352207Y-3242504D01*
X-3337921Y-3299647D01*
X-3337921Y-3342504D01*
X-3352207Y-3399647D01*
X-3366493Y-3428218D01*
X-3395064Y-3456789D01*
X-3437921Y-3471075D01*
X-3509350Y-3471075D01*
X-3209350Y-3471075D02*
X-3209350Y-3271075D01*
X-3209350Y-3328218D02*
X-3195064Y-3299647D01*
X-3180779Y-3285361D01*
X-3152207Y-3271075D01*
X-3123636Y-3271075D01*
X-3023636Y-3471075D02*
X-3023636Y-3271075D01*
X-3023636Y-3171075D02*
X-3037921Y-3185361D01*
X-3023636Y-3199647D01*
X-3009350Y-3185361D01*
X-3023636Y-3171075D01*
X-3023636Y-3199647D01*
X-2837921Y-3471075D02*
X-2866493Y-3456789D01*
X-2880779Y-3428218D01*
X-2880779Y-3171075D01*
X-2680779Y-3471075D02*
X-2709350Y-3456789D01*
X-2723636Y-3428218D01*
X-2723636Y-3171075D01*
X-2337921Y-3471075D02*
X-2337921Y-3171075D01*
X-2237921Y-3385361D01*
X-2137921Y-3171075D01*
X-2137921Y-3471075D01*
X-1866493Y-3471075D02*
X-1866493Y-3313932D01*
X-1880779Y-3285361D01*
X-1909350Y-3271075D01*
X-1966493Y-3271075D01*
X-1995064Y-3285361D01*
X-1866493Y-3456789D02*
X-1895064Y-3471075D01*
X-1966493Y-3471075D01*
X-1995064Y-3456789D01*
X-2009350Y-3428218D01*
X-2009350Y-3399647D01*
X-1995064Y-3371075D01*
X-1966493Y-3356789D01*
X-1895064Y-3356789D01*
X-1866493Y-3342504D01*
X-1723636Y-3271075D02*
X-1723636Y-3571075D01*
X-1723636Y-3285361D02*
X-1695064Y-3271075D01*
X-1637921Y-3271075D01*
X-1609350Y-3285361D01*
X-1595064Y-3299647D01*
X-1580779Y-3328218D01*
X-1580779Y-3413932D01*
X-1595064Y-3442504D01*
X-1609350Y-3456789D01*
X-1637921Y-3471075D01*
X-1695064Y-3471075D01*
X-1723636Y-3456789D01*
X-1452207Y-3442504D02*
X-1437921Y-3456789D01*
X-1452207Y-3471075D01*
X-1466493Y-3456789D01*
X-1452207Y-3442504D01*
X-1452207Y-3471075D01*
X-1452207Y-3285361D02*
X-1437921Y-3299647D01*
X-1452207Y-3313932D01*
X-1466493Y-3299647D01*
X-1452207Y-3285361D01*
X-1452207Y-3313932D01*
X-3835779Y-3945361D02*
X-3795779Y-3985361D01*
X-3795779Y-3945361D02*
X-3835779Y-3985361D01*
X-3452207Y-3801075D02*
X-3423636Y-3801075D01*
X-3395064Y-3815361D01*
X-3380779Y-3829647D01*
X-3366493Y-3858218D01*
X-3352207Y-3915361D01*
X-3352207Y-3986789D01*
X-3366493Y-4043932D01*
X-3380779Y-4072504D01*
X-3395064Y-4086789D01*
X-3423636Y-4101075D01*
X-3452207Y-4101075D01*
X-3480779Y-4086789D01*
X-3495064Y-4072504D01*
X-3509350Y-4043932D01*
X-3523636Y-3986789D01*
X-3523636Y-3915361D01*
X-3509350Y-3858218D01*
X-3495064Y-3829647D01*
X-3480779Y-3815361D01*
X-3452207Y-3801075D01*
X-3223636Y-4072504D02*
X-3209350Y-4086789D01*
X-3223636Y-4101075D01*
X-3237921Y-4086789D01*
X-3223636Y-4072504D01*
X-3223636Y-4101075D01*
X-2952207Y-3901075D02*
X-2952207Y-4101075D01*
X-3023636Y-3786789D02*
X-3095064Y-4001075D01*
X-2909350Y-4001075D01*
X-2737921Y-3801075D02*
X-2709350Y-3801075D01*
X-2680779Y-3815361D01*
X-2666493Y-3829647D01*
X-2652207Y-3858218D01*
X-2637921Y-3915361D01*
X-2637921Y-3986789D01*
X-2652207Y-4043932D01*
X-2666493Y-4072504D01*
X-2680779Y-4086789D01*
X-2709350Y-4101075D01*
X-2737921Y-4101075D01*
X-2766493Y-4086789D01*
X-2780779Y-4072504D01*
X-2795064Y-4043932D01*
X-2809350Y-3986789D01*
X-2809350Y-3915361D01*
X-2795064Y-3858218D01*
X-2780779Y-3829647D01*
X-2766493Y-3815361D01*
X-2737921Y-3801075D01*
X-2509350Y-4101075D02*
X-2509350Y-3901075D01*
X-2509350Y-3929647D02*
X-2495064Y-3915361D01*
X-2466493Y-3901075D01*
X-2423636Y-3901075D01*
X-2395064Y-3915361D01*
X-2380779Y-3943932D01*
X-2380779Y-4101075D01*
X-2380779Y-3943932D02*
X-2366493Y-3915361D01*
X-2337921Y-3901075D01*
X-2295064Y-3901075D01*
X-2266493Y-3915361D01*
X-2252207Y-3943932D01*
X-2252207Y-4101075D01*
X-2109350Y-4101075D02*
X-2109350Y-3901075D01*
X-2109350Y-3929647D02*
X-2095064Y-3915361D01*
X-2066493Y-3901075D01*
X-2023636Y-3901075D01*
X-1995064Y-3915361D01*
X-1980779Y-3943932D01*
X-1980779Y-4101075D01*
X-1980779Y-3943932D02*
X-1966493Y-3915361D01*
X-1937921Y-3901075D01*
X-1895064Y-3901075D01*
X-1866493Y-3915361D01*
X-1852207Y-3943932D01*
X-1852207Y-4101075D01*
X-1266493Y-3786789D02*
X-1523636Y-4172504D01*
X-880779Y-3801075D02*
X-852207Y-3801075D01*
X-823636Y-3815361D01*
X-809350Y-3829647D01*
X-795064Y-3858218D01*
X-780779Y-3915361D01*
X-780779Y-3986789D01*
X-795064Y-4043932D01*
X-809350Y-4072504D01*
X-823636Y-4086789D01*
X-852207Y-4101075D01*
X-880779Y-4101075D01*
X-909350Y-4086789D01*
X-923636Y-4072504D01*
X-937921Y-4043932D01*
X-952207Y-3986789D01*
X-952207Y-3915361D01*
X-937921Y-3858218D01*
X-923636Y-3829647D01*
X-909350Y-3815361D01*
X-880779Y-3801075D01*
X-652207Y-4072504D02*
X-637921Y-4086789D01*
X-652207Y-4101075D01*
X-666493Y-4086789D01*
X-652207Y-4072504D01*
X-652207Y-4101075D01*
X-452207Y-3801075D02*
X-423636Y-3801075D01*
X-395064Y-3815361D01*
X-380779Y-3829647D01*
X-366493Y-3858218D01*
X-352207Y-3915361D01*
X-352207Y-3986789D01*
X-366493Y-4043932D01*
X-380779Y-4072504D01*
X-395064Y-4086789D01*
X-423636Y-4101075D01*
X-452207Y-4101075D01*
X-480779Y-4086789D01*
X-495064Y-4072504D01*
X-509350Y-4043932D01*
X-523636Y-3986789D01*
X-523636Y-3915361D01*
X-509350Y-3858218D01*
X-495064Y-3829647D01*
X-480779Y-3815361D01*
X-452207Y-3801075D01*
X-66493Y-4101075D02*
X-237921Y-4101075D01*
X-152207Y-4101075D02*
X-152207Y-3801075D01*
X-180779Y-3843932D01*
X-209350Y-3872504D01*
X-237921Y-3886789D01*
X190650Y-3801075D02*
X133507Y-3801075D01*
X104936Y-3815361D01*
X90650Y-3829647D01*
X62078Y-3872504D01*
X47793Y-3929647D01*
X47793Y-4043932D01*
X62078Y-4072504D01*
X76364Y-4086789D01*
X104936Y-4101075D01*
X162079Y-4101075D01*
X190650Y-4086789D01*
X204936Y-4072504D01*
X219221Y-4043932D01*
X219221Y-3972504D01*
X204936Y-3943932D01*
X190650Y-3929647D01*
X162079Y-3915361D01*
X104936Y-3915361D01*
X76364Y-3929647D01*
X62078Y-3943932D01*
X47793Y-3972504D01*
X333507Y-3801075D02*
X333507Y-3858218D01*
X447793Y-3801075D02*
X447793Y-3858218D01*
X890650Y-4215361D02*
X876364Y-4201075D01*
X847793Y-4158218D01*
X833507Y-4129647D01*
X819221Y-4086789D01*
X804936Y-4015361D01*
X804936Y-3958218D01*
X819221Y-3886789D01*
X833507Y-3843932D01*
X847793Y-3815361D01*
X876364Y-3772504D01*
X890650Y-3758218D01*
X976364Y-3801075D02*
X1176364Y-3801075D01*
X1047793Y-4101075D01*
X1419221Y-3901075D02*
X1419221Y-4101075D01*
X1347793Y-3786789D02*
X1276364Y-4001075D01*
X1462078Y-4001075D01*
X1804936Y-4101075D02*
X1804936Y-3801075D01*
X1933507Y-4101075D02*
X1933507Y-3943932D01*
X1919221Y-3915361D01*
X1890650Y-3901075D01*
X1847793Y-3901075D01*
X1819221Y-3915361D01*
X1804936Y-3929647D01*
X2119221Y-4101075D02*
X2090650Y-4086789D01*
X2076364Y-4072504D01*
X2062078Y-4043932D01*
X2062078Y-3958218D01*
X2076364Y-3929647D01*
X2090650Y-3915361D01*
X2119221Y-3901075D01*
X2162079Y-3901075D01*
X2190650Y-3915361D01*
X2204936Y-3929647D01*
X2219221Y-3958218D01*
X2219221Y-4043932D01*
X2204936Y-4072504D01*
X2190650Y-4086789D01*
X2162079Y-4101075D01*
X2119221Y-4101075D01*
X2390650Y-4101075D02*
X2362079Y-4086789D01*
X2347793Y-4058218D01*
X2347793Y-3801075D01*
X2619221Y-4086789D02*
X2590650Y-4101075D01*
X2533507Y-4101075D01*
X2504936Y-4086789D01*
X2490650Y-4058218D01*
X2490650Y-3943932D01*
X2504936Y-3915361D01*
X2533507Y-3901075D01*
X2590650Y-3901075D01*
X2619221Y-3915361D01*
X2633507Y-3943932D01*
X2633507Y-3972504D01*
X2490650Y-4001075D01*
X2747793Y-4086789D02*
X2776364Y-4101075D01*
X2833507Y-4101075D01*
X2862078Y-4086789D01*
X2876364Y-4058218D01*
X2876364Y-4043932D01*
X2862078Y-4015361D01*
X2833507Y-4001075D01*
X2790650Y-4001075D01*
X2762079Y-3986789D01*
X2747793Y-3958218D01*
X2747793Y-3943932D01*
X2762079Y-3915361D01*
X2790650Y-3901075D01*
X2833507Y-3901075D01*
X2862078Y-3915361D01*
X2976364Y-4215361D02*
X2990650Y-4201075D01*
X3019221Y-4158218D01*
X3033507Y-4129647D01*
X3047793Y-4086789D01*
X3062078Y-4015361D01*
X3062078Y-3958218D01*
X3047793Y-3886789D01*
X3033507Y-3843932D01*
X3019221Y-3815361D01*
X2990650Y-3772504D01*
X2976364Y-3758218D01*
X-3795779Y-4361361D02*
G75*
G03X-3795779Y-4361361I-37500J0D01*
G01*
X-3452207Y-4197075D02*
X-3423636Y-4197075D01*
X-3395064Y-4211361D01*
X-3380779Y-4225647D01*
X-3366493Y-4254218D01*
X-3352207Y-4311361D01*
X-3352207Y-4382789D01*
X-3366493Y-4439932D01*
X-3380779Y-4468504D01*
X-3395064Y-4482789D01*
X-3423636Y-4497075D01*
X-3452207Y-4497075D01*
X-3480779Y-4482789D01*
X-3495064Y-4468504D01*
X-3509350Y-4439932D01*
X-3523636Y-4382789D01*
X-3523636Y-4311361D01*
X-3509350Y-4254218D01*
X-3495064Y-4225647D01*
X-3480779Y-4211361D01*
X-3452207Y-4197075D01*
X-3223636Y-4468504D02*
X-3209350Y-4482789D01*
X-3223636Y-4497075D01*
X-3237921Y-4482789D01*
X-3223636Y-4468504D01*
X-3223636Y-4497075D01*
X-3109350Y-4197075D02*
X-2909350Y-4197075D01*
X-3037921Y-4497075D01*
X-2652207Y-4197075D02*
X-2795064Y-4197075D01*
X-2809350Y-4339932D01*
X-2795064Y-4325647D01*
X-2766493Y-4311361D01*
X-2695064Y-4311361D01*
X-2666493Y-4325647D01*
X-2652207Y-4339932D01*
X-2637921Y-4368504D01*
X-2637921Y-4439932D01*
X-2652207Y-4468504D01*
X-2666493Y-4482789D01*
X-2695064Y-4497075D01*
X-2766493Y-4497075D01*
X-2795064Y-4482789D01*
X-2809350Y-4468504D01*
X-2509350Y-4497075D02*
X-2509350Y-4297075D01*
X-2509350Y-4325647D02*
X-2495064Y-4311361D01*
X-2466493Y-4297075D01*
X-2423636Y-4297075D01*
X-2395064Y-4311361D01*
X-2380779Y-4339932D01*
X-2380779Y-4497075D01*
X-2380779Y-4339932D02*
X-2366493Y-4311361D01*
X-2337921Y-4297075D01*
X-2295064Y-4297075D01*
X-2266493Y-4311361D01*
X-2252207Y-4339932D01*
X-2252207Y-4497075D01*
X-2109350Y-4497075D02*
X-2109350Y-4297075D01*
X-2109350Y-4325647D02*
X-2095064Y-4311361D01*
X-2066493Y-4297075D01*
X-2023636Y-4297075D01*
X-1995064Y-4311361D01*
X-1980779Y-4339932D01*
X-1980779Y-4497075D01*
X-1980779Y-4339932D02*
X-1966493Y-4311361D01*
X-1937921Y-4297075D01*
X-1895064Y-4297075D01*
X-1866493Y-4311361D01*
X-1852207Y-4339932D01*
X-1852207Y-4497075D01*
X-1266493Y-4182789D02*
X-1523636Y-4568504D01*
X-880779Y-4197075D02*
X-852207Y-4197075D01*
X-823636Y-4211361D01*
X-809350Y-4225647D01*
X-795064Y-4254218D01*
X-780779Y-4311361D01*
X-780779Y-4382789D01*
X-795064Y-4439932D01*
X-809350Y-4468504D01*
X-823636Y-4482789D01*
X-852207Y-4497075D01*
X-880779Y-4497075D01*
X-909350Y-4482789D01*
X-923636Y-4468504D01*
X-937921Y-4439932D01*
X-952207Y-4382789D01*
X-952207Y-4311361D01*
X-937921Y-4254218D01*
X-923636Y-4225647D01*
X-909350Y-4211361D01*
X-880779Y-4197075D01*
X-652207Y-4468504D02*
X-637921Y-4482789D01*
X-652207Y-4497075D01*
X-666493Y-4482789D01*
X-652207Y-4468504D01*
X-652207Y-4497075D01*
X-452207Y-4197075D02*
X-423636Y-4197075D01*
X-395064Y-4211361D01*
X-380779Y-4225647D01*
X-366493Y-4254218D01*
X-352207Y-4311361D01*
X-352207Y-4382789D01*
X-366493Y-4439932D01*
X-380779Y-4468504D01*
X-395064Y-4482789D01*
X-423636Y-4497075D01*
X-452207Y-4497075D01*
X-480779Y-4482789D01*
X-495064Y-4468504D01*
X-509350Y-4439932D01*
X-523636Y-4382789D01*
X-523636Y-4311361D01*
X-509350Y-4254218D01*
X-495064Y-4225647D01*
X-480779Y-4211361D01*
X-452207Y-4197075D01*
X-252207Y-4197075D02*
X-66493Y-4197075D01*
X-166493Y-4311361D01*
X-123636Y-4311361D01*
X-95064Y-4325647D01*
X-80779Y-4339932D01*
X-66493Y-4368504D01*
X-66493Y-4439932D01*
X-80779Y-4468504D01*
X-95064Y-4482789D01*
X-123636Y-4497075D01*
X-209350Y-4497075D01*
X-237921Y-4482789D01*
X-252207Y-4468504D01*
X119221Y-4197075D02*
X147793Y-4197075D01*
X176364Y-4211361D01*
X190650Y-4225647D01*
X204936Y-4254218D01*
X219221Y-4311361D01*
X219221Y-4382789D01*
X204936Y-4439932D01*
X190650Y-4468504D01*
X176364Y-4482789D01*
X147793Y-4497075D01*
X119221Y-4497075D01*
X90650Y-4482789D01*
X76364Y-4468504D01*
X62078Y-4439932D01*
X47793Y-4382789D01*
X47793Y-4311361D01*
X62078Y-4254218D01*
X76364Y-4225647D01*
X90650Y-4211361D01*
X119221Y-4197075D01*
X333507Y-4197075D02*
X333507Y-4254218D01*
X447793Y-4197075D02*
X447793Y-4254218D01*
X890650Y-4611361D02*
X876364Y-4597075D01*
X847793Y-4554218D01*
X833507Y-4525647D01*
X819221Y-4482789D01*
X804936Y-4411361D01*
X804936Y-4354218D01*
X819221Y-4282789D01*
X833507Y-4239932D01*
X847793Y-4211361D01*
X876364Y-4168504D01*
X890650Y-4154218D01*
X976364Y-4197075D02*
X1162079Y-4197075D01*
X1062079Y-4311361D01*
X1104936Y-4311361D01*
X1133507Y-4325647D01*
X1147793Y-4339932D01*
X1162079Y-4368504D01*
X1162079Y-4439932D01*
X1147793Y-4468504D01*
X1133507Y-4482789D01*
X1104936Y-4497075D01*
X1019221Y-4497075D01*
X990650Y-4482789D01*
X976364Y-4468504D01*
X1519221Y-4497075D02*
X1519221Y-4197075D01*
X1647793Y-4497075D02*
X1647793Y-4339932D01*
X1633507Y-4311361D01*
X1604936Y-4297075D01*
X1562078Y-4297075D01*
X1533507Y-4311361D01*
X1519221Y-4325647D01*
X1833507Y-4497075D02*
X1804936Y-4482789D01*
X1790650Y-4468504D01*
X1776364Y-4439932D01*
X1776364Y-4354218D01*
X1790650Y-4325647D01*
X1804936Y-4311361D01*
X1833507Y-4297075D01*
X1876364Y-4297075D01*
X1904936Y-4311361D01*
X1919221Y-4325647D01*
X1933507Y-4354218D01*
X1933507Y-4439932D01*
X1919221Y-4468504D01*
X1904936Y-4482789D01*
X1876364Y-4497075D01*
X1833507Y-4497075D01*
X2104936Y-4497075D02*
X2076364Y-4482789D01*
X2062078Y-4454218D01*
X2062078Y-4197075D01*
X2333507Y-4482789D02*
X2304936Y-4497075D01*
X2247793Y-4497075D01*
X2219221Y-4482789D01*
X2204936Y-4454218D01*
X2204936Y-4339932D01*
X2219221Y-4311361D01*
X2247793Y-4297075D01*
X2304936Y-4297075D01*
X2333507Y-4311361D01*
X2347793Y-4339932D01*
X2347793Y-4368504D01*
X2204936Y-4397075D01*
X2462079Y-4482789D02*
X2490650Y-4497075D01*
X2547793Y-4497075D01*
X2576364Y-4482789D01*
X2590650Y-4454218D01*
X2590650Y-4439932D01*
X2576364Y-4411361D01*
X2547793Y-4397075D01*
X2504936Y-4397075D01*
X2476364Y-4382789D01*
X2462079Y-4354218D01*
X2462079Y-4339932D01*
X2476364Y-4311361D01*
X2504936Y-4297075D01*
X2547793Y-4297075D01*
X2576364Y-4311361D01*
X2690650Y-4611361D02*
X2704936Y-4597075D01*
X2733507Y-4554218D01*
X2747793Y-4525647D01*
X2762079Y-4482789D01*
X2776364Y-4411361D01*
X2776364Y-4354218D01*
X2762079Y-4282789D01*
X2747793Y-4239932D01*
X2733507Y-4211361D01*
X2704936Y-4168504D01*
X2690650Y-4154218D01*
X-3840779Y-4712361D02*
X-3840779Y-4802361D01*
X-3885779Y-4757361D02*
X-3795779Y-4757361D01*
X-3452207Y-4593075D02*
X-3423636Y-4593075D01*
X-3395064Y-4607361D01*
X-3380779Y-4621647D01*
X-3366493Y-4650218D01*
X-3352207Y-4707361D01*
X-3352207Y-4778789D01*
X-3366493Y-4835932D01*
X-3380779Y-4864504D01*
X-3395064Y-4878789D01*
X-3423636Y-4893075D01*
X-3452207Y-4893075D01*
X-3480779Y-4878789D01*
X-3495064Y-4864504D01*
X-3509350Y-4835932D01*
X-3523636Y-4778789D01*
X-3523636Y-4707361D01*
X-3509350Y-4650218D01*
X-3495064Y-4621647D01*
X-3480779Y-4607361D01*
X-3452207Y-4593075D01*
X-3223636Y-4864504D02*
X-3209350Y-4878789D01*
X-3223636Y-4893075D01*
X-3237921Y-4878789D01*
X-3223636Y-4864504D01*
X-3223636Y-4893075D01*
X-3066493Y-4893075D02*
X-3009350Y-4893075D01*
X-2980779Y-4878789D01*
X-2966493Y-4864504D01*
X-2937921Y-4821647D01*
X-2923636Y-4764504D01*
X-2923636Y-4650218D01*
X-2937921Y-4621647D01*
X-2952207Y-4607361D01*
X-2980779Y-4593075D01*
X-3037921Y-4593075D01*
X-3066493Y-4607361D01*
X-3080779Y-4621647D01*
X-3095064Y-4650218D01*
X-3095064Y-4721647D01*
X-3080779Y-4750218D01*
X-3066493Y-4764504D01*
X-3037921Y-4778789D01*
X-2980779Y-4778789D01*
X-2952207Y-4764504D01*
X-2937921Y-4750218D01*
X-2923636Y-4721647D01*
X-2737921Y-4593075D02*
X-2709350Y-4593075D01*
X-2680779Y-4607361D01*
X-2666493Y-4621647D01*
X-2652207Y-4650218D01*
X-2637921Y-4707361D01*
X-2637921Y-4778789D01*
X-2652207Y-4835932D01*
X-2666493Y-4864504D01*
X-2680779Y-4878789D01*
X-2709350Y-4893075D01*
X-2737921Y-4893075D01*
X-2766493Y-4878789D01*
X-2780779Y-4864504D01*
X-2795064Y-4835932D01*
X-2809350Y-4778789D01*
X-2809350Y-4707361D01*
X-2795064Y-4650218D01*
X-2780779Y-4621647D01*
X-2766493Y-4607361D01*
X-2737921Y-4593075D01*
X-2509350Y-4893075D02*
X-2509350Y-4693075D01*
X-2509350Y-4721647D02*
X-2495064Y-4707361D01*
X-2466493Y-4693075D01*
X-2423636Y-4693075D01*
X-2395064Y-4707361D01*
X-2380779Y-4735932D01*
X-2380779Y-4893075D01*
X-2380779Y-4735932D02*
X-2366493Y-4707361D01*
X-2337921Y-4693075D01*
X-2295064Y-4693075D01*
X-2266493Y-4707361D01*
X-2252207Y-4735932D01*
X-2252207Y-4893075D01*
X-2109350Y-4893075D02*
X-2109350Y-4693075D01*
X-2109350Y-4721647D02*
X-2095064Y-4707361D01*
X-2066493Y-4693075D01*
X-2023636Y-4693075D01*
X-1995064Y-4707361D01*
X-1980779Y-4735932D01*
X-1980779Y-4893075D01*
X-1980779Y-4735932D02*
X-1966493Y-4707361D01*
X-1937921Y-4693075D01*
X-1895064Y-4693075D01*
X-1866493Y-4707361D01*
X-1852207Y-4735932D01*
X-1852207Y-4893075D01*
X-1266493Y-4578789D02*
X-1523636Y-4964504D01*
X-880779Y-4593075D02*
X-852207Y-4593075D01*
X-823636Y-4607361D01*
X-809350Y-4621647D01*
X-795064Y-4650218D01*
X-780779Y-4707361D01*
X-780779Y-4778789D01*
X-795064Y-4835932D01*
X-809350Y-4864504D01*
X-823636Y-4878789D01*
X-852207Y-4893075D01*
X-880779Y-4893075D01*
X-909350Y-4878789D01*
X-923636Y-4864504D01*
X-937921Y-4835932D01*
X-952207Y-4778789D01*
X-952207Y-4707361D01*
X-937921Y-4650218D01*
X-923636Y-4621647D01*
X-909350Y-4607361D01*
X-880779Y-4593075D01*
X-652207Y-4864504D02*
X-637921Y-4878789D01*
X-652207Y-4893075D01*
X-666493Y-4878789D01*
X-652207Y-4864504D01*
X-652207Y-4893075D01*
X-452207Y-4593075D02*
X-423636Y-4593075D01*
X-395064Y-4607361D01*
X-380779Y-4621647D01*
X-366493Y-4650218D01*
X-352207Y-4707361D01*
X-352207Y-4778789D01*
X-366493Y-4835932D01*
X-380779Y-4864504D01*
X-395064Y-4878789D01*
X-423636Y-4893075D01*
X-452207Y-4893075D01*
X-480779Y-4878789D01*
X-495064Y-4864504D01*
X-509350Y-4835932D01*
X-523636Y-4778789D01*
X-523636Y-4707361D01*
X-509350Y-4650218D01*
X-495064Y-4621647D01*
X-480779Y-4607361D01*
X-452207Y-4593075D01*
X-252207Y-4593075D02*
X-66493Y-4593075D01*
X-166493Y-4707361D01*
X-123636Y-4707361D01*
X-95064Y-4721647D01*
X-80779Y-4735932D01*
X-66493Y-4764504D01*
X-66493Y-4835932D01*
X-80779Y-4864504D01*
X-95064Y-4878789D01*
X-123636Y-4893075D01*
X-209350Y-4893075D01*
X-237921Y-4878789D01*
X-252207Y-4864504D01*
X204936Y-4593075D02*
X62078Y-4593075D01*
X47793Y-4735932D01*
X62078Y-4721647D01*
X90650Y-4707361D01*
X162079Y-4707361D01*
X190650Y-4721647D01*
X204936Y-4735932D01*
X219221Y-4764504D01*
X219221Y-4835932D01*
X204936Y-4864504D01*
X190650Y-4878789D01*
X162079Y-4893075D01*
X90650Y-4893075D01*
X62078Y-4878789D01*
X47793Y-4864504D01*
X333507Y-4593075D02*
X333507Y-4650218D01*
X447793Y-4593075D02*
X447793Y-4650218D01*
X890650Y-5007361D02*
X876364Y-4993075D01*
X847793Y-4950218D01*
X833507Y-4921647D01*
X819221Y-4878789D01*
X804936Y-4807361D01*
X804936Y-4750218D01*
X819221Y-4678789D01*
X833507Y-4635932D01*
X847793Y-4607361D01*
X876364Y-4564504D01*
X890650Y-4550218D01*
X1162079Y-4893075D02*
X990650Y-4893075D01*
X1076364Y-4893075D02*
X1076364Y-4593075D01*
X1047793Y-4635932D01*
X1019221Y-4664504D01*
X990650Y-4678789D01*
X1333507Y-4721647D02*
X1304936Y-4707361D01*
X1290650Y-4693075D01*
X1276364Y-4664504D01*
X1276364Y-4650218D01*
X1290650Y-4621647D01*
X1304936Y-4607361D01*
X1333507Y-4593075D01*
X1390650Y-4593075D01*
X1419221Y-4607361D01*
X1433507Y-4621647D01*
X1447793Y-4650218D01*
X1447793Y-4664504D01*
X1433507Y-4693075D01*
X1419221Y-4707361D01*
X1390650Y-4721647D01*
X1333507Y-4721647D01*
X1304936Y-4735932D01*
X1290650Y-4750218D01*
X1276364Y-4778789D01*
X1276364Y-4835932D01*
X1290650Y-4864504D01*
X1304936Y-4878789D01*
X1333507Y-4893075D01*
X1390650Y-4893075D01*
X1419221Y-4878789D01*
X1433507Y-4864504D01*
X1447793Y-4835932D01*
X1447793Y-4778789D01*
X1433507Y-4750218D01*
X1419221Y-4735932D01*
X1390650Y-4721647D01*
X1804936Y-4893075D02*
X1804936Y-4593075D01*
X1933507Y-4893075D02*
X1933507Y-4735932D01*
X1919221Y-4707361D01*
X1890650Y-4693075D01*
X1847793Y-4693075D01*
X1819221Y-4707361D01*
X1804936Y-4721647D01*
X2119221Y-4893075D02*
X2090650Y-4878789D01*
X2076364Y-4864504D01*
X2062078Y-4835932D01*
X2062078Y-4750218D01*
X2076364Y-4721647D01*
X2090650Y-4707361D01*
X2119221Y-4693075D01*
X2162079Y-4693075D01*
X2190650Y-4707361D01*
X2204936Y-4721647D01*
X2219221Y-4750218D01*
X2219221Y-4835932D01*
X2204936Y-4864504D01*
X2190650Y-4878789D01*
X2162079Y-4893075D01*
X2119221Y-4893075D01*
X2390650Y-4893075D02*
X2362079Y-4878789D01*
X2347793Y-4850218D01*
X2347793Y-4593075D01*
X2619221Y-4878789D02*
X2590650Y-4893075D01*
X2533507Y-4893075D01*
X2504936Y-4878789D01*
X2490650Y-4850218D01*
X2490650Y-4735932D01*
X2504936Y-4707361D01*
X2533507Y-4693075D01*
X2590650Y-4693075D01*
X2619221Y-4707361D01*
X2633507Y-4735932D01*
X2633507Y-4764504D01*
X2490650Y-4793075D01*
X2747793Y-4878789D02*
X2776364Y-4893075D01*
X2833507Y-4893075D01*
X2862078Y-4878789D01*
X2876364Y-4850218D01*
X2876364Y-4835932D01*
X2862078Y-4807361D01*
X2833507Y-4793075D01*
X2790650Y-4793075D01*
X2762079Y-4778789D01*
X2747793Y-4750218D01*
X2747793Y-4735932D01*
X2762079Y-4707361D01*
X2790650Y-4693075D01*
X2833507Y-4693075D01*
X2862078Y-4707361D01*
X2976364Y-5007361D02*
X2990650Y-4993075D01*
X3019221Y-4950218D01*
X3033507Y-4921647D01*
X3047793Y-4878789D01*
X3062078Y-4807361D01*
X3062078Y-4750218D01*
X3047793Y-4678789D01*
X3033507Y-4635932D01*
X3019221Y-4607361D01*
X2990650Y-4564504D01*
X2976364Y-4550218D01*
X-3810423Y-5188717D02*
X-3810423Y-5118005D01*
X-3881134Y-5118005D01*
X-3881134Y-5188717D01*
X-3810423Y-5188717D01*
X-3352207Y-5289075D02*
X-3523636Y-5289075D01*
X-3437921Y-5289075D02*
X-3437921Y-4989075D01*
X-3466493Y-5031932D01*
X-3495064Y-5060504D01*
X-3523636Y-5074789D01*
X-3223636Y-5260504D02*
X-3209350Y-5274789D01*
X-3223636Y-5289075D01*
X-3237921Y-5274789D01*
X-3223636Y-5260504D01*
X-3223636Y-5289075D01*
X-3023636Y-4989075D02*
X-2995064Y-4989075D01*
X-2966493Y-5003361D01*
X-2952207Y-5017647D01*
X-2937921Y-5046218D01*
X-2923636Y-5103361D01*
X-2923636Y-5174789D01*
X-2937921Y-5231932D01*
X-2952207Y-5260504D01*
X-2966493Y-5274789D01*
X-2995064Y-5289075D01*
X-3023636Y-5289075D01*
X-3052207Y-5274789D01*
X-3066493Y-5260504D01*
X-3080779Y-5231932D01*
X-3095064Y-5174789D01*
X-3095064Y-5103361D01*
X-3080779Y-5046218D01*
X-3066493Y-5017647D01*
X-3052207Y-5003361D01*
X-3023636Y-4989075D01*
X-2737921Y-4989075D02*
X-2709350Y-4989075D01*
X-2680779Y-5003361D01*
X-2666493Y-5017647D01*
X-2652207Y-5046218D01*
X-2637921Y-5103361D01*
X-2637921Y-5174789D01*
X-2652207Y-5231932D01*
X-2666493Y-5260504D01*
X-2680779Y-5274789D01*
X-2709350Y-5289075D01*
X-2737921Y-5289075D01*
X-2766493Y-5274789D01*
X-2780779Y-5260504D01*
X-2795064Y-5231932D01*
X-2809350Y-5174789D01*
X-2809350Y-5103361D01*
X-2795064Y-5046218D01*
X-2780779Y-5017647D01*
X-2766493Y-5003361D01*
X-2737921Y-4989075D01*
X-2509350Y-5289075D02*
X-2509350Y-5089075D01*
X-2509350Y-5117647D02*
X-2495064Y-5103361D01*
X-2466493Y-5089075D01*
X-2423636Y-5089075D01*
X-2395064Y-5103361D01*
X-2380779Y-5131932D01*
X-2380779Y-5289075D01*
X-2380779Y-5131932D02*
X-2366493Y-5103361D01*
X-2337921Y-5089075D01*
X-2295064Y-5089075D01*
X-2266493Y-5103361D01*
X-2252207Y-5131932D01*
X-2252207Y-5289075D01*
X-2109350Y-5289075D02*
X-2109350Y-5089075D01*
X-2109350Y-5117647D02*
X-2095064Y-5103361D01*
X-2066493Y-5089075D01*
X-2023636Y-5089075D01*
X-1995064Y-5103361D01*
X-1980779Y-5131932D01*
X-1980779Y-5289075D01*
X-1980779Y-5131932D02*
X-1966493Y-5103361D01*
X-1937921Y-5089075D01*
X-1895064Y-5089075D01*
X-1866493Y-5103361D01*
X-1852207Y-5131932D01*
X-1852207Y-5289075D01*
X-1266493Y-4974789D02*
X-1523636Y-5360504D01*
X-880779Y-4989075D02*
X-852207Y-4989075D01*
X-823636Y-5003361D01*
X-809350Y-5017647D01*
X-795064Y-5046218D01*
X-780779Y-5103361D01*
X-780779Y-5174789D01*
X-795064Y-5231932D01*
X-809350Y-5260504D01*
X-823636Y-5274789D01*
X-852207Y-5289075D01*
X-880779Y-5289075D01*
X-909350Y-5274789D01*
X-923636Y-5260504D01*
X-937921Y-5231932D01*
X-952207Y-5174789D01*
X-952207Y-5103361D01*
X-937921Y-5046218D01*
X-923636Y-5017647D01*
X-909350Y-5003361D01*
X-880779Y-4989075D01*
X-652207Y-5260504D02*
X-637921Y-5274789D01*
X-652207Y-5289075D01*
X-666493Y-5274789D01*
X-652207Y-5260504D01*
X-652207Y-5289075D01*
X-452207Y-4989075D02*
X-423636Y-4989075D01*
X-395064Y-5003361D01*
X-380779Y-5017647D01*
X-366493Y-5046218D01*
X-352207Y-5103361D01*
X-352207Y-5174789D01*
X-366493Y-5231932D01*
X-380779Y-5260504D01*
X-395064Y-5274789D01*
X-423636Y-5289075D01*
X-452207Y-5289075D01*
X-480779Y-5274789D01*
X-495064Y-5260504D01*
X-509350Y-5231932D01*
X-523636Y-5174789D01*
X-523636Y-5103361D01*
X-509350Y-5046218D01*
X-495064Y-5017647D01*
X-480779Y-5003361D01*
X-452207Y-4989075D01*
X-252207Y-4989075D02*
X-66493Y-4989075D01*
X-166493Y-5103361D01*
X-123636Y-5103361D01*
X-95064Y-5117647D01*
X-80779Y-5131932D01*
X-66493Y-5160504D01*
X-66493Y-5231932D01*
X-80779Y-5260504D01*
X-95064Y-5274789D01*
X-123636Y-5289075D01*
X-209350Y-5289075D01*
X-237921Y-5274789D01*
X-252207Y-5260504D01*
X76364Y-5289075D02*
X133507Y-5289075D01*
X162079Y-5274789D01*
X176364Y-5260504D01*
X204936Y-5217647D01*
X219221Y-5160504D01*
X219221Y-5046218D01*
X204936Y-5017647D01*
X190650Y-5003361D01*
X162079Y-4989075D01*
X104936Y-4989075D01*
X76364Y-5003361D01*
X62078Y-5017647D01*
X47793Y-5046218D01*
X47793Y-5117647D01*
X62078Y-5146218D01*
X76364Y-5160504D01*
X104936Y-5174789D01*
X162079Y-5174789D01*
X190650Y-5160504D01*
X204936Y-5146218D01*
X219221Y-5117647D01*
X333507Y-4989075D02*
X333507Y-5046218D01*
X447793Y-4989075D02*
X447793Y-5046218D01*
X890650Y-5403361D02*
X876364Y-5389075D01*
X847793Y-5346218D01*
X833507Y-5317647D01*
X819221Y-5274789D01*
X804936Y-5203361D01*
X804936Y-5146218D01*
X819221Y-5074789D01*
X833507Y-5031932D01*
X847793Y-5003361D01*
X876364Y-4960504D01*
X890650Y-4946218D01*
X976364Y-4989075D02*
X1162079Y-4989075D01*
X1062079Y-5103361D01*
X1104936Y-5103361D01*
X1133507Y-5117647D01*
X1147793Y-5131932D01*
X1162079Y-5160504D01*
X1162079Y-5231932D01*
X1147793Y-5260504D01*
X1133507Y-5274789D01*
X1104936Y-5289075D01*
X1019221Y-5289075D01*
X990650Y-5274789D01*
X976364Y-5260504D01*
X1419221Y-5089075D02*
X1419221Y-5289075D01*
X1347793Y-4974789D02*
X1276364Y-5189075D01*
X1462078Y-5189075D01*
X1804936Y-5289075D02*
X1804936Y-4989075D01*
X1933507Y-5289075D02*
X1933507Y-5131932D01*
X1919221Y-5103361D01*
X1890650Y-5089075D01*
X1847793Y-5089075D01*
X1819221Y-5103361D01*
X1804936Y-5117647D01*
X2119221Y-5289075D02*
X2090650Y-5274789D01*
X2076364Y-5260504D01*
X2062078Y-5231932D01*
X2062078Y-5146218D01*
X2076364Y-5117647D01*
X2090650Y-5103361D01*
X2119221Y-5089075D01*
X2162079Y-5089075D01*
X2190650Y-5103361D01*
X2204936Y-5117647D01*
X2219221Y-5146218D01*
X2219221Y-5231932D01*
X2204936Y-5260504D01*
X2190650Y-5274789D01*
X2162079Y-5289075D01*
X2119221Y-5289075D01*
X2390650Y-5289075D02*
X2362079Y-5274789D01*
X2347793Y-5246218D01*
X2347793Y-4989075D01*
X2619221Y-5274789D02*
X2590650Y-5289075D01*
X2533507Y-5289075D01*
X2504936Y-5274789D01*
X2490650Y-5246218D01*
X2490650Y-5131932D01*
X2504936Y-5103361D01*
X2533507Y-5089075D01*
X2590650Y-5089075D01*
X2619221Y-5103361D01*
X2633507Y-5131932D01*
X2633507Y-5160504D01*
X2490650Y-5189075D01*
X2747793Y-5274789D02*
X2776364Y-5289075D01*
X2833507Y-5289075D01*
X2862078Y-5274789D01*
X2876364Y-5246218D01*
X2876364Y-5231932D01*
X2862078Y-5203361D01*
X2833507Y-5189075D01*
X2790650Y-5189075D01*
X2762079Y-5174789D01*
X2747793Y-5146218D01*
X2747793Y-5131932D01*
X2762079Y-5103361D01*
X2790650Y-5089075D01*
X2833507Y-5089075D01*
X2862078Y-5103361D01*
X2976364Y-5403361D02*
X2990650Y-5389075D01*
X3019221Y-5346218D01*
X3033507Y-5317647D01*
X3047793Y-5274789D01*
X3062078Y-5203361D01*
X3062078Y-5146218D01*
X3047793Y-5074789D01*
X3033507Y-5031932D01*
X3019221Y-5003361D01*
X2990650Y-4960504D01*
X2976364Y-4946218D01*
M02*
