%TF.GenerationSoftware,KiCad,Pcbnew,no-vcs-found-0b1eb56~60~ubuntu17.04.1*%
%TF.CreationDate,2017-11-05T23:15:27+01:00*%
%TF.ProjectId,perenquen,706572656E7175656E2E6B696361645F,rev?*%
%TF.SameCoordinates,Original*%
%TF.FileFunction,Copper,L2,Bot,Signal*%
%TF.FilePolarity,Positive*%
%FSLAX46Y46*%
G04 Gerber Fmt 4.6, Leading zero omitted, Abs format (unit mm)*
G04 Created by KiCad (PCBNEW no-vcs-found-0b1eb56~60~ubuntu17.04.1) date Sun Nov  5 23:15:27 2017*
%MOMM*%
%LPD*%
G01*
G04 APERTURE LIST*
%TA.AperFunction,NonConductor*%
%ADD10C,0.300000*%
%TD*%
%TA.AperFunction,ComponentPad*%
%ADD11C,2.000000*%
%TD*%
%TA.AperFunction,Conductor*%
%ADD12C,0.100000*%
%TD*%
%TA.AperFunction,ComponentPad*%
%ADD13C,2.500000*%
%TD*%
%TA.AperFunction,ComponentPad*%
%ADD14R,1.700000X1.700000*%
%TD*%
%TA.AperFunction,ComponentPad*%
%ADD15O,1.700000X1.700000*%
%TD*%
%TA.AperFunction,ComponentPad*%
%ADD16O,1.700000X1.200000*%
%TD*%
%TA.AperFunction,ComponentPad*%
%ADD17R,1.700000X1.200000*%
%TD*%
%TA.AperFunction,ComponentPad*%
%ADD18C,1.800000*%
%TD*%
%TA.AperFunction,ComponentPad*%
%ADD19R,1.800000X1.800000*%
%TD*%
%TA.AperFunction,ViaPad*%
%ADD20C,0.800000*%
%TD*%
%TA.AperFunction,Conductor*%
%ADD21C,0.500000*%
%TD*%
%TA.AperFunction,Conductor*%
%ADD22C,1.000000*%
%TD*%
%TA.AperFunction,Conductor*%
%ADD23C,0.300000*%
%TD*%
%TA.AperFunction,Conductor*%
%ADD24C,0.254000*%
%TD*%
G04 APERTURE END LIST*
D10*
X-1993000Y-26454571D02*
X-1993000Y-24954571D01*
X-2564428Y-24954571D01*
X-2707285Y-25026000D01*
X-2778714Y-25097428D01*
X-2850142Y-25240285D01*
X-2850142Y-25454571D01*
X-2778714Y-25597428D01*
X-2707285Y-25668857D01*
X-2564428Y-25740285D01*
X-1993000Y-25740285D01*
X-4064428Y-26383142D02*
X-3921571Y-26454571D01*
X-3635857Y-26454571D01*
X-3493000Y-26383142D01*
X-3421571Y-26240285D01*
X-3421571Y-25668857D01*
X-3493000Y-25526000D01*
X-3635857Y-25454571D01*
X-3921571Y-25454571D01*
X-4064428Y-25526000D01*
X-4135857Y-25668857D01*
X-4135857Y-25811714D01*
X-3421571Y-25954571D01*
X-4778714Y-26454571D02*
X-4778714Y-25454571D01*
X-4778714Y-25740285D02*
X-4850142Y-25597428D01*
X-4921571Y-25526000D01*
X-5064428Y-25454571D01*
X-5207285Y-25454571D01*
X-6278714Y-26383142D02*
X-6135857Y-26454571D01*
X-5850142Y-26454571D01*
X-5707285Y-26383142D01*
X-5635857Y-26240285D01*
X-5635857Y-25668857D01*
X-5707285Y-25526000D01*
X-5850142Y-25454571D01*
X-6135857Y-25454571D01*
X-6278714Y-25526000D01*
X-6350142Y-25668857D01*
X-6350142Y-25811714D01*
X-5635857Y-25954571D01*
X-6993000Y-25454571D02*
X-6993000Y-26454571D01*
X-6993000Y-25597428D02*
X-7064428Y-25526000D01*
X-7207285Y-25454571D01*
X-7421571Y-25454571D01*
X-7564428Y-25526000D01*
X-7635857Y-25668857D01*
X-7635857Y-26454571D01*
X-8993000Y-25454571D02*
X-8993000Y-26954571D01*
X-8993000Y-26383142D02*
X-8850142Y-26454571D01*
X-8564428Y-26454571D01*
X-8421571Y-26383142D01*
X-8350142Y-26311714D01*
X-8278714Y-26168857D01*
X-8278714Y-25740285D01*
X-8350142Y-25597428D01*
X-8421571Y-25526000D01*
X-8564428Y-25454571D01*
X-8850142Y-25454571D01*
X-8993000Y-25526000D01*
X-10350142Y-25454571D02*
X-10350142Y-26454571D01*
X-9707285Y-25454571D02*
X-9707285Y-26240285D01*
X-9778714Y-26383142D01*
X-9921571Y-26454571D01*
X-10135857Y-26454571D01*
X-10278714Y-26383142D01*
X-10350142Y-26311714D01*
X-11635857Y-26383142D02*
X-11493000Y-26454571D01*
X-11207285Y-26454571D01*
X-11064428Y-26383142D01*
X-10993000Y-26240285D01*
X-10993000Y-25668857D01*
X-11064428Y-25526000D01*
X-11207285Y-25454571D01*
X-11493000Y-25454571D01*
X-11635857Y-25526000D01*
X-11707285Y-25668857D01*
X-11707285Y-25811714D01*
X-10993000Y-25954571D01*
X-11493000Y-24883142D02*
X-11278714Y-25097428D01*
X-12350142Y-25454571D02*
X-12350142Y-26454571D01*
X-12350142Y-25597428D02*
X-12421571Y-25526000D01*
X-12564428Y-25454571D01*
X-12778714Y-25454571D01*
X-12921571Y-25526000D01*
X-12993000Y-25668857D01*
X-12993000Y-26454571D01*
X1649857Y-27504571D02*
X1649857Y-28576000D01*
X1721285Y-28790285D01*
X1864142Y-28933142D01*
X2078428Y-29004571D01*
X2221285Y-29004571D01*
X435571Y-28218857D02*
X221285Y-28290285D01*
X149857Y-28361714D01*
X78428Y-28504571D01*
X78428Y-28718857D01*
X149857Y-28861714D01*
X221285Y-28933142D01*
X364142Y-29004571D01*
X935571Y-29004571D01*
X935571Y-27504571D01*
X435571Y-27504571D01*
X292714Y-27576000D01*
X221285Y-27647428D01*
X149857Y-27790285D01*
X149857Y-27933142D01*
X221285Y-28076000D01*
X292714Y-28147428D01*
X435571Y-28218857D01*
X935571Y-28218857D01*
X-493000Y-28933142D02*
X-707285Y-29004571D01*
X-1064428Y-29004571D01*
X-1207285Y-28933142D01*
X-1278714Y-28861714D01*
X-1350142Y-28718857D01*
X-1350142Y-28576000D01*
X-1278714Y-28433142D01*
X-1207285Y-28361714D01*
X-1064428Y-28290285D01*
X-778714Y-28218857D01*
X-635857Y-28147428D01*
X-564428Y-28076000D01*
X-493000Y-27933142D01*
X-493000Y-27790285D01*
X-564428Y-27647428D01*
X-635857Y-27576000D01*
X-778714Y-27504571D01*
X-1135857Y-27504571D01*
X-1350142Y-27576000D01*
X-1992999Y-28861714D02*
X-2064428Y-28933142D01*
X-1992999Y-29004571D01*
X-1921571Y-28933142D01*
X-1992999Y-28861714D01*
X-1992999Y-29004571D01*
X-4135857Y-27504571D02*
X-4421571Y-27504571D01*
X-4564428Y-27576000D01*
X-4707285Y-27718857D01*
X-4778714Y-28004571D01*
X-4778714Y-28504571D01*
X-4707285Y-28790285D01*
X-4564428Y-28933142D01*
X-4421571Y-29004571D01*
X-4135857Y-29004571D01*
X-3993000Y-28933142D01*
X-3850142Y-28790285D01*
X-3778714Y-28504571D01*
X-3778714Y-28004571D01*
X-3850142Y-27718857D01*
X-3993000Y-27576000D01*
X-4135857Y-27504571D01*
X-5350142Y-28933142D02*
X-5564428Y-29004571D01*
X-5921571Y-29004571D01*
X-6064428Y-28933142D01*
X-6135857Y-28861714D01*
X-6207285Y-28718857D01*
X-6207285Y-28576000D01*
X-6135857Y-28433142D01*
X-6064428Y-28361714D01*
X-5921571Y-28290285D01*
X-5635857Y-28218857D01*
X-5493000Y-28147428D01*
X-5421571Y-28076000D01*
X-5350142Y-27933142D01*
X-5350142Y-27790285D01*
X-5421571Y-27647428D01*
X-5493000Y-27576000D01*
X-5635857Y-27504571D01*
X-5993000Y-27504571D01*
X-6207285Y-27576000D01*
X-6850142Y-29004571D02*
X-6850142Y-27504571D01*
X-6850142Y-28218857D02*
X-7707285Y-28218857D01*
X-7707285Y-29004571D02*
X-7707285Y-27504571D01*
X-8278714Y-27504571D02*
X-8635857Y-29004571D01*
X-8921571Y-27933142D01*
X-9207285Y-29004571D01*
X-9564428Y-27504571D01*
X-10135857Y-29004571D02*
X-10135857Y-27504571D01*
X-10493000Y-27504571D01*
X-10707285Y-27576000D01*
X-10850142Y-27718857D01*
X-10921571Y-27861714D01*
X-10993000Y-28147428D01*
X-10993000Y-28361714D01*
X-10921571Y-28647428D01*
X-10850142Y-28790285D01*
X-10707285Y-28933142D01*
X-10493000Y-29004571D01*
X-10135857Y-29004571D01*
X-12207285Y-28933142D02*
X-12064428Y-29004571D01*
X-11778714Y-29004571D01*
X-11635857Y-28933142D01*
X-11564428Y-28790285D01*
X-11564428Y-28218857D01*
X-11635857Y-28076000D01*
X-11778714Y-28004571D01*
X-12064428Y-28004571D01*
X-12207285Y-28076000D01*
X-12278714Y-28218857D01*
X-12278714Y-28361714D01*
X-11564428Y-28504571D01*
X-12921571Y-29004571D02*
X-12921571Y-28004571D01*
X-12921571Y-28147428D02*
X-12993000Y-28076000D01*
X-13135857Y-28004571D01*
X-13350142Y-28004571D01*
X-13493000Y-28076000D01*
X-13564428Y-28218857D01*
X-13564428Y-29004571D01*
X-13564428Y-28218857D02*
X-13635857Y-28076000D01*
X-13778714Y-28004571D01*
X-13993000Y-28004571D01*
X-14135857Y-28076000D01*
X-14207285Y-28218857D01*
X-14207285Y-29004571D01*
X-15707285Y-29004571D02*
X-14850142Y-29004571D01*
X-15278714Y-29004571D02*
X-15278714Y-27504571D01*
X-15135857Y-27718857D01*
X-14993000Y-27861714D01*
X-14850142Y-27933142D01*
X-16207285Y-27504571D02*
X-17207285Y-27504571D01*
X-16564428Y-29004571D01*
D11*
%TO.P,M1,7*%
%TO.N,/ENC-L-CHA*%
X-6500000Y-16730000D03*
%TO.P,M1,8*%
%TO.N,/ENC-L-CHB*%
X-6500000Y-19270000D03*
%TO.P,M1,6*%
%TO.N,+3V3*%
X-6500000Y-14190000D03*
%TO.P,M1,5*%
%TO.N,GND*%
X-6500000Y-11650000D03*
%TO.P,M1,12*%
%TO.N,/ENC-R-CHB*%
X6500000Y-11650000D03*
%TO.P,M1,11*%
%TO.N,/ENC-R-CHA*%
X6500000Y-14190000D03*
%TO.P,M1,9*%
%TO.N,GND*%
X6500000Y-19270000D03*
D12*
%TD*%
%TO.N,Net-(M1-Pad4)*%
%TO.C,M1*%
G36*
X2086261Y4776990D02*
X2146931Y4767991D01*
X2206428Y4753088D01*
X2264177Y4732425D01*
X2319623Y4706201D01*
X2372231Y4674669D01*
X2421496Y4638132D01*
X2466942Y4596942D01*
X2508132Y4551496D01*
X2544669Y4502231D01*
X2576201Y4449623D01*
X2602425Y4394177D01*
X2623088Y4336428D01*
X2637991Y4276931D01*
X2646990Y4216261D01*
X2650000Y4155000D01*
X2650000Y2905000D01*
X2646990Y2843739D01*
X2637991Y2783069D01*
X2623088Y2723572D01*
X2602425Y2665823D01*
X2576201Y2610377D01*
X2544669Y2557769D01*
X2508132Y2508504D01*
X2466942Y2463058D01*
X2421496Y2421868D01*
X2372231Y2385331D01*
X2319623Y2353799D01*
X2264177Y2327575D01*
X2206428Y2306912D01*
X2146931Y2292009D01*
X2086261Y2283010D01*
X2025000Y2280000D01*
X775000Y2280000D01*
X713739Y2283010D01*
X653069Y2292009D01*
X593572Y2306912D01*
X535823Y2327575D01*
X480377Y2353799D01*
X427769Y2385331D01*
X378504Y2421868D01*
X333058Y2463058D01*
X291868Y2508504D01*
X255331Y2557769D01*
X223799Y2610377D01*
X197575Y2665823D01*
X176912Y2723572D01*
X162009Y2783069D01*
X153010Y2843739D01*
X150000Y2905000D01*
X150000Y4155000D01*
X153010Y4216261D01*
X162009Y4276931D01*
X176912Y4336428D01*
X197575Y4394177D01*
X223799Y4449623D01*
X255331Y4502231D01*
X291868Y4551496D01*
X333058Y4596942D01*
X378504Y4638132D01*
X427769Y4674669D01*
X480377Y4706201D01*
X535823Y4732425D01*
X593572Y4753088D01*
X653069Y4767991D01*
X713739Y4776990D01*
X775000Y4780000D01*
X2025000Y4780000D01*
X2086261Y4776990D01*
X2086261Y4776990D01*
G37*
D13*
%TO.P,M1,4*%
%TO.N,Net-(M1-Pad4)*%
X1400000Y3530000D03*
D12*
%TD*%
%TO.N,Net-(M1-Pad1)*%
%TO.C,M1*%
G36*
X-713739Y4776990D02*
X-653069Y4767991D01*
X-593572Y4753088D01*
X-535823Y4732425D01*
X-480377Y4706201D01*
X-427769Y4674669D01*
X-378504Y4638132D01*
X-333058Y4596942D01*
X-291868Y4551496D01*
X-255331Y4502231D01*
X-223799Y4449623D01*
X-197575Y4394177D01*
X-176912Y4336428D01*
X-162009Y4276931D01*
X-153010Y4216261D01*
X-150000Y4155000D01*
X-150000Y2905000D01*
X-153010Y2843739D01*
X-162009Y2783069D01*
X-176912Y2723572D01*
X-197575Y2665823D01*
X-223799Y2610377D01*
X-255331Y2557769D01*
X-291868Y2508504D01*
X-333058Y2463058D01*
X-378504Y2421868D01*
X-427769Y2385331D01*
X-480377Y2353799D01*
X-535823Y2327575D01*
X-593572Y2306912D01*
X-653069Y2292009D01*
X-713739Y2283010D01*
X-775000Y2280000D01*
X-2025000Y2280000D01*
X-2086261Y2283010D01*
X-2146931Y2292009D01*
X-2206428Y2306912D01*
X-2264177Y2327575D01*
X-2319623Y2353799D01*
X-2372231Y2385331D01*
X-2421496Y2421868D01*
X-2466942Y2463058D01*
X-2508132Y2508504D01*
X-2544669Y2557769D01*
X-2576201Y2610377D01*
X-2602425Y2665823D01*
X-2623088Y2723572D01*
X-2637991Y2783069D01*
X-2646990Y2843739D01*
X-2650000Y2905000D01*
X-2650000Y4155000D01*
X-2646990Y4216261D01*
X-2637991Y4276931D01*
X-2623088Y4336428D01*
X-2602425Y4394177D01*
X-2576201Y4449623D01*
X-2544669Y4502231D01*
X-2508132Y4551496D01*
X-2466942Y4596942D01*
X-2421496Y4638132D01*
X-2372231Y4674669D01*
X-2319623Y4706201D01*
X-2264177Y4732425D01*
X-2206428Y4753088D01*
X-2146931Y4767991D01*
X-2086261Y4776990D01*
X-2025000Y4780000D01*
X-775000Y4780000D01*
X-713739Y4776990D01*
X-713739Y4776990D01*
G37*
D13*
%TO.P,M1,1*%
%TO.N,Net-(M1-Pad1)*%
X-1400000Y3530000D03*
D12*
%TD*%
%TO.N,Net-(M1-Pad2)*%
%TO.C,M1*%
G36*
X-713739Y-2283010D02*
X-653069Y-2292009D01*
X-593572Y-2306912D01*
X-535823Y-2327575D01*
X-480377Y-2353799D01*
X-427769Y-2385331D01*
X-378504Y-2421868D01*
X-333058Y-2463058D01*
X-291868Y-2508504D01*
X-255331Y-2557769D01*
X-223799Y-2610377D01*
X-197575Y-2665823D01*
X-176912Y-2723572D01*
X-162009Y-2783069D01*
X-153010Y-2843739D01*
X-150000Y-2905000D01*
X-150000Y-4155000D01*
X-153010Y-4216261D01*
X-162009Y-4276931D01*
X-176912Y-4336428D01*
X-197575Y-4394177D01*
X-223799Y-4449623D01*
X-255331Y-4502231D01*
X-291868Y-4551496D01*
X-333058Y-4596942D01*
X-378504Y-4638132D01*
X-427769Y-4674669D01*
X-480377Y-4706201D01*
X-535823Y-4732425D01*
X-593572Y-4753088D01*
X-653069Y-4767991D01*
X-713739Y-4776990D01*
X-775000Y-4780000D01*
X-2025000Y-4780000D01*
X-2086261Y-4776990D01*
X-2146931Y-4767991D01*
X-2206428Y-4753088D01*
X-2264177Y-4732425D01*
X-2319623Y-4706201D01*
X-2372231Y-4674669D01*
X-2421496Y-4638132D01*
X-2466942Y-4596942D01*
X-2508132Y-4551496D01*
X-2544669Y-4502231D01*
X-2576201Y-4449623D01*
X-2602425Y-4394177D01*
X-2623088Y-4336428D01*
X-2637991Y-4276931D01*
X-2646990Y-4216261D01*
X-2650000Y-4155000D01*
X-2650000Y-2905000D01*
X-2646990Y-2843739D01*
X-2637991Y-2783069D01*
X-2623088Y-2723572D01*
X-2602425Y-2665823D01*
X-2576201Y-2610377D01*
X-2544669Y-2557769D01*
X-2508132Y-2508504D01*
X-2466942Y-2463058D01*
X-2421496Y-2421868D01*
X-2372231Y-2385331D01*
X-2319623Y-2353799D01*
X-2264177Y-2327575D01*
X-2206428Y-2306912D01*
X-2146931Y-2292009D01*
X-2086261Y-2283010D01*
X-2025000Y-2280000D01*
X-775000Y-2280000D01*
X-713739Y-2283010D01*
X-713739Y-2283010D01*
G37*
D13*
%TO.P,M1,2*%
%TO.N,Net-(M1-Pad2)*%
X-1400000Y-3530000D03*
D12*
%TD*%
%TO.N,Net-(M1-Pad3)*%
%TO.C,M1*%
G36*
X2086261Y-2283010D02*
X2146931Y-2292009D01*
X2206428Y-2306912D01*
X2264177Y-2327575D01*
X2319623Y-2353799D01*
X2372231Y-2385331D01*
X2421496Y-2421868D01*
X2466942Y-2463058D01*
X2508132Y-2508504D01*
X2544669Y-2557769D01*
X2576201Y-2610377D01*
X2602425Y-2665823D01*
X2623088Y-2723572D01*
X2637991Y-2783069D01*
X2646990Y-2843739D01*
X2650000Y-2905000D01*
X2650000Y-4155000D01*
X2646990Y-4216261D01*
X2637991Y-4276931D01*
X2623088Y-4336428D01*
X2602425Y-4394177D01*
X2576201Y-4449623D01*
X2544669Y-4502231D01*
X2508132Y-4551496D01*
X2466942Y-4596942D01*
X2421496Y-4638132D01*
X2372231Y-4674669D01*
X2319623Y-4706201D01*
X2264177Y-4732425D01*
X2206428Y-4753088D01*
X2146931Y-4767991D01*
X2086261Y-4776990D01*
X2025000Y-4780000D01*
X775000Y-4780000D01*
X713739Y-4776990D01*
X653069Y-4767991D01*
X593572Y-4753088D01*
X535823Y-4732425D01*
X480377Y-4706201D01*
X427769Y-4674669D01*
X378504Y-4638132D01*
X333058Y-4596942D01*
X291868Y-4551496D01*
X255331Y-4502231D01*
X223799Y-4449623D01*
X197575Y-4394177D01*
X176912Y-4336428D01*
X162009Y-4276931D01*
X153010Y-4216261D01*
X150000Y-4155000D01*
X150000Y-2905000D01*
X153010Y-2843739D01*
X162009Y-2783069D01*
X176912Y-2723572D01*
X197575Y-2665823D01*
X223799Y-2610377D01*
X255331Y-2557769D01*
X291868Y-2508504D01*
X333058Y-2463058D01*
X378504Y-2421868D01*
X427769Y-2385331D01*
X480377Y-2353799D01*
X535823Y-2327575D01*
X593572Y-2306912D01*
X653069Y-2292009D01*
X713739Y-2283010D01*
X775000Y-2280000D01*
X2025000Y-2280000D01*
X2086261Y-2283010D01*
X2086261Y-2283010D01*
G37*
D13*
%TO.P,M1,3*%
%TO.N,Net-(M1-Pad3)*%
X1400000Y-3530000D03*
D11*
%TO.P,M1,10*%
%TO.N,+3V3*%
X6500000Y-16730000D03*
%TD*%
D14*
%TO.P,J5,1*%
%TO.N,/GND-R*%
X32210000Y11208000D03*
D15*
%TO.P,J5,2*%
%TO.N,/3V3-R*%
X34750000Y11208000D03*
%TO.P,J5,3*%
%TO.N,Net-(J5-Pad3)*%
X37290000Y11208000D03*
%TO.P,J5,4*%
%TO.N,Net-(J5-Pad4)*%
X39830000Y11208000D03*
%TD*%
%TO.P,J3,6*%
%TO.N,/BT-STATE*%
X2540000Y-22860000D03*
%TO.P,J3,5*%
%TO.N,/UART_TX*%
X2540000Y-20320000D03*
%TO.P,J3,4*%
%TO.N,/UART_RX*%
X2540000Y-17780000D03*
%TO.P,J3,3*%
%TO.N,GND*%
X2540000Y-15240000D03*
%TO.P,J3,2*%
%TO.N,+3V3*%
X2540000Y-12700000D03*
D14*
%TO.P,J3,1*%
%TO.N,/BT-EN*%
X2540000Y-10160000D03*
%TD*%
D16*
%TO.P,J1,3*%
%TO.N,Net-(J1-Pad3)*%
X-15875000Y25845000D03*
%TO.P,J1,2*%
%TO.N,Net-(J1-Pad2)*%
X-15875000Y27845000D03*
D17*
%TO.P,J1,1*%
%TO.N,-BATT*%
X-15875000Y29845000D03*
%TD*%
D18*
%TO.P,Q2,1*%
%TO.N,/DIAG-L-RX*%
X-17364500Y56071300D03*
D12*
%TD*%
%TO.N,/DIAG-L-RX*%
%TO.C,Q2*%
G36*
X-17693923Y57300723D02*
X-16135077Y56400723D01*
X-17035077Y54841877D01*
X-18593923Y55741877D01*
X-17693923Y57300723D01*
X-17693923Y57300723D01*
G37*
D18*
%TO.P,Q2,2*%
%TO.N,+5VA*%
X-18634500Y53871595D03*
%TD*%
%TO.P,Q5,2*%
%TO.N,+5VA*%
X-18542000Y49784000D03*
D19*
%TO.P,Q5,1*%
%TO.N,/FLASH-RX*%
X-16002000Y49784000D03*
%TD*%
D18*
%TO.P,D6,1*%
%TO.N,Net-(D6-Pad1)*%
X-32510600Y38100600D03*
D12*
%TD*%
%TO.N,Net-(D6-Pad1)*%
%TO.C,D6*%
G36*
X-31642558Y39031461D02*
X-31579739Y37232558D01*
X-33378642Y37169739D01*
X-33441461Y38968642D01*
X-31642558Y39031461D01*
X-31642558Y39031461D01*
G37*
D18*
%TO.P,D6,2*%
%TO.N,+5V*%
X-35049053Y38011955D03*
%TD*%
%TO.P,Q3,2*%
%TO.N,+5VA*%
X-29011853Y38011955D03*
%TO.P,Q3,1*%
%TO.N,/FRONT-L-RX*%
X-26473400Y38100600D03*
D12*
%TD*%
%TO.N,/FRONT-L-RX*%
%TO.C,Q3*%
G36*
X-25605358Y39031461D02*
X-25542539Y37232558D01*
X-27341442Y37169739D01*
X-27404261Y38968642D01*
X-25605358Y39031461D01*
X-25605358Y39031461D01*
G37*
D18*
%TO.P,D7,1*%
%TO.N,Net-(D7-Pad1)*%
X14634200Y58813400D03*
D12*
%TD*%
%TO.N,Net-(D7-Pad1)*%
%TO.C,D7*%
G36*
X15863623Y58483977D02*
X14304777Y57583977D01*
X13404777Y59142823D01*
X14963623Y60042823D01*
X15863623Y58483977D01*
X15863623Y58483977D01*
G37*
D18*
%TO.P,D7,2*%
%TO.N,+5V*%
X13364200Y61013105D03*
%TD*%
%TO.P,D8,2*%
%TO.N,Net-(D7-Pad1)*%
X-14762700Y58743695D03*
%TO.P,D8,1*%
%TO.N,Net-(D8-Pad1)*%
X-13492700Y60943400D03*
D12*
%TD*%
%TO.N,Net-(D8-Pad1)*%
%TO.C,D8*%
G36*
X-13822123Y62172823D02*
X-12263277Y61272823D01*
X-13163277Y59713977D01*
X-14722123Y60613977D01*
X-13822123Y62172823D01*
X-13822123Y62172823D01*
G37*
D18*
%TO.P,D9,2*%
%TO.N,+5V*%
X32455347Y38012845D03*
%TO.P,D9,1*%
%TO.N,Net-(D9-Pad1)*%
X34993800Y37924200D03*
D12*
%TD*%
%TO.N,Net-(D9-Pad1)*%
%TO.C,D9*%
G36*
X35924661Y38792242D02*
X35861842Y36993339D01*
X34062939Y37056158D01*
X34125758Y38855061D01*
X35924661Y38792242D01*
X35924661Y38792242D01*
G37*
D15*
%TO.P,J2,5*%
%TO.N,/RESET*%
X5080000Y60198000D03*
%TO.P,J2,4*%
%TO.N,+3V3*%
X2540000Y60198000D03*
%TO.P,J2,3*%
%TO.N,GND*%
X0Y60198000D03*
%TO.P,J2,2*%
%TO.N,/PGED*%
X-2540000Y60198000D03*
D14*
%TO.P,J2,1*%
%TO.N,/PGEC*%
X-5080000Y60198000D03*
%TD*%
D15*
%TO.P,J4,4*%
%TO.N,Net-(J4-Pad4)*%
X40310000Y-10902000D03*
%TO.P,J4,3*%
%TO.N,Net-(J4-Pad3)*%
X37770000Y-10902000D03*
%TO.P,J4,2*%
%TO.N,/3V3-L*%
X35230000Y-10902000D03*
D14*
%TO.P,J4,1*%
%TO.N,/GND-L*%
X32690000Y-10902000D03*
%TD*%
D18*
%TO.P,Q1,2*%
%TO.N,+5VA*%
X17247800Y56235005D03*
%TO.P,Q1,1*%
%TO.N,/DIAG-R-RX*%
X18517800Y54035300D03*
D12*
%TD*%
%TO.N,/DIAG-R-RX*%
%TO.C,Q1*%
G36*
X19747223Y53705877D02*
X18188377Y52805877D01*
X17288377Y54364723D01*
X18847223Y55264723D01*
X19747223Y53705877D01*
X19747223Y53705877D01*
G37*
D18*
%TO.P,Q4,1*%
%TO.N,/FRONT-R-RX*%
X28532900Y37924200D03*
D12*
%TD*%
%TO.N,/FRONT-R-RX*%
%TO.C,Q4*%
G36*
X29463761Y38792242D02*
X29400942Y36993339D01*
X27602039Y37056158D01*
X27664858Y38855061D01*
X29463761Y38792242D01*
X29463761Y38792242D01*
G37*
D18*
%TO.P,Q4,2*%
%TO.N,+5VA*%
X25994447Y38012845D03*
%TD*%
D14*
%TO.P,SW1,1*%
%TO.N,Net-(SW1-Pad1)*%
X-22225000Y25400000D03*
D15*
%TO.P,SW1,2*%
%TO.N,Net-(J1-Pad3)*%
X-22225000Y27940000D03*
%TO.P,SW1,3*%
%TO.N,+BATT*%
X-22225000Y30480000D03*
%TD*%
D20*
%TO.N,GNDA*%
X-7366000Y34290000D03*
X27177994Y33909000D03*
X15112992Y49657000D03*
X8566021Y38354000D03*
X3556000Y34290000D03*
X6858000Y49149000D03*
X-11303000Y50800000D03*
X-13716000Y37465000D03*
X3556000Y31369000D03*
%TO.N,+BATT*%
X-7366000Y30099000D03*
%TO.N,-BATT*%
X-4445000Y28448000D03*
X1015982Y11684000D03*
X9525000Y19939000D03*
X-2032000Y22225000D03*
X-10795000Y20320000D03*
X-1016000Y22225000D03*
%TO.N,+BATT*%
X13970000Y9398000D03*
X15621008Y17018000D03*
%TO.N,-BATT*%
X0Y22225000D03*
X-13716000Y10922000D03*
%TO.N,+3.3VA*%
X5079996Y49149000D03*
X8255000Y40259000D03*
%TO.N,+5VA*%
X-17272000Y43942000D03*
X6477000Y56235005D03*
%TO.N,+5V*%
X-28321000Y52451000D03*
X9906000Y68453000D03*
X-21336000Y45466000D03*
%TO.N,GND*%
X19177000Y42672000D03*
X14732000Y55118000D03*
X-9144000Y58674000D03*
X-5715000Y44323000D03*
X-4445000Y36576000D03*
X-8636000Y41656000D03*
X-7747000Y39624000D03*
X24511000Y39370000D03*
X7239000Y46482000D03*
X5588000Y28067000D03*
X16510000Y20447000D03*
X-16383000Y21590000D03*
X-35052000Y32512000D03*
X2032000Y41148000D03*
X34290000Y29972000D03*
X29464000Y29972000D03*
%TO.N,+3V3*%
X16129000Y-6731000D03*
X3302000Y27050988D03*
X-5080000Y45720000D03*
X19558000Y37211000D03*
X508000Y38608000D03*
X9652000Y48514000D03*
X-4318000Y40640000D03*
X-9144000Y51816000D03*
%TO.N,Net-(M1-Pad3)*%
X13970032Y7874000D03*
%TO.N,Net-(M1-Pad4)*%
X13970006Y10922000D03*
%TO.N,/RESET*%
X5061182Y57085015D03*
%TO.N,/ENC-R-CHA*%
X15135336Y27073340D03*
%TO.N,/ENC-R-CHB*%
X14351000Y28067000D03*
%TO.N,/ENC-L-CHB*%
X12827000Y28067000D03*
X12827000Y37338000D03*
%TO.N,/ENC-R-CHA*%
X15113000Y36576006D03*
%TO.N,/ENC-R-CHB*%
X14351000Y37338000D03*
%TO.N,/ENC-L-CHA*%
X13591108Y27053110D03*
X13589000Y36576000D03*
%TO.N,/DIAG-R-RX*%
X15112996Y51689000D03*
X-1270000Y42926000D03*
%TO.N,/FRONT-R-RX*%
X21717008Y42291000D03*
X-508000Y43815000D03*
%TO.N,/MOTOR-L-INA*%
X10285780Y25525964D03*
%TO.N,/MOTOR-R-INA*%
X11811000Y25527006D03*
%TO.N,/MOTOR-L-INB*%
X9460413Y37278628D03*
X9398000Y26162000D03*
%TO.N,/MOTOR-R-INB*%
X11047951Y26173359D03*
X11049000Y37338000D03*
%TO.N,/MOTOR-R-INA*%
X11811000Y36576000D03*
%TO.N,/MOTOR-L-INA*%
X10287000Y36576000D03*
%TD*%
D21*
%TO.N,GNDA*%
X-7931685Y34290000D02*
X-7366000Y34290000D01*
X-10541000Y34290000D02*
X-7931685Y34290000D01*
X-13716000Y37465000D02*
X-10541000Y34290000D01*
X26612309Y33909000D02*
X27177994Y33909000D01*
X22225000Y35052000D02*
X23368000Y33909000D01*
X23368000Y33909000D02*
X26612309Y33909000D01*
X22225000Y35052000D02*
X22225000Y36195000D01*
X18161000Y40259000D02*
X12065000Y40259000D01*
X22225000Y36195000D02*
X18161000Y40259000D01*
X12065000Y40259000D02*
X10795000Y41529000D01*
X10795000Y41529000D02*
X10795000Y49657000D01*
X10795000Y49657000D02*
X15112992Y49657000D01*
X7366000Y49657000D02*
X14547307Y49657000D01*
X6858000Y49149000D02*
X7366000Y49657000D01*
X14547307Y49657000D02*
X15112992Y49657000D01*
X7620000Y38354000D02*
X8000336Y38354000D01*
X16637000Y38354000D02*
X9131706Y38354000D01*
X9131706Y38354000D02*
X8566021Y38354000D01*
X22225000Y35052000D02*
X19939000Y35052000D01*
X3556000Y34290000D02*
X7620000Y38354000D01*
X19939000Y35052000D02*
X16637000Y38354000D01*
X8000336Y38354000D02*
X8566021Y38354000D01*
X3556000Y34290000D02*
X3556000Y31369000D01*
X-13716000Y37465000D02*
X-13716000Y47244000D01*
X-13716000Y47244000D02*
X-11303000Y49657000D01*
X-11303000Y49657000D02*
X-11303000Y50800000D01*
%TO.N,+BATT*%
X-7366000Y30099000D02*
X-12065000Y30099000D01*
X-20955000Y31750000D02*
X-22225000Y30480000D01*
X-12065000Y30099000D02*
X-13716000Y31750000D01*
X-13716000Y31750000D02*
X-20955000Y31750000D01*
D22*
%TO.N,-BATT*%
X-4045001Y28048001D02*
X-4445000Y28448000D01*
X-1016000Y25019000D02*
X-4045001Y28048001D01*
X-1016000Y22225000D02*
X-1016000Y25019000D01*
D21*
X0Y22225000D02*
X127000Y22225000D01*
D22*
X127000Y22225000D02*
X1015982Y21336018D01*
X1015982Y21336018D02*
X1015982Y18796000D01*
X1015982Y18796000D02*
X1015982Y12249685D01*
X1015982Y12249685D02*
X1015982Y11684000D01*
X9525000Y19939000D02*
X8382000Y18796000D01*
X8382000Y18796000D02*
X1015982Y18796000D01*
X-10541000Y22225000D02*
X-11557000Y21209000D01*
X0Y22225000D02*
X-10541000Y22225000D01*
X-10795000Y20320000D02*
X-11557000Y21082000D01*
X-11557000Y21209000D02*
X-13716000Y19050000D01*
D23*
X-11557000Y21082000D02*
X-11557000Y21209000D01*
D22*
%TO.N,+BATT*%
X14859000Y9398000D02*
X15621008Y10160008D01*
X13970000Y9398000D02*
X14859000Y9398000D01*
X15621008Y10160008D02*
X15621008Y17018000D01*
%TO.N,-BATT*%
X-13716000Y19050000D02*
X-13716000Y10922000D01*
D21*
%TO.N,+3.3VA*%
X8255000Y40259000D02*
X8763000Y40767000D01*
X8763000Y40767000D02*
X8763000Y46736000D01*
X8763000Y46736000D02*
X7747000Y47752000D01*
X7747000Y47752000D02*
X5842000Y47752000D01*
X5842000Y47752000D02*
X5079996Y48514004D01*
X5079996Y48514004D02*
X5079996Y49149000D01*
X5080000Y49148996D02*
X5079996Y49149000D01*
%TO.N,+5VA*%
X-18542000Y45212000D02*
X-17272000Y43942000D01*
X-18542000Y49784000D02*
X-18542000Y45212000D01*
X-12852995Y56235005D02*
X6477000Y56235005D01*
X6477000Y56235005D02*
X17247800Y56235005D01*
X-15216405Y53871595D02*
X-12852995Y56235005D01*
X-18634500Y53871595D02*
X-15216405Y53871595D01*
X17247800Y56235005D02*
X22377995Y56235005D01*
X22377995Y56235005D02*
X25994447Y52618553D01*
X25994447Y52618553D02*
X25994447Y39285637D01*
X25994447Y39285637D02*
X25994447Y38012845D01*
D22*
%TO.N,+5V*%
X-21336000Y45466000D02*
X-28321000Y52451000D01*
X9906000Y64471305D02*
X9906000Y67887315D01*
X13364200Y61013105D02*
X9906000Y64471305D01*
X9906000Y67887315D02*
X9906000Y68453000D01*
D21*
%TO.N,+3V3*%
X9144000Y-6731000D02*
X16129000Y-6731000D01*
X-127000Y-12700000D02*
X-127000Y-8001000D01*
X-127000Y-8001000D02*
X1143000Y-6731000D01*
X7914213Y-16730000D02*
X6500000Y-16730000D01*
X1143000Y-6731000D02*
X9144000Y-6731000D01*
X9144000Y-6731000D02*
X9144000Y-15500213D01*
X9144000Y-15500213D02*
X7914213Y-16730000D01*
X-6500000Y-14190000D02*
X-1617000Y-14190000D01*
X-1617000Y-14190000D02*
X-127000Y-12700000D01*
X508000Y29844988D02*
X2902001Y27450987D01*
X508000Y36576000D02*
X508000Y29844988D01*
X2902001Y27450987D02*
X3302000Y27050988D01*
X-5080000Y46285685D02*
X-5080000Y45720000D01*
X-5080000Y47752000D02*
X-5080000Y46285685D01*
X-9144000Y51816000D02*
X-5080000Y47752000D01*
X-9144000Y51816000D02*
X-19558000Y51816000D01*
X-19558000Y51816000D02*
X-20320000Y52578000D01*
X2540000Y58166000D02*
X2540000Y60198000D01*
X-20320000Y52578000D02*
X-20320000Y57404000D01*
X-10541000Y57912000D02*
X-9652000Y57023000D01*
X-9652000Y57023000D02*
X1397000Y57023000D01*
X-20320000Y57404000D02*
X-14478000Y63246000D01*
X-14478000Y63246000D02*
X-11684000Y63246000D01*
X-11684000Y63246000D02*
X-10541000Y62103000D01*
X-10541000Y62103000D02*
X-10541000Y57912000D01*
X1397000Y57023000D02*
X2540000Y58166000D01*
X508000Y36576000D02*
X-2413000Y36576000D01*
X-2413000Y36576000D02*
X-4318000Y38481000D01*
X-4318000Y38481000D02*
X-4318000Y40640000D01*
X508000Y38608000D02*
X508000Y36830000D01*
D23*
X508000Y36576000D02*
X508000Y36830000D01*
D21*
X508000Y37084000D02*
X508000Y36957000D01*
X508000Y36576000D02*
X4064000Y36576000D01*
X4064000Y36576000D02*
X6858000Y39370000D01*
X6858000Y39370000D02*
X9652000Y39370000D01*
X9652000Y39370000D02*
X17399000Y39370000D01*
X17399000Y39370000D02*
X19558000Y37211000D01*
X9652000Y48514000D02*
X9652000Y39370000D01*
X-127000Y-12700000D02*
X2540000Y-12700000D01*
D22*
%TO.N,Net-(M1-Pad3)*%
X700000Y-3530000D02*
X6630000Y-3530000D01*
X6630000Y-3530000D02*
X13404347Y3244347D01*
X13404347Y3244347D02*
X13404347Y7874000D01*
X13404347Y7874000D02*
X13970032Y7874000D01*
%TO.N,Net-(M1-Pad4)*%
X1397000Y4227000D02*
X1397000Y8255000D01*
X1397000Y8255000D02*
X4064000Y10922000D01*
X4064000Y10922000D02*
X13404321Y10922000D01*
X13404321Y10922000D02*
X13970006Y10922000D01*
D21*
X1397000Y4227000D02*
X700000Y3530000D01*
D22*
%TO.N,Net-(J1-Pad3)*%
X-17590000Y25845000D02*
X-19685000Y27940000D01*
X-19685000Y27940000D02*
X-22225000Y27940000D01*
X-15875000Y25845000D02*
X-17590000Y25845000D01*
D23*
%TO.N,/RESET*%
X5080000Y60198000D02*
X5080000Y57103833D01*
X5080000Y57103833D02*
X5061182Y57085015D01*
%TO.N,/ENC-R-CHA*%
X15113000Y27095676D02*
X15135336Y27073340D01*
X15113000Y36576006D02*
X15113000Y27095676D01*
%TO.N,/ENC-R-CHB*%
X14351000Y37338000D02*
X14351000Y28067000D01*
%TO.N,/ENC-L-CHB*%
X12827000Y37338000D02*
X12827000Y28067000D01*
%TO.N,/ENC-L-CHA*%
X13589000Y36576000D02*
X13589000Y27055218D01*
X13589000Y27055218D02*
X13591108Y27053110D01*
%TO.N,/DIAG-R-RX*%
X-1270000Y42926000D02*
X-1270000Y49911000D01*
X-1270000Y49911000D02*
X-254000Y50927000D01*
X-254000Y50927000D02*
X14351000Y50927000D01*
X14351000Y50927000D02*
X15112996Y51688996D01*
X15112996Y51688996D02*
X15112996Y51689000D01*
%TO.N,/FRONT-R-RX*%
X-508000Y43815000D02*
X-508000Y49784000D01*
X-508000Y49784000D02*
X127000Y50419000D01*
X127000Y50419000D02*
X19304000Y50419000D01*
X19304000Y50419000D02*
X21717008Y48005992D01*
X21717008Y48005992D02*
X21717008Y42856685D01*
X21717008Y42856685D02*
X21717008Y42291000D01*
%TO.N,/MOTOR-L-INA*%
X10287000Y25527184D02*
X10285780Y25525964D01*
X10287000Y25813998D02*
X10287000Y25527184D01*
X10287000Y36576000D02*
X10287000Y25527184D01*
%TO.N,/MOTOR-R-INA*%
X11811000Y25400002D02*
X11811000Y25527006D01*
X11811000Y36576000D02*
X11811000Y25400002D01*
%TO.N,/MOTOR-L-INB*%
X9398000Y26162000D02*
X9398000Y37216215D01*
X9398000Y37216215D02*
X9460413Y37278628D01*
%TO.N,/MOTOR-R-INB*%
X11049000Y37338000D02*
X11049000Y26174408D01*
X11049000Y26174408D02*
X11047951Y26173359D01*
%TD*%
D24*
%TO.N,GND*%
G36*
X36069414Y45674119D02*
X36274290Y39322975D01*
X36193150Y39381387D01*
X35947256Y39439288D01*
X34148353Y39502107D01*
X33899020Y39461500D01*
X33684205Y39328569D01*
X33536613Y39123550D01*
X33532584Y39106440D01*
X33325990Y39313396D01*
X32762017Y39547578D01*
X32151356Y39548110D01*
X31586976Y39314913D01*
X31154796Y38883488D01*
X30920614Y38319515D01*
X30920082Y37708854D01*
X31153279Y37144474D01*
X31584704Y36712294D01*
X32148677Y36478112D01*
X32759338Y36477580D01*
X33323718Y36710777D01*
X33454552Y36841382D01*
X33456500Y36829420D01*
X33589431Y36614605D01*
X33794450Y36467013D01*
X34040344Y36409112D01*
X35839247Y36346293D01*
X36088580Y36386900D01*
X36303395Y36519831D01*
X36362084Y36601355D01*
X36698837Y26162000D01*
X24765000Y26162000D01*
X24716399Y26152333D01*
X24675197Y26124803D01*
X24647667Y26083601D01*
X24638000Y26035000D01*
X24638000Y-22172394D01*
X17727394Y-29083000D01*
X3220572Y-29083000D01*
X3220572Y-24176373D01*
X3619147Y-23910054D01*
X3941054Y-23428285D01*
X4054093Y-22860000D01*
X3941054Y-22291715D01*
X3619147Y-21809946D01*
X3289974Y-21590000D01*
X3619147Y-21370054D01*
X3941054Y-20888285D01*
X4033698Y-20422532D01*
X5527073Y-20422532D01*
X5625736Y-20689387D01*
X6235461Y-20915908D01*
X6885460Y-20891856D01*
X7374264Y-20689387D01*
X7472927Y-20422532D01*
X6500000Y-19449605D01*
X5527073Y-20422532D01*
X4033698Y-20422532D01*
X4054093Y-20320000D01*
X3941054Y-19751715D01*
X3619147Y-19269946D01*
X3289974Y-19050000D01*
X3356631Y-19005461D01*
X4854092Y-19005461D01*
X4878144Y-19655460D01*
X5080613Y-20144264D01*
X5347468Y-20242927D01*
X6320395Y-19270000D01*
X6679605Y-19270000D01*
X7652532Y-20242927D01*
X7919387Y-20144264D01*
X8145908Y-19534539D01*
X8121856Y-18884540D01*
X7919387Y-18395736D01*
X7652532Y-18297073D01*
X6679605Y-19270000D01*
X6320395Y-19270000D01*
X5347468Y-18297073D01*
X5080613Y-18395736D01*
X4854092Y-19005461D01*
X3356631Y-19005461D01*
X3619147Y-18830054D01*
X3941054Y-18348285D01*
X4054093Y-17780000D01*
X3941054Y-17211715D01*
X3619147Y-16729946D01*
X3278447Y-16502298D01*
X3421358Y-16435183D01*
X3811645Y-16006924D01*
X3981476Y-15596890D01*
X3860155Y-15367000D01*
X2667000Y-15367000D01*
X2667000Y-15387000D01*
X2413000Y-15387000D01*
X2413000Y-15367000D01*
X1219845Y-15367000D01*
X1098524Y-15596890D01*
X1268355Y-16006924D01*
X1658642Y-16435183D01*
X1801553Y-16502298D01*
X1460853Y-16729946D01*
X1138946Y-17211715D01*
X1025907Y-17780000D01*
X1138946Y-18348285D01*
X1460853Y-18830054D01*
X1790026Y-19050000D01*
X1460853Y-19269946D01*
X1138946Y-19751715D01*
X1025907Y-20320000D01*
X1138946Y-20888285D01*
X1460853Y-21370054D01*
X1790026Y-21590000D01*
X1460853Y-21809946D01*
X1138946Y-22291715D01*
X1025907Y-22860000D01*
X1138946Y-23428285D01*
X1460853Y-23910054D01*
X1574514Y-23986000D01*
X-18206571Y-23986000D01*
X-18206571Y-27968823D01*
X-24638000Y-21537394D01*
X-24638000Y-14513795D01*
X-8135284Y-14513795D01*
X-7886894Y-15114943D01*
X-7542241Y-15460199D01*
X-7885278Y-15802637D01*
X-8134716Y-16403352D01*
X-8135284Y-17053795D01*
X-7886894Y-17654943D01*
X-7542241Y-18000199D01*
X-7885278Y-18342637D01*
X-8134716Y-18943352D01*
X-8135284Y-19593795D01*
X-7886894Y-20194943D01*
X-7427363Y-20655278D01*
X-6826648Y-20904716D01*
X-6176205Y-20905284D01*
X-5575057Y-20656894D01*
X-5114722Y-20197363D01*
X-4865284Y-19596648D01*
X-4864716Y-18946205D01*
X-5113106Y-18345057D01*
X-5457759Y-17999801D01*
X-5114722Y-17657363D01*
X-4865284Y-17056648D01*
X-4864716Y-16406205D01*
X-5113106Y-15805057D01*
X-5457759Y-15459801D01*
X-5114722Y-15117363D01*
X-5097131Y-15075000D01*
X-1617005Y-15075000D01*
X-1617000Y-15075001D01*
X-1334516Y-15018810D01*
X-1278325Y-15007633D01*
X-991210Y-14815790D01*
X239579Y-13585000D01*
X1350568Y-13585000D01*
X1460853Y-13750054D01*
X1801553Y-13977702D01*
X1658642Y-14044817D01*
X1268355Y-14473076D01*
X1098524Y-14883110D01*
X1219845Y-15113000D01*
X2413000Y-15113000D01*
X2413000Y-15093000D01*
X2667000Y-15093000D01*
X2667000Y-15113000D01*
X3860155Y-15113000D01*
X3981476Y-14883110D01*
X3811645Y-14473076D01*
X3421358Y-14044817D01*
X3278447Y-13977702D01*
X3619147Y-13750054D01*
X3941054Y-13268285D01*
X4054093Y-12700000D01*
X3941054Y-12131715D01*
X3619147Y-11649946D01*
X3575223Y-11620597D01*
X3637765Y-11608157D01*
X3847809Y-11467809D01*
X3988157Y-11257765D01*
X4037440Y-11010000D01*
X4037440Y-9310000D01*
X3988157Y-9062235D01*
X3847809Y-8852191D01*
X3637765Y-8711843D01*
X3390000Y-8662560D01*
X1690000Y-8662560D01*
X1442235Y-8711843D01*
X1232191Y-8852191D01*
X1091843Y-9062235D01*
X1042560Y-9310000D01*
X1042560Y-11010000D01*
X1091843Y-11257765D01*
X1232191Y-11467809D01*
X1442235Y-11608157D01*
X1504777Y-11620597D01*
X1460853Y-11649946D01*
X1350568Y-11815000D01*
X758000Y-11815000D01*
X758000Y-8367580D01*
X1509579Y-7616000D01*
X8259000Y-7616000D01*
X8259000Y-15133634D01*
X7737366Y-15655267D01*
X7542241Y-15459801D01*
X7885278Y-15117363D01*
X8134716Y-14516648D01*
X8135284Y-13866205D01*
X7886894Y-13265057D01*
X7542241Y-12919801D01*
X7885278Y-12577363D01*
X8134716Y-11976648D01*
X8135284Y-11326205D01*
X7886894Y-10725057D01*
X7427363Y-10264722D01*
X6826648Y-10015284D01*
X6176205Y-10014716D01*
X5575057Y-10263106D01*
X5114722Y-10722637D01*
X4865284Y-11323352D01*
X4864716Y-11973795D01*
X5113106Y-12574943D01*
X5457759Y-12920199D01*
X5114722Y-13262637D01*
X4865284Y-13863352D01*
X4864716Y-14513795D01*
X5113106Y-15114943D01*
X5457759Y-15460199D01*
X5114722Y-15802637D01*
X4865284Y-16403352D01*
X4864716Y-17053795D01*
X5113106Y-17654943D01*
X5539978Y-18082562D01*
X5527073Y-18117468D01*
X6500000Y-19090395D01*
X7472927Y-18117468D01*
X7459836Y-18082062D01*
X7885278Y-17657363D01*
X7902869Y-17615000D01*
X7914208Y-17615000D01*
X7914213Y-17615001D01*
X8196697Y-17558810D01*
X8252888Y-17547633D01*
X8540003Y-17355790D01*
X9769787Y-16126005D01*
X9769790Y-16126003D01*
X9961633Y-15838888D01*
X10029000Y-15500213D01*
X10029000Y-12432815D01*
X16114630Y-12432815D01*
X16438980Y-13217800D01*
X17039041Y-13818909D01*
X17823459Y-14144628D01*
X18672815Y-14145370D01*
X19457800Y-13821020D01*
X20058909Y-13220959D01*
X20384628Y-12436541D01*
X20385370Y-11587185D01*
X20061020Y-10802200D01*
X19460959Y-10201091D01*
X18676541Y-9875372D01*
X17827185Y-9874630D01*
X17042200Y-10198980D01*
X16441091Y-10799041D01*
X16115372Y-11583459D01*
X16114630Y-12432815D01*
X10029000Y-12432815D01*
X10029000Y-7616000D01*
X15561415Y-7616000D01*
X15922223Y-7765820D01*
X16333971Y-7766179D01*
X16714515Y-7608942D01*
X17005919Y-7318046D01*
X17163820Y-6937777D01*
X17164179Y-6526029D01*
X17006942Y-6145485D01*
X16716046Y-5854081D01*
X16335777Y-5696180D01*
X15924029Y-5695821D01*
X15560567Y-5846000D01*
X1143005Y-5846000D01*
X1143000Y-5845999D01*
X804325Y-5913367D01*
X517210Y-6105210D01*
X517208Y-6105213D01*
X-752790Y-7375210D01*
X-944633Y-7662325D01*
X-944633Y-7662326D01*
X-1012001Y-8001000D01*
X-1012000Y-8001005D01*
X-1012000Y-12333421D01*
X-1983580Y-13305000D01*
X-5096602Y-13305000D01*
X-5113106Y-13265057D01*
X-5539978Y-12837438D01*
X-5527073Y-12802532D01*
X-6500000Y-11829605D01*
X-7472927Y-12802532D01*
X-7459836Y-12837938D01*
X-7885278Y-13262637D01*
X-8134716Y-13863352D01*
X-8135284Y-14513795D01*
X-24638000Y-14513795D01*
X-24638000Y-12432815D01*
X-20385370Y-12432815D01*
X-20061020Y-13217800D01*
X-19460959Y-13818909D01*
X-18676541Y-14144628D01*
X-17827185Y-14145370D01*
X-17042200Y-13821020D01*
X-16441091Y-13220959D01*
X-16115372Y-12436541D01*
X-16114630Y-11587185D01*
X-16197980Y-11385461D01*
X-8145908Y-11385461D01*
X-8121856Y-12035460D01*
X-7919387Y-12524264D01*
X-7652532Y-12622927D01*
X-6679605Y-11650000D01*
X-6320395Y-11650000D01*
X-5347468Y-12622927D01*
X-5080613Y-12524264D01*
X-4854092Y-11914539D01*
X-4878144Y-11264540D01*
X-5080613Y-10775736D01*
X-5347468Y-10677073D01*
X-6320395Y-11650000D01*
X-6679605Y-11650000D01*
X-7652532Y-10677073D01*
X-7919387Y-10775736D01*
X-8145908Y-11385461D01*
X-16197980Y-11385461D01*
X-16438980Y-10802200D01*
X-16743180Y-10497468D01*
X-7472927Y-10497468D01*
X-6500000Y-11470395D01*
X-5527073Y-10497468D01*
X-5625736Y-10230613D01*
X-6235461Y-10004092D01*
X-6885460Y-10028144D01*
X-7374264Y-10230613D01*
X-7472927Y-10497468D01*
X-16743180Y-10497468D01*
X-17039041Y-10201091D01*
X-17823459Y-9875372D01*
X-18672815Y-9874630D01*
X-19457800Y-10198980D01*
X-20058909Y-10799041D01*
X-20384628Y-11583459D01*
X-20385370Y-12432815D01*
X-24638000Y-12432815D01*
X-24638000Y4155000D01*
X-3297440Y4155000D01*
X-3297440Y2905000D01*
X-3200581Y2418058D01*
X-2924751Y2005249D01*
X-2511942Y1729419D01*
X-2025000Y1632560D01*
X-775000Y1632560D01*
X-288058Y1729419D01*
X0Y1921893D01*
X288058Y1729419D01*
X775000Y1632560D01*
X2025000Y1632560D01*
X2511942Y1729419D01*
X2924751Y2005249D01*
X3200581Y2418058D01*
X3297440Y2905000D01*
X3297440Y4155000D01*
X3200581Y4641942D01*
X2924751Y5054751D01*
X2532000Y5317179D01*
X2532000Y7784868D01*
X4534133Y9787000D01*
X12912377Y9787000D01*
X12835000Y9398000D01*
X12921397Y8963654D01*
X12955362Y8912822D01*
X12601781Y8676566D01*
X12355744Y8308346D01*
X12269347Y7874000D01*
X12269347Y3714479D01*
X6159868Y-2395000D01*
X3185174Y-2395000D01*
X2924751Y-2005249D01*
X2511942Y-1729419D01*
X2025000Y-1632560D01*
X775000Y-1632560D01*
X288058Y-1729419D01*
X0Y-1921893D01*
X-288058Y-1729419D01*
X-775000Y-1632560D01*
X-2025000Y-1632560D01*
X-2511942Y-1729419D01*
X-2924751Y-2005249D01*
X-3200581Y-2418058D01*
X-3297440Y-2905000D01*
X-3297440Y-4155000D01*
X-3200581Y-4641942D01*
X-2924751Y-5054751D01*
X-2511942Y-5330581D01*
X-2025000Y-5427440D01*
X-775000Y-5427440D01*
X-288058Y-5330581D01*
X0Y-5138107D01*
X288058Y-5330581D01*
X775000Y-5427440D01*
X2025000Y-5427440D01*
X2511942Y-5330581D01*
X2924751Y-5054751D01*
X3185174Y-4665000D01*
X6630000Y-4665000D01*
X7064346Y-4578603D01*
X7432566Y-4332566D01*
X14206913Y2441781D01*
X14452950Y2810001D01*
X14471689Y2904210D01*
X14539347Y3244347D01*
X14539347Y6915580D01*
X14772598Y7071434D01*
X15018635Y7439654D01*
X15105032Y7874000D01*
X15021236Y8295271D01*
X15293346Y8349397D01*
X15661566Y8595434D01*
X16423574Y9357442D01*
X16588838Y9604777D01*
X16669611Y9725662D01*
X16756008Y10160008D01*
X16756008Y10484618D01*
X17039041Y10201091D01*
X17823459Y9875372D01*
X18672815Y9874630D01*
X19457800Y10198980D01*
X20058909Y10799041D01*
X20384628Y11583459D01*
X20385370Y12432815D01*
X20061020Y13217800D01*
X19460959Y13818909D01*
X18676541Y14144628D01*
X17827185Y14145370D01*
X17042200Y13821020D01*
X16756008Y13535327D01*
X16756008Y17018000D01*
X16669611Y17452346D01*
X16423574Y17820566D01*
X16055354Y18066603D01*
X15621008Y18153000D01*
X15186662Y18066603D01*
X14818442Y17820566D01*
X14572405Y17452346D01*
X14486008Y17018000D01*
X14486008Y11916042D01*
X14404352Y11970603D01*
X13970006Y12057000D01*
X4064000Y12057000D01*
X3629655Y11970604D01*
X3261434Y11724567D01*
X594434Y9057566D01*
X348397Y8689346D01*
X262000Y8255000D01*
X262000Y5313170D01*
X0Y5138107D01*
X-288058Y5330581D01*
X-775000Y5427440D01*
X-2025000Y5427440D01*
X-2511942Y5330581D01*
X-2924751Y5054751D01*
X-3200581Y4641942D01*
X-3297440Y4155000D01*
X-24638000Y4155000D01*
X-24638000Y11587185D01*
X-20385370Y11587185D01*
X-20061020Y10802200D01*
X-19460959Y10201091D01*
X-18676541Y9875372D01*
X-17827185Y9874630D01*
X-17042200Y10198980D01*
X-16441091Y10799041D01*
X-16115372Y11583459D01*
X-16114630Y12432815D01*
X-16438980Y13217800D01*
X-17039041Y13818909D01*
X-17823459Y14144628D01*
X-18672815Y14145370D01*
X-19457800Y13821020D01*
X-20058909Y13220959D01*
X-20384628Y12436541D01*
X-20385370Y11587185D01*
X-24638000Y11587185D01*
X-24638000Y19050000D01*
X-14851000Y19050000D01*
X-14851000Y10922000D01*
X-14764603Y10487654D01*
X-14518566Y10119434D01*
X-14150346Y9873397D01*
X-13716000Y9787000D01*
X-13281654Y9873397D01*
X-12913434Y10119434D01*
X-12667397Y10487654D01*
X-12581000Y10922000D01*
X-12581000Y18579868D01*
X-11620500Y19540368D01*
X-11597566Y19517434D01*
X-11229345Y19271397D01*
X-10795000Y19185000D01*
X-10360655Y19271397D01*
X-9992434Y19517434D01*
X-9746397Y19885655D01*
X-9660000Y20320000D01*
X-9746397Y20754345D01*
X-9970674Y21090000D01*
X-343132Y21090000D01*
X-119018Y20865886D01*
X-119018Y11684000D01*
X-32621Y11249654D01*
X213416Y10881434D01*
X581636Y10635397D01*
X1015982Y10549000D01*
X1450328Y10635397D01*
X1818548Y10881434D01*
X2064585Y11249654D01*
X2150982Y11684000D01*
X2150982Y17661000D01*
X8382000Y17661000D01*
X8816346Y17747397D01*
X9184566Y17993434D01*
X10327566Y19136434D01*
X10573603Y19504655D01*
X10660000Y19939000D01*
X10573603Y20373345D01*
X10327566Y20741566D01*
X9959345Y20987603D01*
X9525000Y21074000D01*
X9090655Y20987603D01*
X8722434Y20741566D01*
X7911868Y19931000D01*
X2150982Y19931000D01*
X2150982Y21336018D01*
X2064585Y21770364D01*
X1818548Y22138584D01*
X929566Y23027566D01*
X561345Y23273603D01*
X127000Y23360000D01*
X119000Y23358409D01*
X119000Y25019000D01*
X32603Y25453346D01*
X-213434Y25821566D01*
X-3642434Y29250566D01*
X-4010655Y29496603D01*
X-4445000Y29583000D01*
X-4879345Y29496603D01*
X-5247566Y29250566D01*
X-5493603Y28882345D01*
X-5580000Y28448000D01*
X-5493603Y28013655D01*
X-5247566Y27645434D01*
X-2151000Y24548868D01*
X-2151000Y23360000D01*
X-10541000Y23360000D01*
X-10975346Y23273603D01*
X-11220195Y23110000D01*
X-11343566Y23027566D01*
X-14518566Y19852566D01*
X-14764603Y19484346D01*
X-14851000Y19050000D01*
X-24638000Y19050000D01*
X-24638000Y26035000D01*
X-24647667Y26083601D01*
X-24675197Y26124803D01*
X-24716399Y26152333D01*
X-24765000Y26162000D01*
X-36698837Y26162000D01*
X-36559547Y30480000D01*
X-23739093Y30480000D01*
X-23626054Y29911715D01*
X-23304147Y29429946D01*
X-22974974Y29210000D01*
X-23304147Y28990054D01*
X-23626054Y28508285D01*
X-23739093Y27940000D01*
X-23626054Y27371715D01*
X-23304147Y26889946D01*
X-23260223Y26860597D01*
X-23322765Y26848157D01*
X-23532809Y26707809D01*
X-23673157Y26497765D01*
X-23722440Y26250000D01*
X-23722440Y24550000D01*
X-23673157Y24302235D01*
X-23532809Y24092191D01*
X-23322765Y23951843D01*
X-23075000Y23902560D01*
X-21375000Y23902560D01*
X-21127235Y23951843D01*
X-20917191Y24092191D01*
X-20776843Y24302235D01*
X-20727560Y24550000D01*
X-20727560Y26250000D01*
X-20776843Y26497765D01*
X-20917191Y26707809D01*
X-21062646Y26805000D01*
X-20155132Y26805000D01*
X-18392566Y25042434D01*
X-18024346Y24796397D01*
X-17590000Y24710000D01*
X-16635673Y24710000D01*
X-16626707Y24704009D01*
X-16154093Y24610000D01*
X-15595907Y24610000D01*
X-15123293Y24704009D01*
X-14722630Y24971723D01*
X-14454916Y25372386D01*
X-14360907Y25845000D01*
X-14454916Y26317614D01*
X-14722630Y26718277D01*
X-14912285Y26845000D01*
X-14722630Y26971723D01*
X-14454916Y27372386D01*
X-14360907Y27845000D01*
X-14454916Y28317614D01*
X-14706486Y28694116D01*
X-14567191Y28787191D01*
X-14426843Y28997235D01*
X-14377560Y29245000D01*
X-14377560Y30445000D01*
X-14426843Y30692765D01*
X-14541928Y30865000D01*
X-14082580Y30865000D01*
X-12690792Y29473213D01*
X-12690790Y29473210D01*
X-12626040Y29429946D01*
X-12403674Y29281366D01*
X-12065000Y29213999D01*
X-12064995Y29214000D01*
X-7933585Y29214000D01*
X-7572777Y29064180D01*
X-7161029Y29063821D01*
X-6780485Y29221058D01*
X-6489081Y29511954D01*
X-6331180Y29892223D01*
X-6330821Y30303971D01*
X-6488058Y30684515D01*
X-6778954Y30975919D01*
X-7159223Y31133820D01*
X-7570971Y31134179D01*
X-7934433Y30984000D01*
X-11698421Y30984000D01*
X-13090210Y32375790D01*
X-13132160Y32403820D01*
X-13377325Y32567633D01*
X-13433516Y32578810D01*
X-13716000Y32635001D01*
X-13716005Y32635000D01*
X-20954995Y32635000D01*
X-20955000Y32635001D01*
X-21293675Y32567633D01*
X-21580790Y32375790D01*
X-21580792Y32375787D01*
X-22025480Y31931100D01*
X-22195907Y31965000D01*
X-22254093Y31965000D01*
X-22822378Y31851961D01*
X-23304147Y31530054D01*
X-23626054Y31048285D01*
X-23739093Y30480000D01*
X-36559547Y30480000D01*
X-36344797Y37137249D01*
X-35919696Y36711404D01*
X-35355723Y36477222D01*
X-34745062Y36476690D01*
X-34180682Y36709887D01*
X-33971821Y36918383D01*
X-33967787Y36901250D01*
X-33820195Y36696231D01*
X-33605380Y36563300D01*
X-33356047Y36522693D01*
X-31557144Y36585512D01*
X-31311250Y36643413D01*
X-31106231Y36791005D01*
X-30973300Y37005820D01*
X-30932693Y37255153D01*
X-30948505Y37707964D01*
X-30547118Y37707964D01*
X-30313921Y37143584D01*
X-29882496Y36711404D01*
X-29318523Y36477222D01*
X-28707862Y36476690D01*
X-28143482Y36709887D01*
X-27934621Y36918383D01*
X-27930587Y36901250D01*
X-27782995Y36696231D01*
X-27568180Y36563300D01*
X-27318847Y36522693D01*
X-25519944Y36585512D01*
X-25274050Y36643413D01*
X-25069031Y36791005D01*
X-24936100Y37005820D01*
X-24895493Y37255153D01*
X-24958312Y39054056D01*
X-25016213Y39299950D01*
X-25163805Y39504969D01*
X-25378620Y39637900D01*
X-25627953Y39678507D01*
X-27426856Y39615688D01*
X-27672750Y39557787D01*
X-27877769Y39410195D01*
X-28010700Y39195380D01*
X-28012606Y39183677D01*
X-28141210Y39312506D01*
X-28705183Y39546688D01*
X-29315844Y39547220D01*
X-29880224Y39314023D01*
X-30312404Y38882598D01*
X-30546586Y38318625D01*
X-30547118Y37707964D01*
X-30948505Y37707964D01*
X-30995512Y39054056D01*
X-31053413Y39299950D01*
X-31201005Y39504969D01*
X-31415820Y39637900D01*
X-31665153Y39678507D01*
X-33464056Y39615688D01*
X-33709950Y39557787D01*
X-33914969Y39410195D01*
X-34047900Y39195380D01*
X-34049806Y39183677D01*
X-34178410Y39312506D01*
X-34742383Y39546688D01*
X-35353044Y39547220D01*
X-35917424Y39314023D01*
X-36286462Y38945630D01*
X-36069414Y45674119D01*
X-30719245Y52451000D01*
X-29456000Y52451000D01*
X-29369603Y52016655D01*
X-29123566Y51648434D01*
X-22138566Y44663434D01*
X-21770345Y44417397D01*
X-21336000Y44331000D01*
X-20901655Y44417397D01*
X-20533434Y44663434D01*
X-20287397Y45031655D01*
X-20201000Y45466000D01*
X-20287397Y45900345D01*
X-20533434Y46268566D01*
X-27518434Y53253566D01*
X-27886655Y53499603D01*
X-28321000Y53586000D01*
X-28755345Y53499603D01*
X-29123566Y53253566D01*
X-29369603Y52885345D01*
X-29456000Y52451000D01*
X-30719245Y52451000D01*
X-26808982Y57404000D01*
X-21205001Y57404000D01*
X-21205000Y57403995D01*
X-21205000Y52578005D01*
X-21205001Y52578000D01*
X-21154936Y52326311D01*
X-21137633Y52239325D01*
X-20954702Y51965548D01*
X-20945790Y51952210D01*
X-20183792Y51190213D01*
X-20183790Y51190210D01*
X-19896675Y50998367D01*
X-19847141Y50988514D01*
X-19564430Y50932278D01*
X-19842551Y50654643D01*
X-20076733Y50090670D01*
X-20077265Y49480009D01*
X-19844068Y48915629D01*
X-19427000Y48497831D01*
X-19427000Y45212005D01*
X-19427001Y45212000D01*
X-19391127Y45031655D01*
X-19359633Y44873325D01*
X-19238422Y44691919D01*
X-19167790Y44586210D01*
X-18299131Y43717552D01*
X-18149942Y43356485D01*
X-17859046Y43065081D01*
X-17478777Y42907180D01*
X-17067029Y42906821D01*
X-16686485Y43064058D01*
X-16395081Y43354954D01*
X-16237180Y43735223D01*
X-16236821Y44146971D01*
X-16394058Y44527515D01*
X-16684954Y44818919D01*
X-17048152Y44969732D01*
X-17657000Y45578580D01*
X-17657000Y48498532D01*
X-17503288Y48651975D01*
X-17500157Y48636235D01*
X-17359809Y48426191D01*
X-17149765Y48285843D01*
X-16902000Y48236560D01*
X-15102000Y48236560D01*
X-14854235Y48285843D01*
X-14644191Y48426191D01*
X-14503843Y48636235D01*
X-14454560Y48884000D01*
X-14454560Y50684000D01*
X-14503691Y50931000D01*
X-12337886Y50931000D01*
X-12338179Y50595029D01*
X-12188000Y50231567D01*
X-12188000Y50023579D01*
X-14341790Y47869790D01*
X-14533633Y47582675D01*
X-14534553Y47578049D01*
X-14601001Y47244000D01*
X-14601000Y47243995D01*
X-14601000Y38032585D01*
X-14750820Y37671777D01*
X-14751179Y37260029D01*
X-14593942Y36879485D01*
X-14303046Y36588081D01*
X-13939849Y36437269D01*
X-11166792Y33664213D01*
X-11166790Y33664210D01*
X-10879675Y33472367D01*
X-10823484Y33461190D01*
X-10541000Y33404999D01*
X-10540995Y33405000D01*
X-7933585Y33405000D01*
X-7572777Y33255180D01*
X-7161029Y33254821D01*
X-6780485Y33412058D01*
X-6489081Y33702954D01*
X-6331180Y34083223D01*
X-6330821Y34494971D01*
X-6488058Y34875515D01*
X-6778954Y35166919D01*
X-7159223Y35324820D01*
X-7570971Y35325179D01*
X-7934433Y35175000D01*
X-10174421Y35175000D01*
X-12688869Y37689449D01*
X-12831000Y38033433D01*
X-12831000Y40435029D01*
X-5353179Y40435029D01*
X-5203000Y40071567D01*
X-5203000Y38481005D01*
X-5203001Y38481000D01*
X-5170346Y38316836D01*
X-5135633Y38142325D01*
X-4989430Y37923515D01*
X-4943790Y37855210D01*
X-3038792Y35950213D01*
X-3038790Y35950210D01*
X-2751675Y35758367D01*
X-2695484Y35747190D01*
X-2413000Y35690999D01*
X-2412995Y35691000D01*
X-377000Y35691000D01*
X-377000Y29844993D01*
X-377001Y29844988D01*
X-327274Y29594999D01*
X-309633Y29506313D01*
X-188430Y29324919D01*
X-117790Y29219198D01*
X2274868Y26826541D01*
X2424058Y26465473D01*
X2714954Y26174069D01*
X3095223Y26016168D01*
X3506971Y26015809D01*
X3887515Y26173046D01*
X4178919Y26463942D01*
X4336820Y26844211D01*
X4337179Y27255959D01*
X4179942Y27636503D01*
X3889046Y27927907D01*
X3525847Y28078720D01*
X1393000Y30211568D01*
X1393000Y35691000D01*
X3705420Y35691000D01*
X3331551Y35317131D01*
X2970485Y35167942D01*
X2679081Y34877046D01*
X2521180Y34496777D01*
X2520821Y34085029D01*
X2671000Y33721567D01*
X2671000Y31936585D01*
X2521180Y31575777D01*
X2520821Y31164029D01*
X2678058Y30783485D01*
X2968954Y30492081D01*
X3349223Y30334180D01*
X3760971Y30333821D01*
X4141515Y30491058D01*
X4432919Y30781954D01*
X4590820Y31162223D01*
X4591179Y31573971D01*
X4441000Y31937433D01*
X4441000Y33722415D01*
X4583731Y34066151D01*
X7986579Y37469000D01*
X7998436Y37469000D01*
X8359244Y37319180D01*
X8425448Y37319122D01*
X8425234Y37073657D01*
X8582471Y36693113D01*
X8613000Y36662531D01*
X8613000Y26840805D01*
X8521081Y26749046D01*
X8363180Y26368777D01*
X8362821Y25957029D01*
X8520058Y25576485D01*
X8810954Y25285081D01*
X9191223Y25127180D01*
X9330733Y25127058D01*
X9407838Y24940449D01*
X9698734Y24649045D01*
X10079003Y24491144D01*
X10490751Y24490785D01*
X10871295Y24648022D01*
X11048965Y24825382D01*
X11223954Y24650087D01*
X11604223Y24492186D01*
X12015971Y24491827D01*
X12396515Y24649064D01*
X12687919Y24939960D01*
X12845820Y25320229D01*
X12846179Y25731977D01*
X12688942Y26112521D01*
X12596000Y26205625D01*
X12596000Y26751159D01*
X12713166Y26467595D01*
X13004062Y26176191D01*
X13384331Y26018290D01*
X13796079Y26017931D01*
X14176623Y26175168D01*
X14373407Y26371609D01*
X14548290Y26196421D01*
X14928559Y26038520D01*
X15340307Y26038161D01*
X15720851Y26195398D01*
X16012255Y26486294D01*
X16170156Y26866563D01*
X16170515Y27278311D01*
X16013278Y27658855D01*
X15898000Y27774334D01*
X15898000Y35897201D01*
X15989919Y35988960D01*
X16147820Y36369229D01*
X16148179Y36780977D01*
X15990942Y37161521D01*
X15700046Y37452925D01*
X15661333Y37469000D01*
X16270420Y37469000D01*
X19313208Y34426213D01*
X19313210Y34426210D01*
X19517064Y34290000D01*
X19600325Y34234367D01*
X19939000Y34166999D01*
X19939005Y34167000D01*
X21858420Y34167000D01*
X22742208Y33283213D01*
X22742210Y33283210D01*
X23029325Y33091367D01*
X23368000Y33023999D01*
X23368005Y33024000D01*
X26610409Y33024000D01*
X26971217Y32874180D01*
X27382965Y32873821D01*
X27763509Y33031058D01*
X28054913Y33321954D01*
X28212814Y33702223D01*
X28213173Y34113971D01*
X28055936Y34494515D01*
X27765040Y34785919D01*
X27384771Y34943820D01*
X26973023Y34944179D01*
X26609561Y34794000D01*
X23734579Y34794000D01*
X23110000Y35418580D01*
X23110000Y36194995D01*
X23110001Y36195000D01*
X23042633Y36533674D01*
X23042633Y36533675D01*
X22850790Y36820790D01*
X22850787Y36820792D01*
X18786790Y40884790D01*
X18646280Y40978675D01*
X18499675Y41076633D01*
X18443484Y41087810D01*
X18161000Y41144001D01*
X18160995Y41144000D01*
X12431579Y41144000D01*
X11680000Y41895580D01*
X11680000Y48772000D01*
X14545407Y48772000D01*
X14906215Y48622180D01*
X15317963Y48621821D01*
X15698507Y48779058D01*
X15989911Y49069954D01*
X16147812Y49450223D01*
X16147972Y49634000D01*
X18978842Y49634000D01*
X20932008Y47680834D01*
X20932008Y42969805D01*
X20840089Y42878046D01*
X20682188Y42497777D01*
X20681829Y42086029D01*
X20839066Y41705485D01*
X21129962Y41414081D01*
X21510231Y41256180D01*
X21921979Y41255821D01*
X22302523Y41413058D01*
X22593927Y41703954D01*
X22751828Y42084223D01*
X22752187Y42495971D01*
X22594950Y42876515D01*
X22502008Y42969619D01*
X22502008Y48005987D01*
X22502009Y48005992D01*
X22442253Y48306398D01*
X22272087Y48561071D01*
X19859079Y50974079D01*
X19604407Y51144245D01*
X19304000Y51204000D01*
X16032288Y51204000D01*
X16147816Y51482223D01*
X16148175Y51893971D01*
X15990938Y52274515D01*
X15700042Y52565919D01*
X15319773Y52723820D01*
X14908025Y52724179D01*
X14527481Y52566942D01*
X14236077Y52276046D01*
X14078176Y51895777D01*
X14078061Y51764219D01*
X14025842Y51712000D01*
X-254000Y51712000D01*
X-554407Y51652245D01*
X-809079Y51482079D01*
X-1825079Y50466079D01*
X-1995245Y50211407D01*
X-2040686Y49982959D01*
X-2055000Y49911000D01*
X-2055000Y43604805D01*
X-2146919Y43513046D01*
X-2304820Y43132777D01*
X-2305179Y42721029D01*
X-2147942Y42340485D01*
X-1857046Y42049081D01*
X-1476777Y41891180D01*
X-1065029Y41890821D01*
X-684485Y42048058D01*
X-393081Y42338954D01*
X-235180Y42719223D01*
X-235103Y42807887D01*
X77515Y42937058D01*
X368919Y43227954D01*
X526820Y43608223D01*
X527179Y44019971D01*
X369942Y44400515D01*
X277000Y44493619D01*
X277000Y49458842D01*
X452158Y49634000D01*
X4160704Y49634000D01*
X4045176Y49355777D01*
X4044817Y48944029D01*
X4194996Y48580567D01*
X4194996Y48514009D01*
X4194995Y48514004D01*
X4240380Y48285843D01*
X4262363Y48175329D01*
X4420485Y47938681D01*
X4454206Y47888214D01*
X5216208Y47126213D01*
X5216210Y47126210D01*
X5503325Y46934367D01*
X5842000Y46867000D01*
X7380420Y46867000D01*
X7878000Y46369421D01*
X7878000Y41223098D01*
X7669485Y41136942D01*
X7378081Y40846046D01*
X7220180Y40465777D01*
X7219996Y40255000D01*
X6858005Y40255000D01*
X6858000Y40255001D01*
X6575516Y40198810D01*
X6519325Y40187633D01*
X6232210Y39995790D01*
X6232208Y39995787D01*
X3697420Y37461000D01*
X1393000Y37461000D01*
X1393000Y38040415D01*
X1542820Y38401223D01*
X1543179Y38812971D01*
X1385942Y39193515D01*
X1095046Y39484919D01*
X714777Y39642820D01*
X303029Y39643179D01*
X-77515Y39485942D01*
X-368919Y39195046D01*
X-526820Y38814777D01*
X-527179Y38403029D01*
X-377000Y38039567D01*
X-377000Y37461000D01*
X-2046421Y37461000D01*
X-3433000Y38847580D01*
X-3433000Y40072415D01*
X-3283180Y40433223D01*
X-3282821Y40844971D01*
X-3440058Y41225515D01*
X-3730954Y41516919D01*
X-4111223Y41674820D01*
X-4522971Y41675179D01*
X-4903515Y41517942D01*
X-5194919Y41227046D01*
X-5352820Y40846777D01*
X-5353179Y40435029D01*
X-12831000Y40435029D01*
X-12831000Y46877420D01*
X-10677213Y49031208D01*
X-10677210Y49031210D01*
X-10485367Y49318325D01*
X-10418000Y49657000D01*
X-10418000Y50232415D01*
X-10268180Y50593223D01*
X-10267885Y50931000D01*
X-9711585Y50931000D01*
X-9367849Y50788269D01*
X-5965000Y47385421D01*
X-5965000Y46287585D01*
X-6114820Y45926777D01*
X-6115179Y45515029D01*
X-5957942Y45134485D01*
X-5667046Y44843081D01*
X-5286777Y44685180D01*
X-4875029Y44684821D01*
X-4494485Y44842058D01*
X-4203081Y45132954D01*
X-4045180Y45513223D01*
X-4044821Y45924971D01*
X-4195000Y46288433D01*
X-4195000Y47751995D01*
X-4194999Y47752000D01*
X-4262367Y48090674D01*
X-4262367Y48090675D01*
X-4454210Y48377790D01*
X-4454213Y48377792D01*
X-8116869Y52040449D01*
X-8266058Y52401515D01*
X-8556954Y52692919D01*
X-8937223Y52850820D01*
X-9348971Y52851179D01*
X-9712433Y52701000D01*
X-17634426Y52701000D01*
X-17348331Y52986595D01*
X-15216410Y52986595D01*
X-15216405Y52986594D01*
X-14902354Y53049064D01*
X-14877730Y53053962D01*
X-14590615Y53245805D01*
X-12486416Y55350005D01*
X5909415Y55350005D01*
X6270223Y55200185D01*
X6681971Y55199826D01*
X7045433Y55350005D01*
X15962332Y55350005D01*
X16377157Y54934454D01*
X16782860Y54765991D01*
X16774728Y54758860D01*
X16662998Y54532293D01*
X16646476Y54280215D01*
X16727677Y54041003D01*
X17627677Y52482157D01*
X17794240Y52292228D01*
X18020807Y52180498D01*
X18272885Y52163976D01*
X18512097Y52245177D01*
X20070943Y53145177D01*
X20260872Y53311740D01*
X20372602Y53538307D01*
X20389124Y53790385D01*
X20307923Y54029597D01*
X19545585Y55350005D01*
X22011415Y55350005D01*
X25109447Y52251974D01*
X25109447Y39298313D01*
X24693896Y38883488D01*
X24459714Y38319515D01*
X24459182Y37708854D01*
X24692379Y37144474D01*
X25123804Y36712294D01*
X25687777Y36478112D01*
X26298438Y36477580D01*
X26862818Y36710777D01*
X26993652Y36841382D01*
X26995600Y36829420D01*
X27128531Y36614605D01*
X27333550Y36467013D01*
X27579444Y36409112D01*
X29378347Y36346293D01*
X29627680Y36386900D01*
X29842495Y36519831D01*
X29990087Y36724850D01*
X30047988Y36970744D01*
X30110807Y38769647D01*
X30070200Y39018980D01*
X29937269Y39233795D01*
X29732250Y39381387D01*
X29486356Y39439288D01*
X27687453Y39502107D01*
X27438120Y39461500D01*
X27223305Y39328569D01*
X27075713Y39123550D01*
X27071684Y39106440D01*
X26879447Y39299014D01*
X26879447Y52618553D01*
X26812080Y52957228D01*
X26620237Y53244343D01*
X26620234Y53244345D01*
X23003785Y56860795D01*
X23000919Y56862710D01*
X22716670Y57052638D01*
X22660479Y57063815D01*
X22377995Y57120006D01*
X22377990Y57120005D01*
X18533268Y57120005D01*
X18118443Y57535556D01*
X17554470Y57769738D01*
X16943809Y57770270D01*
X16379429Y57537073D01*
X15961631Y57120005D01*
X14796035Y57120005D01*
X16187343Y57923277D01*
X16377272Y58089840D01*
X16489002Y58316407D01*
X16505524Y58568485D01*
X16424323Y58807697D01*
X15524323Y60366543D01*
X15357760Y60556472D01*
X15131193Y60668202D01*
X14889632Y60684035D01*
X14898933Y60706435D01*
X14899465Y61317096D01*
X14666268Y61881476D01*
X14234843Y62313656D01*
X13670870Y62547838D01*
X13434393Y62548044D01*
X11041000Y64941437D01*
X11041000Y68453000D01*
X10954603Y68887346D01*
X10708566Y69255566D01*
X10340346Y69501603D01*
X9906000Y69588000D01*
X9471654Y69501603D01*
X9103434Y69255566D01*
X8857397Y68887346D01*
X8771000Y68453000D01*
X8771000Y64471305D01*
X8857397Y64036959D01*
X9046642Y63753734D01*
X9103434Y63668739D01*
X11829139Y60943034D01*
X11828935Y60709114D01*
X12062132Y60144734D01*
X12493557Y59712554D01*
X12899260Y59544091D01*
X12891128Y59536960D01*
X12779398Y59310393D01*
X12762876Y59058315D01*
X12844077Y58819103D01*
X13744077Y57260257D01*
X13867075Y57120005D01*
X7044585Y57120005D01*
X6683777Y57269825D01*
X6272029Y57270184D01*
X6096280Y57197566D01*
X6096361Y57289986D01*
X5939124Y57670530D01*
X5865000Y57744783D01*
X5865000Y58941750D01*
X6130054Y59118853D01*
X6451961Y59600622D01*
X6565000Y60168907D01*
X6565000Y60227093D01*
X6451961Y60795378D01*
X6130054Y61277147D01*
X5648285Y61599054D01*
X5080000Y61712093D01*
X4511715Y61599054D01*
X4029946Y61277147D01*
X3810000Y60947974D01*
X3590054Y61277147D01*
X3108285Y61599054D01*
X2540000Y61712093D01*
X1971715Y61599054D01*
X1489946Y61277147D01*
X1262298Y60936447D01*
X1195183Y61079358D01*
X766924Y61469645D01*
X356890Y61639476D01*
X127000Y61518155D01*
X127000Y60325000D01*
X147000Y60325000D01*
X147000Y60071000D01*
X127000Y60071000D01*
X127000Y58877845D01*
X356890Y58756524D01*
X766924Y58926355D01*
X1195183Y59316642D01*
X1262298Y59459553D01*
X1489946Y59118853D01*
X1655000Y59008568D01*
X1655000Y58532579D01*
X1030420Y57908000D01*
X-9285421Y57908000D01*
X-9656000Y58278580D01*
X-9656000Y61048000D01*
X-6577440Y61048000D01*
X-6577440Y59348000D01*
X-6528157Y59100235D01*
X-6387809Y58890191D01*
X-6177765Y58749843D01*
X-5930000Y58700560D01*
X-4230000Y58700560D01*
X-3982235Y58749843D01*
X-3772191Y58890191D01*
X-3631843Y59100235D01*
X-3619403Y59162777D01*
X-3590054Y59118853D01*
X-3108285Y58796946D01*
X-2540000Y58683907D01*
X-1971715Y58796946D01*
X-1489946Y59118853D01*
X-1262298Y59459553D01*
X-1195183Y59316642D01*
X-766924Y58926355D01*
X-356890Y58756524D01*
X-127000Y58877845D01*
X-127000Y60071000D01*
X-147000Y60071000D01*
X-147000Y60325000D01*
X-127000Y60325000D01*
X-127000Y61518155D01*
X-356890Y61639476D01*
X-766924Y61469645D01*
X-1195183Y61079358D01*
X-1262298Y60936447D01*
X-1489946Y61277147D01*
X-1971715Y61599054D01*
X-2540000Y61712093D01*
X-3108285Y61599054D01*
X-3590054Y61277147D01*
X-3619403Y61233223D01*
X-3631843Y61295765D01*
X-3772191Y61505809D01*
X-3982235Y61646157D01*
X-4230000Y61695440D01*
X-5930000Y61695440D01*
X-6177765Y61646157D01*
X-6387809Y61505809D01*
X-6528157Y61295765D01*
X-6577440Y61048000D01*
X-9656000Y61048000D01*
X-9656000Y62102995D01*
X-9655999Y62103000D01*
X-9723367Y62441675D01*
X-9736882Y62461902D01*
X-9915210Y62728790D01*
X-9915213Y62728792D01*
X-11058210Y63871790D01*
X-11105506Y63903392D01*
X-11345325Y64063633D01*
X-11401516Y64074810D01*
X-11684000Y64131001D01*
X-11684005Y64131000D01*
X-14477995Y64131000D01*
X-14478000Y64131001D01*
X-14760484Y64074810D01*
X-14816675Y64063633D01*
X-15103790Y63871790D01*
X-15103792Y63871787D01*
X-20945790Y58029790D01*
X-21137633Y57742675D01*
X-21144937Y57705954D01*
X-21205001Y57404000D01*
X-26808982Y57404000D01*
X-17083456Y69723000D01*
X17083456Y69723000D01*
X36069414Y45674119D01*
X36069414Y45674119D01*
G37*
X36069414Y45674119D02*
X36274290Y39322975D01*
X36193150Y39381387D01*
X35947256Y39439288D01*
X34148353Y39502107D01*
X33899020Y39461500D01*
X33684205Y39328569D01*
X33536613Y39123550D01*
X33532584Y39106440D01*
X33325990Y39313396D01*
X32762017Y39547578D01*
X32151356Y39548110D01*
X31586976Y39314913D01*
X31154796Y38883488D01*
X30920614Y38319515D01*
X30920082Y37708854D01*
X31153279Y37144474D01*
X31584704Y36712294D01*
X32148677Y36478112D01*
X32759338Y36477580D01*
X33323718Y36710777D01*
X33454552Y36841382D01*
X33456500Y36829420D01*
X33589431Y36614605D01*
X33794450Y36467013D01*
X34040344Y36409112D01*
X35839247Y36346293D01*
X36088580Y36386900D01*
X36303395Y36519831D01*
X36362084Y36601355D01*
X36698837Y26162000D01*
X24765000Y26162000D01*
X24716399Y26152333D01*
X24675197Y26124803D01*
X24647667Y26083601D01*
X24638000Y26035000D01*
X24638000Y-22172394D01*
X17727394Y-29083000D01*
X3220572Y-29083000D01*
X3220572Y-24176373D01*
X3619147Y-23910054D01*
X3941054Y-23428285D01*
X4054093Y-22860000D01*
X3941054Y-22291715D01*
X3619147Y-21809946D01*
X3289974Y-21590000D01*
X3619147Y-21370054D01*
X3941054Y-20888285D01*
X4033698Y-20422532D01*
X5527073Y-20422532D01*
X5625736Y-20689387D01*
X6235461Y-20915908D01*
X6885460Y-20891856D01*
X7374264Y-20689387D01*
X7472927Y-20422532D01*
X6500000Y-19449605D01*
X5527073Y-20422532D01*
X4033698Y-20422532D01*
X4054093Y-20320000D01*
X3941054Y-19751715D01*
X3619147Y-19269946D01*
X3289974Y-19050000D01*
X3356631Y-19005461D01*
X4854092Y-19005461D01*
X4878144Y-19655460D01*
X5080613Y-20144264D01*
X5347468Y-20242927D01*
X6320395Y-19270000D01*
X6679605Y-19270000D01*
X7652532Y-20242927D01*
X7919387Y-20144264D01*
X8145908Y-19534539D01*
X8121856Y-18884540D01*
X7919387Y-18395736D01*
X7652532Y-18297073D01*
X6679605Y-19270000D01*
X6320395Y-19270000D01*
X5347468Y-18297073D01*
X5080613Y-18395736D01*
X4854092Y-19005461D01*
X3356631Y-19005461D01*
X3619147Y-18830054D01*
X3941054Y-18348285D01*
X4054093Y-17780000D01*
X3941054Y-17211715D01*
X3619147Y-16729946D01*
X3278447Y-16502298D01*
X3421358Y-16435183D01*
X3811645Y-16006924D01*
X3981476Y-15596890D01*
X3860155Y-15367000D01*
X2667000Y-15367000D01*
X2667000Y-15387000D01*
X2413000Y-15387000D01*
X2413000Y-15367000D01*
X1219845Y-15367000D01*
X1098524Y-15596890D01*
X1268355Y-16006924D01*
X1658642Y-16435183D01*
X1801553Y-16502298D01*
X1460853Y-16729946D01*
X1138946Y-17211715D01*
X1025907Y-17780000D01*
X1138946Y-18348285D01*
X1460853Y-18830054D01*
X1790026Y-19050000D01*
X1460853Y-19269946D01*
X1138946Y-19751715D01*
X1025907Y-20320000D01*
X1138946Y-20888285D01*
X1460853Y-21370054D01*
X1790026Y-21590000D01*
X1460853Y-21809946D01*
X1138946Y-22291715D01*
X1025907Y-22860000D01*
X1138946Y-23428285D01*
X1460853Y-23910054D01*
X1574514Y-23986000D01*
X-18206571Y-23986000D01*
X-18206571Y-27968823D01*
X-24638000Y-21537394D01*
X-24638000Y-14513795D01*
X-8135284Y-14513795D01*
X-7886894Y-15114943D01*
X-7542241Y-15460199D01*
X-7885278Y-15802637D01*
X-8134716Y-16403352D01*
X-8135284Y-17053795D01*
X-7886894Y-17654943D01*
X-7542241Y-18000199D01*
X-7885278Y-18342637D01*
X-8134716Y-18943352D01*
X-8135284Y-19593795D01*
X-7886894Y-20194943D01*
X-7427363Y-20655278D01*
X-6826648Y-20904716D01*
X-6176205Y-20905284D01*
X-5575057Y-20656894D01*
X-5114722Y-20197363D01*
X-4865284Y-19596648D01*
X-4864716Y-18946205D01*
X-5113106Y-18345057D01*
X-5457759Y-17999801D01*
X-5114722Y-17657363D01*
X-4865284Y-17056648D01*
X-4864716Y-16406205D01*
X-5113106Y-15805057D01*
X-5457759Y-15459801D01*
X-5114722Y-15117363D01*
X-5097131Y-15075000D01*
X-1617005Y-15075000D01*
X-1617000Y-15075001D01*
X-1334516Y-15018810D01*
X-1278325Y-15007633D01*
X-991210Y-14815790D01*
X239579Y-13585000D01*
X1350568Y-13585000D01*
X1460853Y-13750054D01*
X1801553Y-13977702D01*
X1658642Y-14044817D01*
X1268355Y-14473076D01*
X1098524Y-14883110D01*
X1219845Y-15113000D01*
X2413000Y-15113000D01*
X2413000Y-15093000D01*
X2667000Y-15093000D01*
X2667000Y-15113000D01*
X3860155Y-15113000D01*
X3981476Y-14883110D01*
X3811645Y-14473076D01*
X3421358Y-14044817D01*
X3278447Y-13977702D01*
X3619147Y-13750054D01*
X3941054Y-13268285D01*
X4054093Y-12700000D01*
X3941054Y-12131715D01*
X3619147Y-11649946D01*
X3575223Y-11620597D01*
X3637765Y-11608157D01*
X3847809Y-11467809D01*
X3988157Y-11257765D01*
X4037440Y-11010000D01*
X4037440Y-9310000D01*
X3988157Y-9062235D01*
X3847809Y-8852191D01*
X3637765Y-8711843D01*
X3390000Y-8662560D01*
X1690000Y-8662560D01*
X1442235Y-8711843D01*
X1232191Y-8852191D01*
X1091843Y-9062235D01*
X1042560Y-9310000D01*
X1042560Y-11010000D01*
X1091843Y-11257765D01*
X1232191Y-11467809D01*
X1442235Y-11608157D01*
X1504777Y-11620597D01*
X1460853Y-11649946D01*
X1350568Y-11815000D01*
X758000Y-11815000D01*
X758000Y-8367580D01*
X1509579Y-7616000D01*
X8259000Y-7616000D01*
X8259000Y-15133634D01*
X7737366Y-15655267D01*
X7542241Y-15459801D01*
X7885278Y-15117363D01*
X8134716Y-14516648D01*
X8135284Y-13866205D01*
X7886894Y-13265057D01*
X7542241Y-12919801D01*
X7885278Y-12577363D01*
X8134716Y-11976648D01*
X8135284Y-11326205D01*
X7886894Y-10725057D01*
X7427363Y-10264722D01*
X6826648Y-10015284D01*
X6176205Y-10014716D01*
X5575057Y-10263106D01*
X5114722Y-10722637D01*
X4865284Y-11323352D01*
X4864716Y-11973795D01*
X5113106Y-12574943D01*
X5457759Y-12920199D01*
X5114722Y-13262637D01*
X4865284Y-13863352D01*
X4864716Y-14513795D01*
X5113106Y-15114943D01*
X5457759Y-15460199D01*
X5114722Y-15802637D01*
X4865284Y-16403352D01*
X4864716Y-17053795D01*
X5113106Y-17654943D01*
X5539978Y-18082562D01*
X5527073Y-18117468D01*
X6500000Y-19090395D01*
X7472927Y-18117468D01*
X7459836Y-18082062D01*
X7885278Y-17657363D01*
X7902869Y-17615000D01*
X7914208Y-17615000D01*
X7914213Y-17615001D01*
X8196697Y-17558810D01*
X8252888Y-17547633D01*
X8540003Y-17355790D01*
X9769787Y-16126005D01*
X9769790Y-16126003D01*
X9961633Y-15838888D01*
X10029000Y-15500213D01*
X10029000Y-12432815D01*
X16114630Y-12432815D01*
X16438980Y-13217800D01*
X17039041Y-13818909D01*
X17823459Y-14144628D01*
X18672815Y-14145370D01*
X19457800Y-13821020D01*
X20058909Y-13220959D01*
X20384628Y-12436541D01*
X20385370Y-11587185D01*
X20061020Y-10802200D01*
X19460959Y-10201091D01*
X18676541Y-9875372D01*
X17827185Y-9874630D01*
X17042200Y-10198980D01*
X16441091Y-10799041D01*
X16115372Y-11583459D01*
X16114630Y-12432815D01*
X10029000Y-12432815D01*
X10029000Y-7616000D01*
X15561415Y-7616000D01*
X15922223Y-7765820D01*
X16333971Y-7766179D01*
X16714515Y-7608942D01*
X17005919Y-7318046D01*
X17163820Y-6937777D01*
X17164179Y-6526029D01*
X17006942Y-6145485D01*
X16716046Y-5854081D01*
X16335777Y-5696180D01*
X15924029Y-5695821D01*
X15560567Y-5846000D01*
X1143005Y-5846000D01*
X1143000Y-5845999D01*
X804325Y-5913367D01*
X517210Y-6105210D01*
X517208Y-6105213D01*
X-752790Y-7375210D01*
X-944633Y-7662325D01*
X-944633Y-7662326D01*
X-1012001Y-8001000D01*
X-1012000Y-8001005D01*
X-1012000Y-12333421D01*
X-1983580Y-13305000D01*
X-5096602Y-13305000D01*
X-5113106Y-13265057D01*
X-5539978Y-12837438D01*
X-5527073Y-12802532D01*
X-6500000Y-11829605D01*
X-7472927Y-12802532D01*
X-7459836Y-12837938D01*
X-7885278Y-13262637D01*
X-8134716Y-13863352D01*
X-8135284Y-14513795D01*
X-24638000Y-14513795D01*
X-24638000Y-12432815D01*
X-20385370Y-12432815D01*
X-20061020Y-13217800D01*
X-19460959Y-13818909D01*
X-18676541Y-14144628D01*
X-17827185Y-14145370D01*
X-17042200Y-13821020D01*
X-16441091Y-13220959D01*
X-16115372Y-12436541D01*
X-16114630Y-11587185D01*
X-16197980Y-11385461D01*
X-8145908Y-11385461D01*
X-8121856Y-12035460D01*
X-7919387Y-12524264D01*
X-7652532Y-12622927D01*
X-6679605Y-11650000D01*
X-6320395Y-11650000D01*
X-5347468Y-12622927D01*
X-5080613Y-12524264D01*
X-4854092Y-11914539D01*
X-4878144Y-11264540D01*
X-5080613Y-10775736D01*
X-5347468Y-10677073D01*
X-6320395Y-11650000D01*
X-6679605Y-11650000D01*
X-7652532Y-10677073D01*
X-7919387Y-10775736D01*
X-8145908Y-11385461D01*
X-16197980Y-11385461D01*
X-16438980Y-10802200D01*
X-16743180Y-10497468D01*
X-7472927Y-10497468D01*
X-6500000Y-11470395D01*
X-5527073Y-10497468D01*
X-5625736Y-10230613D01*
X-6235461Y-10004092D01*
X-6885460Y-10028144D01*
X-7374264Y-10230613D01*
X-7472927Y-10497468D01*
X-16743180Y-10497468D01*
X-17039041Y-10201091D01*
X-17823459Y-9875372D01*
X-18672815Y-9874630D01*
X-19457800Y-10198980D01*
X-20058909Y-10799041D01*
X-20384628Y-11583459D01*
X-20385370Y-12432815D01*
X-24638000Y-12432815D01*
X-24638000Y4155000D01*
X-3297440Y4155000D01*
X-3297440Y2905000D01*
X-3200581Y2418058D01*
X-2924751Y2005249D01*
X-2511942Y1729419D01*
X-2025000Y1632560D01*
X-775000Y1632560D01*
X-288058Y1729419D01*
X0Y1921893D01*
X288058Y1729419D01*
X775000Y1632560D01*
X2025000Y1632560D01*
X2511942Y1729419D01*
X2924751Y2005249D01*
X3200581Y2418058D01*
X3297440Y2905000D01*
X3297440Y4155000D01*
X3200581Y4641942D01*
X2924751Y5054751D01*
X2532000Y5317179D01*
X2532000Y7784868D01*
X4534133Y9787000D01*
X12912377Y9787000D01*
X12835000Y9398000D01*
X12921397Y8963654D01*
X12955362Y8912822D01*
X12601781Y8676566D01*
X12355744Y8308346D01*
X12269347Y7874000D01*
X12269347Y3714479D01*
X6159868Y-2395000D01*
X3185174Y-2395000D01*
X2924751Y-2005249D01*
X2511942Y-1729419D01*
X2025000Y-1632560D01*
X775000Y-1632560D01*
X288058Y-1729419D01*
X0Y-1921893D01*
X-288058Y-1729419D01*
X-775000Y-1632560D01*
X-2025000Y-1632560D01*
X-2511942Y-1729419D01*
X-2924751Y-2005249D01*
X-3200581Y-2418058D01*
X-3297440Y-2905000D01*
X-3297440Y-4155000D01*
X-3200581Y-4641942D01*
X-2924751Y-5054751D01*
X-2511942Y-5330581D01*
X-2025000Y-5427440D01*
X-775000Y-5427440D01*
X-288058Y-5330581D01*
X0Y-5138107D01*
X288058Y-5330581D01*
X775000Y-5427440D01*
X2025000Y-5427440D01*
X2511942Y-5330581D01*
X2924751Y-5054751D01*
X3185174Y-4665000D01*
X6630000Y-4665000D01*
X7064346Y-4578603D01*
X7432566Y-4332566D01*
X14206913Y2441781D01*
X14452950Y2810001D01*
X14471689Y2904210D01*
X14539347Y3244347D01*
X14539347Y6915580D01*
X14772598Y7071434D01*
X15018635Y7439654D01*
X15105032Y7874000D01*
X15021236Y8295271D01*
X15293346Y8349397D01*
X15661566Y8595434D01*
X16423574Y9357442D01*
X16588838Y9604777D01*
X16669611Y9725662D01*
X16756008Y10160008D01*
X16756008Y10484618D01*
X17039041Y10201091D01*
X17823459Y9875372D01*
X18672815Y9874630D01*
X19457800Y10198980D01*
X20058909Y10799041D01*
X20384628Y11583459D01*
X20385370Y12432815D01*
X20061020Y13217800D01*
X19460959Y13818909D01*
X18676541Y14144628D01*
X17827185Y14145370D01*
X17042200Y13821020D01*
X16756008Y13535327D01*
X16756008Y17018000D01*
X16669611Y17452346D01*
X16423574Y17820566D01*
X16055354Y18066603D01*
X15621008Y18153000D01*
X15186662Y18066603D01*
X14818442Y17820566D01*
X14572405Y17452346D01*
X14486008Y17018000D01*
X14486008Y11916042D01*
X14404352Y11970603D01*
X13970006Y12057000D01*
X4064000Y12057000D01*
X3629655Y11970604D01*
X3261434Y11724567D01*
X594434Y9057566D01*
X348397Y8689346D01*
X262000Y8255000D01*
X262000Y5313170D01*
X0Y5138107D01*
X-288058Y5330581D01*
X-775000Y5427440D01*
X-2025000Y5427440D01*
X-2511942Y5330581D01*
X-2924751Y5054751D01*
X-3200581Y4641942D01*
X-3297440Y4155000D01*
X-24638000Y4155000D01*
X-24638000Y11587185D01*
X-20385370Y11587185D01*
X-20061020Y10802200D01*
X-19460959Y10201091D01*
X-18676541Y9875372D01*
X-17827185Y9874630D01*
X-17042200Y10198980D01*
X-16441091Y10799041D01*
X-16115372Y11583459D01*
X-16114630Y12432815D01*
X-16438980Y13217800D01*
X-17039041Y13818909D01*
X-17823459Y14144628D01*
X-18672815Y14145370D01*
X-19457800Y13821020D01*
X-20058909Y13220959D01*
X-20384628Y12436541D01*
X-20385370Y11587185D01*
X-24638000Y11587185D01*
X-24638000Y19050000D01*
X-14851000Y19050000D01*
X-14851000Y10922000D01*
X-14764603Y10487654D01*
X-14518566Y10119434D01*
X-14150346Y9873397D01*
X-13716000Y9787000D01*
X-13281654Y9873397D01*
X-12913434Y10119434D01*
X-12667397Y10487654D01*
X-12581000Y10922000D01*
X-12581000Y18579868D01*
X-11620500Y19540368D01*
X-11597566Y19517434D01*
X-11229345Y19271397D01*
X-10795000Y19185000D01*
X-10360655Y19271397D01*
X-9992434Y19517434D01*
X-9746397Y19885655D01*
X-9660000Y20320000D01*
X-9746397Y20754345D01*
X-9970674Y21090000D01*
X-343132Y21090000D01*
X-119018Y20865886D01*
X-119018Y11684000D01*
X-32621Y11249654D01*
X213416Y10881434D01*
X581636Y10635397D01*
X1015982Y10549000D01*
X1450328Y10635397D01*
X1818548Y10881434D01*
X2064585Y11249654D01*
X2150982Y11684000D01*
X2150982Y17661000D01*
X8382000Y17661000D01*
X8816346Y17747397D01*
X9184566Y17993434D01*
X10327566Y19136434D01*
X10573603Y19504655D01*
X10660000Y19939000D01*
X10573603Y20373345D01*
X10327566Y20741566D01*
X9959345Y20987603D01*
X9525000Y21074000D01*
X9090655Y20987603D01*
X8722434Y20741566D01*
X7911868Y19931000D01*
X2150982Y19931000D01*
X2150982Y21336018D01*
X2064585Y21770364D01*
X1818548Y22138584D01*
X929566Y23027566D01*
X561345Y23273603D01*
X127000Y23360000D01*
X119000Y23358409D01*
X119000Y25019000D01*
X32603Y25453346D01*
X-213434Y25821566D01*
X-3642434Y29250566D01*
X-4010655Y29496603D01*
X-4445000Y29583000D01*
X-4879345Y29496603D01*
X-5247566Y29250566D01*
X-5493603Y28882345D01*
X-5580000Y28448000D01*
X-5493603Y28013655D01*
X-5247566Y27645434D01*
X-2151000Y24548868D01*
X-2151000Y23360000D01*
X-10541000Y23360000D01*
X-10975346Y23273603D01*
X-11220195Y23110000D01*
X-11343566Y23027566D01*
X-14518566Y19852566D01*
X-14764603Y19484346D01*
X-14851000Y19050000D01*
X-24638000Y19050000D01*
X-24638000Y26035000D01*
X-24647667Y26083601D01*
X-24675197Y26124803D01*
X-24716399Y26152333D01*
X-24765000Y26162000D01*
X-36698837Y26162000D01*
X-36559547Y30480000D01*
X-23739093Y30480000D01*
X-23626054Y29911715D01*
X-23304147Y29429946D01*
X-22974974Y29210000D01*
X-23304147Y28990054D01*
X-23626054Y28508285D01*
X-23739093Y27940000D01*
X-23626054Y27371715D01*
X-23304147Y26889946D01*
X-23260223Y26860597D01*
X-23322765Y26848157D01*
X-23532809Y26707809D01*
X-23673157Y26497765D01*
X-23722440Y26250000D01*
X-23722440Y24550000D01*
X-23673157Y24302235D01*
X-23532809Y24092191D01*
X-23322765Y23951843D01*
X-23075000Y23902560D01*
X-21375000Y23902560D01*
X-21127235Y23951843D01*
X-20917191Y24092191D01*
X-20776843Y24302235D01*
X-20727560Y24550000D01*
X-20727560Y26250000D01*
X-20776843Y26497765D01*
X-20917191Y26707809D01*
X-21062646Y26805000D01*
X-20155132Y26805000D01*
X-18392566Y25042434D01*
X-18024346Y24796397D01*
X-17590000Y24710000D01*
X-16635673Y24710000D01*
X-16626707Y24704009D01*
X-16154093Y24610000D01*
X-15595907Y24610000D01*
X-15123293Y24704009D01*
X-14722630Y24971723D01*
X-14454916Y25372386D01*
X-14360907Y25845000D01*
X-14454916Y26317614D01*
X-14722630Y26718277D01*
X-14912285Y26845000D01*
X-14722630Y26971723D01*
X-14454916Y27372386D01*
X-14360907Y27845000D01*
X-14454916Y28317614D01*
X-14706486Y28694116D01*
X-14567191Y28787191D01*
X-14426843Y28997235D01*
X-14377560Y29245000D01*
X-14377560Y30445000D01*
X-14426843Y30692765D01*
X-14541928Y30865000D01*
X-14082580Y30865000D01*
X-12690792Y29473213D01*
X-12690790Y29473210D01*
X-12626040Y29429946D01*
X-12403674Y29281366D01*
X-12065000Y29213999D01*
X-12064995Y29214000D01*
X-7933585Y29214000D01*
X-7572777Y29064180D01*
X-7161029Y29063821D01*
X-6780485Y29221058D01*
X-6489081Y29511954D01*
X-6331180Y29892223D01*
X-6330821Y30303971D01*
X-6488058Y30684515D01*
X-6778954Y30975919D01*
X-7159223Y31133820D01*
X-7570971Y31134179D01*
X-7934433Y30984000D01*
X-11698421Y30984000D01*
X-13090210Y32375790D01*
X-13132160Y32403820D01*
X-13377325Y32567633D01*
X-13433516Y32578810D01*
X-13716000Y32635001D01*
X-13716005Y32635000D01*
X-20954995Y32635000D01*
X-20955000Y32635001D01*
X-21293675Y32567633D01*
X-21580790Y32375790D01*
X-21580792Y32375787D01*
X-22025480Y31931100D01*
X-22195907Y31965000D01*
X-22254093Y31965000D01*
X-22822378Y31851961D01*
X-23304147Y31530054D01*
X-23626054Y31048285D01*
X-23739093Y30480000D01*
X-36559547Y30480000D01*
X-36344797Y37137249D01*
X-35919696Y36711404D01*
X-35355723Y36477222D01*
X-34745062Y36476690D01*
X-34180682Y36709887D01*
X-33971821Y36918383D01*
X-33967787Y36901250D01*
X-33820195Y36696231D01*
X-33605380Y36563300D01*
X-33356047Y36522693D01*
X-31557144Y36585512D01*
X-31311250Y36643413D01*
X-31106231Y36791005D01*
X-30973300Y37005820D01*
X-30932693Y37255153D01*
X-30948505Y37707964D01*
X-30547118Y37707964D01*
X-30313921Y37143584D01*
X-29882496Y36711404D01*
X-29318523Y36477222D01*
X-28707862Y36476690D01*
X-28143482Y36709887D01*
X-27934621Y36918383D01*
X-27930587Y36901250D01*
X-27782995Y36696231D01*
X-27568180Y36563300D01*
X-27318847Y36522693D01*
X-25519944Y36585512D01*
X-25274050Y36643413D01*
X-25069031Y36791005D01*
X-24936100Y37005820D01*
X-24895493Y37255153D01*
X-24958312Y39054056D01*
X-25016213Y39299950D01*
X-25163805Y39504969D01*
X-25378620Y39637900D01*
X-25627953Y39678507D01*
X-27426856Y39615688D01*
X-27672750Y39557787D01*
X-27877769Y39410195D01*
X-28010700Y39195380D01*
X-28012606Y39183677D01*
X-28141210Y39312506D01*
X-28705183Y39546688D01*
X-29315844Y39547220D01*
X-29880224Y39314023D01*
X-30312404Y38882598D01*
X-30546586Y38318625D01*
X-30547118Y37707964D01*
X-30948505Y37707964D01*
X-30995512Y39054056D01*
X-31053413Y39299950D01*
X-31201005Y39504969D01*
X-31415820Y39637900D01*
X-31665153Y39678507D01*
X-33464056Y39615688D01*
X-33709950Y39557787D01*
X-33914969Y39410195D01*
X-34047900Y39195380D01*
X-34049806Y39183677D01*
X-34178410Y39312506D01*
X-34742383Y39546688D01*
X-35353044Y39547220D01*
X-35917424Y39314023D01*
X-36286462Y38945630D01*
X-36069414Y45674119D01*
X-30719245Y52451000D01*
X-29456000Y52451000D01*
X-29369603Y52016655D01*
X-29123566Y51648434D01*
X-22138566Y44663434D01*
X-21770345Y44417397D01*
X-21336000Y44331000D01*
X-20901655Y44417397D01*
X-20533434Y44663434D01*
X-20287397Y45031655D01*
X-20201000Y45466000D01*
X-20287397Y45900345D01*
X-20533434Y46268566D01*
X-27518434Y53253566D01*
X-27886655Y53499603D01*
X-28321000Y53586000D01*
X-28755345Y53499603D01*
X-29123566Y53253566D01*
X-29369603Y52885345D01*
X-29456000Y52451000D01*
X-30719245Y52451000D01*
X-26808982Y57404000D01*
X-21205001Y57404000D01*
X-21205000Y57403995D01*
X-21205000Y52578005D01*
X-21205001Y52578000D01*
X-21154936Y52326311D01*
X-21137633Y52239325D01*
X-20954702Y51965548D01*
X-20945790Y51952210D01*
X-20183792Y51190213D01*
X-20183790Y51190210D01*
X-19896675Y50998367D01*
X-19847141Y50988514D01*
X-19564430Y50932278D01*
X-19842551Y50654643D01*
X-20076733Y50090670D01*
X-20077265Y49480009D01*
X-19844068Y48915629D01*
X-19427000Y48497831D01*
X-19427000Y45212005D01*
X-19427001Y45212000D01*
X-19391127Y45031655D01*
X-19359633Y44873325D01*
X-19238422Y44691919D01*
X-19167790Y44586210D01*
X-18299131Y43717552D01*
X-18149942Y43356485D01*
X-17859046Y43065081D01*
X-17478777Y42907180D01*
X-17067029Y42906821D01*
X-16686485Y43064058D01*
X-16395081Y43354954D01*
X-16237180Y43735223D01*
X-16236821Y44146971D01*
X-16394058Y44527515D01*
X-16684954Y44818919D01*
X-17048152Y44969732D01*
X-17657000Y45578580D01*
X-17657000Y48498532D01*
X-17503288Y48651975D01*
X-17500157Y48636235D01*
X-17359809Y48426191D01*
X-17149765Y48285843D01*
X-16902000Y48236560D01*
X-15102000Y48236560D01*
X-14854235Y48285843D01*
X-14644191Y48426191D01*
X-14503843Y48636235D01*
X-14454560Y48884000D01*
X-14454560Y50684000D01*
X-14503691Y50931000D01*
X-12337886Y50931000D01*
X-12338179Y50595029D01*
X-12188000Y50231567D01*
X-12188000Y50023579D01*
X-14341790Y47869790D01*
X-14533633Y47582675D01*
X-14534553Y47578049D01*
X-14601001Y47244000D01*
X-14601000Y47243995D01*
X-14601000Y38032585D01*
X-14750820Y37671777D01*
X-14751179Y37260029D01*
X-14593942Y36879485D01*
X-14303046Y36588081D01*
X-13939849Y36437269D01*
X-11166792Y33664213D01*
X-11166790Y33664210D01*
X-10879675Y33472367D01*
X-10823484Y33461190D01*
X-10541000Y33404999D01*
X-10540995Y33405000D01*
X-7933585Y33405000D01*
X-7572777Y33255180D01*
X-7161029Y33254821D01*
X-6780485Y33412058D01*
X-6489081Y33702954D01*
X-6331180Y34083223D01*
X-6330821Y34494971D01*
X-6488058Y34875515D01*
X-6778954Y35166919D01*
X-7159223Y35324820D01*
X-7570971Y35325179D01*
X-7934433Y35175000D01*
X-10174421Y35175000D01*
X-12688869Y37689449D01*
X-12831000Y38033433D01*
X-12831000Y40435029D01*
X-5353179Y40435029D01*
X-5203000Y40071567D01*
X-5203000Y38481005D01*
X-5203001Y38481000D01*
X-5170346Y38316836D01*
X-5135633Y38142325D01*
X-4989430Y37923515D01*
X-4943790Y37855210D01*
X-3038792Y35950213D01*
X-3038790Y35950210D01*
X-2751675Y35758367D01*
X-2695484Y35747190D01*
X-2413000Y35690999D01*
X-2412995Y35691000D01*
X-377000Y35691000D01*
X-377000Y29844993D01*
X-377001Y29844988D01*
X-327274Y29594999D01*
X-309633Y29506313D01*
X-188430Y29324919D01*
X-117790Y29219198D01*
X2274868Y26826541D01*
X2424058Y26465473D01*
X2714954Y26174069D01*
X3095223Y26016168D01*
X3506971Y26015809D01*
X3887515Y26173046D01*
X4178919Y26463942D01*
X4336820Y26844211D01*
X4337179Y27255959D01*
X4179942Y27636503D01*
X3889046Y27927907D01*
X3525847Y28078720D01*
X1393000Y30211568D01*
X1393000Y35691000D01*
X3705420Y35691000D01*
X3331551Y35317131D01*
X2970485Y35167942D01*
X2679081Y34877046D01*
X2521180Y34496777D01*
X2520821Y34085029D01*
X2671000Y33721567D01*
X2671000Y31936585D01*
X2521180Y31575777D01*
X2520821Y31164029D01*
X2678058Y30783485D01*
X2968954Y30492081D01*
X3349223Y30334180D01*
X3760971Y30333821D01*
X4141515Y30491058D01*
X4432919Y30781954D01*
X4590820Y31162223D01*
X4591179Y31573971D01*
X4441000Y31937433D01*
X4441000Y33722415D01*
X4583731Y34066151D01*
X7986579Y37469000D01*
X7998436Y37469000D01*
X8359244Y37319180D01*
X8425448Y37319122D01*
X8425234Y37073657D01*
X8582471Y36693113D01*
X8613000Y36662531D01*
X8613000Y26840805D01*
X8521081Y26749046D01*
X8363180Y26368777D01*
X8362821Y25957029D01*
X8520058Y25576485D01*
X8810954Y25285081D01*
X9191223Y25127180D01*
X9330733Y25127058D01*
X9407838Y24940449D01*
X9698734Y24649045D01*
X10079003Y24491144D01*
X10490751Y24490785D01*
X10871295Y24648022D01*
X11048965Y24825382D01*
X11223954Y24650087D01*
X11604223Y24492186D01*
X12015971Y24491827D01*
X12396515Y24649064D01*
X12687919Y24939960D01*
X12845820Y25320229D01*
X12846179Y25731977D01*
X12688942Y26112521D01*
X12596000Y26205625D01*
X12596000Y26751159D01*
X12713166Y26467595D01*
X13004062Y26176191D01*
X13384331Y26018290D01*
X13796079Y26017931D01*
X14176623Y26175168D01*
X14373407Y26371609D01*
X14548290Y26196421D01*
X14928559Y26038520D01*
X15340307Y26038161D01*
X15720851Y26195398D01*
X16012255Y26486294D01*
X16170156Y26866563D01*
X16170515Y27278311D01*
X16013278Y27658855D01*
X15898000Y27774334D01*
X15898000Y35897201D01*
X15989919Y35988960D01*
X16147820Y36369229D01*
X16148179Y36780977D01*
X15990942Y37161521D01*
X15700046Y37452925D01*
X15661333Y37469000D01*
X16270420Y37469000D01*
X19313208Y34426213D01*
X19313210Y34426210D01*
X19517064Y34290000D01*
X19600325Y34234367D01*
X19939000Y34166999D01*
X19939005Y34167000D01*
X21858420Y34167000D01*
X22742208Y33283213D01*
X22742210Y33283210D01*
X23029325Y33091367D01*
X23368000Y33023999D01*
X23368005Y33024000D01*
X26610409Y33024000D01*
X26971217Y32874180D01*
X27382965Y32873821D01*
X27763509Y33031058D01*
X28054913Y33321954D01*
X28212814Y33702223D01*
X28213173Y34113971D01*
X28055936Y34494515D01*
X27765040Y34785919D01*
X27384771Y34943820D01*
X26973023Y34944179D01*
X26609561Y34794000D01*
X23734579Y34794000D01*
X23110000Y35418580D01*
X23110000Y36194995D01*
X23110001Y36195000D01*
X23042633Y36533674D01*
X23042633Y36533675D01*
X22850790Y36820790D01*
X22850787Y36820792D01*
X18786790Y40884790D01*
X18646280Y40978675D01*
X18499675Y41076633D01*
X18443484Y41087810D01*
X18161000Y41144001D01*
X18160995Y41144000D01*
X12431579Y41144000D01*
X11680000Y41895580D01*
X11680000Y48772000D01*
X14545407Y48772000D01*
X14906215Y48622180D01*
X15317963Y48621821D01*
X15698507Y48779058D01*
X15989911Y49069954D01*
X16147812Y49450223D01*
X16147972Y49634000D01*
X18978842Y49634000D01*
X20932008Y47680834D01*
X20932008Y42969805D01*
X20840089Y42878046D01*
X20682188Y42497777D01*
X20681829Y42086029D01*
X20839066Y41705485D01*
X21129962Y41414081D01*
X21510231Y41256180D01*
X21921979Y41255821D01*
X22302523Y41413058D01*
X22593927Y41703954D01*
X22751828Y42084223D01*
X22752187Y42495971D01*
X22594950Y42876515D01*
X22502008Y42969619D01*
X22502008Y48005987D01*
X22502009Y48005992D01*
X22442253Y48306398D01*
X22272087Y48561071D01*
X19859079Y50974079D01*
X19604407Y51144245D01*
X19304000Y51204000D01*
X16032288Y51204000D01*
X16147816Y51482223D01*
X16148175Y51893971D01*
X15990938Y52274515D01*
X15700042Y52565919D01*
X15319773Y52723820D01*
X14908025Y52724179D01*
X14527481Y52566942D01*
X14236077Y52276046D01*
X14078176Y51895777D01*
X14078061Y51764219D01*
X14025842Y51712000D01*
X-254000Y51712000D01*
X-554407Y51652245D01*
X-809079Y51482079D01*
X-1825079Y50466079D01*
X-1995245Y50211407D01*
X-2040686Y49982959D01*
X-2055000Y49911000D01*
X-2055000Y43604805D01*
X-2146919Y43513046D01*
X-2304820Y43132777D01*
X-2305179Y42721029D01*
X-2147942Y42340485D01*
X-1857046Y42049081D01*
X-1476777Y41891180D01*
X-1065029Y41890821D01*
X-684485Y42048058D01*
X-393081Y42338954D01*
X-235180Y42719223D01*
X-235103Y42807887D01*
X77515Y42937058D01*
X368919Y43227954D01*
X526820Y43608223D01*
X527179Y44019971D01*
X369942Y44400515D01*
X277000Y44493619D01*
X277000Y49458842D01*
X452158Y49634000D01*
X4160704Y49634000D01*
X4045176Y49355777D01*
X4044817Y48944029D01*
X4194996Y48580567D01*
X4194996Y48514009D01*
X4194995Y48514004D01*
X4240380Y48285843D01*
X4262363Y48175329D01*
X4420485Y47938681D01*
X4454206Y47888214D01*
X5216208Y47126213D01*
X5216210Y47126210D01*
X5503325Y46934367D01*
X5842000Y46867000D01*
X7380420Y46867000D01*
X7878000Y46369421D01*
X7878000Y41223098D01*
X7669485Y41136942D01*
X7378081Y40846046D01*
X7220180Y40465777D01*
X7219996Y40255000D01*
X6858005Y40255000D01*
X6858000Y40255001D01*
X6575516Y40198810D01*
X6519325Y40187633D01*
X6232210Y39995790D01*
X6232208Y39995787D01*
X3697420Y37461000D01*
X1393000Y37461000D01*
X1393000Y38040415D01*
X1542820Y38401223D01*
X1543179Y38812971D01*
X1385942Y39193515D01*
X1095046Y39484919D01*
X714777Y39642820D01*
X303029Y39643179D01*
X-77515Y39485942D01*
X-368919Y39195046D01*
X-526820Y38814777D01*
X-527179Y38403029D01*
X-377000Y38039567D01*
X-377000Y37461000D01*
X-2046421Y37461000D01*
X-3433000Y38847580D01*
X-3433000Y40072415D01*
X-3283180Y40433223D01*
X-3282821Y40844971D01*
X-3440058Y41225515D01*
X-3730954Y41516919D01*
X-4111223Y41674820D01*
X-4522971Y41675179D01*
X-4903515Y41517942D01*
X-5194919Y41227046D01*
X-5352820Y40846777D01*
X-5353179Y40435029D01*
X-12831000Y40435029D01*
X-12831000Y46877420D01*
X-10677213Y49031208D01*
X-10677210Y49031210D01*
X-10485367Y49318325D01*
X-10418000Y49657000D01*
X-10418000Y50232415D01*
X-10268180Y50593223D01*
X-10267885Y50931000D01*
X-9711585Y50931000D01*
X-9367849Y50788269D01*
X-5965000Y47385421D01*
X-5965000Y46287585D01*
X-6114820Y45926777D01*
X-6115179Y45515029D01*
X-5957942Y45134485D01*
X-5667046Y44843081D01*
X-5286777Y44685180D01*
X-4875029Y44684821D01*
X-4494485Y44842058D01*
X-4203081Y45132954D01*
X-4045180Y45513223D01*
X-4044821Y45924971D01*
X-4195000Y46288433D01*
X-4195000Y47751995D01*
X-4194999Y47752000D01*
X-4262367Y48090674D01*
X-4262367Y48090675D01*
X-4454210Y48377790D01*
X-4454213Y48377792D01*
X-8116869Y52040449D01*
X-8266058Y52401515D01*
X-8556954Y52692919D01*
X-8937223Y52850820D01*
X-9348971Y52851179D01*
X-9712433Y52701000D01*
X-17634426Y52701000D01*
X-17348331Y52986595D01*
X-15216410Y52986595D01*
X-15216405Y52986594D01*
X-14902354Y53049064D01*
X-14877730Y53053962D01*
X-14590615Y53245805D01*
X-12486416Y55350005D01*
X5909415Y55350005D01*
X6270223Y55200185D01*
X6681971Y55199826D01*
X7045433Y55350005D01*
X15962332Y55350005D01*
X16377157Y54934454D01*
X16782860Y54765991D01*
X16774728Y54758860D01*
X16662998Y54532293D01*
X16646476Y54280215D01*
X16727677Y54041003D01*
X17627677Y52482157D01*
X17794240Y52292228D01*
X18020807Y52180498D01*
X18272885Y52163976D01*
X18512097Y52245177D01*
X20070943Y53145177D01*
X20260872Y53311740D01*
X20372602Y53538307D01*
X20389124Y53790385D01*
X20307923Y54029597D01*
X19545585Y55350005D01*
X22011415Y55350005D01*
X25109447Y52251974D01*
X25109447Y39298313D01*
X24693896Y38883488D01*
X24459714Y38319515D01*
X24459182Y37708854D01*
X24692379Y37144474D01*
X25123804Y36712294D01*
X25687777Y36478112D01*
X26298438Y36477580D01*
X26862818Y36710777D01*
X26993652Y36841382D01*
X26995600Y36829420D01*
X27128531Y36614605D01*
X27333550Y36467013D01*
X27579444Y36409112D01*
X29378347Y36346293D01*
X29627680Y36386900D01*
X29842495Y36519831D01*
X29990087Y36724850D01*
X30047988Y36970744D01*
X30110807Y38769647D01*
X30070200Y39018980D01*
X29937269Y39233795D01*
X29732250Y39381387D01*
X29486356Y39439288D01*
X27687453Y39502107D01*
X27438120Y39461500D01*
X27223305Y39328569D01*
X27075713Y39123550D01*
X27071684Y39106440D01*
X26879447Y39299014D01*
X26879447Y52618553D01*
X26812080Y52957228D01*
X26620237Y53244343D01*
X26620234Y53244345D01*
X23003785Y56860795D01*
X23000919Y56862710D01*
X22716670Y57052638D01*
X22660479Y57063815D01*
X22377995Y57120006D01*
X22377990Y57120005D01*
X18533268Y57120005D01*
X18118443Y57535556D01*
X17554470Y57769738D01*
X16943809Y57770270D01*
X16379429Y57537073D01*
X15961631Y57120005D01*
X14796035Y57120005D01*
X16187343Y57923277D01*
X16377272Y58089840D01*
X16489002Y58316407D01*
X16505524Y58568485D01*
X16424323Y58807697D01*
X15524323Y60366543D01*
X15357760Y60556472D01*
X15131193Y60668202D01*
X14889632Y60684035D01*
X14898933Y60706435D01*
X14899465Y61317096D01*
X14666268Y61881476D01*
X14234843Y62313656D01*
X13670870Y62547838D01*
X13434393Y62548044D01*
X11041000Y64941437D01*
X11041000Y68453000D01*
X10954603Y68887346D01*
X10708566Y69255566D01*
X10340346Y69501603D01*
X9906000Y69588000D01*
X9471654Y69501603D01*
X9103434Y69255566D01*
X8857397Y68887346D01*
X8771000Y68453000D01*
X8771000Y64471305D01*
X8857397Y64036959D01*
X9046642Y63753734D01*
X9103434Y63668739D01*
X11829139Y60943034D01*
X11828935Y60709114D01*
X12062132Y60144734D01*
X12493557Y59712554D01*
X12899260Y59544091D01*
X12891128Y59536960D01*
X12779398Y59310393D01*
X12762876Y59058315D01*
X12844077Y58819103D01*
X13744077Y57260257D01*
X13867075Y57120005D01*
X7044585Y57120005D01*
X6683777Y57269825D01*
X6272029Y57270184D01*
X6096280Y57197566D01*
X6096361Y57289986D01*
X5939124Y57670530D01*
X5865000Y57744783D01*
X5865000Y58941750D01*
X6130054Y59118853D01*
X6451961Y59600622D01*
X6565000Y60168907D01*
X6565000Y60227093D01*
X6451961Y60795378D01*
X6130054Y61277147D01*
X5648285Y61599054D01*
X5080000Y61712093D01*
X4511715Y61599054D01*
X4029946Y61277147D01*
X3810000Y60947974D01*
X3590054Y61277147D01*
X3108285Y61599054D01*
X2540000Y61712093D01*
X1971715Y61599054D01*
X1489946Y61277147D01*
X1262298Y60936447D01*
X1195183Y61079358D01*
X766924Y61469645D01*
X356890Y61639476D01*
X127000Y61518155D01*
X127000Y60325000D01*
X147000Y60325000D01*
X147000Y60071000D01*
X127000Y60071000D01*
X127000Y58877845D01*
X356890Y58756524D01*
X766924Y58926355D01*
X1195183Y59316642D01*
X1262298Y59459553D01*
X1489946Y59118853D01*
X1655000Y59008568D01*
X1655000Y58532579D01*
X1030420Y57908000D01*
X-9285421Y57908000D01*
X-9656000Y58278580D01*
X-9656000Y61048000D01*
X-6577440Y61048000D01*
X-6577440Y59348000D01*
X-6528157Y59100235D01*
X-6387809Y58890191D01*
X-6177765Y58749843D01*
X-5930000Y58700560D01*
X-4230000Y58700560D01*
X-3982235Y58749843D01*
X-3772191Y58890191D01*
X-3631843Y59100235D01*
X-3619403Y59162777D01*
X-3590054Y59118853D01*
X-3108285Y58796946D01*
X-2540000Y58683907D01*
X-1971715Y58796946D01*
X-1489946Y59118853D01*
X-1262298Y59459553D01*
X-1195183Y59316642D01*
X-766924Y58926355D01*
X-356890Y58756524D01*
X-127000Y58877845D01*
X-127000Y60071000D01*
X-147000Y60071000D01*
X-147000Y60325000D01*
X-127000Y60325000D01*
X-127000Y61518155D01*
X-356890Y61639476D01*
X-766924Y61469645D01*
X-1195183Y61079358D01*
X-1262298Y60936447D01*
X-1489946Y61277147D01*
X-1971715Y61599054D01*
X-2540000Y61712093D01*
X-3108285Y61599054D01*
X-3590054Y61277147D01*
X-3619403Y61233223D01*
X-3631843Y61295765D01*
X-3772191Y61505809D01*
X-3982235Y61646157D01*
X-4230000Y61695440D01*
X-5930000Y61695440D01*
X-6177765Y61646157D01*
X-6387809Y61505809D01*
X-6528157Y61295765D01*
X-6577440Y61048000D01*
X-9656000Y61048000D01*
X-9656000Y62102995D01*
X-9655999Y62103000D01*
X-9723367Y62441675D01*
X-9736882Y62461902D01*
X-9915210Y62728790D01*
X-9915213Y62728792D01*
X-11058210Y63871790D01*
X-11105506Y63903392D01*
X-11345325Y64063633D01*
X-11401516Y64074810D01*
X-11684000Y64131001D01*
X-11684005Y64131000D01*
X-14477995Y64131000D01*
X-14478000Y64131001D01*
X-14760484Y64074810D01*
X-14816675Y64063633D01*
X-15103790Y63871790D01*
X-15103792Y63871787D01*
X-20945790Y58029790D01*
X-21137633Y57742675D01*
X-21144937Y57705954D01*
X-21205001Y57404000D01*
X-26808982Y57404000D01*
X-17083456Y69723000D01*
X17083456Y69723000D01*
X36069414Y45674119D01*
%TD*%
M02*
