%TF.GenerationSoftware,KiCad,Pcbnew,no-vcs-found-0b1eb56~60~ubuntu17.04.1*%
%TF.CreationDate,2017-11-06T00:21:04+01:00*%
%TF.ProjectId,perenquen,706572656E7175656E2E6B696361645F,rev?*%
%TF.SameCoordinates,Original*%
%TF.FileFunction,Copper,L1,Top,Signal*%
%TF.FilePolarity,Positive*%
%FSLAX46Y46*%
G04 Gerber Fmt 4.6, Leading zero omitted, Abs format (unit mm)*
G04 Created by KiCad (PCBNEW no-vcs-found-0b1eb56~60~ubuntu17.04.1) date Mon Nov  6 00:21:04 2017*
%MOMM*%
%LPD*%
G01*
G04 APERTURE LIST*
%TA.AperFunction,NonConductor*%
%ADD10C,0.300000*%
%TD*%
%TA.AperFunction,ComponentPad*%
%ADD11C,2.000000*%
%TD*%
%TA.AperFunction,Conductor*%
%ADD12C,0.100000*%
%TD*%
%TA.AperFunction,ComponentPad*%
%ADD13C,2.500000*%
%TD*%
%TA.AperFunction,SMDPad,CuDef*%
%ADD14R,0.700000X1.300000*%
%TD*%
%TA.AperFunction,ComponentPad*%
%ADD15R,1.700000X1.700000*%
%TD*%
%TA.AperFunction,ComponentPad*%
%ADD16O,1.700000X1.700000*%
%TD*%
%TA.AperFunction,SMDPad,CuDef*%
%ADD17R,0.500000X0.900000*%
%TD*%
%TA.AperFunction,SMDPad,CuDef*%
%ADD18R,1.700000X0.900000*%
%TD*%
%TA.AperFunction,SMDPad,CuDef*%
%ADD19R,0.300000X1.500000*%
%TD*%
%TA.AperFunction,SMDPad,CuDef*%
%ADD20R,1.500000X0.300000*%
%TD*%
%TA.AperFunction,SMDPad,CuDef*%
%ADD21R,0.508000X1.143000*%
%TD*%
%TA.AperFunction,ComponentPad*%
%ADD22O,1.700000X1.200000*%
%TD*%
%TA.AperFunction,ComponentPad*%
%ADD23R,1.700000X1.200000*%
%TD*%
%TA.AperFunction,ComponentPad*%
%ADD24C,1.800000*%
%TD*%
%TA.AperFunction,ComponentPad*%
%ADD25R,1.800000X1.800000*%
%TD*%
%TA.AperFunction,SMDPad,CuDef*%
%ADD26R,1.000000X1.250000*%
%TD*%
%TA.AperFunction,SMDPad,CuDef*%
%ADD27R,2.700000X2.550000*%
%TD*%
%TA.AperFunction,SMDPad,CuDef*%
%ADD28R,0.750000X0.800000*%
%TD*%
%TA.AperFunction,SMDPad,CuDef*%
%ADD29R,0.800000X0.750000*%
%TD*%
%TA.AperFunction,SMDPad,CuDef*%
%ADD30R,1.250000X1.000000*%
%TD*%
%TA.AperFunction,SMDPad,CuDef*%
%ADD31R,2.500000X2.550000*%
%TD*%
%TA.AperFunction,SMDPad,CuDef*%
%ADD32R,0.800000X0.600000*%
%TD*%
%TA.AperFunction,SMDPad,CuDef*%
%ADD33R,0.900000X0.500000*%
%TD*%
%TA.AperFunction,SMDPad,CuDef*%
%ADD34R,0.800000X0.900000*%
%TD*%
%TA.AperFunction,SMDPad,CuDef*%
%ADD35R,2.000000X1.500000*%
%TD*%
%TA.AperFunction,SMDPad,CuDef*%
%ADD36R,2.000000X3.800000*%
%TD*%
%TA.AperFunction,SMDPad,CuDef*%
%ADD37R,0.700000X0.600000*%
%TD*%
%TA.AperFunction,SMDPad,CuDef*%
%ADD38R,2.800000X0.950000*%
%TD*%
%TA.AperFunction,SMDPad,CuDef*%
%ADD39R,1.200000X0.400000*%
%TD*%
%TA.AperFunction,SMDPad,CuDef*%
%ADD40R,1.000000X0.400000*%
%TD*%
%TA.AperFunction,SMDPad,CuDef*%
%ADD41R,2.100000X0.500000*%
%TD*%
%TA.AperFunction,ViaPad*%
%ADD42C,0.800000*%
%TD*%
%TA.AperFunction,Conductor*%
%ADD43C,0.500000*%
%TD*%
%TA.AperFunction,Conductor*%
%ADD44C,0.300000*%
%TD*%
%TA.AperFunction,Conductor*%
%ADD45C,1.000000*%
%TD*%
%TA.AperFunction,Conductor*%
%ADD46C,0.250000*%
%TD*%
%TA.AperFunction,Conductor*%
%ADD47C,0.400000*%
%TD*%
G04 APERTURE END LIST*
D10*
X-12789800Y-26479971D02*
X-12789800Y-24979971D01*
X-12218371Y-24979971D01*
X-12075514Y-25051400D01*
X-12004085Y-25122828D01*
X-11932657Y-25265685D01*
X-11932657Y-25479971D01*
X-12004085Y-25622828D01*
X-12075514Y-25694257D01*
X-12218371Y-25765685D01*
X-12789800Y-25765685D01*
X-10718371Y-26408542D02*
X-10861228Y-26479971D01*
X-11146942Y-26479971D01*
X-11289800Y-26408542D01*
X-11361228Y-26265685D01*
X-11361228Y-25694257D01*
X-11289800Y-25551400D01*
X-11146942Y-25479971D01*
X-10861228Y-25479971D01*
X-10718371Y-25551400D01*
X-10646942Y-25694257D01*
X-10646942Y-25837114D01*
X-11361228Y-25979971D01*
X-10004085Y-26479971D02*
X-10004085Y-25479971D01*
X-10004085Y-25765685D02*
X-9932657Y-25622828D01*
X-9861228Y-25551400D01*
X-9718371Y-25479971D01*
X-9575514Y-25479971D01*
X-8504085Y-26408542D02*
X-8646942Y-26479971D01*
X-8932657Y-26479971D01*
X-9075514Y-26408542D01*
X-9146942Y-26265685D01*
X-9146942Y-25694257D01*
X-9075514Y-25551400D01*
X-8932657Y-25479971D01*
X-8646942Y-25479971D01*
X-8504085Y-25551400D01*
X-8432657Y-25694257D01*
X-8432657Y-25837114D01*
X-9146942Y-25979971D01*
X-7789799Y-25479971D02*
X-7789799Y-26479971D01*
X-7789799Y-25622828D02*
X-7718371Y-25551400D01*
X-7575514Y-25479971D01*
X-7361228Y-25479971D01*
X-7218371Y-25551400D01*
X-7146942Y-25694257D01*
X-7146942Y-26479971D01*
X-5789799Y-25479971D02*
X-5789799Y-26979971D01*
X-5789799Y-26408542D02*
X-5932657Y-26479971D01*
X-6218371Y-26479971D01*
X-6361228Y-26408542D01*
X-6432657Y-26337114D01*
X-6504085Y-26194257D01*
X-6504085Y-25765685D01*
X-6432657Y-25622828D01*
X-6361228Y-25551400D01*
X-6218371Y-25479971D01*
X-5932657Y-25479971D01*
X-5789799Y-25551400D01*
X-4432657Y-25479971D02*
X-4432657Y-26479971D01*
X-5075514Y-25479971D02*
X-5075514Y-26265685D01*
X-5004085Y-26408542D01*
X-4861228Y-26479971D01*
X-4646942Y-26479971D01*
X-4504085Y-26408542D01*
X-4432657Y-26337114D01*
X-3146942Y-26408542D02*
X-3289800Y-26479971D01*
X-3575514Y-26479971D01*
X-3718371Y-26408542D01*
X-3789800Y-26265685D01*
X-3789800Y-25694257D01*
X-3718371Y-25551400D01*
X-3575514Y-25479971D01*
X-3289800Y-25479971D01*
X-3146942Y-25551400D01*
X-3075514Y-25694257D01*
X-3075514Y-25837114D01*
X-3789800Y-25979971D01*
X-3289800Y-24908542D02*
X-3504085Y-25122828D01*
X-2432657Y-25479971D02*
X-2432657Y-26479971D01*
X-2432657Y-25622828D02*
X-2361228Y-25551400D01*
X-2218371Y-25479971D01*
X-2004085Y-25479971D01*
X-1861228Y-25551400D01*
X-1789800Y-25694257D01*
X-1789800Y-26479971D01*
X-16432657Y-27529971D02*
X-16432657Y-28601400D01*
X-16504085Y-28815685D01*
X-16646942Y-28958542D01*
X-16861228Y-29029971D01*
X-17004085Y-29029971D01*
X-15218371Y-28244257D02*
X-15004085Y-28315685D01*
X-14932657Y-28387114D01*
X-14861228Y-28529971D01*
X-14861228Y-28744257D01*
X-14932657Y-28887114D01*
X-15004085Y-28958542D01*
X-15146942Y-29029971D01*
X-15718371Y-29029971D01*
X-15718371Y-27529971D01*
X-15218371Y-27529971D01*
X-15075514Y-27601400D01*
X-15004085Y-27672828D01*
X-14932657Y-27815685D01*
X-14932657Y-27958542D01*
X-15004085Y-28101400D01*
X-15075514Y-28172828D01*
X-15218371Y-28244257D01*
X-15718371Y-28244257D01*
X-14289800Y-28958542D02*
X-14075514Y-29029971D01*
X-13718371Y-29029971D01*
X-13575514Y-28958542D01*
X-13504085Y-28887114D01*
X-13432657Y-28744257D01*
X-13432657Y-28601400D01*
X-13504085Y-28458542D01*
X-13575514Y-28387114D01*
X-13718371Y-28315685D01*
X-14004085Y-28244257D01*
X-14146942Y-28172828D01*
X-14218371Y-28101400D01*
X-14289800Y-27958542D01*
X-14289800Y-27815685D01*
X-14218371Y-27672828D01*
X-14146942Y-27601400D01*
X-14004085Y-27529971D01*
X-13646942Y-27529971D01*
X-13432657Y-27601400D01*
X-12789800Y-28887114D02*
X-12718371Y-28958542D01*
X-12789800Y-29029971D01*
X-12861228Y-28958542D01*
X-12789800Y-28887114D01*
X-12789800Y-29029971D01*
X-10646942Y-27529971D02*
X-10361228Y-27529971D01*
X-10218371Y-27601400D01*
X-10075514Y-27744257D01*
X-10004085Y-28029971D01*
X-10004085Y-28529971D01*
X-10075514Y-28815685D01*
X-10218371Y-28958542D01*
X-10361228Y-29029971D01*
X-10646942Y-29029971D01*
X-10789800Y-28958542D01*
X-10932657Y-28815685D01*
X-11004085Y-28529971D01*
X-11004085Y-28029971D01*
X-10932657Y-27744257D01*
X-10789800Y-27601400D01*
X-10646942Y-27529971D01*
X-9432657Y-28958542D02*
X-9218371Y-29029971D01*
X-8861228Y-29029971D01*
X-8718371Y-28958542D01*
X-8646942Y-28887114D01*
X-8575514Y-28744257D01*
X-8575514Y-28601400D01*
X-8646942Y-28458542D01*
X-8718371Y-28387114D01*
X-8861228Y-28315685D01*
X-9146942Y-28244257D01*
X-9289800Y-28172828D01*
X-9361228Y-28101400D01*
X-9432657Y-27958542D01*
X-9432657Y-27815685D01*
X-9361228Y-27672828D01*
X-9289800Y-27601400D01*
X-9146942Y-27529971D01*
X-8789800Y-27529971D01*
X-8575514Y-27601400D01*
X-7932657Y-29029971D02*
X-7932657Y-27529971D01*
X-7932657Y-28244257D02*
X-7075514Y-28244257D01*
X-7075514Y-29029971D02*
X-7075514Y-27529971D01*
X-6504085Y-27529971D02*
X-6146942Y-29029971D01*
X-5861228Y-27958542D01*
X-5575514Y-29029971D01*
X-5218371Y-27529971D01*
X-4646942Y-29029971D02*
X-4646942Y-27529971D01*
X-4289800Y-27529971D01*
X-4075514Y-27601400D01*
X-3932657Y-27744257D01*
X-3861228Y-27887114D01*
X-3789800Y-28172828D01*
X-3789800Y-28387114D01*
X-3861228Y-28672828D01*
X-3932657Y-28815685D01*
X-4075514Y-28958542D01*
X-4289800Y-29029971D01*
X-4646942Y-29029971D01*
X-2575514Y-28958542D02*
X-2718371Y-29029971D01*
X-3004085Y-29029971D01*
X-3146942Y-28958542D01*
X-3218371Y-28815685D01*
X-3218371Y-28244257D01*
X-3146942Y-28101400D01*
X-3004085Y-28029971D01*
X-2718371Y-28029971D01*
X-2575514Y-28101400D01*
X-2504085Y-28244257D01*
X-2504085Y-28387114D01*
X-3218371Y-28529971D01*
X-1861228Y-29029971D02*
X-1861228Y-28029971D01*
X-1861228Y-28172828D02*
X-1789800Y-28101400D01*
X-1646942Y-28029971D01*
X-1432657Y-28029971D01*
X-1289800Y-28101400D01*
X-1218371Y-28244257D01*
X-1218371Y-29029971D01*
X-1218371Y-28244257D02*
X-1146942Y-28101400D01*
X-1004085Y-28029971D01*
X-789800Y-28029971D01*
X-646942Y-28101400D01*
X-575514Y-28244257D01*
X-575514Y-29029971D01*
X924485Y-29029971D02*
X67342Y-29029971D01*
X495914Y-29029971D02*
X495914Y-27529971D01*
X353057Y-27744257D01*
X210200Y-27887114D01*
X67342Y-27958542D01*
X1424485Y-27529971D02*
X2424485Y-27529971D01*
X1781628Y-29029971D01*
D11*
%TO.P,M1,7*%
%TO.N,/ENC-L-CHA*%
X-6500000Y-16730000D03*
%TO.P,M1,8*%
%TO.N,/ENC-L-CHB*%
X-6500000Y-19270000D03*
%TO.P,M1,6*%
%TO.N,+3V3*%
X-6500000Y-14190000D03*
%TO.P,M1,5*%
%TO.N,GND*%
X-6500000Y-11650000D03*
%TO.P,M1,12*%
%TO.N,/ENC-R-CHB*%
X6500000Y-11650000D03*
%TO.P,M1,11*%
%TO.N,/ENC-R-CHA*%
X6500000Y-14190000D03*
%TO.P,M1,9*%
%TO.N,GND*%
X6500000Y-19270000D03*
D12*
%TD*%
%TO.N,Net-(M1-Pad4)*%
%TO.C,M1*%
G36*
X2086261Y4776990D02*
X2146931Y4767991D01*
X2206428Y4753088D01*
X2264177Y4732425D01*
X2319623Y4706201D01*
X2372231Y4674669D01*
X2421496Y4638132D01*
X2466942Y4596942D01*
X2508132Y4551496D01*
X2544669Y4502231D01*
X2576201Y4449623D01*
X2602425Y4394177D01*
X2623088Y4336428D01*
X2637991Y4276931D01*
X2646990Y4216261D01*
X2650000Y4155000D01*
X2650000Y2905000D01*
X2646990Y2843739D01*
X2637991Y2783069D01*
X2623088Y2723572D01*
X2602425Y2665823D01*
X2576201Y2610377D01*
X2544669Y2557769D01*
X2508132Y2508504D01*
X2466942Y2463058D01*
X2421496Y2421868D01*
X2372231Y2385331D01*
X2319623Y2353799D01*
X2264177Y2327575D01*
X2206428Y2306912D01*
X2146931Y2292009D01*
X2086261Y2283010D01*
X2025000Y2280000D01*
X775000Y2280000D01*
X713739Y2283010D01*
X653069Y2292009D01*
X593572Y2306912D01*
X535823Y2327575D01*
X480377Y2353799D01*
X427769Y2385331D01*
X378504Y2421868D01*
X333058Y2463058D01*
X291868Y2508504D01*
X255331Y2557769D01*
X223799Y2610377D01*
X197575Y2665823D01*
X176912Y2723572D01*
X162009Y2783069D01*
X153010Y2843739D01*
X150000Y2905000D01*
X150000Y4155000D01*
X153010Y4216261D01*
X162009Y4276931D01*
X176912Y4336428D01*
X197575Y4394177D01*
X223799Y4449623D01*
X255331Y4502231D01*
X291868Y4551496D01*
X333058Y4596942D01*
X378504Y4638132D01*
X427769Y4674669D01*
X480377Y4706201D01*
X535823Y4732425D01*
X593572Y4753088D01*
X653069Y4767991D01*
X713739Y4776990D01*
X775000Y4780000D01*
X2025000Y4780000D01*
X2086261Y4776990D01*
X2086261Y4776990D01*
G37*
D13*
%TO.P,M1,4*%
%TO.N,Net-(M1-Pad4)*%
X1400000Y3530000D03*
D12*
%TD*%
%TO.N,Net-(M1-Pad1)*%
%TO.C,M1*%
G36*
X-713739Y4776990D02*
X-653069Y4767991D01*
X-593572Y4753088D01*
X-535823Y4732425D01*
X-480377Y4706201D01*
X-427769Y4674669D01*
X-378504Y4638132D01*
X-333058Y4596942D01*
X-291868Y4551496D01*
X-255331Y4502231D01*
X-223799Y4449623D01*
X-197575Y4394177D01*
X-176912Y4336428D01*
X-162009Y4276931D01*
X-153010Y4216261D01*
X-150000Y4155000D01*
X-150000Y2905000D01*
X-153010Y2843739D01*
X-162009Y2783069D01*
X-176912Y2723572D01*
X-197575Y2665823D01*
X-223799Y2610377D01*
X-255331Y2557769D01*
X-291868Y2508504D01*
X-333058Y2463058D01*
X-378504Y2421868D01*
X-427769Y2385331D01*
X-480377Y2353799D01*
X-535823Y2327575D01*
X-593572Y2306912D01*
X-653069Y2292009D01*
X-713739Y2283010D01*
X-775000Y2280000D01*
X-2025000Y2280000D01*
X-2086261Y2283010D01*
X-2146931Y2292009D01*
X-2206428Y2306912D01*
X-2264177Y2327575D01*
X-2319623Y2353799D01*
X-2372231Y2385331D01*
X-2421496Y2421868D01*
X-2466942Y2463058D01*
X-2508132Y2508504D01*
X-2544669Y2557769D01*
X-2576201Y2610377D01*
X-2602425Y2665823D01*
X-2623088Y2723572D01*
X-2637991Y2783069D01*
X-2646990Y2843739D01*
X-2650000Y2905000D01*
X-2650000Y4155000D01*
X-2646990Y4216261D01*
X-2637991Y4276931D01*
X-2623088Y4336428D01*
X-2602425Y4394177D01*
X-2576201Y4449623D01*
X-2544669Y4502231D01*
X-2508132Y4551496D01*
X-2466942Y4596942D01*
X-2421496Y4638132D01*
X-2372231Y4674669D01*
X-2319623Y4706201D01*
X-2264177Y4732425D01*
X-2206428Y4753088D01*
X-2146931Y4767991D01*
X-2086261Y4776990D01*
X-2025000Y4780000D01*
X-775000Y4780000D01*
X-713739Y4776990D01*
X-713739Y4776990D01*
G37*
D13*
%TO.P,M1,1*%
%TO.N,Net-(M1-Pad1)*%
X-1400000Y3530000D03*
D12*
%TD*%
%TO.N,Net-(M1-Pad2)*%
%TO.C,M1*%
G36*
X-713739Y-2283010D02*
X-653069Y-2292009D01*
X-593572Y-2306912D01*
X-535823Y-2327575D01*
X-480377Y-2353799D01*
X-427769Y-2385331D01*
X-378504Y-2421868D01*
X-333058Y-2463058D01*
X-291868Y-2508504D01*
X-255331Y-2557769D01*
X-223799Y-2610377D01*
X-197575Y-2665823D01*
X-176912Y-2723572D01*
X-162009Y-2783069D01*
X-153010Y-2843739D01*
X-150000Y-2905000D01*
X-150000Y-4155000D01*
X-153010Y-4216261D01*
X-162009Y-4276931D01*
X-176912Y-4336428D01*
X-197575Y-4394177D01*
X-223799Y-4449623D01*
X-255331Y-4502231D01*
X-291868Y-4551496D01*
X-333058Y-4596942D01*
X-378504Y-4638132D01*
X-427769Y-4674669D01*
X-480377Y-4706201D01*
X-535823Y-4732425D01*
X-593572Y-4753088D01*
X-653069Y-4767991D01*
X-713739Y-4776990D01*
X-775000Y-4780000D01*
X-2025000Y-4780000D01*
X-2086261Y-4776990D01*
X-2146931Y-4767991D01*
X-2206428Y-4753088D01*
X-2264177Y-4732425D01*
X-2319623Y-4706201D01*
X-2372231Y-4674669D01*
X-2421496Y-4638132D01*
X-2466942Y-4596942D01*
X-2508132Y-4551496D01*
X-2544669Y-4502231D01*
X-2576201Y-4449623D01*
X-2602425Y-4394177D01*
X-2623088Y-4336428D01*
X-2637991Y-4276931D01*
X-2646990Y-4216261D01*
X-2650000Y-4155000D01*
X-2650000Y-2905000D01*
X-2646990Y-2843739D01*
X-2637991Y-2783069D01*
X-2623088Y-2723572D01*
X-2602425Y-2665823D01*
X-2576201Y-2610377D01*
X-2544669Y-2557769D01*
X-2508132Y-2508504D01*
X-2466942Y-2463058D01*
X-2421496Y-2421868D01*
X-2372231Y-2385331D01*
X-2319623Y-2353799D01*
X-2264177Y-2327575D01*
X-2206428Y-2306912D01*
X-2146931Y-2292009D01*
X-2086261Y-2283010D01*
X-2025000Y-2280000D01*
X-775000Y-2280000D01*
X-713739Y-2283010D01*
X-713739Y-2283010D01*
G37*
D13*
%TO.P,M1,2*%
%TO.N,Net-(M1-Pad2)*%
X-1400000Y-3530000D03*
D12*
%TD*%
%TO.N,Net-(M1-Pad3)*%
%TO.C,M1*%
G36*
X2086261Y-2283010D02*
X2146931Y-2292009D01*
X2206428Y-2306912D01*
X2264177Y-2327575D01*
X2319623Y-2353799D01*
X2372231Y-2385331D01*
X2421496Y-2421868D01*
X2466942Y-2463058D01*
X2508132Y-2508504D01*
X2544669Y-2557769D01*
X2576201Y-2610377D01*
X2602425Y-2665823D01*
X2623088Y-2723572D01*
X2637991Y-2783069D01*
X2646990Y-2843739D01*
X2650000Y-2905000D01*
X2650000Y-4155000D01*
X2646990Y-4216261D01*
X2637991Y-4276931D01*
X2623088Y-4336428D01*
X2602425Y-4394177D01*
X2576201Y-4449623D01*
X2544669Y-4502231D01*
X2508132Y-4551496D01*
X2466942Y-4596942D01*
X2421496Y-4638132D01*
X2372231Y-4674669D01*
X2319623Y-4706201D01*
X2264177Y-4732425D01*
X2206428Y-4753088D01*
X2146931Y-4767991D01*
X2086261Y-4776990D01*
X2025000Y-4780000D01*
X775000Y-4780000D01*
X713739Y-4776990D01*
X653069Y-4767991D01*
X593572Y-4753088D01*
X535823Y-4732425D01*
X480377Y-4706201D01*
X427769Y-4674669D01*
X378504Y-4638132D01*
X333058Y-4596942D01*
X291868Y-4551496D01*
X255331Y-4502231D01*
X223799Y-4449623D01*
X197575Y-4394177D01*
X176912Y-4336428D01*
X162009Y-4276931D01*
X153010Y-4216261D01*
X150000Y-4155000D01*
X150000Y-2905000D01*
X153010Y-2843739D01*
X162009Y-2783069D01*
X176912Y-2723572D01*
X197575Y-2665823D01*
X223799Y-2610377D01*
X255331Y-2557769D01*
X291868Y-2508504D01*
X333058Y-2463058D01*
X378504Y-2421868D01*
X427769Y-2385331D01*
X480377Y-2353799D01*
X535823Y-2327575D01*
X593572Y-2306912D01*
X653069Y-2292009D01*
X713739Y-2283010D01*
X775000Y-2280000D01*
X2025000Y-2280000D01*
X2086261Y-2283010D01*
X2086261Y-2283010D01*
G37*
D13*
%TO.P,M1,3*%
%TO.N,Net-(M1-Pad3)*%
X1400000Y-3530000D03*
D11*
%TO.P,M1,10*%
%TO.N,+3V3*%
X6500000Y-16730000D03*
%TD*%
D14*
%TO.P,R6,2*%
%TO.N,-BATT*%
X-8702000Y36068000D03*
%TO.P,R6,1*%
%TO.N,GNDA*%
X-10602000Y36068000D03*
%TD*%
D15*
%TO.P,J5,1*%
%TO.N,/GND-R*%
X32210000Y11208000D03*
D16*
%TO.P,J5,2*%
%TO.N,/3V3-R*%
X34750000Y11208000D03*
%TO.P,J5,3*%
%TO.N,Net-(J5-Pad3)*%
X37290000Y11208000D03*
%TO.P,J5,4*%
%TO.N,Net-(J5-Pad4)*%
X39830000Y11208000D03*
%TD*%
D17*
%TO.P,R9,2*%
%TO.N,+3V3*%
X-7862000Y51816000D03*
%TO.P,R9,1*%
%TO.N,/RESET*%
X-6362000Y51816000D03*
%TD*%
D16*
%TO.P,J3,6*%
%TO.N,/BT-STATE*%
X2540000Y-22860000D03*
%TO.P,J3,5*%
%TO.N,/UART_TX*%
X2540000Y-20320000D03*
%TO.P,J3,4*%
%TO.N,/UART_RX*%
X2540000Y-17780000D03*
%TO.P,J3,3*%
%TO.N,GND*%
X2540000Y-15240000D03*
%TO.P,J3,2*%
%TO.N,+3V3*%
X2540000Y-12700000D03*
D15*
%TO.P,J3,1*%
%TO.N,/BT-EN*%
X2540000Y-10160000D03*
%TD*%
D17*
%TO.P,R11,1*%
%TO.N,/USER_SW1*%
X34278000Y26670000D03*
%TO.P,R11,2*%
%TO.N,+3V3*%
X32778000Y26670000D03*
%TD*%
%TO.P,R14,2*%
%TO.N,+3V3*%
X30976000Y26670000D03*
%TO.P,R14,1*%
%TO.N,/USER_SW2*%
X29476000Y26670000D03*
%TD*%
D18*
%TO.P,SW3,1*%
%TO.N,GND*%
X34290000Y31672000D03*
%TO.P,SW3,2*%
%TO.N,/USER_SW1*%
X34290000Y28272000D03*
%TD*%
%TO.P,SW4,2*%
%TO.N,/USER_SW2*%
X29464000Y28272000D03*
%TO.P,SW4,1*%
%TO.N,GND*%
X29464000Y31672000D03*
%TD*%
D19*
%TO.P,U11,64*%
%TO.N,Net-(U11-Pad64)*%
X7426000Y44562000D03*
%TO.P,U11,63*%
%TO.N,/MOTOR-L-INB*%
X7926000Y44562000D03*
%TO.P,U11,62*%
%TO.N,/MOTOR-L-INA*%
X8426000Y44562000D03*
%TO.P,U11,61*%
%TO.N,/MOTOR-R-INB*%
X8926000Y44562000D03*
%TO.P,U11,60*%
%TO.N,/MOTOR-R-INA*%
X9426000Y44562000D03*
%TO.P,U11,59*%
%TO.N,/ENC-L-CHB*%
X9926000Y44562000D03*
%TO.P,U11,58*%
%TO.N,/ENC-L-CHA*%
X10426000Y44562000D03*
%TO.P,U11,57*%
%TO.N,+3V3*%
X10926000Y44562000D03*
%TO.P,U11,56*%
%TO.N,Net-(C19-Pad1)*%
X11426000Y44562000D03*
%TO.P,U11,55*%
%TO.N,/ENC-R-CHB*%
X11926000Y44562000D03*
%TO.P,U11,54*%
%TO.N,/ENC-R-CHA*%
X12426000Y44562000D03*
%TO.P,U11,53*%
%TO.N,/FRONT-L-TX*%
X12926000Y44562000D03*
%TO.P,U11,52*%
%TO.N,/DIAG1-L-TX*%
X13426000Y44562000D03*
%TO.P,U11,51*%
%TO.N,/DIAG2-L-TX*%
X13926000Y44562000D03*
%TO.P,U11,50*%
%TO.N,/FRONT-R-TX*%
X14426000Y44562000D03*
%TO.P,U11,49*%
%TO.N,Net-(U11-Pad49)*%
X14926000Y44562000D03*
D20*
%TO.P,U11,48*%
%TO.N,Net-(U11-Pad48)*%
X16876000Y42612000D03*
%TO.P,U11,47*%
%TO.N,Net-(U11-Pad47)*%
X16876000Y42112000D03*
%TO.P,U11,46*%
%TO.N,Net-(U11-Pad46)*%
X16876000Y41612000D03*
%TO.P,U11,45*%
%TO.N,Net-(U11-Pad45)*%
X16876000Y41112000D03*
%TO.P,U11,44*%
%TO.N,Net-(U11-Pad44)*%
X16876000Y40612000D03*
%TO.P,U11,43*%
%TO.N,Net-(U11-Pad43)*%
X16876000Y40112000D03*
%TO.P,U11,42*%
%TO.N,Net-(U11-Pad42)*%
X16876000Y39612000D03*
%TO.P,U11,41*%
%TO.N,GND*%
X16876000Y39112000D03*
%TO.P,U11,40*%
%TO.N,Net-(U11-Pad40)*%
X16876000Y38612000D03*
%TO.P,U11,39*%
%TO.N,Net-(U11-Pad39)*%
X16876000Y38112000D03*
%TO.P,U11,38*%
%TO.N,+3V3*%
X16876000Y37612000D03*
%TO.P,U11,37*%
%TO.N,Net-(U11-Pad37)*%
X16876000Y37112000D03*
%TO.P,U11,36*%
%TO.N,/LED1*%
X16876000Y36612000D03*
%TO.P,U11,35*%
%TO.N,/LED2*%
X16876000Y36112000D03*
%TO.P,U11,34*%
%TO.N,/LED3*%
X16876000Y35612000D03*
%TO.P,U11,33*%
%TO.N,/LED4*%
X16876000Y35112000D03*
D19*
%TO.P,U11,32*%
%TO.N,/UART_RX*%
X14926000Y33162000D03*
%TO.P,U11,31*%
%TO.N,/UART_TX*%
X14426000Y33162000D03*
%TO.P,U11,30*%
%TO.N,/USER_SW1*%
X13926000Y33162000D03*
%TO.P,U11,29*%
%TO.N,/USER_SW2*%
X13426000Y33162000D03*
%TO.P,U11,28*%
%TO.N,/BT-STATE*%
X12926000Y33162000D03*
%TO.P,U11,27*%
%TO.N,/BT-EN*%
X12426000Y33162000D03*
%TO.P,U11,26*%
%TO.N,+3V3*%
X11926000Y33162000D03*
%TO.P,U11,25*%
%TO.N,GND*%
X11426000Y33162000D03*
%TO.P,U11,24*%
%TO.N,Net-(U11-Pad24)*%
X10926000Y33162000D03*
%TO.P,U11,23*%
%TO.N,Net-(U11-Pad23)*%
X10426000Y33162000D03*
%TO.P,U11,22*%
%TO.N,Net-(U11-Pad22)*%
X9926000Y33162000D03*
%TO.P,U11,21*%
%TO.N,Net-(U11-Pad21)*%
X9426000Y33162000D03*
%TO.P,U11,20*%
%TO.N,GNDA*%
X8926000Y33162000D03*
%TO.P,U11,19*%
%TO.N,+3.3VA*%
X8426000Y33162000D03*
%TO.P,U11,18*%
%TO.N,/PGED*%
X7926000Y33162000D03*
%TO.P,U11,17*%
%TO.N,/PGEC*%
X7426000Y33162000D03*
D20*
%TO.P,U11,16*%
%TO.N,/VBAT-SENS*%
X5476000Y35112000D03*
%TO.P,U11,15*%
%TO.N,/FRONT-L-RX*%
X5476000Y35612000D03*
%TO.P,U11,14*%
%TO.N,/FLASH-RX*%
X5476000Y36112000D03*
%TO.P,U11,13*%
%TO.N,/DIAG-L-RX*%
X5476000Y36612000D03*
%TO.P,U11,12*%
%TO.N,/DIAG-R-RX*%
X5476000Y37112000D03*
%TO.P,U11,11*%
%TO.N,/FRONT-R-RX*%
X5476000Y37612000D03*
%TO.P,U11,10*%
%TO.N,+3V3*%
X5476000Y38112000D03*
%TO.P,U11,9*%
%TO.N,GND*%
X5476000Y38612000D03*
%TO.P,U11,8*%
%TO.N,Net-(U11-Pad8)*%
X5476000Y39112000D03*
%TO.P,U11,7*%
%TO.N,/RESET*%
X5476000Y39612000D03*
%TO.P,U11,6*%
%TO.N,Net-(U11-Pad6)*%
X5476000Y40112000D03*
%TO.P,U11,5*%
%TO.N,Net-(U11-Pad5)*%
X5476000Y40612000D03*
%TO.P,U11,4*%
%TO.N,Net-(U11-Pad4)*%
X5476000Y41112000D03*
%TO.P,U11,3*%
%TO.N,Net-(U11-Pad3)*%
X5476000Y41612000D03*
%TO.P,U11,2*%
%TO.N,/GYRO-OUTZ*%
X5476000Y42112000D03*
%TO.P,U11,1*%
%TO.N,/GYRO-VREF*%
X5476000Y42612000D03*
%TD*%
D21*
%TO.P,U4,1*%
%TO.N,Net-(U4-Pad1)*%
X12065000Y21590000D03*
%TO.P,U4,2*%
%TO.N,/MOTOR-R-INA*%
X10795000Y21590000D03*
%TO.P,U4,3*%
%TO.N,-BATT*%
X9525000Y21590000D03*
%TO.P,U4,4*%
%TO.N,/MOTOR-R-INB*%
X8255000Y21590000D03*
%TO.P,U4,5*%
%TO.N,Net-(U4-Pad5)*%
X8255000Y15240000D03*
%TO.P,U4,6*%
%TO.N,+BATT*%
X9525000Y15240000D03*
%TO.P,U4,7*%
%TO.N,Net-(U4-Pad7)*%
X10795000Y15240000D03*
%TO.P,U4,8*%
%TO.N,Net-(U4-Pad8)*%
X12065000Y15240000D03*
%TD*%
D22*
%TO.P,J1,3*%
%TO.N,Net-(J1-Pad3)*%
X-15875000Y25845000D03*
%TO.P,J1,2*%
%TO.N,Net-(J1-Pad2)*%
X-15875000Y27845000D03*
D23*
%TO.P,J1,1*%
%TO.N,-BATT*%
X-15875000Y29845000D03*
%TD*%
D24*
%TO.P,Q2,1*%
%TO.N,/DIAG-L-RX*%
X-17364500Y56071300D03*
D12*
%TD*%
%TO.N,/DIAG-L-RX*%
%TO.C,Q2*%
G36*
X-17693923Y57300723D02*
X-16135077Y56400723D01*
X-17035077Y54841877D01*
X-18593923Y55741877D01*
X-17693923Y57300723D01*
X-17693923Y57300723D01*
G37*
D24*
%TO.P,Q2,2*%
%TO.N,+5VA*%
X-18634500Y53871595D03*
%TD*%
%TO.P,Q5,2*%
%TO.N,+5VA*%
X-18542000Y49784000D03*
D25*
%TO.P,Q5,1*%
%TO.N,/FLASH-RX*%
X-16002000Y49784000D03*
%TD*%
D24*
%TO.P,D6,1*%
%TO.N,Net-(D6-Pad1)*%
X-32510600Y38100600D03*
D12*
%TD*%
%TO.N,Net-(D6-Pad1)*%
%TO.C,D6*%
G36*
X-31642558Y39031461D02*
X-31579739Y37232558D01*
X-33378642Y37169739D01*
X-33441461Y38968642D01*
X-31642558Y39031461D01*
X-31642558Y39031461D01*
G37*
D24*
%TO.P,D6,2*%
%TO.N,+5V*%
X-35049053Y38011955D03*
%TD*%
%TO.P,Q3,2*%
%TO.N,+5VA*%
X-29011853Y38011955D03*
%TO.P,Q3,1*%
%TO.N,/FRONT-L-RX*%
X-26473400Y38100600D03*
D12*
%TD*%
%TO.N,/FRONT-L-RX*%
%TO.C,Q3*%
G36*
X-25605358Y39031461D02*
X-25542539Y37232558D01*
X-27341442Y37169739D01*
X-27404261Y38968642D01*
X-25605358Y39031461D01*
X-25605358Y39031461D01*
G37*
D26*
%TO.P,C1,1*%
%TO.N,Net-(C1-Pad1)*%
X5223000Y53340000D03*
%TO.P,C1,2*%
%TO.N,GNDA*%
X7223000Y53340000D03*
%TD*%
D27*
%TO.P,C2,1*%
%TO.N,+BATT*%
X-10795000Y31750000D03*
%TO.P,C2,2*%
%TO.N,-BATT*%
X-10795000Y25400000D03*
%TD*%
D28*
%TO.P,C3,2*%
%TO.N,GNDA*%
X-12700000Y36310000D03*
%TO.P,C3,1*%
%TO.N,+BATT*%
X-12700000Y34810000D03*
%TD*%
D26*
%TO.P,C4,2*%
%TO.N,GNDA*%
X7223000Y51054000D03*
%TO.P,C4,1*%
%TO.N,+3.3VA*%
X5223000Y51054000D03*
%TD*%
D28*
%TO.P,C5,2*%
%TO.N,Net-(C5-Pad2)*%
X-635000Y54725000D03*
%TO.P,C5,1*%
%TO.N,Net-(C5-Pad1)*%
X-635000Y53225000D03*
%TD*%
%TO.P,C6,1*%
%TO.N,+5VA*%
X-12700000Y40120000D03*
%TO.P,C6,2*%
%TO.N,GNDA*%
X-12700000Y38620000D03*
%TD*%
D29*
%TO.P,C7,2*%
%TO.N,GNDA*%
X-3798000Y53213000D03*
%TO.P,C7,1*%
%TO.N,Net-(C5-Pad1)*%
X-2298000Y53213000D03*
%TD*%
D27*
%TO.P,C8,2*%
%TO.N,-BATT*%
X-4445000Y22225000D03*
%TO.P,C8,1*%
%TO.N,+BATT*%
X-4445000Y15875000D03*
%TD*%
%TO.P,C9,2*%
%TO.N,-BATT*%
X4445000Y22225000D03*
%TO.P,C9,1*%
%TO.N,+BATT*%
X4445000Y15875000D03*
%TD*%
D28*
%TO.P,C10,1*%
%TO.N,+BATT*%
X-1016000Y16014000D03*
%TO.P,C10,2*%
%TO.N,-BATT*%
X-1016000Y17514000D03*
%TD*%
%TO.P,C11,1*%
%TO.N,+BATT*%
X1016000Y16014000D03*
%TO.P,C11,2*%
%TO.N,-BATT*%
X1016000Y17514000D03*
%TD*%
D30*
%TO.P,C12,1*%
%TO.N,+5V*%
X-10160000Y42656000D03*
%TO.P,C12,2*%
%TO.N,GND*%
X-10160000Y40656000D03*
%TD*%
%TO.P,C13,2*%
%TO.N,GND*%
X-6096000Y36592000D03*
%TO.P,C13,1*%
%TO.N,+3V3*%
X-6096000Y38592000D03*
%TD*%
D26*
%TO.P,C14,2*%
%TO.N,GNDA*%
X3572000Y29718000D03*
%TO.P,C14,1*%
%TO.N,+3.3VA*%
X5572000Y29718000D03*
%TD*%
D28*
%TO.P,C15,1*%
%TO.N,+3V3*%
X2032000Y38366000D03*
%TO.P,C15,2*%
%TO.N,GND*%
X2032000Y39866000D03*
%TD*%
D29*
%TO.P,C16,2*%
%TO.N,GNDA*%
X8878000Y29718000D03*
%TO.P,C16,1*%
%TO.N,+3.3VA*%
X7378000Y29718000D03*
%TD*%
%TO.P,C17,2*%
%TO.N,GND*%
X22594000Y36830000D03*
%TO.P,C17,1*%
%TO.N,+3V3*%
X21094000Y36830000D03*
%TD*%
%TO.P,C18,1*%
%TO.N,+3V3*%
X10148000Y46990000D03*
%TO.P,C18,2*%
%TO.N,GND*%
X8648000Y46990000D03*
%TD*%
D31*
%TO.P,C19,2*%
%TO.N,GND*%
X12192000Y55103001D03*
%TO.P,C19,1*%
%TO.N,Net-(C19-Pad1)*%
X12192000Y50052999D03*
%TD*%
D29*
%TO.P,C20,2*%
%TO.N,/GND-L*%
X33718000Y-9124000D03*
%TO.P,C20,1*%
%TO.N,/3V3-L*%
X35218000Y-9124000D03*
%TD*%
%TO.P,C21,1*%
%TO.N,/3V3-R*%
X34738000Y12986000D03*
%TO.P,C21,2*%
%TO.N,/GND-R*%
X33238000Y12986000D03*
%TD*%
%TO.P,C22,2*%
%TO.N,GND*%
X10299000Y29718000D03*
%TO.P,C22,1*%
%TO.N,+3V3*%
X11799000Y29718000D03*
%TD*%
D28*
%TO.P,C23,1*%
%TO.N,+5V*%
X-35052000Y35548000D03*
%TO.P,C23,2*%
%TO.N,GND*%
X-35052000Y34048000D03*
%TD*%
D32*
%TO.P,D1,2*%
%TO.N,/LED1*%
X26162000Y32346000D03*
%TO.P,D1,1*%
%TO.N,Net-(D1-Pad1)*%
X26162000Y30646000D03*
%TD*%
%TO.P,D2,1*%
%TO.N,Net-(D2-Pad1)*%
X-8636000Y45808000D03*
%TO.P,D2,2*%
%TO.N,+5V*%
X-8636000Y44108000D03*
%TD*%
%TO.P,D3,2*%
%TO.N,/LED2*%
X24638000Y32346000D03*
%TO.P,D3,1*%
%TO.N,Net-(D3-Pad1)*%
X24638000Y30646000D03*
%TD*%
%TO.P,D4,1*%
%TO.N,Net-(D4-Pad1)*%
X23114000Y30646000D03*
%TO.P,D4,2*%
%TO.N,/LED3*%
X23114000Y32346000D03*
%TD*%
%TO.P,D5,2*%
%TO.N,/LED4*%
X21590000Y32346000D03*
%TO.P,D5,1*%
%TO.N,Net-(D5-Pad1)*%
X21590000Y30646000D03*
%TD*%
D24*
%TO.P,D7,1*%
%TO.N,Net-(D7-Pad1)*%
X14634200Y58813400D03*
D12*
%TD*%
%TO.N,Net-(D7-Pad1)*%
%TO.C,D7*%
G36*
X15863623Y58483977D02*
X14304777Y57583977D01*
X13404777Y59142823D01*
X14963623Y60042823D01*
X15863623Y58483977D01*
X15863623Y58483977D01*
G37*
D24*
%TO.P,D7,2*%
%TO.N,+5V*%
X13364200Y61013105D03*
%TD*%
%TO.P,D8,2*%
%TO.N,Net-(D7-Pad1)*%
X-14762700Y58743695D03*
%TO.P,D8,1*%
%TO.N,Net-(D8-Pad1)*%
X-13492700Y60943400D03*
D12*
%TD*%
%TO.N,Net-(D8-Pad1)*%
%TO.C,D8*%
G36*
X-13822123Y62172823D02*
X-12263277Y61272823D01*
X-13163277Y59713977D01*
X-14722123Y60613977D01*
X-13822123Y62172823D01*
X-13822123Y62172823D01*
G37*
D24*
%TO.P,D9,2*%
%TO.N,+5V*%
X32455347Y38012845D03*
%TO.P,D9,1*%
%TO.N,Net-(D9-Pad1)*%
X34993800Y37924200D03*
D12*
%TD*%
%TO.N,Net-(D9-Pad1)*%
%TO.C,D9*%
G36*
X35924661Y38792242D02*
X35861842Y36993339D01*
X34062939Y37056158D01*
X34125758Y38855061D01*
X35924661Y38792242D01*
X35924661Y38792242D01*
G37*
D16*
%TO.P,J2,5*%
%TO.N,/RESET*%
X5080000Y60198000D03*
%TO.P,J2,4*%
%TO.N,+3V3*%
X2540000Y60198000D03*
%TO.P,J2,3*%
%TO.N,GND*%
X0Y60198000D03*
%TO.P,J2,2*%
%TO.N,/PGED*%
X-2540000Y60198000D03*
D15*
%TO.P,J2,1*%
%TO.N,/PGEC*%
X-5080000Y60198000D03*
%TD*%
D16*
%TO.P,J4,4*%
%TO.N,Net-(J4-Pad4)*%
X40310000Y-10902000D03*
%TO.P,J4,3*%
%TO.N,Net-(J4-Pad3)*%
X37770000Y-10902000D03*
%TO.P,J4,2*%
%TO.N,/3V3-L*%
X35230000Y-10902000D03*
D15*
%TO.P,J4,1*%
%TO.N,/GND-L*%
X32690000Y-10902000D03*
%TD*%
D24*
%TO.P,Q1,2*%
%TO.N,+5VA*%
X17247800Y56235005D03*
%TO.P,Q1,1*%
%TO.N,/DIAG-R-RX*%
X18517800Y54035300D03*
D12*
%TD*%
%TO.N,/DIAG-R-RX*%
%TO.C,Q1*%
G36*
X19747223Y53705877D02*
X18188377Y52805877D01*
X17288377Y54364723D01*
X18847223Y55264723D01*
X19747223Y53705877D01*
X19747223Y53705877D01*
G37*
D24*
%TO.P,Q4,1*%
%TO.N,/FRONT-R-RX*%
X28532900Y37924200D03*
D12*
%TD*%
%TO.N,/FRONT-R-RX*%
%TO.C,Q4*%
G36*
X29463761Y38792242D02*
X29400942Y36993339D01*
X27602039Y37056158D01*
X27664858Y38855061D01*
X29463761Y38792242D01*
X29463761Y38792242D01*
G37*
D24*
%TO.P,Q4,2*%
%TO.N,+5VA*%
X25994447Y38012845D03*
%TD*%
D17*
%TO.P,R1,1*%
%TO.N,Net-(C1-Pad1)*%
X4965000Y55118000D03*
%TO.P,R1,2*%
%TO.N,+5VA*%
X6465000Y55118000D03*
%TD*%
D33*
%TO.P,R2,1*%
%TO.N,GND*%
X7874000Y60694000D03*
%TO.P,R2,2*%
%TO.N,/PGED*%
X7874000Y59194000D03*
%TD*%
%TO.P,R3,2*%
%TO.N,GND*%
X-7874000Y58686000D03*
%TO.P,R3,1*%
%TO.N,/PGEC*%
X-7874000Y60186000D03*
%TD*%
D17*
%TO.P,R4,2*%
%TO.N,GND*%
X-14974000Y19812000D03*
%TO.P,R4,1*%
%TO.N,/MOTOR-L-INA*%
X-13474000Y19812000D03*
%TD*%
%TO.P,R5,1*%
%TO.N,/MOTOR-R-INA*%
X13728000Y21590000D03*
%TO.P,R5,2*%
%TO.N,GND*%
X15228000Y21590000D03*
%TD*%
%TO.P,R7,1*%
%TO.N,/MOTOR-L-INB*%
X-13474000Y21590000D03*
%TO.P,R7,2*%
%TO.N,GND*%
X-14974000Y21590000D03*
%TD*%
%TO.P,R8,2*%
%TO.N,GND*%
X15228000Y19812000D03*
%TO.P,R8,1*%
%TO.N,/MOTOR-R-INB*%
X13728000Y19812000D03*
%TD*%
%TO.P,R10,2*%
%TO.N,GNDA*%
X-3798000Y54864000D03*
%TO.P,R10,1*%
%TO.N,Net-(C5-Pad2)*%
X-2298000Y54864000D03*
%TD*%
D14*
%TO.P,R12,1*%
%TO.N,+5V*%
X-12385000Y42545000D03*
%TO.P,R12,2*%
%TO.N,+5VA*%
X-14285000Y42545000D03*
%TD*%
%TO.P,R13,2*%
%TO.N,GNDA*%
X-10602000Y38354000D03*
%TO.P,R13,1*%
%TO.N,GND*%
X-8702000Y38354000D03*
%TD*%
D33*
%TO.P,R15,2*%
%TO.N,Net-(D1-Pad1)*%
X26162000Y29452000D03*
%TO.P,R15,1*%
%TO.N,GND*%
X26162000Y27952000D03*
%TD*%
%TO.P,R16,1*%
%TO.N,GND*%
X-6985000Y44335000D03*
%TO.P,R16,2*%
%TO.N,Net-(D2-Pad1)*%
X-6985000Y45835000D03*
%TD*%
%TO.P,R17,2*%
%TO.N,Net-(D3-Pad1)*%
X24638000Y29452000D03*
%TO.P,R17,1*%
%TO.N,GND*%
X24638000Y27952000D03*
%TD*%
%TO.P,R18,1*%
%TO.N,GND*%
X23114000Y27952000D03*
%TO.P,R18,2*%
%TO.N,Net-(D4-Pad1)*%
X23114000Y29452000D03*
%TD*%
%TO.P,R19,1*%
%TO.N,/VBAT-SENS*%
X-6096000Y31484000D03*
%TO.P,R19,2*%
%TO.N,+BATT*%
X-6096000Y29984000D03*
%TD*%
%TO.P,R20,2*%
%TO.N,/VBAT-SENS*%
X-6096000Y32778000D03*
%TO.P,R20,1*%
%TO.N,GNDA*%
X-6096000Y34278000D03*
%TD*%
%TO.P,R21,2*%
%TO.N,Net-(D5-Pad1)*%
X21590000Y29452000D03*
%TO.P,R21,1*%
%TO.N,GND*%
X21590000Y27952000D03*
%TD*%
D17*
%TO.P,R22,1*%
%TO.N,/DIAG-R-RX*%
X18276000Y50546000D03*
%TO.P,R22,2*%
%TO.N,GNDA*%
X16776000Y50546000D03*
%TD*%
D33*
%TO.P,R23,1*%
%TO.N,/DIAG-L-RX*%
X-14732000Y54852000D03*
%TO.P,R23,2*%
%TO.N,GNDA*%
X-14732000Y53352000D03*
%TD*%
%TO.P,R24,2*%
%TO.N,GNDA*%
X-26416000Y34302000D03*
%TO.P,R24,1*%
%TO.N,/FRONT-L-RX*%
X-26416000Y35802000D03*
%TD*%
D14*
%TO.P,R25,1*%
%TO.N,Net-(D6-Pad1)*%
X-32446000Y34798000D03*
%TO.P,R25,2*%
%TO.N,Net-(R25-Pad2)*%
X-30546000Y34798000D03*
%TD*%
%TO.P,R26,2*%
%TO.N,Net-(R26-Pad2)*%
X-9210000Y65532000D03*
%TO.P,R26,1*%
%TO.N,Net-(D8-Pad1)*%
X-11110000Y65532000D03*
%TD*%
%TO.P,R27,1*%
%TO.N,Net-(D8-Pad1)*%
X-11110000Y63500000D03*
%TO.P,R27,2*%
%TO.N,Net-(R27-Pad2)*%
X-9210000Y63500000D03*
%TD*%
%TO.P,R28,2*%
%TO.N,Net-(R28-Pad2)*%
X33086000Y35560000D03*
%TO.P,R28,1*%
%TO.N,Net-(D9-Pad1)*%
X34986000Y35560000D03*
%TD*%
D17*
%TO.P,R29,2*%
%TO.N,GNDA*%
X27190000Y35179000D03*
%TO.P,R29,1*%
%TO.N,/FRONT-R-RX*%
X28690000Y35179000D03*
%TD*%
D33*
%TO.P,R30,1*%
%TO.N,/FLASH-RX*%
X-13208000Y49669000D03*
%TO.P,R30,2*%
%TO.N,GNDA*%
X-13208000Y51169000D03*
%TD*%
D15*
%TO.P,SW1,1*%
%TO.N,Net-(SW1-Pad1)*%
X-22225000Y25400000D03*
D16*
%TO.P,SW1,2*%
%TO.N,Net-(J1-Pad3)*%
X-22225000Y27940000D03*
%TO.P,SW1,3*%
%TO.N,+BATT*%
X-22225000Y30480000D03*
%TD*%
D18*
%TO.P,SW2,2*%
%TO.N,/RESET*%
X-7493000Y53418000D03*
%TO.P,SW2,1*%
%TO.N,GND*%
X-7493000Y56818000D03*
%TD*%
D34*
%TO.P,U1,3*%
%TO.N,Net-(C1-Pad1)*%
X2413000Y55229000D03*
%TO.P,U1,2*%
%TO.N,+3.3VA*%
X3363000Y53229000D03*
%TO.P,U1,1*%
%TO.N,GNDA*%
X1463000Y53229000D03*
%TD*%
D35*
%TO.P,U2,1*%
%TO.N,+BATT*%
X-15900000Y35165000D03*
%TO.P,U2,3*%
%TO.N,+5VA*%
X-15900000Y39765000D03*
%TO.P,U2,2*%
%TO.N,GNDA*%
X-15900000Y37465000D03*
D36*
X-22200000Y37465000D03*
%TD*%
D21*
%TO.P,U3,8*%
%TO.N,Net-(U3-Pad8)*%
X-8255000Y15240000D03*
%TO.P,U3,7*%
%TO.N,Net-(U3-Pad7)*%
X-9525000Y15240000D03*
%TO.P,U3,6*%
%TO.N,+BATT*%
X-10795000Y15240000D03*
%TO.P,U3,5*%
%TO.N,Net-(U3-Pad5)*%
X-12065000Y15240000D03*
%TO.P,U3,4*%
%TO.N,/MOTOR-L-INB*%
X-12065000Y21590000D03*
%TO.P,U3,3*%
%TO.N,-BATT*%
X-10795000Y21590000D03*
%TO.P,U3,2*%
%TO.N,/MOTOR-L-INA*%
X-9525000Y21590000D03*
%TO.P,U3,1*%
%TO.N,Net-(U3-Pad1)*%
X-8255000Y21590000D03*
%TD*%
D37*
%TO.P,U5,10*%
%TO.N,Net-(U5-Pad10)*%
X2050000Y49784000D03*
%TO.P,U5,7*%
%TO.N,/GYRO-VREF*%
X-635000Y48684000D03*
%TO.P,U5,8*%
%TO.N,GNDA*%
X635000Y48684000D03*
%TO.P,U5,5*%
%TO.N,Net-(U5-Pad5)*%
X-2050000Y49784000D03*
%TO.P,U5,4*%
%TO.N,GNDA*%
X-2050000Y50884000D03*
%TO.P,U5,2*%
X635000Y50884000D03*
%TO.P,U5,3*%
%TO.N,Net-(C5-Pad1)*%
X-635000Y50884000D03*
%TO.P,U5,1*%
%TO.N,+3.3VA*%
X2050000Y50884000D03*
%TO.P,U5,9*%
X2050000Y48684000D03*
%TO.P,U5,6*%
%TO.N,/GYRO-OUTZ*%
X-2050000Y48684000D03*
%TD*%
D34*
%TO.P,U6,1*%
%TO.N,GND*%
X-7808000Y40656000D03*
%TO.P,U6,2*%
%TO.N,+3V3*%
X-5908000Y40656000D03*
%TO.P,U6,3*%
%TO.N,+5V*%
X-6858000Y42656000D03*
%TD*%
D38*
%TO.P,U7,1*%
%TO.N,Net-(U3-Pad5)*%
X-11020000Y12440000D03*
%TO.P,U7,2*%
%TO.N,-BATT*%
X-11020000Y10920000D03*
%TO.P,U7,3*%
%TO.N,Net-(U3-Pad7)*%
X-11020000Y9400000D03*
%TO.P,U7,4*%
X-11020000Y7880000D03*
%TO.P,U7,5*%
%TO.N,Net-(M1-Pad1)*%
X-4220000Y7880000D03*
%TO.P,U7,6*%
%TO.N,+BATT*%
X-4220000Y9400000D03*
%TO.P,U7,7*%
%TO.N,Net-(M1-Pad2)*%
X-4220000Y10920000D03*
%TO.P,U7,8*%
%TO.N,Net-(U3-Pad5)*%
X-4220000Y12440000D03*
%TD*%
%TO.P,U8,8*%
%TO.N,Net-(U4-Pad5)*%
X11020000Y12440000D03*
%TO.P,U8,7*%
%TO.N,Net-(M1-Pad4)*%
X11020000Y10920000D03*
%TO.P,U8,6*%
%TO.N,+BATT*%
X11020000Y9400000D03*
%TO.P,U8,5*%
%TO.N,Net-(M1-Pad3)*%
X11020000Y7880000D03*
%TO.P,U8,4*%
%TO.N,Net-(U4-Pad7)*%
X4220000Y7880000D03*
%TO.P,U8,3*%
X4220000Y9400000D03*
%TO.P,U8,2*%
%TO.N,-BATT*%
X4220000Y10920000D03*
%TO.P,U8,1*%
%TO.N,Net-(U4-Pad5)*%
X4220000Y12440000D03*
%TD*%
D39*
%TO.P,U9,1*%
%TO.N,Net-(U9-Pad1)*%
X39950000Y-7335000D03*
%TO.P,U9,2*%
%TO.N,Net-(U9-Pad2)*%
X39950000Y-6685000D03*
%TO.P,U9,3*%
%TO.N,Net-(J4-Pad3)*%
X39950000Y-6035000D03*
%TO.P,U9,4*%
%TO.N,Net-(J4-Pad4)*%
X39950000Y-5385000D03*
%TO.P,U9,5*%
%TO.N,Net-(U9-Pad5)*%
X39950000Y-4735000D03*
%TO.P,U9,6*%
%TO.N,Net-(U9-Pad6)*%
X39950000Y-4085000D03*
%TO.P,U9,7*%
%TO.N,/GND-L*%
X39950000Y-3435000D03*
%TO.P,U9,8*%
%TO.N,Net-(U9-Pad8)*%
X39950000Y-2785000D03*
%TO.P,U9,9*%
%TO.N,Net-(U9-Pad9)*%
X33050000Y-2785000D03*
%TO.P,U9,10*%
%TO.N,Net-(U9-Pad10)*%
X33050000Y-3435000D03*
%TO.P,U9,11*%
%TO.N,Net-(U9-Pad11)*%
X33050000Y-4085000D03*
%TO.P,U9,12*%
%TO.N,Net-(U9-Pad12)*%
X33050000Y-4735000D03*
%TO.P,U9,13*%
%TO.N,Net-(U9-Pad13)*%
X33050000Y-5385000D03*
%TO.P,U9,14*%
%TO.N,Net-(U9-Pad14)*%
X33050000Y-6035000D03*
%TO.P,U9,15*%
%TO.N,/3V3-L*%
X33050000Y-6685000D03*
%TO.P,U9,16*%
X33050000Y-7335000D03*
%TD*%
%TO.P,U10,16*%
%TO.N,/3V3-R*%
X32570000Y14775000D03*
%TO.P,U10,15*%
X32570000Y15425000D03*
%TO.P,U10,14*%
%TO.N,Net-(U10-Pad14)*%
X32570000Y16075000D03*
%TO.P,U10,13*%
%TO.N,Net-(U10-Pad13)*%
X32570000Y16725000D03*
%TO.P,U10,12*%
%TO.N,Net-(U10-Pad12)*%
X32570000Y17375000D03*
%TO.P,U10,11*%
%TO.N,Net-(U10-Pad11)*%
X32570000Y18025000D03*
%TO.P,U10,10*%
%TO.N,Net-(U10-Pad10)*%
X32570000Y18675000D03*
%TO.P,U10,9*%
%TO.N,Net-(U10-Pad9)*%
X32570000Y19325000D03*
%TO.P,U10,8*%
%TO.N,Net-(U10-Pad8)*%
X39470000Y19325000D03*
%TO.P,U10,7*%
%TO.N,/GND-R*%
X39470000Y18675000D03*
%TO.P,U10,6*%
%TO.N,Net-(U10-Pad6)*%
X39470000Y18025000D03*
%TO.P,U10,5*%
%TO.N,Net-(U10-Pad5)*%
X39470000Y17375000D03*
%TO.P,U10,4*%
%TO.N,Net-(J5-Pad4)*%
X39470000Y16725000D03*
%TO.P,U10,3*%
%TO.N,Net-(J5-Pad3)*%
X39470000Y16075000D03*
%TO.P,U10,2*%
%TO.N,Net-(U10-Pad2)*%
X39470000Y15425000D03*
%TO.P,U10,1*%
%TO.N,Net-(U10-Pad1)*%
X39470000Y14775000D03*
%TD*%
D40*
%TO.P,U12,16*%
%TO.N,Net-(R25-Pad2)*%
X24236000Y48757000D03*
%TO.P,U12,15*%
%TO.N,Net-(R26-Pad2)*%
X24236000Y48107000D03*
%TO.P,U12,14*%
%TO.N,Net-(R27-Pad2)*%
X24236000Y47457000D03*
%TO.P,U12,13*%
%TO.N,Net-(R28-Pad2)*%
X24236000Y46807000D03*
%TO.P,U12,12*%
%TO.N,Net-(U12-Pad12)*%
X24236000Y46157000D03*
%TO.P,U12,11*%
%TO.N,Net-(U12-Pad11)*%
X24236000Y45507000D03*
%TO.P,U12,10*%
%TO.N,Net-(U12-Pad10)*%
X24236000Y44857000D03*
%TO.P,U12,9*%
%TO.N,Net-(U12-Pad9)*%
X24236000Y44207000D03*
%TO.P,U12,8*%
%TO.N,GND*%
X18436000Y44207000D03*
%TO.P,U12,7*%
%TO.N,Net-(U12-Pad7)*%
X18436000Y44857000D03*
%TO.P,U12,6*%
%TO.N,Net-(U12-Pad6)*%
X18436000Y45507000D03*
%TO.P,U12,5*%
%TO.N,Net-(U12-Pad5)*%
X18436000Y46157000D03*
%TO.P,U12,4*%
%TO.N,/FRONT-R-TX*%
X18436000Y46807000D03*
%TO.P,U12,3*%
%TO.N,/DIAG2-L-TX*%
X18436000Y47457000D03*
%TO.P,U12,2*%
%TO.N,/DIAG1-L-TX*%
X18436000Y48107000D03*
%TO.P,U12,1*%
%TO.N,/FRONT-L-TX*%
X18436000Y48757000D03*
%TD*%
D41*
%TO.P,Y1,2*%
%TO.N,GND*%
X21844000Y39370000D03*
%TO.P,Y1,3*%
%TO.N,Net-(U11-Pad40)*%
X21844000Y40570000D03*
%TO.P,Y1,1*%
%TO.N,Net-(U11-Pad39)*%
X21844000Y38170000D03*
%TD*%
D42*
%TO.N,GNDA*%
X-7366000Y34290000D03*
X27177994Y33909000D03*
X15112992Y49657000D03*
X8566021Y38354000D03*
X3556000Y34290000D03*
X6858000Y49149000D03*
X-11303000Y50800000D03*
X-13716000Y37465000D03*
X3556000Y31369000D03*
%TO.N,+BATT*%
X-7366000Y30099000D03*
%TO.N,-BATT*%
X-4445000Y28448000D03*
X1015982Y11684000D03*
X9525000Y19939000D03*
X-2032000Y22225000D03*
X-10795000Y20320000D03*
X-1016000Y22225000D03*
%TO.N,+BATT*%
X13970000Y9398000D03*
X15621008Y17018000D03*
%TO.N,-BATT*%
X0Y22225000D03*
X-13716000Y10922000D03*
%TO.N,+3.3VA*%
X5079996Y49149000D03*
X8255000Y40259000D03*
%TO.N,+5VA*%
X-17272000Y43942000D03*
X6477000Y56235005D03*
%TO.N,+5V*%
X-28321000Y52451000D03*
X9906000Y68453000D03*
X-21336000Y45466000D03*
%TO.N,GND*%
X19177000Y42672000D03*
X14732000Y55118000D03*
X-9144000Y58674000D03*
X-5715000Y44323000D03*
X-4445000Y36576000D03*
X-8636000Y41656000D03*
X-7747000Y39624000D03*
X24511000Y39370000D03*
X7239000Y46482000D03*
X5588000Y28067000D03*
X16510000Y20447000D03*
X-16383000Y21590000D03*
X-35052000Y32512000D03*
X2032000Y41148000D03*
X34290000Y29972000D03*
X29464000Y29972000D03*
%TO.N,+3V3*%
X16129000Y-6731000D03*
X3302000Y27050988D03*
X-5080000Y45720000D03*
X19558000Y37211000D03*
X508000Y38608000D03*
X9652000Y48514000D03*
X-4318000Y40640000D03*
X-9144000Y51816000D03*
%TO.N,Net-(M1-Pad3)*%
X13970032Y7874000D03*
%TO.N,Net-(M1-Pad4)*%
X13970006Y10922000D03*
%TO.N,/RESET*%
X5061182Y57085015D03*
%TO.N,/ENC-R-CHA*%
X15135336Y27073340D03*
%TO.N,/ENC-R-CHB*%
X14351000Y28067000D03*
%TO.N,/ENC-L-CHB*%
X12827000Y28067000D03*
X12827000Y37338000D03*
%TO.N,/ENC-R-CHA*%
X15113000Y36576006D03*
%TO.N,/ENC-R-CHB*%
X14351000Y37338000D03*
%TO.N,/ENC-L-CHA*%
X13591108Y27053110D03*
X13589000Y36576000D03*
%TO.N,/DIAG-R-RX*%
X15112996Y51689000D03*
X-1270000Y42926000D03*
%TO.N,/FRONT-R-RX*%
X21717008Y42291000D03*
X-508000Y43815000D03*
%TO.N,/MOTOR-L-INA*%
X10285780Y25525964D03*
%TO.N,/MOTOR-R-INA*%
X11811000Y25527006D03*
%TO.N,/MOTOR-L-INB*%
X9460413Y37278628D03*
X9398000Y26162000D03*
%TO.N,/MOTOR-R-INB*%
X11047951Y26173359D03*
X11049000Y37338000D03*
%TO.N,/MOTOR-R-INA*%
X11811000Y36576000D03*
%TO.N,/MOTOR-L-INA*%
X10287000Y36576000D03*
%TD*%
D43*
%TO.N,GNDA*%
X-7354000Y34278000D02*
X-7366000Y34290000D01*
X-6096000Y34278000D02*
X-7354000Y34278000D01*
X-12700000Y36310000D02*
X-10844000Y36310000D01*
D44*
X-10844000Y36310000D02*
X-10602000Y36068000D01*
D43*
X27190000Y33921006D02*
X27177994Y33909000D01*
X27190000Y35179000D02*
X27190000Y33921006D01*
D44*
X15512991Y50056999D02*
X15112992Y49657000D01*
X16001992Y50546000D02*
X15512991Y50056999D01*
X16776000Y50546000D02*
X16001992Y50546000D01*
D43*
X-3798000Y54864000D02*
X-3798000Y55064000D01*
X-3798000Y55064000D02*
X-3810000Y55076000D01*
X-3810000Y55076000D02*
X-3810000Y55753000D01*
X-3810000Y55753000D02*
X-3429000Y56134000D01*
X-3429000Y56134000D02*
X0Y56134000D01*
X0Y56134000D02*
X635000Y55499000D01*
X635000Y55499000D02*
X635000Y53213000D01*
X635000Y53213000D02*
X1447000Y53213000D01*
X1447000Y53213000D02*
X1463000Y53229000D01*
X635000Y50884000D02*
X635000Y53213000D01*
X635000Y53213000D02*
X651000Y53229000D01*
X651000Y53229000D02*
X1463000Y53229000D01*
X-2050000Y50884000D02*
X-3005000Y50884000D01*
X-3005000Y50884000D02*
X-3798000Y51677000D01*
X-3798000Y51677000D02*
X-3798000Y53213000D01*
D44*
X8566021Y37788315D02*
X8566021Y38354000D01*
X8566021Y36518979D02*
X8566021Y37788315D01*
X8926000Y33162000D02*
X8926000Y36159000D01*
X8926000Y36159000D02*
X8566021Y36518979D01*
D43*
X-6096000Y34278000D02*
X3544000Y34278000D01*
X3544000Y34278000D02*
X3556000Y34290000D01*
D44*
X-13716000Y37465000D02*
X-12700000Y37465000D01*
D43*
X4572000Y46863000D02*
X6858000Y49149000D01*
X6858000Y49149000D02*
X7239000Y49530000D01*
X-12458000Y51169000D02*
X-12446000Y51181000D01*
X-13208000Y51169000D02*
X-12458000Y51169000D01*
X-11684000Y51181000D02*
X-11303000Y50800000D01*
X-12446000Y51181000D02*
X-11684000Y51181000D01*
D44*
X-14732000Y53352000D02*
X-13855000Y53352000D01*
X-13855000Y53352000D02*
X-13208000Y52705000D01*
X-13208000Y52705000D02*
X-13208000Y51169000D01*
D43*
X3572000Y29718000D02*
X3572000Y31353000D01*
D44*
X3572000Y31353000D02*
X3556000Y31369000D01*
D45*
%TO.N,+BATT*%
X14670998Y17968010D02*
X9525000Y17968010D01*
X9525000Y17968010D02*
X6538010Y17968010D01*
D43*
X9525000Y15240000D02*
X9525000Y17968010D01*
D45*
X15621008Y17018000D02*
X14670998Y17968010D01*
X6538010Y17968010D02*
X6477000Y17907000D01*
X6477000Y17907000D02*
X4445000Y15875000D01*
D43*
X-7251000Y29984000D02*
X-7366000Y30099000D01*
X-6096000Y29984000D02*
X-7251000Y29984000D01*
D45*
%TO.N,-BATT*%
X-8001000Y28448000D02*
X-4445000Y28448000D01*
D43*
X-8509000Y35790000D02*
X-8382000Y35663000D01*
X-8382000Y35663000D02*
X-8382000Y28829000D01*
X-8382000Y28829000D02*
X-8001000Y28448000D01*
D45*
X4220000Y10920000D02*
X1779982Y10920000D01*
X1779982Y10920000D02*
X1415981Y11284001D01*
X1415981Y11284001D02*
X1015982Y11684000D01*
D44*
X9525000Y21590000D02*
X9525000Y19939000D01*
D45*
X-4445000Y22225000D02*
X-2032000Y22225000D01*
X-1016000Y22225000D02*
X-2032000Y22225000D01*
D44*
X-10795000Y21590000D02*
X-10795000Y20320000D01*
D43*
%TO.N,Net-(C1-Pad1)*%
X4965000Y55118000D02*
X4965000Y53598000D01*
X4965000Y53598000D02*
X5223000Y53340000D01*
X2413000Y55229000D02*
X4854000Y55229000D01*
X4854000Y55229000D02*
X4965000Y55118000D01*
%TO.N,GNDA*%
X-22200000Y37465000D02*
X-22200000Y35265000D01*
X-25666000Y34302000D02*
X-26416000Y34302000D01*
X-22200000Y35265000D02*
X-23163000Y34302000D01*
X-23163000Y34302000D02*
X-25666000Y34302000D01*
D44*
X8926000Y33162000D02*
X8926000Y29766000D01*
X8926000Y29766000D02*
X8878000Y29718000D01*
D43*
X635000Y48684000D02*
X635000Y47244000D01*
X635000Y47244000D02*
X1016000Y46863000D01*
X7239000Y51038000D02*
X7223000Y51054000D01*
X1016000Y46863000D02*
X4572000Y46863000D01*
X7239000Y49530000D02*
X7239000Y51038000D01*
X635000Y50884000D02*
X635000Y48684000D01*
X7223000Y51054000D02*
X7223000Y53340000D01*
X-3798000Y53213000D02*
X-3798000Y54864000D01*
X-12700000Y38620000D02*
X-10868000Y38620000D01*
X-10868000Y38620000D02*
X-10602000Y38354000D01*
D45*
X-22200000Y37465000D02*
X-20700000Y37465000D01*
X-20700000Y37465000D02*
X-15900000Y37465000D01*
D43*
X-12700000Y36310000D02*
X-12700000Y37465000D01*
X-12700000Y37465000D02*
X-15900000Y37465000D01*
X-12700000Y36310000D02*
X-12700000Y38620000D01*
D45*
%TO.N,+BATT*%
X13968000Y9400000D02*
X13970000Y9398000D01*
X11020000Y9400000D02*
X13968000Y9400000D01*
X-19177000Y30480000D02*
X-17907000Y31750000D01*
X-17907000Y31750000D02*
X-15875000Y31750000D01*
X-22225000Y30480000D02*
X-19177000Y30480000D01*
X-19177000Y30480000D02*
X-19177000Y20320000D01*
X-19177000Y20320000D02*
X-16891000Y18034000D01*
X-16891000Y18034000D02*
X-6679000Y18034000D01*
X-6679000Y18034000D02*
X-4520000Y15875000D01*
X-4520000Y15875000D02*
X-4445000Y15875000D01*
X1016000Y16014000D02*
X4306000Y16014000D01*
X4306000Y16014000D02*
X4445000Y15875000D01*
X-1016000Y16014000D02*
X1016000Y16014000D01*
X-1016000Y16014000D02*
X-4306000Y16014000D01*
X-4306000Y16014000D02*
X-4445000Y15875000D01*
X-15900000Y35165000D02*
X-15900000Y35077000D01*
X-15748000Y34925000D02*
X-15875000Y34798000D01*
X-15900000Y35077000D02*
X-15748000Y34925000D01*
X-15875000Y34798000D02*
X-15875000Y31750000D01*
X-15875000Y31750000D02*
X-10795000Y31750000D01*
D43*
X-10795000Y31750000D02*
X-11303000Y32258000D01*
X-12700000Y34810000D02*
X-15545000Y34810000D01*
X-15545000Y34810000D02*
X-15900000Y35165000D01*
X-10795000Y15240000D02*
X-10795000Y14168500D01*
X-10795000Y14168500D02*
X-10342500Y13716000D01*
X-10342500Y13716000D02*
X-6604000Y13716000D01*
X-6604000Y13716000D02*
X-4445000Y15875000D01*
D45*
X-4220000Y9400000D02*
X-1999998Y9400000D01*
X-762000Y9906000D02*
X-762000Y15621000D01*
X-1270000Y9398000D02*
X-762000Y9906000D01*
X-1997998Y9398000D02*
X-1270000Y9398000D01*
X-1999998Y9400000D02*
X-1997998Y9398000D01*
D43*
X-762000Y15621000D02*
X-1016000Y15875000D01*
D45*
%TO.N,-BATT*%
X-12319000Y28448000D02*
X-10668000Y28448000D01*
X-10668000Y28448000D02*
X-8636000Y28448000D01*
X-10795000Y25400000D02*
X-10720000Y25400000D01*
X-10720000Y25400000D02*
X-10668000Y25452000D01*
X-10668000Y25452000D02*
X-10668000Y28448000D01*
X-8636000Y28448000D02*
X-8001000Y28448000D01*
X-1016000Y22225000D02*
X0Y22225000D01*
D43*
X-1016000Y17514000D02*
X-1016000Y18414000D01*
X-1016000Y18414000D02*
X-1016000Y22225000D01*
D45*
X0Y22225000D02*
X1016000Y22225000D01*
X1016000Y22225000D02*
X5534498Y22225000D01*
D43*
X1016000Y17514000D02*
X1016000Y22225000D01*
D45*
X-15875000Y29845000D02*
X-13716000Y29845000D01*
X-13716000Y29845000D02*
X-12319000Y28448000D01*
X5534498Y22225000D02*
X4445000Y22225000D01*
D43*
X-10795000Y25400000D02*
X-10795000Y25527000D01*
X-10795000Y25527000D02*
X-10922000Y25654000D01*
D45*
X-11020000Y10920000D02*
X-13714000Y10920000D01*
D43*
X-13714000Y10920000D02*
X-13716000Y10922000D01*
D46*
%TO.N,+3.3VA*%
X7855001Y39859001D02*
X8255000Y40259000D01*
X8426000Y33162000D02*
X8426000Y35331998D01*
X7841011Y35916987D02*
X7841011Y39845011D01*
X7841011Y39845011D02*
X7855001Y39859001D01*
X8426000Y35331998D02*
X7841011Y35916987D01*
D43*
X5079996Y49714685D02*
X5079996Y49149000D01*
X5080000Y50911000D02*
X5079996Y50910996D01*
X5079996Y50910996D02*
X5079996Y49714685D01*
D46*
X5080000Y50911000D02*
X5223000Y51054000D01*
D43*
X5572000Y29718000D02*
X7378000Y29718000D01*
D44*
X8426000Y31794000D02*
X7378000Y30746000D01*
X7378000Y30746000D02*
X7378000Y29718000D01*
X8426000Y33162000D02*
X8426000Y31794000D01*
D43*
X3363000Y53229000D02*
X3363000Y50945000D01*
X2050000Y48684000D02*
X2900000Y48684000D01*
X2900000Y48684000D02*
X3363000Y49147000D01*
X3363000Y49147000D02*
X3363000Y50945000D01*
X2050000Y50884000D02*
X3302000Y50884000D01*
X3302000Y50884000D02*
X5037000Y50884000D01*
X3363000Y50945000D02*
X3302000Y50884000D01*
X5037000Y50884000D02*
X5207000Y51054000D01*
X5207000Y51054000D02*
X5223000Y51054000D01*
%TO.N,Net-(C5-Pad2)*%
X-635000Y54725000D02*
X-2159000Y54725000D01*
X-2159000Y54725000D02*
X-2298000Y54864000D01*
%TO.N,Net-(C5-Pad1)*%
X-635000Y50884000D02*
X-635000Y53225000D01*
X-635000Y53225000D02*
X-2286000Y53225000D01*
X-2286000Y53225000D02*
X-2298000Y53213000D01*
X-2286000Y53201000D02*
X-2298000Y53213000D01*
D45*
%TO.N,+5VA*%
X-15900000Y42570000D02*
X-17272000Y43942000D01*
D43*
X-15900000Y42570000D02*
X-15875000Y42545000D01*
D45*
X-15875000Y42545000D02*
X-14285000Y42545000D01*
X-15900000Y39765000D02*
X-15900000Y42570000D01*
D43*
X6465000Y55118000D02*
X6465000Y56223005D01*
X6465000Y56223005D02*
X6477000Y56235005D01*
X-18542000Y49784000D02*
X-18542000Y53779095D01*
X-18542000Y53779095D02*
X-18634500Y53871595D01*
X-29011853Y38011955D02*
X-29011853Y44226689D01*
X-29011853Y44226689D02*
X-23454542Y49784000D01*
X-23454542Y49784000D02*
X-19814792Y49784000D01*
X-19814792Y49784000D02*
X-18542000Y49784000D01*
X-18634500Y53871595D02*
X-18314228Y54191867D01*
X-18314228Y54191867D02*
X-18314228Y54542928D01*
X-12700000Y40120000D02*
X-15545000Y40120000D01*
X-15545000Y40120000D02*
X-15900000Y39765000D01*
D45*
%TO.N,+5V*%
X-35049053Y38011955D02*
X-35049053Y45722947D01*
X-32639000Y48133000D02*
X-28321000Y52451000D01*
X-35049053Y45722947D02*
X-32639000Y48133000D01*
X-28321000Y52451000D02*
X-12446000Y68326000D01*
X-12446000Y68326000D02*
X-12446000Y68453000D01*
X-12446000Y68453000D02*
X9340315Y68453000D01*
X9340315Y68453000D02*
X9906000Y68453000D01*
X10471685Y68453000D02*
X9906000Y68453000D01*
X32455347Y38012845D02*
X32455347Y50422169D01*
X14424516Y68453000D02*
X10471685Y68453000D01*
X32455347Y50422169D02*
X14424516Y68453000D01*
X-10160000Y42656000D02*
X-10160000Y44069000D01*
X-10160000Y44069000D02*
X-10160000Y44704000D01*
D43*
X-8636000Y44108000D02*
X-10121000Y44108000D01*
X-10121000Y44108000D02*
X-10160000Y44069000D01*
D45*
X-10160000Y44704000D02*
X-10922000Y45466000D01*
X-10922000Y45466000D02*
X-15006000Y45466000D01*
X-15006000Y45466000D02*
X-21336000Y45466000D01*
D43*
X-35052000Y35548000D02*
X-35052000Y38009008D01*
D45*
X-35052000Y38009008D02*
X-35049053Y38011955D01*
D43*
X13364200Y60354200D02*
X13364200Y61013105D01*
X-6770000Y42744000D02*
X-6858000Y42656000D01*
X-10160000Y42656000D02*
X-6858000Y42656000D01*
D45*
X-12385000Y42545000D02*
X-10271000Y42545000D01*
D43*
X-10271000Y42545000D02*
X-10160000Y42656000D01*
D44*
%TO.N,GND*%
X18436000Y44207000D02*
X18436000Y43413000D01*
X18436000Y43413000D02*
X19177000Y42672000D01*
D43*
X12192000Y55103001D02*
X14717001Y55103001D01*
X14717001Y55103001D02*
X14732000Y55118000D01*
D44*
X-7874000Y58686000D02*
X-9132000Y58686000D01*
X-9132000Y58686000D02*
X-9144000Y58674000D01*
D43*
X-5727000Y44335000D02*
X-5715000Y44323000D01*
X-6985000Y44335000D02*
X-5727000Y44335000D01*
X-4461000Y36592000D02*
X-4445000Y36576000D01*
X-6096000Y36592000D02*
X-4461000Y36592000D01*
X-8702000Y40606000D02*
X-8702000Y41590000D01*
D44*
X-8702000Y41590000D02*
X-8636000Y41656000D01*
D43*
X-8702000Y39624000D02*
X-8702000Y40606000D01*
X-8702000Y38354000D02*
X-8702000Y39624000D01*
X-8702000Y39624000D02*
X-7747000Y39624000D01*
D44*
X23876000Y39370000D02*
X24511000Y39370000D01*
X8648000Y46990000D02*
X7747000Y46990000D01*
X7747000Y46990000D02*
X7239000Y46482000D01*
X9906000Y28067000D02*
X5588000Y28067000D01*
X10033000Y28194000D02*
X9906000Y28067000D01*
X10299000Y29718000D02*
X10299000Y28460000D01*
X10299000Y28460000D02*
X10033000Y28194000D01*
X15228000Y19812000D02*
X15875000Y19812000D01*
X15875000Y19812000D02*
X16510000Y20447000D01*
X15228000Y19812000D02*
X15228000Y21590000D01*
X-14974000Y21590000D02*
X-16383000Y21590000D01*
X-35052000Y34048000D02*
X-35052000Y32512000D01*
X2032000Y39866000D02*
X2032000Y41148000D01*
X-7874000Y58686000D02*
X-7874000Y57199000D01*
X-7874000Y57199000D02*
X-7493000Y56818000D01*
D43*
X12192000Y55103001D02*
X12192000Y57658000D01*
X12192000Y57658000D02*
X9156000Y60694000D01*
X9156000Y60694000D02*
X7874000Y60694000D01*
D44*
X23876000Y40894000D02*
X23876000Y39370000D01*
X23876000Y39370000D02*
X23876000Y38087000D01*
X21844000Y39370000D02*
X23194000Y39370000D01*
X23194000Y39370000D02*
X23876000Y39370000D01*
X5476000Y38612000D02*
X4114880Y38612000D01*
X4114880Y38612000D02*
X2860880Y39866000D01*
X2860880Y39866000D02*
X2032000Y39866000D01*
X11426000Y33162000D02*
X11426000Y32112000D01*
X11426000Y32112000D02*
X10556000Y31242000D01*
X10541000Y31242000D02*
X10299000Y31000000D01*
X10299000Y31000000D02*
X10299000Y29718000D01*
X10556000Y31242000D02*
X10541000Y31242000D01*
X34290000Y31672000D02*
X34290000Y29972000D01*
X29464000Y31672000D02*
X29464000Y29972000D01*
X27559000Y31115000D02*
X28116000Y31672000D01*
X28116000Y31672000D02*
X29464000Y31672000D01*
X27559000Y28599000D02*
X27559000Y31115000D01*
X26162000Y27952000D02*
X26912000Y27952000D01*
X26912000Y27952000D02*
X27559000Y28599000D01*
X24638000Y27952000D02*
X26162000Y27952000D01*
X23114000Y27952000D02*
X24638000Y27952000D01*
X21590000Y27952000D02*
X23114000Y27952000D01*
X16876000Y39112000D02*
X18846880Y39112000D01*
X18846880Y39112000D02*
X19304000Y39569120D01*
X20343000Y41529000D02*
X23241000Y41529000D01*
X19304000Y39569120D02*
X19304000Y40490000D01*
X19304000Y40490000D02*
X20343000Y41529000D01*
X23241000Y41529000D02*
X23876000Y40894000D01*
X23876000Y38087000D02*
X22619000Y36830000D01*
X22619000Y36830000D02*
X22594000Y36830000D01*
D43*
X-14974000Y21590000D02*
X-14974000Y19812000D01*
X-8702000Y40606000D02*
X-8652000Y40656000D01*
X-10160000Y40656000D02*
X-7808000Y40656000D01*
X-8652000Y40656000D02*
X-7808000Y40656000D01*
%TO.N,+3V3*%
X16129000Y-6731000D02*
X18620094Y-6731000D01*
X18620094Y-6731000D02*
X20743978Y-4607116D01*
D44*
X31750000Y32385000D02*
X31750000Y26670000D01*
X30976002Y33158998D02*
X31750000Y32385000D01*
X24289996Y35179000D02*
X26309998Y33158998D01*
X22770000Y35179000D02*
X24289996Y35179000D01*
X21119000Y36830000D02*
X22770000Y35179000D01*
X21094000Y36830000D02*
X21119000Y36830000D01*
X26309998Y33158998D02*
X30976002Y33158998D01*
D43*
X11799000Y26936000D02*
X11799000Y27940000D01*
X20743978Y-4607116D02*
X20743978Y17991022D01*
X20743978Y17991022D02*
X11799000Y26936000D01*
X11799000Y27940000D02*
X11799000Y27050988D01*
X11799000Y27050988D02*
X3867685Y27050988D01*
X3867685Y27050988D02*
X3302000Y27050988D01*
X-4680001Y45320001D02*
X-5080000Y45720000D01*
X-4318000Y40640000D02*
X-4318000Y44958000D01*
X-4318000Y44958000D02*
X-4680001Y45320001D01*
X-5908000Y40656000D02*
X-5731000Y40656000D01*
X-5715000Y40640000D02*
X-4318000Y40640000D01*
X-5731000Y40656000D02*
X-5715000Y40640000D01*
X11799000Y29718000D02*
X11799000Y27940000D01*
D44*
X19558000Y37211000D02*
X19157000Y37612000D01*
X19939000Y36830000D02*
X19558000Y37211000D01*
X2032000Y38366000D02*
X750000Y38366000D01*
X750000Y38366000D02*
X508000Y38608000D01*
X10148000Y46990000D02*
X10148000Y48018000D01*
X10148000Y48018000D02*
X9652000Y48514000D01*
X-7862000Y51816000D02*
X-9144000Y51816000D01*
X10926000Y44562000D02*
X10926000Y46212000D01*
X10926000Y46212000D02*
X10148000Y46990000D01*
X5476000Y38112000D02*
X2286000Y38112000D01*
X2286000Y38112000D02*
X2032000Y38366000D01*
D46*
X11926000Y33162000D02*
X11926000Y29883800D01*
X11926000Y29883800D02*
X11799000Y29756800D01*
X11799000Y29756800D02*
X11799000Y29718000D01*
D44*
X21094000Y36830000D02*
X19939000Y36830000D01*
X19157000Y37612000D02*
X17926000Y37612000D01*
X17926000Y37612000D02*
X16876000Y37612000D01*
X32778000Y26670000D02*
X31750000Y26670000D01*
X31750000Y26670000D02*
X30976000Y26670000D01*
X11925989Y29959989D02*
X11684000Y29718000D01*
X11684000Y29718000D02*
X11799000Y29718000D01*
D43*
X-5908000Y40656000D02*
X-5908000Y38780000D01*
X-5908000Y38780000D02*
X-6096000Y38592000D01*
D44*
%TO.N,Net-(C19-Pad1)*%
X11426000Y44562000D02*
X11426000Y49286999D01*
X11426000Y49286999D02*
X12192000Y50052999D01*
%TO.N,Net-(J4-Pad4)*%
X40310000Y-10902000D02*
X40310000Y-9505000D01*
X40310000Y-9505000D02*
X41159999Y-8655001D01*
X41159999Y-8655001D02*
X41159999Y-5694999D01*
X41159999Y-5694999D02*
X40850000Y-5385000D01*
X40850000Y-5385000D02*
X39950000Y-5385000D01*
%TO.N,Net-(J4-Pad3)*%
X37770000Y-10902000D02*
X37770000Y-6584000D01*
X37770000Y-6584000D02*
X38319000Y-6035000D01*
X38319000Y-6035000D02*
X39950000Y-6035000D01*
D45*
%TO.N,Net-(M1-Pad3)*%
X13964032Y7880000D02*
X13970032Y7874000D01*
X11020000Y7880000D02*
X13964032Y7880000D01*
%TO.N,Net-(M1-Pad1)*%
X-4220000Y7880000D02*
X-4220000Y4601000D01*
X-3149000Y3530000D02*
X-700000Y3530000D01*
X-4220000Y4601000D02*
X-3149000Y3530000D01*
%TO.N,Net-(M1-Pad2)*%
X-7493000Y-1016000D02*
X-4979000Y-3530000D01*
X-6120000Y10920000D02*
X-6122000Y10922000D01*
X-4220000Y10920000D02*
X-6120000Y10920000D01*
X-6122000Y10922000D02*
X-6477000Y10922000D01*
X-6477000Y10922000D02*
X-7493000Y9906000D01*
X-7493000Y9906000D02*
X-7493000Y-1016000D01*
X-4979000Y-3530000D02*
X-700000Y-3530000D01*
%TO.N,Net-(M1-Pad4)*%
X13968006Y10920000D02*
X13970006Y10922000D01*
X11020000Y10920000D02*
X13968006Y10920000D01*
D44*
%TO.N,/ENC-L-CHB*%
X12827000Y28067000D02*
X12827000Y26756542D01*
X12827000Y26756542D02*
X21343989Y18239554D01*
X21343989Y18239554D02*
X21343989Y-4855648D01*
X21343989Y-4855648D02*
X18579636Y-7620000D01*
X18579636Y-7620000D02*
X-7239000Y-7620000D01*
X-7239000Y-7620000D02*
X-8890000Y-9271000D01*
X-8890000Y-9271000D02*
X-8890000Y-18669000D01*
X-8890000Y-18669000D02*
X-8289000Y-19270000D01*
X-8289000Y-19270000D02*
X-6500000Y-19270000D01*
%TO.N,/ENC-L-CHA*%
X13591108Y27053110D02*
X13591108Y26794892D01*
X13591108Y26794892D02*
X21844000Y18542000D01*
X-4445000Y-16129000D02*
X-5046000Y-16730000D01*
X21844000Y18542000D02*
X21844000Y-5062759D01*
X21844000Y-5062759D02*
X18778758Y-8128000D01*
X18778758Y-8128000D02*
X-3429000Y-8128000D01*
X-3429000Y-8128000D02*
X-4445000Y-9144000D01*
X-4445000Y-9144000D02*
X-4445000Y-16129000D01*
X-5046000Y-16730000D02*
X-6500000Y-16730000D01*
D46*
%TO.N,/FRONT-R-RX*%
X-20000Y37612000D02*
X-508000Y38100000D01*
X-508000Y38100000D02*
X-508000Y38862000D01*
D44*
X-508000Y38862000D02*
X-508000Y43249315D01*
X-508000Y43249315D02*
X-508000Y43815000D01*
%TO.N,/MOTOR-R-INB*%
X8255000Y20718500D02*
X8255000Y21590000D01*
X8801989Y19138011D02*
X8255000Y19685000D01*
X8255000Y19685000D02*
X8255000Y20718500D01*
X13308011Y19138011D02*
X8801989Y19138011D01*
X13728000Y19558000D02*
X13308011Y19138011D01*
D43*
%TO.N,Net-(U4-Pad7)*%
X10795000Y15240000D02*
X10795000Y16510000D01*
X15875000Y14732000D02*
X15875000Y6350000D01*
X10795000Y16510000D02*
X11176000Y16891000D01*
X11176000Y16891000D02*
X13716000Y16891000D01*
X13716000Y16891000D02*
X15875000Y14732000D01*
X8920000Y5080000D02*
X6120000Y7880000D01*
X15875000Y6350000D02*
X14605000Y5080000D01*
X14605000Y5080000D02*
X8920000Y5080000D01*
X6120000Y7880000D02*
X4220000Y7880000D01*
D44*
%TO.N,Net-(U9-Pad1)*%
X39929000Y-8870000D02*
X39929000Y-8616000D01*
X39421000Y-8870000D02*
X39929000Y-8870000D01*
X39421000Y-8616000D02*
X39421000Y-8870000D01*
X39421000Y-8616000D02*
X39675000Y-8616000D01*
X39675000Y-8110000D02*
X39675000Y-8616000D01*
X39950000Y-7335000D02*
X39950000Y-7835000D01*
X39950000Y-7835000D02*
X39675000Y-8110000D01*
%TO.N,Net-(U9-Pad2)*%
X38405000Y-8616000D02*
X38405000Y-8870000D01*
X38913000Y-8616000D02*
X38405000Y-8616000D01*
X38913000Y-8870000D02*
X38913000Y-8616000D01*
X38659000Y-8870000D02*
X38913000Y-8870000D01*
X38659000Y-8743000D02*
X38659000Y-8870000D01*
X38659000Y-7195998D02*
X38659000Y-8743000D01*
X39950000Y-6685000D02*
X39169998Y-6685000D01*
X39169998Y-6685000D02*
X38659000Y-7195998D01*
%TO.N,/GND-R*%
X32210000Y12986000D02*
X32210000Y12994000D01*
X32210000Y12994000D02*
X31194000Y14010000D01*
X31194000Y14010000D02*
X31194000Y19379002D01*
X31194000Y19379002D02*
X32166998Y20352000D01*
X32166998Y20352000D02*
X36028000Y20352000D01*
X36028000Y20352000D02*
X37705000Y18675000D01*
X37705000Y18675000D02*
X39470000Y18675000D01*
%TO.N,/3V3-R*%
X34750000Y11208000D02*
X34750000Y13240000D01*
X34750000Y13240000D02*
X34750000Y14764000D01*
X34750000Y14764000D02*
X34089000Y15425000D01*
X34089000Y15425000D02*
X32570000Y15425000D01*
X32570000Y14775000D02*
X32570000Y15425000D01*
X32970000Y14775000D02*
X32570000Y14775000D01*
%TO.N,/GND-R*%
X32210000Y11208000D02*
X32210000Y12986000D01*
X33238000Y12986000D02*
X32538000Y12986000D01*
X32538000Y12986000D02*
X32210000Y12986000D01*
X32222000Y11220000D02*
X32210000Y11208000D01*
%TO.N,/LED1*%
X23864000Y34544000D02*
X26062000Y32346000D01*
X18814878Y36612000D02*
X20882878Y34544000D01*
X26062000Y32346000D02*
X26162000Y32346000D01*
X20882878Y34544000D02*
X23864000Y34544000D01*
X16876000Y36612000D02*
X18814878Y36612000D01*
%TO.N,Net-(D1-Pad1)*%
X26162000Y29452000D02*
X26162000Y30646000D01*
D43*
%TO.N,Net-(D2-Pad1)*%
X-6985000Y45835000D02*
X-8609000Y45835000D01*
X-8609000Y45835000D02*
X-8636000Y45808000D01*
D44*
%TO.N,/LED2*%
X20683756Y34036000D02*
X22848000Y34036000D01*
X24538000Y32346000D02*
X24638000Y32346000D01*
X18607756Y36112000D02*
X20683756Y34036000D01*
X22848000Y34036000D02*
X24538000Y32346000D01*
X16876000Y36112000D02*
X18607756Y36112000D01*
%TO.N,Net-(D3-Pad1)*%
X24638000Y29452000D02*
X24638000Y30646000D01*
%TO.N,Net-(D4-Pad1)*%
X23114000Y29452000D02*
X23114000Y30646000D01*
%TO.N,/LED3*%
X23014000Y32346000D02*
X23114000Y32346000D01*
X21824011Y33535989D02*
X23014000Y32346000D01*
X20476645Y33535989D02*
X21824011Y33535989D01*
X18400634Y35612000D02*
X20476645Y33535989D01*
X16876000Y35612000D02*
X18400634Y35612000D01*
%TO.N,/LED4*%
X16876000Y35112000D02*
X17926000Y35112000D01*
X17926000Y35112000D02*
X20692000Y32346000D01*
X20692000Y32346000D02*
X20890000Y32346000D01*
X20890000Y32346000D02*
X21590000Y32346000D01*
X16876000Y35112000D02*
X17476000Y35112000D01*
%TO.N,Net-(D5-Pad1)*%
X21590000Y29452000D02*
X21590000Y30646000D01*
D43*
%TO.N,Net-(D6-Pad1)*%
X-32446000Y34798000D02*
X-32446000Y38036000D01*
X-32446000Y38036000D02*
X-32510600Y38100600D01*
X-32510600Y34862600D02*
X-32446000Y34798000D01*
%TO.N,Net-(D7-Pad1)*%
X14634200Y58813400D02*
X12306600Y58813400D01*
X12306600Y58813400D02*
X8636000Y62484000D01*
X8636000Y62484000D02*
X-7874000Y62484000D01*
X-7874000Y62484000D02*
X-11614305Y58743695D01*
X-11614305Y58743695D02*
X-14762700Y58743695D01*
%TO.N,Net-(D8-Pad1)*%
X-11110000Y61280000D02*
X-11446600Y60943400D01*
X-11446600Y60943400D02*
X-13492700Y60943400D01*
X-11110000Y63754000D02*
X-11110000Y61280000D01*
X-11110000Y65786000D02*
X-11110000Y63754000D01*
%TO.N,Net-(D9-Pad1)*%
X34986000Y35560000D02*
X34986000Y37916400D01*
X34986000Y37916400D02*
X34993800Y37924200D01*
D44*
%TO.N,/PGEC*%
X7426000Y33162000D02*
X7426000Y34865000D01*
X7426000Y34865000D02*
X6858000Y35433000D01*
X6858000Y42853878D02*
X5849990Y43861888D01*
X6858000Y35433000D02*
X6858000Y42853878D01*
X5849990Y43861888D02*
X5849990Y46997990D01*
X5849990Y46997990D02*
X9017000Y50165000D01*
X9017000Y50165000D02*
X9017000Y56642000D01*
X9017000Y56642000D02*
X7747000Y57912000D01*
X7747000Y57912000D02*
X-3944000Y57912000D01*
X-3944000Y57912000D02*
X-5080000Y59048000D01*
X-5080000Y59048000D02*
X-5080000Y60198000D01*
X-7874000Y60186000D02*
X-5092000Y60186000D01*
X-5092000Y60186000D02*
X-5080000Y60198000D01*
%TO.N,/PGED*%
X7926000Y33162000D02*
X7926000Y35160232D01*
X7366000Y35720232D02*
X7366000Y43053000D01*
X6350001Y46790879D02*
X9517011Y49957889D01*
X7926000Y35160232D02*
X7366000Y35720232D01*
X6350001Y44068999D02*
X6350001Y46790879D01*
X7366000Y43053000D02*
X6350001Y44068999D01*
X9517011Y49957889D02*
X9517011Y56903989D01*
X9517011Y56903989D02*
X8008989Y58412011D01*
X7874000Y59194000D02*
X7874000Y58547000D01*
X7874000Y58547000D02*
X8008989Y58412011D01*
X8008989Y58412011D02*
X-754011Y58412011D01*
X-754011Y58412011D02*
X-1690001Y59348001D01*
X-1690001Y59348001D02*
X-2540000Y60198000D01*
%TO.N,/RESET*%
X-5080000Y49784000D02*
X-5080000Y51816000D01*
X-5080000Y51816000D02*
X-5080000Y53467000D01*
X-6362000Y51816000D02*
X-5080000Y51816000D01*
X-4382985Y57085015D02*
X4495497Y57085015D01*
X-5080000Y56388000D02*
X-4382985Y57085015D01*
X4495497Y57085015D02*
X5061182Y57085015D01*
X-5080000Y53467000D02*
X-5080000Y56388000D01*
X5476000Y39612000D02*
X4076000Y39612000D01*
X4076000Y39612000D02*
X3302000Y40386000D01*
X3302000Y40386000D02*
X3302000Y41402000D01*
X3302000Y41402000D02*
X-5080000Y49784000D01*
X-7493000Y53418000D02*
X-5129000Y53418000D01*
X-5129000Y53418000D02*
X-5080000Y53467000D01*
%TO.N,/BT-STATE*%
X2540000Y-22860000D02*
X4714978Y-25034978D01*
X4714978Y-25034978D02*
X14190778Y-25034978D01*
X14190778Y-25034978D02*
X23876000Y-15349756D01*
X23876000Y-15349756D02*
X23876000Y20429756D01*
X23876000Y20429756D02*
X12926000Y31379756D01*
X12926000Y31379756D02*
X12926000Y32112000D01*
X12926000Y32112000D02*
X12926000Y33162000D01*
%TO.N,/UART_TX*%
X24384000Y20628878D02*
X14426000Y30586878D01*
X14397889Y-25534989D02*
X24384000Y-15548878D01*
X1858111Y-25534989D02*
X14397889Y-25534989D01*
X554889Y-24231767D02*
X1858111Y-25534989D01*
X554889Y-22305111D02*
X554889Y-24231767D01*
X2540000Y-20320000D02*
X554889Y-22305111D01*
X14426000Y32112000D02*
X14426000Y33162000D01*
X14426000Y30586878D02*
X14426000Y32112000D01*
X24384000Y-15548878D02*
X24384000Y20628878D01*
%TO.N,/UART_RX*%
X-762000Y-23622000D02*
X1651000Y-26035000D01*
X-762000Y-21082000D02*
X-762000Y-23622000D01*
X2540000Y-17780000D02*
X-762000Y-21082000D01*
X14605000Y-26035000D02*
X24892000Y-15748000D01*
X1651000Y-26035000D02*
X14605000Y-26035000D01*
X24892000Y-15748000D02*
X24892000Y20828000D01*
X24892000Y20828000D02*
X14926000Y30794000D01*
X14926000Y30794000D02*
X14926000Y33162000D01*
%TO.N,/BT-EN*%
X12426000Y33162000D02*
X12425999Y31135001D01*
X12425999Y31135001D02*
X23368000Y20193000D01*
X23368000Y20193000D02*
X23368000Y-15150636D01*
X23368000Y-15150636D02*
X13983668Y-24534968D01*
X4318000Y-10788000D02*
X3690000Y-10160000D01*
X13983668Y-24534968D02*
X5865968Y-24534968D01*
X5865968Y-24534968D02*
X4318000Y-22987000D01*
X4318000Y-22987000D02*
X4318000Y-10788000D01*
X3690000Y-10160000D02*
X2540000Y-10160000D01*
%TO.N,Net-(J5-Pad3)*%
X37290000Y11208000D02*
X37290000Y15272000D01*
X37290000Y15272000D02*
X38093000Y16075000D01*
X38093000Y16075000D02*
X39470000Y16075000D01*
%TO.N,Net-(J5-Pad4)*%
X39830000Y11208000D02*
X39830000Y12732000D01*
X39830000Y12732000D02*
X41100000Y14002000D01*
X41100000Y14002000D02*
X41100000Y16415000D01*
X41100000Y16415000D02*
X40790000Y16725000D01*
X40790000Y16725000D02*
X39470000Y16725000D01*
D45*
%TO.N,Net-(M1-Pad1)*%
X-1270000Y3810000D02*
X-750010Y3580010D01*
X-750010Y3580010D02*
X-750010Y3530000D01*
D44*
%TO.N,/ENC-R-CHA*%
X15535335Y26673341D02*
X15135336Y27073340D01*
X8636000Y-12054000D02*
X8636000Y-10160000D01*
X22844021Y19364655D02*
X15535335Y26673341D01*
X22844021Y-5476981D02*
X22844021Y19364655D01*
X19192982Y-9128020D02*
X22844021Y-5476981D01*
X9667980Y-9128020D02*
X19192982Y-9128020D01*
X8636000Y-10160000D02*
X9667980Y-9128020D01*
X6500000Y-14190000D02*
X8636000Y-12054000D01*
X12426000Y44562000D02*
X12426000Y43073000D01*
X12426000Y43073000D02*
X15113000Y40386000D01*
X15113000Y40386000D02*
X15113000Y36576006D01*
X6500000Y-14190000D02*
X7400000Y-14190000D01*
%TO.N,/ENC-R-CHB*%
X18985870Y-8628010D02*
X22344010Y-5269870D01*
X7627990Y-8628010D02*
X18985870Y-8628010D01*
X6500000Y-9756000D02*
X7627990Y-8628010D01*
X6500000Y-11650000D02*
X6500000Y-9756000D01*
X22344010Y-5269870D02*
X22344010Y18803990D01*
X22344010Y18803990D02*
X14351000Y26797000D01*
X14351000Y27501315D02*
X14351000Y28067000D01*
X14351000Y26797000D02*
X14351000Y27501315D01*
X11926000Y44562000D02*
X11926000Y42811000D01*
X11926000Y42811000D02*
X14351000Y40386000D01*
X14351000Y40386000D02*
X14351000Y37903685D01*
X14351000Y37903685D02*
X14351000Y37338000D01*
X6500000Y-11650000D02*
X6534000Y-11684000D01*
%TO.N,/ENC-L-CHB*%
X9926000Y44562000D02*
X9926000Y42779000D01*
X9926000Y42779000D02*
X12827000Y39878000D01*
X12827000Y39878000D02*
X12827000Y37903685D01*
X12827000Y37903685D02*
X12827000Y37338000D01*
%TO.N,/ENC-L-CHA*%
X10426000Y44562000D02*
X10426000Y43041000D01*
X10426000Y43041000D02*
X13589000Y39878000D01*
X13589000Y39878000D02*
X13589000Y37141685D01*
X13589000Y37141685D02*
X13589000Y36576000D01*
%TO.N,/DIAG-L-RX*%
X-14732000Y54852000D02*
X-12688000Y54852000D01*
X4306020Y36612000D02*
X4426000Y36612000D01*
X-12688000Y54852000D02*
X-10160000Y52324000D01*
X-10160000Y52324000D02*
X-10160000Y50237120D01*
X4306010Y36612010D02*
X4306020Y36612000D01*
X-10160000Y50237120D02*
X-7674880Y47752000D01*
X-7674880Y47752000D02*
X-3919760Y47752000D01*
X-2032000Y38005998D02*
X-638012Y36612010D01*
X-638012Y36612010D02*
X4306010Y36612010D01*
X-3919760Y47752000D02*
X-2032000Y45864240D01*
X-2032000Y45864240D02*
X-2032000Y38005998D01*
X4426000Y36612000D02*
X5476000Y36612000D01*
X-17364500Y56071300D02*
X-16145200Y54852000D01*
X-16145200Y54852000D02*
X-14732000Y54852000D01*
%TO.N,/DIAG-R-RX*%
X15678681Y51689000D02*
X15112996Y51689000D01*
X18517800Y54035300D02*
X16171500Y51689000D01*
X16171500Y51689000D02*
X15678681Y51689000D01*
X-339705Y37112020D02*
X-1270000Y38042315D01*
X4426000Y37112000D02*
X4425980Y37112020D01*
X-1270000Y38042315D02*
X-1270000Y42360315D01*
X4425980Y37112020D02*
X-339705Y37112020D01*
X5476000Y37112000D02*
X4426000Y37112000D01*
X-1270000Y42360315D02*
X-1270000Y42926000D01*
X18300000Y50546000D02*
X18300000Y53817500D01*
X18300000Y53817500D02*
X18517800Y54035300D01*
%TO.N,/FRONT-L-RX*%
X-26416000Y35802000D02*
X-26416000Y38043200D01*
X-26416000Y38043200D02*
X-26473400Y38100600D01*
X5476000Y35612000D02*
X-1068000Y35612000D01*
X-1068000Y35612000D02*
X-3048000Y37592000D01*
X-3048000Y37592000D02*
X-3048000Y45466000D01*
X-3048000Y45466000D02*
X-4318000Y46736000D01*
X-4318000Y46736000D02*
X-24003000Y46736000D01*
X-24003000Y46736000D02*
X-26473400Y44265600D01*
X-26473400Y44265600D02*
X-26473400Y38100600D01*
%TO.N,/FRONT-R-RX*%
X28532900Y37924200D02*
X28532900Y40428100D01*
X28532900Y40428100D02*
X26670000Y42291000D01*
X22282693Y42291000D02*
X21717008Y42291000D01*
X26670000Y42291000D02*
X22282693Y42291000D01*
D46*
X5476000Y37612000D02*
X-20000Y37612000D01*
D44*
X28714000Y35052000D02*
X28714000Y37743100D01*
X28714000Y37743100D02*
X28532900Y37924200D01*
%TO.N,/FLASH-RX*%
X-13208000Y49772000D02*
X-10402000Y49772000D01*
X-10402000Y49772000D02*
X-7874000Y47244000D01*
X-7874000Y47244000D02*
X-4118880Y47244000D01*
X-4118880Y47244000D02*
X-2540000Y45665120D01*
X-2540000Y45665120D02*
X-2540000Y37791120D01*
X-2540000Y37791120D02*
X-860880Y36112000D01*
X-860880Y36112000D02*
X4426000Y36112000D01*
X4426000Y36112000D02*
X5476000Y36112000D01*
X-16002000Y49784000D02*
X-13220000Y49784000D01*
X-13220000Y49784000D02*
X-13208000Y49772000D01*
%TO.N,/MOTOR-L-INA*%
X9651816Y24892000D02*
X9885781Y25125965D01*
X-9525000Y21590000D02*
X-9525000Y21907500D01*
X9885781Y25125965D02*
X10285780Y25525964D01*
X-9525000Y21907500D02*
X-6540500Y24892000D01*
X-6540500Y24892000D02*
X9651816Y24892000D01*
X-13474000Y19812000D02*
X-13220000Y19558000D01*
X-9525000Y20066000D02*
X-9525000Y21590000D01*
X-13220000Y19558000D02*
X-10033000Y19558000D01*
X-10033000Y19558000D02*
X-9525000Y20066000D01*
%TO.N,/MOTOR-R-INA*%
X10795000Y22860000D02*
X10795000Y23622000D01*
X10795000Y23622000D02*
X11811000Y24638000D01*
X11811000Y24638000D02*
X11811000Y24961321D01*
X11811000Y24961321D02*
X11811000Y25527006D01*
X11811000Y25400000D02*
X11811000Y25527006D01*
X13728000Y21590000D02*
X13728000Y22467000D01*
X13728000Y22467000D02*
X13081000Y23114000D01*
X10795000Y23114000D02*
X10795000Y22860000D01*
X13081000Y23114000D02*
X10795000Y23114000D01*
X10795000Y22860000D02*
X10795000Y21590000D01*
%TO.N,/MOTOR-L-INB*%
X9398000Y26162000D02*
X8763000Y25527000D01*
X8763000Y25527000D02*
X-6731000Y25527000D01*
X-6731000Y25527000D02*
X-9144000Y23114000D01*
X-12065000Y22733000D02*
X-12065000Y21590000D01*
X-9144000Y23114000D02*
X-11684000Y23114000D01*
X-11684000Y23114000D02*
X-12065000Y22733000D01*
X7926000Y44562000D02*
X7926000Y41731000D01*
X9640002Y37458217D02*
X9460413Y37278628D01*
X9640002Y40016998D02*
X9640002Y37458217D01*
X7926000Y41731000D02*
X9640002Y40016998D01*
%TO.N,/MOTOR-R-INB*%
X11047951Y25017951D02*
X11047951Y25607674D01*
X11047951Y25607674D02*
X11047951Y26173359D01*
X10033000Y24003000D02*
X11047951Y25017951D01*
X8890000Y24003000D02*
X10033000Y24003000D01*
X8255000Y23368000D02*
X8890000Y24003000D01*
X8255000Y21590000D02*
X8255000Y23368000D01*
X11049000Y37903685D02*
X11049000Y37338000D01*
X11049000Y40132000D02*
X11049000Y37903685D01*
X8926000Y42255000D02*
X11049000Y40132000D01*
X8926000Y44562000D02*
X8926000Y42255000D01*
%TO.N,/MOTOR-R-INA*%
X11811000Y40077122D02*
X11811000Y37141685D01*
X9426000Y42462122D02*
X11811000Y40077122D01*
X9426000Y44562000D02*
X9426000Y42462122D01*
X11811000Y37141685D02*
X11811000Y36576000D01*
D43*
%TO.N,/MOTOR-L-INB*%
X-13474000Y21590000D02*
X-12065000Y21590000D01*
D44*
%TO.N,/MOTOR-L-INA*%
X10287000Y40132000D02*
X10287000Y36576000D01*
X8426000Y44562000D02*
X8426000Y41993000D01*
X8426000Y41993000D02*
X10287000Y40132000D01*
%TO.N,/USER_SW1*%
X34278000Y26670000D02*
X34278000Y25944000D01*
X34278000Y25944000D02*
X34302000Y25920000D01*
X34290000Y28272000D02*
X34302000Y28260000D01*
X34036000Y25654000D02*
X21390878Y25654000D01*
X34302000Y28260000D02*
X34302000Y25920000D01*
X34302000Y25920000D02*
X34036000Y25654000D01*
X21390878Y25654000D02*
X19050000Y27994878D01*
X19050000Y27994878D02*
X19050000Y30534878D01*
X19050000Y30534878D02*
X14786878Y34798000D01*
X14786878Y34798000D02*
X14224000Y34798000D01*
X13926000Y34212000D02*
X13926000Y33162000D01*
X14224000Y34798000D02*
X13926001Y34500001D01*
X13926001Y34500001D02*
X13926000Y34212000D01*
%TO.N,/USER_SW2*%
X13426000Y34192002D02*
X13426000Y33162000D01*
X13426000Y34192002D02*
X13426000Y34762000D01*
X13426000Y34762000D02*
X13970000Y35306000D01*
X13970000Y35306000D02*
X14986000Y35306000D01*
X14986000Y35306000D02*
X19550011Y30741989D01*
X19550011Y30741989D02*
X19550011Y28201989D01*
X21590000Y26162000D02*
X28067000Y26162000D01*
X19550011Y28201989D02*
X21590000Y26162000D01*
X28067000Y26162000D02*
X28575000Y26670000D01*
X28575000Y26670000D02*
X29476000Y26670000D01*
X29476000Y26670000D02*
X29476000Y28260000D01*
X29476000Y28260000D02*
X29464000Y28272000D01*
%TO.N,/VBAT-SENS*%
X5476000Y34662000D02*
X5476000Y35112000D01*
X-6096000Y32778000D02*
X3592000Y32778000D01*
X3592000Y32778000D02*
X5476000Y34662000D01*
D43*
X-6096000Y32778000D02*
X-6096000Y31484000D01*
%TO.N,Net-(R25-Pad2)*%
X-30546000Y34798000D02*
X-30546000Y48575000D01*
X13335000Y67183000D02*
X24236000Y56282000D01*
X-30546000Y48575000D02*
X-11938000Y67183000D01*
X-11938000Y67183000D02*
X13335000Y67183000D01*
X24236000Y56282000D02*
X24236000Y52176000D01*
D47*
X24236000Y52176000D02*
X24236000Y48757000D01*
D43*
%TO.N,Net-(R26-Pad2)*%
X22036010Y48702990D02*
X22036010Y56830990D01*
X22036010Y56830990D02*
X13335000Y65532000D01*
X13335000Y65532000D02*
X-8956000Y65532000D01*
X-8956000Y65532000D02*
X-9210000Y65786000D01*
D47*
X22682200Y48107600D02*
X22682800Y48107000D01*
X22682800Y48107000D02*
X24236000Y48107000D01*
X22632000Y48107000D02*
X22036010Y48702990D01*
D43*
%TO.N,Net-(R27-Pad2)*%
X-9210000Y63754000D02*
X13589000Y63754000D01*
X13589000Y63754000D02*
X20955000Y56388000D01*
X20955000Y56388000D02*
X20955000Y48387000D01*
X20955000Y48387000D02*
X21844000Y47498000D01*
D47*
X21844000Y47498000D02*
X21885000Y47457000D01*
X21885000Y47457000D02*
X24236000Y47457000D01*
%TO.N,Net-(R28-Pad2)*%
X24236000Y46807000D02*
X26614001Y46807001D01*
D43*
X26614001Y46807001D02*
X28884999Y46807001D01*
X30480000Y45212000D02*
X28884999Y46807001D01*
X30480000Y37316000D02*
X30480000Y45212000D01*
X33086000Y35560000D02*
X32236000Y35560000D01*
X32236000Y35560000D02*
X30480000Y37316000D01*
D44*
X33340000Y35880000D02*
X33340000Y35560000D01*
D43*
%TO.N,Net-(U3-Pad7)*%
X-9525000Y15240000D02*
X-9525000Y16383000D01*
X-9525000Y16383000D02*
X-10033000Y16891000D01*
X-15240000Y8890000D02*
X-14230000Y7880000D01*
X-10033000Y16891000D02*
X-13589000Y16891000D01*
X-13589000Y16891000D02*
X-15240000Y15240000D01*
X-15240000Y15240000D02*
X-15240000Y8890000D01*
X-14230000Y7880000D02*
X-11020000Y7880000D01*
X-11020000Y7880000D02*
X-11020000Y9400000D01*
%TO.N,Net-(U3-Pad5)*%
X-12065000Y15240000D02*
X-12065000Y13485000D01*
X-12065000Y13485000D02*
X-11020000Y12440000D01*
X-4220000Y12440000D02*
X-6120000Y12440000D01*
X-6120000Y12440000D02*
X-11020000Y12440000D01*
%TO.N,Net-(U4-Pad5)*%
X4220000Y12440000D02*
X8255000Y12440000D01*
X8255000Y12440000D02*
X11020000Y12440000D01*
X8255000Y15240000D02*
X8255000Y12440000D01*
%TO.N,Net-(U4-Pad7)*%
X4220000Y9400000D02*
X4220000Y7880000D01*
D44*
%TO.N,/GYRO-VREF*%
X5476000Y42612000D02*
X3616000Y42612000D01*
X-635000Y48084000D02*
X-635000Y48684000D01*
X3616000Y42612000D02*
X-635000Y46863000D01*
X-635000Y46863000D02*
X-635000Y48084000D01*
%TO.N,/GYRO-OUTZ*%
X-2050000Y48084000D02*
X-2050000Y48684000D01*
X-2050000Y47570878D02*
X-2050000Y48084000D01*
X3408878Y42112000D02*
X-2050000Y47570878D01*
X5476000Y42112000D02*
X3408878Y42112000D01*
%TO.N,/FRONT-L-TX*%
X12926000Y44562000D02*
X12926000Y46200000D01*
X12926000Y46200000D02*
X15483000Y48757000D01*
X15483000Y48757000D02*
X17636000Y48757000D01*
X17636000Y48757000D02*
X18436000Y48757000D01*
%TO.N,/DIAG1-L-TX*%
X13426000Y44562000D02*
X13426000Y45992878D01*
X13426000Y45992878D02*
X15540122Y48107000D01*
X15540122Y48107000D02*
X17636000Y48107000D01*
X17636000Y48107000D02*
X18436000Y48107000D01*
%TO.N,/DIAG2-L-TX*%
X17636000Y47457000D02*
X18436000Y47457000D01*
X15597244Y47457000D02*
X17636000Y47457000D01*
X13926000Y45785756D02*
X15597244Y47457000D01*
X13926000Y44562000D02*
X13926000Y45785756D01*
%TO.N,/FRONT-R-TX*%
X17636000Y46807000D02*
X18436000Y46807000D01*
X15654366Y46807000D02*
X17636000Y46807000D01*
X14426000Y45578634D02*
X15654366Y46807000D01*
X14426000Y44562000D02*
X14426000Y45578634D01*
%TO.N,Net-(U11-Pad40)*%
X16876000Y38612000D02*
X19054000Y38612000D01*
X19054000Y38612000D02*
X19812000Y39370000D01*
X19812000Y40132000D02*
X20250000Y40570000D01*
X19812000Y39370000D02*
X19812000Y40132000D01*
X20250000Y40570000D02*
X21844000Y40570000D01*
%TO.N,Net-(U11-Pad39)*%
X16876000Y38112000D02*
X21786000Y38112000D01*
X21786000Y38112000D02*
X21844000Y38170000D01*
%TO.N,Net-(U10-Pad2)*%
X38306000Y12986000D02*
X37798000Y12986000D01*
X37798000Y12986000D02*
X37798000Y13240000D01*
X37798000Y13240000D02*
X38306000Y13240000D01*
X38306000Y13240000D02*
X38306000Y13113000D01*
X38306000Y13113000D02*
X38052000Y13113000D01*
X38052000Y13113000D02*
X38052000Y15018000D01*
X38052000Y15018000D02*
X38459000Y15425000D01*
X38459000Y15425000D02*
X39470000Y15425000D01*
%TO.N,Net-(U10-Pad1)*%
X38814000Y12986000D02*
X39322000Y12986000D01*
X38814000Y13240000D02*
X38814000Y12986000D01*
X39322000Y13240000D02*
X38814000Y13240000D01*
X39322000Y13113000D02*
X39322000Y13240000D01*
X39068000Y13113000D02*
X39322000Y13113000D01*
X39470000Y14775000D02*
X39470000Y14275000D01*
X39470000Y14275000D02*
X39068000Y13873000D01*
X39068000Y13873000D02*
X39068000Y13113000D01*
%TO.N,/GND-L*%
X32690000Y-9124000D02*
X31674000Y-8108000D01*
X31674000Y-8108000D02*
X31674000Y-2520000D01*
X31674000Y-2520000D02*
X32309000Y-1885000D01*
X32309000Y-1885000D02*
X36500000Y-1885000D01*
X36500000Y-1885000D02*
X38050000Y-3435000D01*
X38050000Y-3435000D02*
X39950000Y-3435000D01*
X32690000Y-10902000D02*
X32690000Y-9124000D01*
X33718000Y-9124000D02*
X33018000Y-9124000D01*
X33018000Y-9124000D02*
X32690000Y-9124000D01*
%TO.N,/3V3-L*%
X35218000Y-9124000D02*
X35218000Y-8449000D01*
X35218000Y-8449000D02*
X34104000Y-7335000D01*
X34104000Y-7335000D02*
X33950000Y-7335000D01*
X33950000Y-7335000D02*
X33050000Y-7335000D01*
X35230000Y-10902000D02*
X35230000Y-9136000D01*
X35230000Y-9136000D02*
X35218000Y-9124000D01*
%TD*%
M02*
