M48
;DRILL file {KiCad no-vcs-found-0b1eb56~60~ubuntu17.04.1} date Mon Nov  6 00:20:56 2017
;FORMAT={-:-/ absolute / metric / decimal}
FMAT,2
METRIC,TZ
T1C0.400
T2C0.750
T3C0.900
T4C1.000
%
G90
G05
M71
T1
X-35.052Y32.512
X-28.321Y52.451
X-21.336Y45.466
X-17.272Y43.942
X-16.383Y21.59
X-13.716Y37.465
X-13.716Y10.922
X-11.303Y50.8
X-10.795Y20.32
X-9.144Y58.674
X-9.144Y51.816
X-8.636Y41.656
X-7.747Y39.624
X-7.366Y34.29
X-7.366Y30.099
X-5.715Y44.323
X-5.08Y45.72
X-4.445Y36.576
X-4.445Y28.448
X-4.318Y40.64
X-2.032Y22.225
X-1.27Y42.926
X-1.016Y22.225
X-0.508Y43.815
X0.Y22.225
X0.508Y38.608
X1.016Y11.684
X2.032Y41.148
X3.302Y27.051
X3.556Y34.29
X3.556Y31.369
X5.061Y57.085
X5.08Y49.149
X5.588Y28.067
X6.477Y56.235
X6.858Y49.149
X7.239Y46.482
X8.255Y40.259
X8.566Y38.354
X9.398Y26.162
X9.46Y37.279
X9.525Y19.939
X9.652Y48.514
X9.906Y68.453
X10.286Y25.526
X10.287Y36.576
X11.048Y26.173
X11.049Y37.338
X11.811Y36.576
X11.811Y25.527
X12.827Y37.338
X12.827Y28.067
X13.589Y36.576
X13.591Y27.053
X13.97Y9.398
X13.97Y10.922
X13.97Y7.874
X14.351Y37.338
X14.351Y28.067
X14.732Y55.118
X15.113Y49.657
X15.113Y51.689
X15.113Y36.576
X15.135Y27.073
X15.621Y17.018
X16.129Y-6.731
X16.51Y20.447
X19.177Y42.672
X19.558Y37.211
X21.717Y42.291
X24.511Y39.37
X27.178Y33.909
X29.464Y29.972
X34.29Y29.972
T2
X-15.875Y29.845
X-15.875Y27.845
X-15.875Y25.845
T3
X-18.542Y49.784
X-16.002Y49.784
X-14.763Y58.744
X-13.493Y60.943
X-18.634Y53.872
X-17.364Y56.071
X32.455Y38.013
X34.994Y37.924
X-35.049Y38.012
X-32.511Y38.101
X17.248Y56.235
X18.518Y54.035
X25.994Y38.013
X28.533Y37.924
X-29.012Y38.012
X-26.473Y38.101
X13.364Y61.013
X14.634Y58.813
T4
X32.69Y-10.902
X35.23Y-10.902
X37.77Y-10.902
X40.31Y-10.902
X-5.08Y60.198
X-2.54Y60.198
X0.Y60.198
X2.54Y60.198
X5.08Y60.198
X-22.225Y30.48
X-22.225Y27.94
X-22.225Y25.4
X32.21Y11.208
X34.75Y11.208
X37.29Y11.208
X39.83Y11.208
X-6.5Y-11.65
X-6.5Y-14.19
X-6.5Y-16.73
X-6.5Y-19.27
X-0.7Y3.53
X-0.7Y-3.53
X0.7Y3.53
X0.7Y-3.53
X6.5Y-11.65
X6.5Y-14.19
X6.5Y-16.73
X6.5Y-19.27
X2.54Y-10.16
X2.54Y-12.7
X2.54Y-15.24
X2.54Y-17.78
X2.54Y-20.32
X2.54Y-22.86
T0
M30
