  0
SECTION
  2
HEADER
  9
$ACADVER
  1
AC1003
  9
$INSBASE
 10
0.0
 20
0.0
  9
$EXTMIN
 10
-9.0
 20
-13.75
  9
$EXTMAX
 10
32.8
 20
13.75
  9
$LIMMIN
 10
0.0
 20
0.0
  9
$LIMMAX
 10
12.0
 20
9.0
  9
$ORTHOMODE
 70
     0
  9
$REGENMODE
 70
     1
  9
$FILLMODE
 70
     1
  9
$QTEXTMODE
 70
     0
  9
$MIRRTEXT
 70
     1
  9
$DRAGMODE
 70
     2
  9
$LTSCALE
 40
1.0
  9
$OSMODE
 70
     0
  9
$ATTMODE
 70
     1
  9
$TEXTSIZE
 40
1.0
  9
$TRACEWID
 40
0.05
  9
$TEXTSTYLE
  7
STANDARD
  9
$CLAYER
  8
0
  9
$CELTYPE
  6
BYLAYER
  9
$CECOLOR
 62
   256
  9
$VIEWCTR
 10
6.0
 20
4.5
  9
$VIEWSIZE
 40
9.0
  0
ENDSEC
  0
SECTION
  2
TABLES
  0
TABLE
  2
LTYPE
 70
     4
  0
LTYPE
  2
BYBLOCK
 70
     0
  3

 72
    65
 73
     0
 40
0.0
  0
LTYPE
  2
BYLAYER
 70
     0
  3

 72
    65
 73
     0
 40
0.0
  0
LTYPE
  2
CONTINUOUS
 70
     0
  3
Solid line
 72
    65
 73
     0
 40
0.0
  0
LTYPE
  2
CENTER2
 70
    64
  3
___ _ ___ _ ___ _ ___ _ ___ _ ___ _ ___ _ ___ _
 72
    65
 73
     4
 40
1.125
 49
0.75
 49
-0.125
 49
0.125
 49
-0.125
  0
ENDTAB
  0
TABLE
  2
LAYER
 70
     1
  0
LAYER
  2
0
 70
     0
 62
     7
  6
CONTINUOUS
  0
ENDTAB
  0
TABLE
  2
STYLE
 70
     1
  0
STYLE
  2
STANDARD
 70
    64
 40
0.0
 41
1.0
 50
0.0
 71
     0
 42
1.0
  3
txt
  4

  0
ENDTAB
  0
TABLE
  2
VIEW
 70
     0
  0
ENDTAB
  0
ENDSEC
  0
SECTION
  2
BLOCKS
  0
ENDSEC
  0
SECTION
  2
ENTITIES
  0
LINE
  8
0
 10
-4.0
 20
6.0
 11
0.0
 21
6.0
  0
LINE
  8
0
 10
0.0
 20
6.0
 11
0.0
 21
-6.0
  0
LINE
  8
0
 10
0.0
 20
-6.0
 11
-4.0
 21
-6.0
  0
LINE
  8
0
 10
-4.0
 20
6.0
 11
-4.0
 21
11.75
  0
LINE
  8
0
 10
-4.0
 20
11.75
 11
-7.0
 21
11.75
  0
LINE
  8
0
 10
-7.0
 20
11.75
 11
-7.0
 21
-11.75
  0
LINE
  8
0
 10
-7.0
 20
-11.75
 11
-4.0
 21
-11.75
  0
LINE
  8
0
 10
-4.0
 20
-11.75
 11
-4.0
 21
-6.0
  0
LINE
  8
0
 10
-7.0
 20
10.625
 11
-4.0
 21
10.625
  0
LINE
  8
0
 10
-7.0
 20
-10.625
 11
-4.0
 21
-10.625
  0
LINE
  8
0
 10
-7.0
 20
9.5
 11
-6.4
 21
9.5
  0
LINE
  8
0
 10
-6.4
 20
9.5
 11
-6.4
 21
4.0
  0
LINE
  8
0
 10
-6.4
 20
4.0
 11
-7.0
 21
4.0
  0
LINE
  8
0
 10
-7.0
 20
-9.5
 11
-6.4
 21
-9.5
  0
LINE
  8
0
 10
-6.4
 20
-9.5
 11
-6.4
 21
-4.0
  0
LINE
  8
0
 10
-6.4
 20
-4.0
 11
-7.0
 21
-4.0
  0
LINE
  8
0
 10
-4.0
 20
9.5
 11
-4.6
 21
9.5
  0
LINE
  8
0
 10
-4.6
 20
9.5
 11
-4.6
 21
6.0
  0
LINE
  8
0
 10
-4.6
 20
6.0
 11
-4.0
 21
6.0
  0
LINE
  8
0
 10
-4.0
 20
-6.0
 11
-4.6
 21
-6.0
  0
LINE
  8
0
 10
-4.6
 20
-6.0
 11
-4.6
 21
-9.5
  0
LINE
  8
0
 10
-4.6
 20
-9.5
 11
-4.0
 21
-9.5
  0
LINE
  8
0
 10
-7.0
 20
2.5
 11
0.0
 21
2.5
  0
LINE
  8
0
 10
-7.0
 20
-2.5
 11
0.0
 21
-2.5
  0
LINE
  8
0
  6
CENTER2
 62
     1
 10
-9.0
 20
11.25
 11
-2.0
 21
11.25
  0
LINE
  8
0
  6
CENTER2
 62
     1
 10
-9.0
 20
-11.25
 11
-2.0
 21
-11.25
  0
LINE
  8
0
  6
CENTER2
 62
     1
 10
-9.0
 20
0.0
 11
2.0
 21
0.0
  0
TEXT
  8
0
 10
-6.916667
 20
-1.5
 40
1.0
  1
DS0.5-45
 72
     1
 11
-3.5
 21
-1.5
  0
CIRCLE
  8
0
 10
19.05
 20
0.0
 40
11.75
  0
CIRCLE
  8
0
 10
19.05
 20
0.0
 40
10.625
  0
CIRCLE
  8
0
 10
19.05
 20
0.0
 40
9.5
  0
CIRCLE
  8
0
 10
19.05
 20
0.0
 40
6.0
  0
CIRCLE
  8
0
 10
19.05
 20
0.0
 40
2.5
  0
CIRCLE
  8
0
  6
CENTER2
 62
     1
 10
19.05
 20
0.0
 40
11.25
  0
LINE
  8
0
  6
CENTER2
 62
     1
 10
19.05
 20
13.75
 11
19.05
 21
-13.75
  0
LINE
  8
0
  6
CENTER2
 62
     1
 10
5.3
 20
0.0
 11
32.8
 21
0.0
  0
TEXT
  8
0
 10
20.05
 20
8.625
 40
1.0
  1
DS0.5-45
  0
ENDSEC
  0
EOF
