  0
SECTION
  2
HEADER
  9
$ACADVER
  1
AC1009
  9
$INSBASE
 10
0.0
 20
0.0
 30
0.0
  9
$EXTMIN
 10
-0.5166493986912429
 20
-8.0093071512054621
 30
-0.0015258207003583
  9
$EXTMAX
 10
29.028830711270871
 20
16.121323014983538
 30
0.0000000349246037
  9
$LIMMIN
 10
0.0
 20
0.0
  9
$LIMMAX
 10
420.0
 20
297.0
  9
$ORTHOMODE
 70
     0
  9
$REGENMODE
 70
     1
  9
$FILLMODE
 70
     1
  9
$QTEXTMODE
 70
     0
  9
$MIRRTEXT
 70
     0
  9
$DRAGMODE
 70
     2
  9
$LTSCALE
 40
0.5
  9
$OSMODE
 70
   125
  9
$ATTMODE
 70
     1
  9
$TEXTSIZE
 40
3.0
  9
$TRACEWID
 40
1.0
  9
$TEXTSTYLE
  7
STANDARD
  9
$CLAYER
  8
MSM_CONTINUOUS
  9
$CELTYPE
  6
BYLAYER
  9
$CECOLOR
 62
   256
  9
$DIMSCALE
 40
1.0
  9
$DIMASZ
 40
0.5
  9
$DIMEXO
 40
0.2
  9
$DIMDLI
 40
3.75
  9
$DIMRND
 40
0.0
  9
$DIMDLE
 40
0.0
  9
$DIMEXE
 40
0.2
  9
$DIMTP
 40
0.0
  9
$DIMTM
 40
0.0
  9
$DIMTXT
 40
3.0
  9
$DIMCEN
 40
2.5
  9
$DIMTSZ
 40
0.0
  9
$DIMTOL
 70
     0
  9
$DIMLIM
 70
     0
  9
$DIMTIH
 70
     0
  9
$DIMTOH
 70
     0
  9
$DIMSE1
 70
     0
  9
$DIMSE2
 70
     0
  9
$DIMTAD
 70
     1
  9
$DIMZIN
 70
     8
  9
$DIMBLK
  1
OPEN30
  9
$DIMASO
 70
     1
  9
$DIMSHO
 70
     1
  9
$DIMPOST
  1

  9
$DIMAPOST
  1

  9
$DIMALT
 70
     0
  9
$DIMALTD
 70
     3
  9
$DIMALTF
 40
0.03937007874016
  9
$DIMLFAC
 40
1.0
  9
$DIMTOFL
 70
     1
  9
$DIMTVP
 40
0.0
  9
$DIMTIX
 70
     0
  9
$DIMSOXD
 70
     0
  9
$DIMSAH
 70
     0
  9
$DIMBLK1
  1

  9
$DIMBLK2
  1

  9
$DIMSTYLE
  2
MISUMI
  9
$DIMCLRD
 70
   256
  9
$DIMCLRE
 70
   256
  9
$DIMCLRT
 70
   256
  9
$DIMTFAC
 40
1.0
  9
$DIMGAP
 40
0.2
  9
$LUNITS
 70
     2
  9
$LUPREC
 70
     2
  9
$SKETCHINC
 40
1.0
  9
$FILLETRAD
 40
5.0
  9
$AUNITS
 70
     0
  9
$AUPREC
 70
     0
  9
$MENU
  1
.
  9
$ELEVATION
 40
0.0
  9
$PELEVATION
 40
0.0
  9
$THICKNESS
 40
0.0
  9
$LIMCHECK
 70
     0
  9
$BLIPMODE
 70
     0
  9
$CHAMFERA
 40
0.5
  9
$CHAMFERB
 40
0.5
  9
$SKPOLY
 70
     0
  9
$TDCREATE
 40
2455135.5720697111
  9
$TDUPDATE
 40
2456689.7771594911
  9
$TDINDWG
 40
0.6900943287
  9
$TDUSRTIMER
 40
2456689.1717437622
  9
$USRTIMER
 70
     1
  9
$ANGBASE
 50
0.0
  9
$ANGDIR
 70
     0
  9
$PDMODE
 70
    35
  9
$PDSIZE
 40
0.0
  9
$PLINEWID
 40
0.0
  9
$COORDS
 70
     0
  9
$SPLFRAME
 70
     0
  9
$SPLINETYPE
 70
     6
  9
$SPLINESEGS
 70
     8
  9
$ATTDIA
 70
     0
  9
$ATTREQ
 70
     1
  9
$HANDLING
 70
     1
  9
$HANDSEED
  5
DFD0
  9
$SURFTAB1
 70
     6
  9
$SURFTAB2
 70
     6
  9
$SURFTYPE
 70
     6
  9
$SURFU
 70
     6
  9
$SURFV
 70
     6
  9
$UCSNAME
  2

  9
$UCSORG
 10
0.0
 20
0.0
 30
0.0
  9
$UCSXDIR
 10
1.0
 20
0.0
 30
0.0
  9
$UCSYDIR
 10
0.0
 20
1.0
 30
0.0
  9
$PUCSNAME
  2

  9
$PUCSORG
 10
0.0
 20
0.0
 30
0.0
  9
$PUCSXDIR
 10
1.0
 20
0.0
 30
0.0
  9
$PUCSYDIR
 10
0.0
 20
1.0
 30
0.0
  9
$USERI1
 70
     0
  9
$USERI2
 70
     0
  9
$USERI3
 70
     0
  9
$USERI4
 70
     0
  9
$USERI5
 70
     0
  9
$USERR1
 40
0.0
  9
$USERR2
 40
0.0
  9
$USERR3
 40
0.0
  9
$USERR4
 40
0.0
  9
$USERR5
 40
0.0
  9
$WORLDVIEW
 70
     1
  9
$SHADEDGE
 70
     3
  9
$SHADEDIF
 70
    70
  9
$TILEMODE
 70
     1
  9
$MAXACTVP
 70
    64
  9
$PLIMCHECK
 70
     0
  9
$PEXTMIN
 10
0.0
 20
0.0
 30
0.0
  9
$PEXTMAX
 10
0.0
 20
0.0
 30
0.0
  9
$PLIMMIN
 10
0.0
 20
0.0
  9
$PLIMMAX
 10
12.0
 20
9.0
  9
$UNITMODE
 70
     0
  9
$VISRETAIN
 70
     1
  9
$PLINEGEN
 70
     0
  9
$PSLTSCALE
 70
     1
  0
ENDSEC
  0
SECTION
  2
TABLES
  0
TABLE
  2
VPORT
 70
     1
  0
VPORT
  2
*ACTIVE
 70
     0
 10
0.0
 20
0.0
 11
1.0
 21
1.0
 12
14.25609065628981
 22
4.056007931889039
 13
0.0
 23
0.0
 14
10.0
 24
10.0
 15
10.0
 25
10.0
 16
0.0
 26
0.0
 36
1.0
 17
0.0
 27
0.0
 37
0.0
 40
24.31890556410465
 41
2.0690104166666661
 42
50.0
 43
0.0
 44
0.0
 50
0.0
 51
0.0
 71
    16
 72
  1000
 73
     1
 74
     3
 75
     0
 76
     0
 77
     0
 78
     0
  0
ENDTAB
  0
TABLE
  2
LTYPE
 70
     2
  0
LTYPE
  2
CONTINUOUS
 70
     0
  3
Solid line
 72
    65
 73
     0
 40
0.0
  0
LTYPE
  2
CENTER
 70
     0
  3
Center ____ _ ____ _ ____ _ ____ _ ____ _ ____
 72
    65
 73
     4
 40
50.799999999999997
 49
31.75
 49
-6.3499999999999988
 49
6.3499999999999988
 49
-6.3499999999999988
  0
ENDTAB
  0
TABLE
  2
LAYER
 70
     6
  0
LAYER
  2
0
 70
     0
 62
     7
  6
CONTINUOUS
  0
LAYER
  2
MSM_CENTER
 70
     0
 62
     1
  6
CENTER
  0
LAYER
  2
DEFPOINTS
 70
     0
 62
     7
  6
CONTINUOUS
  0
LAYER
  2
MSM_CONTINUOUS
 70
     0
 62
     7
  6
CONTINUOUS
  0
LAYER
  2
MSM_PART_NUMBER
 70
     0
 62
     7
  6
CONTINUOUS
  0
ENDTAB
  0
TABLE
  2
STYLE
 70
     1
  0
STYLE
  2
STANDARD
 70
     0
 40
1.0
 41
1.0
 50
0.0
 71
     0
 42
3.0
  3
txt.shx
  4
bigfont.shx
  0
ENDTAB
  0
TABLE
  2
VIEW
 70
     0
  0
ENDTAB
  0
TABLE
  2
UCS
 70
     0
  0
ENDTAB
  0
TABLE
  2
APPID
 70
    24
  0
APPID
  2
ACAD
 70
     0
  0
APPID
  2
ACAD_MLEADERVER
 70
     0
  0
APPID
  2
ACAD_EXEMPT_FROM_CAD_STANDARDS
 70
     0
  0
APPID
  2
ACDBBLOCKREPETAG
 70
     0
  0
APPID
  2
ACAD_DSTYLE_DIMJOGGED_JOGA
 70
     0
  0
APPID
  2
ACAECLAYERSTANDARD
 70
     0
  0
APPID
  2
GENIUS_GENODEF_13
 70
     0
  0
APPID
  2
GENIUS_GENOBJ-N-FIL_13
 70
     0
  0
APPID
  2
ACAD_PSEXT
 70
     0
  0
APPID
  2
ACAD_DSTYLE_DIMRADIAL_EXTENSION
 70
     0
  0
APPID
  2
ACDBDYNAMICBLOCKTRUENAME
 70
     0
  0
APPID
  2
ACDBDYNAMICBLOCKGUID
 70
     0
  0
APPID
  2
ACDBBLOCKREPBTAG
 70
     0
  0
APPID
  2
ACAUTHENVIRON
 70
     0
  0
APPID
  2
GRADIENTCOLOR1ACI
 70
     0
  0
APPID
  2
GRADIENTCOLOR2ACI
 70
     0
  0
APPID
  2
ACAD_DSTYLE_DIMJAG
 70
     0
  0
APPID
  2
ACAD_DSTYLE_DIMTALN
 70
     0
  0
APPID
  2
ACCMTRANSPARENCY
 70
     0
  0
APPID
  2
ACAD_DSTYLE_DIMBREAK
 70
     0
  0
APPID
  2
ACAD_DSTYLE_DIMFLIPARROW_W
 70
     0
  0
APPID
  2
ACAD_DSTYLE_DIM_LINETYPE
 70
     0
  0
APPID
  2
ACAD_DSTYLE_DIM_EXT1_LINETYPE
 70
     0
  0
APPID
  2
ACAD_DSTYLE_DIM_EXT2_LINETYPE
 70
     0
  0
ENDTAB
  0
TABLE
  2
DIMSTYLE
 70
     2
  0
DIMSTYLE
  2
MISUMI
 70
     0
  3

  4

  5
OPEN30
  6

  7

 40
1.0
 41
2.5
 42
0.625
 43
3.75
 44
1.25
 45
0.0
 46
0.0
 47
0.0
 48
0.0
140
3.0
141
2.5
142
0.0
143
0.03937007874016
144
1.0
145
0.0
146
1.0
147
0.625
 71
     0
 72
     0
 73
     0
 74
     0
 75
     0
 76
     0
 77
     1
 78
     8
170
     0
171
     3
172
     1
173
     0
174
     0
175
     0
176
   256
177
   256
178
   256
  0
DIMSTYLE
  2
STANDARD
 70
     0
  3

  4

  5

  6

  7

 40
1.0
 41
0.18
 42
0.0625
 43
0.38
 44
0.18
 45
0.0
 46
0.0
 47
0.0
 48
0.0
140
0.18
141
0.09
142
0.0
143
25.399999999999999
144
1.0
145
0.0
146
1.0
147
0.09
 71
     0
 72
     0
 73
     1
 74
     1
 75
     0
 76
     0
 77
     0
 78
     0
170
     0
171
     2
172
     0
173
     0
174
     0
175
     0
176
     0
177
     0
178
     0
  0
ENDTAB
  0
ENDSEC
  0
SECTION
  2
BLOCKS
  0
BLOCK
  8
0
  2
$MODEL_SPACE
 70
     0
 10
0.0
 20
0.0
 30
0.0
  3
$MODEL_SPACE
  1

  0
ENDBLK
  5
21
  8
0
  0
BLOCK
 67
     1
  8
0
  2
$PAPER_SPACE
 70
     0
 10
0.0
 20
0.0
 30
0.0
  3
$PAPER_SPACE
  1

  0
ENDBLK
  5
DF7D
 67
     1
  8
0
  0
BLOCK
  8
0
 62
     7
  2
_OPEN30
 70
     0
 10
0.0
 20
0.0
 30
0.0
  3
_OPEN30
  1

  0
LINE
  5
D7
  8
0
  6
BYBLOCK
 62
     0
 10
-1.0
 20
0.26794919
 30
0.0
 11
0.0
 21
0.0
 31
0.0
  0
LINE
  5
D8
  8
0
  6
BYBLOCK
 62
     0
 10
0.0
 20
0.0
 30
0.0
 11
-1.0
 21
-0.26794919
 31
0.0
  0
LINE
  5
D9
  8
0
  6
BYBLOCK
 62
     0
 10
0.0
 20
0.0
 30
0.0
 11
-1.0
 21
0.0
 31
0.0
  0
ENDBLK
  5
DB
  8
0
 62
     7
  0
BLOCK
  8
0
  2
*U8
 70
     1
 10
0.0
 20
0.0
 30
0.0
  3
*U8
  1

  0
TEXT
  5
DFBF
  8
MSM_PART_NUMBER
 10
0.0
 20
-3.0
 30
0.0
 40
3.0
  1
C-SFL682ZZ
  0
ENDBLK
  5
DFC1
  8
0
  0
BLOCK
  8
0
  2
*U9
 70
     1
 10
0.0
 20
0.0
 30
0.0
  3
*U9
  1

  0
TEXT
  5
DFC3
  8
MSM_PART_NUMBER
 10
0.0
 20
-8.0
 30
0.0
 40
3.0
  1
C-SFL682ZZ
  0
ENDBLK
  5
DFC5
  8
0
  0
BLOCK
  8
0
  2
*U10
 70
     1
 10
0.0
 20
0.0
 30
0.0
  3
*U10
  1

  0
TEXT
  5
DFC7
  8
MSM_CONTINUOUS
 10
230.78420101418749
 20
4.7390233652656937
 30
0.0
 40
3.0
  1
c-sfl682zz.dwg
  0
ENDBLK
  5
DFC9
  8
0
  0
ENDSEC
  0
SECTION
  2
ENTITIES
  0
INSERT
  5
DCB4
  8
MSM_CONTINUOUS
  2
*U8
 10
0.0
 20
0.0
 30
0.0
  0
INSERT
  5
DCB5
  8
MSM_CONTINUOUS
  2
*U9
 10
0.0
 20
0.0
 30
0.0
  0
LINE
  5
DEC5
  8
MSM_CONTINUOUS
 10
2.2999999999999972
 20
10.1
 30
0.0
 11
2.2999999999999998
 21
16.000000000000039
 31
0.0
  0
ARC
  5
DEC6
  8
MSM_CONTINUOUS
 10
2.1999999999999988
 20
16.0
 30
0.0
 40
0.0999999999999996
 50
0.0
 51
90.0
  0
LINE
  5
DEC7
  8
MSM_CONTINUOUS
 10
1.8
 20
16.100000000000001
 30
0.0
 11
2.1999999999999988
 21
16.100000000000001
 31
0.0
  0
ARC
  5
DEC8
  8
MSM_CONTINUOUS
 10
1.8
 20
16.0
 30
0.0
 40
0.0999999999999996
 50
90.0
 51
180.0
  0
LINE
  5
DEC9
  8
MSM_CONTINUOUS
 10
0.1499999999999986
 20
15.550000000000001
 30
0.0
 11
1.600000000000001
 21
15.550000000000001
 31
0.0
  0
ARC
  5
DECA
  8
MSM_CONTINUOUS
 10
1.6999999999999991
 20
15.550000000000001
 30
0.0
 40
0.0999999999999996
 50
180.0
 51
90.0
  0
LINE
  5
DECB
  8
MSM_CONTINUOUS
 10
1.6999999999999991
 20
15.65
 30
0.0
 11
1.6999999999999991
 21
16.0
 31
0.0
  0
ARC
  5
DECC
  8
MSM_CONTINUOUS
 10
2.1999999999999948
 20
10.1
 30
0.0
 40
0.1000000000000005
 50
270.0
 51
0.0
  0
ARC
  5
DECD
  8
MSM_CONTINUOUS
 10
1.7999999999999969
 20
10.1
 30
0.0
 40
0.1000000000000005
 50
180.0
 51
269.99999999999801
  0
ARC
  5
DECE
  8
MSM_CONTINUOUS
 10
1.6999999999999951
 20
10.550000000000001
 30
0.0
 40
0.1000000000000005
 50
270.0
 51
180.0
  0
LINE
  5
DECF
  8
MSM_CONTINUOUS
 10
1.6999999999999951
 20
10.449999999999999
 30
0.0
 11
1.6999999999999951
 21
10.1
 31
0.0
  0
LINE
  5
DED0
  8
MSM_CONTINUOUS
 10
1.7999999999999969
 20
10.0
 30
0.0
 11
2.1999999999999948
 21
10.0
 31
0.0
  0
LINE
  5
DED1
  8
MSM_CONTINUOUS
 10
-0.0000000000000036
 20
10.699999999999999
 30
0.0
 11
0.0
 21
15.39999999999991
 31
0.0
  0
LINE
  5
DED2
  8
MSM_CONTINUOUS
 10
1.485410196624968
 20
15.050000000000001
 30
0.0
 11
2.099999999999997
 21
15.050000000000001
 31
0.0
  0
LINE
  5
DED3
  8
MSM_CONTINUOUS
 10
1.4328427124746199
 20
14.4
 30
0.0
 11
2.2999999999999998
 21
14.4
 31
0.0
  0
CIRCLE
  5
DED4
  8
MSM_CONTINUOUS
 10
1.1499999999999979
 20
14.75
 30
0.0
 40
0.4499999999999993
  0
LINE
  5
DED5
  8
MSM_CONTINUOUS
 10
0.1499999999999986
 20
14.050000000000001
 30
0.0
 11
2.1499999999999981
 21
14.050000000000001
 31
0.0
  0
LINE
  5
DED6
  8
MSM_CONTINUOUS
 10
2.1999999999999988
 20
15.25
 30
0.0
 11
2.2999999999999998
 21
15.25
 31
0.0
  0
ARC
  5
DED7
  8
MSM_CONTINUOUS
 10
2.1499999999999981
 20
14.199999999999999
 30
0.0
 40
0.1500000000000004
 50
270.0
 51
0.0
  0
LINE
  5
DED8
  8
MSM_CONTINUOUS
 10
2.1999999999999988
 20
15.31
 30
0.0
 11
2.099999999999997
 21
15.31
 31
0.0
  0
LINE
  5
DED9
  8
MSM_CONTINUOUS
 10
2.099999999999997
 20
15.31
 30
0.0
 11
2.099999999999997
 21
14.5
 31
0.0
  0
LINE
  5
DEDA
  8
MSM_CONTINUOUS
 10
2.1999999999999988
 20
15.31
 30
0.0
 11
2.1999999999999988
 21
14.5
 31
0.0
  0
LINE
  5
DEDB
  8
MSM_CONTINUOUS
 10
2.1999999999999988
 20
14.5
 30
0.0
 11
2.099999999999997
 21
14.5
 31
0.0
  0
ARC
  5
DEDC
  8
MSM_CONTINUOUS
 10
0.1499999999999986
 20
14.199999999999999
 30
0.0
 40
0.1500000000000004
 50
180.0
 51
270.0
  0
ARC
  5
DEDD
  8
MSM_CONTINUOUS
 10
0.1499999999999986
 20
15.4
 30
0.0
 40
0.1500000000000004
 50
89.999999999998636
 51
180.0
  0
LINE
  5
DEDE
  8
MSM_CONTINUOUS
 10
0.0
 20
14.4
 30
0.0
 11
0.8671572875253801
 21
14.4
 31
0.0
  0
LINE
  5
DEDF
  8
MSM_CONTINUOUS
 10
0.1999999999999993
 20
15.050000000000001
 30
0.0
 11
0.814589803375032
 21
15.050000000000001
 31
0.0
  0
LINE
  5
DEE0
  8
MSM_CONTINUOUS
 10
0.0
 20
15.25
 30
0.0
 11
0.0999999999999979
 21
15.25
 31
0.0
  0
LINE
  5
DEE1
  8
MSM_CONTINUOUS
 10
0.1999999999999993
 20
15.31
 30
0.0
 11
0.1999999999999993
 21
14.5
 31
0.0
  0
LINE
  5
DEE2
  8
MSM_CONTINUOUS
 10
0.0999999999999979
 20
15.31
 30
0.0
 11
0.0999999999999979
 21
14.5
 31
0.0
  0
LINE
  5
DEE3
  8
MSM_CONTINUOUS
 10
0.0999999999999979
 20
14.5
 30
0.0
 11
0.1999999999999993
 21
14.5
 31
0.0
  0
LINE
  5
DEE4
  8
MSM_CONTINUOUS
 10
0.0999999999999979
 20
15.31
 30
0.0
 11
0.1999999999999993
 21
15.31
 31
0.0
  0
LINE
  5
DEE5
  8
MSM_CONTINUOUS
 10
1.4854101966249651
 20
11.050000000000001
 30
0.0
 11
2.0999999999999939
 21
11.050000000000001
 31
0.0
  0
LINE
  5
DEE6
  8
MSM_CONTINUOUS
 10
2.1999999999999948
 20
10.85
 30
0.0
 11
2.2999999999999972
 21
10.85
 31
0.0
  0
ARC
  5
DEE7
  8
MSM_CONTINUOUS
 10
2.1499999999999981
 20
11.9
 30
0.0
 40
0.1500000000000004
 50
0.0
 51
90.0
  0
ARC
  5
DEE8
  8
MSM_CONTINUOUS
 10
0.1499999999999986
 20
11.9
 30
0.0
 40
0.1500000000000004
 50
90.0
 51
180.0
  0
ARC
  5
DEE9
  8
MSM_CONTINUOUS
 10
0.149999999999995
 20
10.699999999999999
 30
0.0
 40
0.1500000000000004
 50
180.0
 51
270.0
  0
LINE
  5
DEEA
  8
MSM_CONTINUOUS
 10
1.4328427124746199
 20
11.699999999999999
 30
0.0
 11
2.2999999999999998
 21
11.699999999999999
 31
0.0
  0
LINE
  5
DEEB
  8
MSM_CONTINUOUS
 10
0.0
 20
11.699999999999999
 30
0.0
 11
0.8671572875253801
 21
11.699999999999999
 31
0.0
  0
LINE
  5
DEEC
  8
MSM_CONTINUOUS
 10
0.1999999999999957
 20
11.050000000000001
 30
0.0
 11
0.8145898033750285
 21
11.050000000000001
 31
0.0
  0
LINE
  5
DEED
  8
MSM_CONTINUOUS
 10
2.1999999999999948
 20
10.789999999999999
 30
0.0
 11
2.0999999999999939
 21
10.789999999999999
 31
0.0
  0
LINE
  5
DEEE
  8
MSM_CONTINUOUS
 10
2.0999999999999939
 20
10.789999999999999
 30
0.0
 11
2.099999999999997
 21
11.6
 31
0.0
  0
LINE
  5
DEEF
  8
MSM_CONTINUOUS
 10
2.1999999999999948
 20
10.789999999999999
 30
0.0
 11
2.1999999999999988
 21
11.6
 31
0.0
  0
LINE
  5
DEF0
  8
MSM_CONTINUOUS
 10
2.1999999999999988
 20
11.6
 30
0.0
 11
2.099999999999997
 21
11.6
 31
0.0
  0
LINE
  5
DEF1
  8
MSM_CONTINUOUS
 10
-0.0000000000000036
 20
10.85
 30
0.0
 11
0.0999999999999943
 21
10.85
 31
0.0
  0
LINE
  5
DEF2
  8
MSM_CONTINUOUS
 10
0.1999999999999957
 20
10.789999999999999
 30
0.0
 11
0.1999999999999993
 21
11.6
 31
0.0
  0
LINE
  5
DEF3
  8
MSM_CONTINUOUS
 10
0.0999999999999943
 20
10.789999999999999
 30
0.0
 11
0.0999999999999979
 21
11.6
 31
0.0
  0
LINE
  5
DEF4
  8
MSM_CONTINUOUS
 10
0.0999999999999979
 20
11.6
 30
0.0
 11
0.1999999999999993
 21
11.6
 31
0.0
  0
LINE
  5
DEF5
  8
MSM_CONTINUOUS
 10
0.0999999999999943
 20
10.789999999999999
 30
0.0
 11
0.1999999999999957
 21
10.789999999999999
 31
0.0
  0
CIRCLE
  5
DEF6
  8
MSM_CONTINUOUS
 10
1.1499999999999979
 20
11.35
 30
0.0
 40
0.4500000000000002
  0
LINE
  5
DEF7
  8
MSM_CONTINUOUS
 10
0.1499999999999986
 20
12.050000000000001
 30
0.0
 11
2.1499999999999981
 21
12.050000000000001
 31
0.0
  0
LINE
  5
DEF8
  8
MSM_CONTINUOUS
 10
0.149999999999995
 20
10.550000000000001
 30
0.0
 11
1.599999999999997
 21
10.550000000000001
 31
0.0
  0
LINE
  5
DEF9
  8
MSM_CENTER
 10
-0.5
 20
13.050000000000001
 30
0.0
 11
2.7999999999999972
 21
13.050000000000001
 31
0.0
  0
ENDSEC
  0
EOF
