solid gearmotor_br
facet normal -0.0070791073810683065 -0.9998183210881082 0.017697769781639863
  outer loop
    vertex 11.366499900817871 10.15999984741211 6.223000526428222
    vertex 8.191499710083008 10.15999984741211 4.953000545501709
    vertex 11.01101303100586 10.140036582946777 4.953000545501709
  endloop
endfacet
facet normal 0.9999749325514312 0.007080555681636088 -1.2888696645867723e-18
  outer loop
    vertex 8.191499710083008 10.15999984741211 9.398000717163084
    vertex 8.211463928222656 7.340487003326415 8.127999305725098
    vertex 8.191499710083008 10.15999984741211 8.127999305725098
  endloop
endfacet
facet normal -0.007079107383565788 -0.9998183214408404 0.017697749853368132
  outer loop
    vertex 11.366499900817871 10.15999984741211 9.398000717163084
    vertex 8.191499710083008 10.15999984741211 8.127999305725098
    vertex 11.01101303100586 10.140036582946777 8.127999305725098
  endloop
endfacet
facet normal 0.9999749325514312 0.007080555681636086 -1.591202958365901e-18
  outer loop
    vertex 8.191499710083008 10.15999984741211 1.1429991722106931
    vertex 8.211463928222656 7.340487003326415 1.1429991722106931
    vertex 8.191499710083008 10.15999984741211 0.0
  endloop
endfacet
facet normal 0.9999662962787028 0.002709237892491699 -0.00775024752479618
  outer loop
    vertex 8.191499710083008 10.15999984741211 9.398000717163084
    vertex 8.191499710083008 6.984999656677246 9.398000717163084
    vertex 8.191499710083008 6.984999656677246 8.127999305725098
  endloop
endfacet
facet normal 0.9999662962787028 0.002709237892491699 -0.00775024752479618
  outer loop
    vertex 8.191499710083008 6.984999656677246 9.398000717163084
    vertex 8.191499710083008 10.15999984741211 9.398000717163084
    vertex 8.211463928222656 7.340487003326415 9.398000717163084
  endloop
endfacet
facet normal -0.9999749325514312 0.007080555681636587 0.0
  outer loop
    vertex 20.38349914550781 10.15999984741211 0.0
    vertex 20.36353492736816 7.340487003326415 9.398000717163084
    vertex 20.38349914550781 10.15999984741211 9.398000717163084
  endloop
endfacet
facet normal 0.9999749325514312 0.00708055568163609 -1.2888725681204877e-18
  outer loop
    vertex 8.191499710083008 10.15999984741211 6.223000526428222
    vertex 8.211463928222656 7.340487003326415 4.953000545501709
    vertex 8.191499710083008 10.15999984741211 4.953000545501709
  endloop
endfacet
facet normal -0.9999999997547362 2.2146715887413085e-05 2.2534255834096561e-07
  outer loop
    vertex 6.1947785750010675 12.035793951395872 18.09047213539061
    vertex 6.19398356558945 2.7256476378823336 9.572637697735807
    vertex 6.194778575001068 0.8722841883367412 18.09047213539061
  endloop
endfacet
facet normal -0.9999999997547362 2.2146715887413085e-05 2.2534255834096561e-07
  outer loop
    vertex 6.19398356558945 2.7256476378823336 9.572637697735807
    vertex 6.1947785750010675 12.035793951395872 18.09047213539061
    vertex 6.1947785750010675 2.725655951395877 -0.004510864609390383
  endloop
endfacet
facet normal -0.9999999997547362 2.2146715887413085e-05 2.2534255834096561e-07
  outer loop
    vertex 6.1947785750010675 2.725655951395877 -0.004510864609390383
    vertex 6.1947785750010675 12.035793951395872 18.09047213539061
    vertex 6.1947785750010675 12.035793951395872 -0.004510864609398843
  endloop
endfacet
facet normal 0.0010314148279054211 -0.9999980604245814 -0.0016778946713487657
  outer loop
    vertex 6.201603479675297 -0.018121251837407513 9.576768128669515
    vertex -1.8553144344105548 -0.026424362117667025 9.572637697735807
    vertex 8.191499710083008 0.0 0.0
  endloop
endfacet
facet normal 0.00910014928849424 -0.9999585927839271 -7.179997626423139e-07
  outer loop
    vertex 8.194333249071128 1.8894221455052414e-06 18.09047213539061
    vertex 6.201603479675297 -0.018121251837407513 9.576768128669515
    vertex 8.191499710083008 0.0 0.0
  endloop
endfacet
facet normal 0.00910014928849424 -0.9999585927839271 -7.179997626423139e-07
  outer loop
    vertex 6.201603479675297 -0.018121251837407513 9.576768128669515
    vertex 8.194333249071128 1.8894221455052414e-06 18.09047213539061
    vertex 7.552154837971741 -0.00582193309922681 18.09047213539061
  endloop
endfacet
facet normal 0.002629493631288657 -0.9999960149747177 0.00102752028057468
  outer loop
    vertex 6.197227798271 -0.009384719318773861 18.09047213539061
    vertex 6.201603479675297 -0.018121251837407513 9.576768128669515
    vertex 7.552154837971741 -0.00582193309922681 18.09047213539061
  endloop
endfacet
facet normal 0.0 0.0 -1.0
  outer loop
    vertex 8.191499710083008 10.15999984741211 1.1429991722106931
    vertex 8.271103858947752 7.691504001617432 1.1429991722106931
    vertex 8.211463928222656 7.340487003326415 1.1429991722106931
  endloop
endfacet
facet normal 0.0 0.0 -1.0
  outer loop
    vertex 8.271103858947752 7.691504001617432 1.1429991722106931
    vertex 8.191499710083008 10.15999984741211 1.1429991722106931
    vertex 8.369669914245605 8.033636093139647 1.1429991722106931
  endloop
endfacet
facet normal 0.0 0.0 -1.0
  outer loop
    vertex 8.369669914245605 8.033636093139647 1.1429991722106931
    vertex 8.191499710083008 10.15999984741211 1.1429991722106931
    vertex 8.505923271179197 8.362581253051758 1.1429991722106931
  endloop
endfacet
facet normal 0.0 0.0 -1.0
  outer loop
    vertex 8.505923271179197 8.362581253051758 1.1429991722106931
    vertex 8.191499710083008 10.15999984741211 1.1429991722106931
    vertex 8.678150177001953 8.67420196533203 1.1429991722106931
  endloop
endfacet
facet normal 0.0 0.0 -1.0
  outer loop
    vertex 8.678150177001953 8.67420196533203 1.1429991722106931
    vertex 8.191499710083008 10.15999984741211 1.1429991722106931
    vertex 8.884183883666992 8.964580535888672 1.1429991722106931
  endloop
endfacet
facet normal 0.0 0.0 -1.0
  outer loop
    vertex 8.884183883666992 8.964580535888672 1.1429991722106931
    vertex 8.191499710083008 10.15999984741211 1.1429991722106931
    vertex 9.121436119079588 9.230064392089844 1.1429991722106931
  endloop
endfacet
facet normal 0.0 0.0 -1.0
  outer loop
    vertex 9.121436119079588 9.230064392089844 1.1429991722106931
    vertex 8.191499710083008 10.15999984741211 1.1429991722106931
    vertex 9.386919021606445 9.467314720153809 1.1429991722106931
  endloop
endfacet
facet normal 0.0 0.0 -1.0
  outer loop
    vertex 9.386919021606445 9.467314720153809 1.1429991722106931
    vertex 8.191499710083008 10.15999984741211 1.1429991722106931
    vertex 9.677298545837402 9.673349380493164 1.1429991722106931
  endloop
endfacet
facet normal 0.0 0.0 -1.0
  outer loop
    vertex 9.677298545837402 9.673349380493164 1.1429991722106931
    vertex 8.191499710083008 10.15999984741211 1.1429991722106931
    vertex 9.988919258117674 9.845576286315918 1.1429991722106931
  endloop
endfacet
facet normal 0.0 0.0 -1.0
  outer loop
    vertex 9.988919258117674 9.845576286315918 1.1429991722106931
    vertex 8.191499710083008 10.15999984741211 1.1429991722106931
    vertex 10.317863464355469 9.981829643249512 1.1429991722106931
  endloop
endfacet
facet normal 0.0 0.0 -1.0
  outer loop
    vertex 10.317863464355469 9.981829643249512 1.1429991722106931
    vertex 8.191499710083008 10.15999984741211 1.1429991722106931
    vertex 10.659995079040526 10.08039665222168 1.1429991722106931
  endloop
endfacet
facet normal 0.0 0.0 -1.0
  outer loop
    vertex 10.659995079040526 10.08039665222168 1.1429991722106931
    vertex 8.191499710083008 10.15999984741211 1.1429991722106931
    vertex 11.01101303100586 10.140036582946777 1.1429991722106931
  endloop
endfacet
facet normal 0.9865319913243324 -0.05540377192659514 -0.1538994871659844
  outer loop
    vertex 8.191499710083008 10.15999984741211 0.0
    vertex 8.211463928222656 7.340487003326415 1.1429991722106931
    vertex 8.191499710083008 6.984999656677246 1.1429991722106931
  endloop
endfacet
facet normal -0.0027091892467014066 -0.999995852736259 -0.0009771406797634038
  outer loop
    vertex 11.366499900817871 10.15999984741211 9.398000717163084
    vertex 8.191499710083008 10.15999984741211 9.398000717163084
    vertex 8.191499710083008 10.15999984741211 8.127999305725098
  endloop
endfacet
facet normal -0.0027091892467014066 -0.999995852736259 -0.0009771406797634038
  outer loop
    vertex 8.191499710083008 10.15999984741211 9.398000717163084
    vertex 11.366499900817871 10.15999984741211 9.398000717163084
    vertex 11.01101303100586 10.140036582946777 9.398000717163084
  endloop
endfacet
facet normal 0.9999999945177154 0.00010205449024323153 -2.3440360936239348e-05
  outer loop
    vertex 8.191499710083008 0.0 0.0
    vertex 8.191499710083008 6.984999656677246 1.1429991722106931
    vertex 8.194333249071128 1.8894221455052414e-06 18.09047213539061
  endloop
endfacet
facet normal 0.9999999945177154 0.00010205449024323153 -2.3440360936239348e-05
  outer loop
    vertex 8.191499710083008 6.984999656677246 1.1429991722106931
    vertex 8.191499710083008 0.0 0.0
    vertex 8.191499710083008 10.15999984741211 0.0
  endloop
endfacet
facet normal 0.9999999945177154 0.00010205449024323153 -2.3440360936239348e-05
  outer loop
    vertex 8.191499710083008 6.984999656677246 1.1429991722106931
    vertex 8.191499710083008 6.984999656677246 18.09047213539061
    vertex 8.194333249071128 1.8894221455052414e-06 18.09047213539061
  endloop
endfacet
facet normal 0.9999999945177154 0.00010205449024323153 -2.3440360936239348e-05
  outer loop
    vertex 8.191499710083008 6.984999656677246 18.09047213539061
    vertex 8.191499710083008 6.984999656677246 1.1429991722106931
    vertex 8.191499710083008 6.984999656677246 4.953000545501709
  endloop
endfacet
facet normal 0.9999999945177154 0.00010205449024323153 -2.3440360936239348e-05
  outer loop
    vertex 8.191499710083008 6.984999656677246 18.09047213539061
    vertex 8.191499710083008 6.984999656677246 4.953000545501709
    vertex 8.191499710083008 6.984999656677246 6.223000526428222
  endloop
endfacet
facet normal 0.9999999945177154 0.00010205449024323153 -2.3440360936239348e-05
  outer loop
    vertex 8.191499710083008 6.984999656677246 18.09047213539061
    vertex 8.191499710083008 6.984999656677246 6.223000526428222
    vertex 8.191499710083008 6.984999656677246 8.127999305725098
  endloop
endfacet
facet normal 0.9999999945177154 0.00010205449024323153 -2.3440360936239348e-05
  outer loop
    vertex 8.191499710083008 6.984999656677246 18.09047213539061
    vertex 8.191499710083008 6.984999656677246 8.127999305725098
    vertex 8.191499710083008 6.984999656677246 9.398000717163084
  endloop
endfacet
facet normal -0.0027091889433119827 -0.999995740751404 -0.0010857137377469795
  outer loop
    vertex 11.366499900817871 10.15999984741211 1.1429991722106931
    vertex 8.191499710083008 10.15999984741211 1.1429991722106931
    vertex 8.191499710083008 10.15999984741211 0.0
  endloop
endfacet
facet normal -0.0027091889433119827 -0.999995740751404 -0.0010857137377469795
  outer loop
    vertex 8.191499710083008 10.15999984741211 1.1429991722106931
    vertex 11.366499900817871 10.15999984741211 1.1429991722106931
    vertex 11.01101303100586 10.140036582946777 1.1429991722106931
  endloop
endfacet
facet normal -0.9999960109336515 -0.0027779288557777163 -0.0005111047412730089
  outer loop
    vertex 6.197227798271 -0.009384719318773861 18.09047213539061
    vertex 6.19398356558945 2.7256476378823336 9.572637697735807
    vertex 6.201603479675297 -0.018121251837407513 9.576768128669515
  endloop
endfacet
facet normal -0.9999960109336515 -0.0027779288557777163 -0.0005111047412730089
  outer loop
    vertex 6.19398356558945 2.7256476378823336 9.572637697735807
    vertex 6.197227798271 -0.009384719318773861 18.09047213539061
    vertex 6.194778575001068 0.8722841883367412 18.09047213539061
  endloop
endfacet
facet normal 0.0 0.0 1.0
  outer loop
    vertex 8.191499710083008 10.15999984741211 4.953000545501709
    vertex 10.659995079040526 10.08039665222168 4.953000545501709
    vertex 11.01101303100586 10.140036582946777 4.953000545501709
  endloop
endfacet
facet normal 0.0 0.0 1.0
  outer loop
    vertex 10.659995079040526 10.08039665222168 4.953000545501709
    vertex 8.191499710083008 10.15999984741211 4.953000545501709
    vertex 10.317863464355469 9.981829643249512 4.953000545501709
  endloop
endfacet
facet normal 0.0 0.0 1.0
  outer loop
    vertex 10.317863464355469 9.981829643249512 4.953000545501709
    vertex 8.191499710083008 10.15999984741211 4.953000545501709
    vertex 9.988919258117674 9.845576286315918 4.953000545501709
  endloop
endfacet
facet normal 0.0 0.0 1.0
  outer loop
    vertex 9.988919258117674 9.845576286315918 4.953000545501709
    vertex 8.191499710083008 10.15999984741211 4.953000545501709
    vertex 9.677298545837402 9.673349380493164 4.953000545501709
  endloop
endfacet
facet normal 0.0 0.0 1.0
  outer loop
    vertex 9.677298545837402 9.673349380493164 4.953000545501709
    vertex 8.191499710083008 10.15999984741211 4.953000545501709
    vertex 9.386919021606445 9.467314720153809 4.953000545501709
  endloop
endfacet
facet normal 0.0 0.0 1.0
  outer loop
    vertex 9.386919021606445 9.467314720153809 4.953000545501709
    vertex 8.191499710083008 10.15999984741211 4.953000545501709
    vertex 9.121436119079588 9.230064392089844 4.953000545501709
  endloop
endfacet
facet normal 0.0 0.0 1.0
  outer loop
    vertex 9.121436119079588 9.230064392089844 4.953000545501709
    vertex 8.191499710083008 10.15999984741211 4.953000545501709
    vertex 8.884183883666992 8.964580535888672 4.953000545501709
  endloop
endfacet
facet normal 0.0 0.0 1.0
  outer loop
    vertex 8.884183883666992 8.964580535888672 4.953000545501709
    vertex 8.191499710083008 10.15999984741211 4.953000545501709
    vertex 8.678150177001953 8.67420196533203 4.953000545501709
  endloop
endfacet
facet normal 0.0 0.0 1.0
  outer loop
    vertex 8.678150177001953 8.67420196533203 4.953000545501709
    vertex 8.191499710083008 10.15999984741211 4.953000545501709
    vertex 8.505923271179197 8.362581253051758 4.953000545501709
  endloop
endfacet
facet normal 0.0 0.0 1.0
  outer loop
    vertex 8.505923271179197 8.362581253051758 4.953000545501709
    vertex 8.191499710083008 10.15999984741211 4.953000545501709
    vertex 8.369669914245605 8.033636093139647 4.953000545501709
  endloop
endfacet
facet normal 0.0 0.0 1.0
  outer loop
    vertex 8.369669914245605 8.033636093139647 4.953000545501709
    vertex 8.191499710083008 10.15999984741211 4.953000545501709
    vertex 8.271103858947752 7.691504001617432 4.953000545501709
  endloop
endfacet
facet normal 0.0 0.0 1.0
  outer loop
    vertex 8.271103858947752 7.691504001617432 4.953000545501709
    vertex 8.191499710083008 10.15999984741211 4.953000545501709
    vertex 8.211463928222656 7.340487003326415 4.953000545501709
  endloop
endfacet
facet normal -0.9982476486617009 -0.056061724849360506 -0.01893977160105765
  outer loop
    vertex 20.38349914550781 10.15999984741211 0.0
    vertex 20.38349914550781 6.984999656677246 9.398000717163084
    vertex 20.36353492736816 7.340487003326415 9.398000717163084
  endloop
endfacet
facet normal 0.0 -1.0 0.0
  outer loop
    vertex 20.38349914550781 10.15999984741211 0.0
    vertex 11.366499900817871 10.15999984741211 1.1429991722106931
    vertex 8.191499710083008 10.15999984741211 0.0
  endloop
endfacet
facet normal 0.0 -1.0 0.0
  outer loop
    vertex 11.366499900817871 10.15999984741211 1.1429991722106931
    vertex 20.38349914550781 10.15999984741211 0.0
    vertex 17.20849990844726 10.15999984741211 9.398000717163084
  endloop
endfacet
facet normal 0.0 -1.0 0.0
  outer loop
    vertex 11.366499900817871 10.15999984741211 1.1429991722106931
    vertex 17.20849990844726 10.15999984741211 9.398000717163084
    vertex 11.366499900817871 10.15999984741211 6.223000526428222
  endloop
endfacet
facet normal 0.0 -1.0 0.0
  outer loop
    vertex 11.366499900817871 10.15999984741211 6.223000526428222
    vertex 17.20849990844726 10.15999984741211 9.398000717163084
    vertex 11.366499900817871 10.15999984741211 9.398000717163084
  endloop
endfacet
facet normal 0.0 -1.0 0.0
  outer loop
    vertex 11.366499900817871 10.15999984741211 9.398000717163084
    vertex 17.20849990844726 10.15999984741211 9.398000717163084
    vertex 17.20849990844726 10.15999984741211 18.09047213539061
  endloop
endfacet
facet normal 0.0 -1.0 0.0
  outer loop
    vertex 11.366499900817871 10.15999984741211 9.398000717163084
    vertex 17.20849990844726 10.15999984741211 18.09047213539061
    vertex 11.366499900817871 10.15999984741211 18.09047213539061
  endloop
endfacet
facet normal -0.9999999180522552 -0.0004047927904125964 -6.187095827349156e-06
  outer loop
    vertex 20.3859482041612 -0.007491275477040849 18.09047213539061
    vertex 20.38349914550781 0.0 0.0
    vertex 20.391122591816888 -0.02178223715646006 8.017120781810734
  endloop
endfacet
facet normal -0.9999999180522552 -0.0004047927904125964 -6.187095827349156e-06
  outer loop
    vertex 20.38349914550781 0.0 0.0
    vertex 20.3859482041612 -0.007491275477040849 18.09047213539061
    vertex 20.38349914550781 6.984999656677246 18.09047213539061
  endloop
endfacet
facet normal -0.9999999180522552 -0.0004047927904125964 -6.187095827349156e-06
  outer loop
    vertex 20.38349914550781 0.0 0.0
    vertex 20.38349914550781 6.984999656677246 18.09047213539061
    vertex 20.38349914550781 6.984999656677246 9.398000717163084
  endloop
endfacet
facet normal -0.9999999180522552 -0.0004047927904125964 -6.187095827349156e-06
  outer loop
    vertex 20.38349914550781 0.0 0.0
    vertex 20.38349914550781 6.984999656677246 9.398000717163084
    vertex 20.38349914550781 10.15999984741211 0.0
  endloop
endfacet
facet normal 0.0027091897780669185 -0.999996321420446 -0.00013204666828278228
  outer loop
    vertex 20.38349914550781 10.15999984741211 9.398000717163084
    vertex 17.20849990844726 10.15999984741211 9.398000717163084
    vertex 20.38349914550781 10.15999984741211 0.0
  endloop
endfacet
facet normal 0.0027091897780669185 -0.999996321420446 -0.00013204666828278228
  outer loop
    vertex 17.20849990844726 10.15999984741211 9.398000717163084
    vertex 20.38349914550781 10.15999984741211 9.398000717163084
    vertex 17.56398773193359 10.140036582946777 9.398000717163084
  endloop
endfacet
facet normal -0.002709189246698493 -0.9999958527351834 -0.0009771417804009157
  outer loop
    vertex 11.366499900817871 10.15999984741211 6.223000526428222
    vertex 8.191499710083008 10.15999984741211 6.223000526428222
    vertex 8.191499710083008 10.15999984741211 4.953000545501709
  endloop
endfacet
facet normal -0.002709189246698493 -0.9999958527351834 -0.0009771417804009157
  outer loop
    vertex 8.191499710083008 10.15999984741211 6.223000526428222
    vertex 11.366499900817871 10.15999984741211 6.223000526428222
    vertex 11.01101303100586 10.140036582946777 6.223000526428222
  endloop
endfacet
facet normal 0.999966296211047 0.0027092378923083975 -0.007750256254049905
  outer loop
    vertex 8.191499710083008 10.15999984741211 6.223000526428222
    vertex 8.191499710083008 6.984999656677246 6.223000526428222
    vertex 8.191499710083008 6.984999656677246 4.953000545501709
  endloop
endfacet
facet normal 0.999966296211047 0.0027092378923083975 -0.007750256254049905
  outer loop
    vertex 8.191499710083008 6.984999656677246 6.223000526428222
    vertex 8.191499710083008 10.15999984741211 6.223000526428222
    vertex 8.211463928222656 7.340487003326415 6.223000526428222
  endloop
endfacet
facet normal 0.7456402721218938 -0.6663486959467906 0.0
  outer loop
    vertex 9.121436119079588 9.230064392089844 6.223000526428222
    vertex 8.884183883666992 8.964580535888672 8.127999305725098
    vertex 8.884183883666992 8.964580535888672 6.223000526428222
  endloop
endfacet
facet normal 0.7456402721218938 -0.6663486959467906 0.0
  outer loop
    vertex 8.884183883666992 8.964580535888672 8.127999305725098
    vertex 9.121436119079588 9.230064392089844 6.223000526428222
    vertex 9.121436119079588 9.230064392089844 8.127999305725098
  endloop
endfacet
facet normal 0.875223153295706 -0.4837193731236338 0.0
  outer loop
    vertex 8.678150177001953 8.67420196533203 6.223000526428222
    vertex 8.505923271179197 8.362581253051758 8.127999305725098
    vertex 8.505923271179197 8.362581253051758 6.223000526428222
  endloop
endfacet
facet normal 0.875223153295706 -0.4837193731236338 0.0
  outer loop
    vertex 8.505923271179197 8.362581253051758 8.127999305725098
    vertex 8.678150177001953 8.67420196533203 6.223000526428222
    vertex 8.678150177001953 8.67420196533203 8.127999305725098
  endloop
endfacet
facet normal -0.4837193731236342 -0.8752231532957057 5.89890590666893e-17
  outer loop
    vertex 18.89770126342773 9.673349380493162 18.09047213539061
    vertex 18.586080551147454 9.845576286315918 9.398000717163084
    vertex 18.89770126342773 9.673349380493164 9.398000717163084
  endloop
endfacet
facet normal -0.4837193731236342 -0.8752231532957057 5.89890590666893e-17
  outer loop
    vertex 18.586080551147454 9.845576286315918 9.398000717163084
    vertex 18.89770126342773 9.673349380493162 18.09047213539061
    vertex 18.586080551147454 9.845576286315922 18.090472135390613
  endloop
endfacet
facet normal 0.3826839248818544 -0.9238793285040093 0.0
  outer loop
    vertex 10.317863464355469 9.981829643249512 8.127999305725098
    vertex 9.988919258117674 9.845576286315918 6.223000526428222
    vertex 10.317863464355469 9.981829643249512 6.223000526428222
  endloop
endfacet
facet normal 0.3826839248818544 -0.9238793285040093 0.0
  outer loop
    vertex 9.988919258117674 9.845576286315918 6.223000526428222
    vertex 10.317863464355469 9.981829643249512 8.127999305725098
    vertex 9.988919258117674 9.845576286315918 8.127999305725098
  endloop
endfacet
facet normal 0.9238797207621111 -0.3826829778870802 4.961625997244959e-17
  outer loop
    vertex 8.505923271179197 8.362581253051758 9.398000717163084
    vertex 8.369669914245605 8.033636093139648 18.09047213539061
    vertex 8.369669914245605 8.033636093139647 9.398000717163084
  endloop
endfacet
facet normal 0.9238797207621111 -0.3826829778870802 4.961625997244959e-17
  outer loop
    vertex 8.369669914245605 8.033636093139648 18.09047213539061
    vertex 8.505923271179197 8.362581253051758 9.398000717163084
    vertex 8.505923271179197 8.36258125305176 18.09047213539061
  endloop
endfacet
facet normal -0.6663457175513463 -0.74564293378331 3.238615791623026e-16
  outer loop
    vertex 19.45356369018554 9.230064392089844 18.090472135390606
    vertex 19.18807983398437 9.467314720153809 9.398000717163084
    vertex 19.453563690185547 9.230064392089844 9.398000717163084
  endloop
endfacet
facet normal -0.6663457175513463 -0.74564293378331 3.238615791623026e-16
  outer loop
    vertex 19.18807983398437 9.467314720153809 9.398000717163084
    vertex 19.45356369018554 9.230064392089844 18.090472135390606
    vertex 19.18807983398437 9.46731472015381 18.09047213539061
  endloop
endfacet
facet normal 0.2768370383463463 -0.9609168820452805 0.0
  outer loop
    vertex 10.659995079040526 10.08039665222168 8.127999305725098
    vertex 10.317863464355469 9.981829643249512 6.223000526428222
    vertex 10.659995079040526 10.08039665222168 6.223000526428222
  endloop
endfacet
facet normal 0.2768370383463463 -0.9609168820452805 0.0
  outer loop
    vertex 10.317863464355469 9.981829643249512 6.223000526428222
    vertex 10.659995079040526 10.08039665222168 8.127999305725098
    vertex 10.317863464355469 9.981829643249512 8.127999305725098
  endloop
endfacet
facet normal 0.1675050819610955 -0.9858712124396406 0.0
  outer loop
    vertex 11.01101303100586 10.140036582946777 8.127999305725098
    vertex 10.659995079040526 10.08039665222168 6.223000526428222
    vertex 11.01101303100586 10.140036582946777 6.223000526428222
  endloop
endfacet
facet normal 0.1675050819610955 -0.9858712124396406 0.0
  outer loop
    vertex 10.659995079040526 10.08039665222168 6.223000526428222
    vertex 11.01101303100586 10.140036582946777 8.127999305725098
    vertex 10.659995079040526 10.08039665222168 8.127999305725098
  endloop
endfacet
facet normal -0.9609176972086496 -0.27683420885292703 -3.0614119980511016e-17
  outer loop
    vertex 20.205329895019524 8.033636093139648 18.09047213539061
    vertex 20.303895950317376 7.691504001617432 9.398000717163084
    vertex 20.303895950317376 7.691504001617432 18.09047213539061
  endloop
endfacet
facet normal -0.9609176972086496 -0.27683420885292703 -3.0614119980511016e-17
  outer loop
    vertex 20.303895950317376 7.691504001617432 9.398000717163084
    vertex 20.205329895019524 8.033636093139648 18.09047213539061
    vertex 20.20532989501953 8.033636093139647 9.398000717163084
  endloop
endfacet
facet normal -0.9984267400220429 -0.05607178264471338 1.2359480594670265e-16
  outer loop
    vertex 20.36353492736816 7.340487003326415 18.09047213539061
    vertex 20.38349914550781 6.984999656677246 9.398000717163084
    vertex 20.38349914550781 6.984999656677246 18.09047213539061
  endloop
endfacet
facet normal -0.9984267400220429 -0.05607178264471338 1.2359480594670265e-16
  outer loop
    vertex 20.38349914550781 6.984999656677246 9.398000717163084
    vertex 20.36353492736816 7.340487003326415 18.09047213539061
    vertex 20.36353492736816 7.340487003326415 9.398000717163084
  endloop
endfacet
facet normal 0.9984267400220429 -0.05607178264471334 7.465090780433261e-17
  outer loop
    vertex 8.211463928222656 7.340487003326415 9.398000717163084
    vertex 8.191499710083008 6.984999656677246 18.09047213539061
    vertex 8.191499710083008 6.984999656677246 9.398000717163084
  endloop
endfacet
facet normal 0.9984267400220429 -0.05607178264471334 7.465090780433261e-17
  outer loop
    vertex 8.191499710083008 6.984999656677246 18.09047213539061
    vertex 8.211463928222656 7.340487003326415 9.398000717163084
    vertex 8.211463928222656 7.340487003326418 18.09047213539061
  endloop
endfacet
facet normal -0.3826829778870834 -0.9238797207621098 1.800507578381753e-16
  outer loop
    vertex 18.586080551147454 9.845576286315922 18.090472135390613
    vertex 18.25713539123535 9.981829643249512 9.398000717163084
    vertex 18.586080551147454 9.845576286315918 9.398000717163084
  endloop
endfacet
facet normal -0.3826829778870834 -0.9238797207621098 1.800507578381753e-16
  outer loop
    vertex 18.25713539123535 9.981829643249512 9.398000717163084
    vertex 18.586080551147454 9.845576286315922 18.090472135390613
    vertex 18.25713539123535 9.98182964324951 18.09047213539061
  endloop
endfacet
facet normal 0.815562030964445 -0.5786696584832746 -4.693499203454956e-17
  outer loop
    vertex 8.884183883666992 8.964580535888672 9.398000717163084
    vertex 8.678150177001953 8.67420196533203 18.09047213539061
    vertex 8.678150177001953 8.67420196533203 9.398000717163084
  endloop
endfacet
facet normal 0.815562030964445 -0.5786696584832746 -4.693499203454956e-17
  outer loop
    vertex 8.678150177001953 8.67420196533203 18.09047213539061
    vertex 8.884183883666992 8.964580535888672 9.398000717163084
    vertex 8.884183883666994 8.964580535888672 18.09047213539061
  endloop
endfacet
facet normal 0.4837193731236324 -0.8752231532957067 -2.6997281037387233e-18
  outer loop
    vertex 9.988919258117674 9.845576286315916 18.09047213539061
    vertex 9.677298545837402 9.673349380493164 9.398000717163084
    vertex 9.988919258117674 9.845576286315918 9.398000717163084
  endloop
endfacet
facet normal 0.4837193731236324 -0.8752231532957067 -2.6997281037387233e-18
  outer loop
    vertex 9.677298545837402 9.673349380493164 9.398000717163084
    vertex 9.988919258117674 9.845576286315916 18.09047213539061
    vertex 9.677298545837402 9.673349380493164 18.09047213539061
  endloop
endfacet
facet normal 0.960917697208648 -0.27683420885293286 -1.063502561571972e-17
  outer loop
    vertex 8.369669914245605 8.033636093139647 9.398000717163084
    vertex 8.271103858947754 7.691504001617433 18.09047213539061
    vertex 8.271103858947752 7.691504001617432 9.398000717163084
  endloop
endfacet
facet normal 0.960917697208648 -0.27683420885293286 -1.063502561571972e-17
  outer loop
    vertex 8.271103858947754 7.691504001617433 18.09047213539061
    vertex 8.369669914245605 8.033636093139647 9.398000717163084
    vertex 8.369669914245605 8.033636093139648 18.09047213539061
  endloop
endfacet
facet normal 0.276837038346345 -0.9609168820452809 -1.9856184595439455e-17
  outer loop
    vertex 10.65999507904053 10.08039665222168 18.09047213539061
    vertex 10.317863464355469 9.981829643249512 9.398000717163084
    vertex 10.659995079040526 10.08039665222168 9.398000717163084
  endloop
endfacet
facet normal 0.276837038346345 -0.9609168820452809 -1.9856184595439455e-17
  outer loop
    vertex 10.317863464355469 9.981829643249512 9.398000717163084
    vertex 10.65999507904053 10.08039665222168 18.09047213539061
    vertex 10.317863464355472 9.981829643249512 18.09047213539061
  endloop
endfacet
facet normal 0.8752231532957053 -0.48371937312363505 4.387058168575406e-17
  outer loop
    vertex 8.678150177001953 8.67420196533203 9.398000717163084
    vertex 8.505923271179197 8.36258125305176 18.09047213539061
    vertex 8.505923271179197 8.362581253051758 9.398000717163084
  endloop
endfacet
facet normal 0.8752231532957053 -0.48371937312363505 4.387058168575406e-17
  outer loop
    vertex 8.505923271179197 8.36258125305176 18.09047213539061
    vertex 8.678150177001953 8.67420196533203 9.398000717163084
    vertex 8.678150177001953 8.67420196533203 18.09047213539061
  endloop
endfacet
facet normal 0.382683924881855 -0.9238793285040091 -8.017928396689312e-17
  outer loop
    vertex 10.317863464355472 9.981829643249512 18.09047213539061
    vertex 9.988919258117674 9.845576286315918 9.398000717163084
    vertex 10.317863464355469 9.981829643249512 9.398000717163084
  endloop
endfacet
facet normal 0.382683924881855 -0.9238793285040091 -8.017928396689312e-17
  outer loop
    vertex 9.988919258117674 9.845576286315918 9.398000717163084
    vertex 10.317863464355472 9.981829643249512 18.09047213539061
    vertex 9.988919258117674 9.845576286315916 18.09047213539061
  endloop
endfacet
facet normal 0.05606918753503269 -0.9984268857603752 2.987819701163308e-18
  outer loop
    vertex 11.366499900817871 10.15999984741211 18.09047213539061
    vertex 11.01101303100586 10.140036582946777 9.398000717163084
    vertex 11.366499900817871 10.15999984741211 9.398000717163084
  endloop
endfacet
facet normal 0.05606918753503269 -0.9984268857603752 2.987819701163308e-18
  outer loop
    vertex 11.01101303100586 10.140036582946777 9.398000717163084
    vertex 11.366499900817871 10.15999984741211 18.09047213539061
    vertex 11.011013031005861 10.140036582946777 18.09047213539061
  endloop
endfacet
facet normal 0.6663470483854257 -0.7456417444778901 -4.658309025166467e-17
  outer loop
    vertex 9.386919021606447 9.46731472015381 18.090472135390613
    vertex 9.121436119079588 9.230064392089844 9.398000717163084
    vertex 9.386919021606445 9.467314720153809 9.398000717163084
  endloop
endfacet
facet normal 0.6663470483854257 -0.7456417444778901 -4.658309025166467e-17
  outer loop
    vertex 9.121436119079588 9.230064392089844 9.398000717163084
    vertex 9.386919021606447 9.46731472015381 18.090472135390613
    vertex 9.12143611907959 9.230064392089844 18.09047213539061
  endloop
endfacet
facet normal -0.8752242872733449 -0.48371732134260553 2.3622651514221306e-16
  outer loop
    vertex 20.06907653808593 8.362581253051763 18.09047213539061
    vertex 19.8968505859375 8.67420196533203 9.398000717163084
    vertex 20.06907653808593 8.362581253051758 9.398000717163084
  endloop
endfacet
facet normal -0.8752242872733449 -0.48371732134260553 2.3622651514221306e-16
  outer loop
    vertex 19.8968505859375 8.67420196533203 9.398000717163084
    vertex 20.06907653808593 8.362581253051763 18.09047213539061
    vertex 19.8968505859375 8.67420196533203 18.09047213539061
  endloop
endfacet
facet normal 0.0 0.0 -1.0
  outer loop
    vertex 20.38349914550781 10.15999984741211 9.398000717163084
    vertex 17.915002822875973 10.08039665222168 9.398000717163084
    vertex 17.56398773193359 10.140036582946777 9.398000717163084
  endloop
endfacet
facet normal 0.0 0.0 -1.0
  outer loop
    vertex 17.915002822875973 10.08039665222168 9.398000717163084
    vertex 20.38349914550781 10.15999984741211 9.398000717163084
    vertex 18.25713539123535 9.981829643249512 9.398000717163084
  endloop
endfacet
facet normal 0.0 0.0 -1.0
  outer loop
    vertex 18.25713539123535 9.981829643249512 9.398000717163084
    vertex 20.38349914550781 10.15999984741211 9.398000717163084
    vertex 18.586080551147454 9.845576286315918 9.398000717163084
  endloop
endfacet
facet normal 0.0 0.0 -1.0
  outer loop
    vertex 18.586080551147454 9.845576286315918 9.398000717163084
    vertex 20.38349914550781 10.15999984741211 9.398000717163084
    vertex 18.89770126342773 9.673349380493164 9.398000717163084
  endloop
endfacet
facet normal 0.0 0.0 -1.0
  outer loop
    vertex 18.89770126342773 9.673349380493164 9.398000717163084
    vertex 20.38349914550781 10.15999984741211 9.398000717163084
    vertex 19.18807983398437 9.467314720153809 9.398000717163084
  endloop
endfacet
facet normal 0.0 0.0 -1.0
  outer loop
    vertex 19.18807983398437 9.467314720153809 9.398000717163084
    vertex 20.38349914550781 10.15999984741211 9.398000717163084
    vertex 19.453563690185547 9.230064392089844 9.398000717163084
  endloop
endfacet
facet normal 0.0 0.0 -1.0
  outer loop
    vertex 19.453563690185547 9.230064392089844 9.398000717163084
    vertex 20.38349914550781 10.15999984741211 9.398000717163084
    vertex 19.690814971923825 8.964580535888672 9.398000717163084
  endloop
endfacet
facet normal 0.0 0.0 -1.0
  outer loop
    vertex 19.690814971923825 8.964580535888672 9.398000717163084
    vertex 20.38349914550781 10.15999984741211 9.398000717163084
    vertex 19.8968505859375 8.67420196533203 9.398000717163084
  endloop
endfacet
facet normal 0.0 0.0 -1.0
  outer loop
    vertex 19.8968505859375 8.67420196533203 9.398000717163084
    vertex 20.38349914550781 10.15999984741211 9.398000717163084
    vertex 20.06907653808593 8.362581253051758 9.398000717163084
  endloop
endfacet
facet normal 0.0 0.0 -1.0
  outer loop
    vertex 20.06907653808593 8.362581253051758 9.398000717163084
    vertex 20.38349914550781 10.15999984741211 9.398000717163084
    vertex 20.20532989501953 8.033636093139647 9.398000717163084
  endloop
endfacet
facet normal 0.0 0.0 -1.0
  outer loop
    vertex 20.20532989501953 8.033636093139647 9.398000717163084
    vertex 20.38349914550781 10.15999984741211 9.398000717163084
    vertex 20.303895950317376 7.691504001617432 9.398000717163084
  endloop
endfacet
facet normal 0.0 0.0 -1.0
  outer loop
    vertex 20.303895950317376 7.691504001617432 9.398000717163084
    vertex 20.38349914550781 10.15999984741211 9.398000717163084
    vertex 20.36353492736816 7.340487003326415 9.398000717163084
  endloop
endfacet
facet normal 0.9858711372862398 -0.16750552428483179 -5.824035198306325e-17
  outer loop
    vertex 8.271103858947752 7.691504001617432 9.398000717163084
    vertex 8.211463928222656 7.340487003326418 18.09047213539061
    vertex 8.211463928222656 7.340487003326415 9.398000717163084
  endloop
endfacet
facet normal 0.9858711372862398 -0.16750552428483179 -5.824035198306325e-17
  outer loop
    vertex 8.211463928222656 7.340487003326418 18.09047213539061
    vertex 8.271103858947752 7.691504001617432 9.398000717163084
    vertex 8.271103858947754 7.691504001617433 18.09047213539061
  endloop
endfacet
facet normal 0.7456402721218945 -0.6663486959467896 -4.8959330106567345e-17
  outer loop
    vertex 9.121436119079588 9.230064392089844 9.398000717163084
    vertex 8.884183883666994 8.964580535888672 18.09047213539061
    vertex 8.884183883666992 8.964580535888672 9.398000717163084
  endloop
endfacet
facet normal 0.7456402721218945 -0.6663486959467896 -4.8959330106567345e-17
  outer loop
    vertex 8.884183883666994 8.964580535888672 18.09047213539061
    vertex 9.121436119079588 9.230064392089844 9.398000717163084
    vertex 9.12143611907959 9.230064392089844 18.09047213539061
  endloop
endfacet
facet normal 0.0 0.0 -1.0
  outer loop
    vertex 8.191499710083008 10.15999984741211 9.398000717163084
    vertex 8.271103858947752 7.691504001617432 9.398000717163084
    vertex 8.211463928222656 7.340487003326415 9.398000717163084
  endloop
endfacet
facet normal 0.0 0.0 -1.0
  outer loop
    vertex 8.271103858947752 7.691504001617432 9.398000717163084
    vertex 8.191499710083008 10.15999984741211 9.398000717163084
    vertex 8.369669914245605 8.033636093139647 9.398000717163084
  endloop
endfacet
facet normal 0.0 0.0 -1.0
  outer loop
    vertex 8.369669914245605 8.033636093139647 9.398000717163084
    vertex 8.191499710083008 10.15999984741211 9.398000717163084
    vertex 8.505923271179197 8.362581253051758 9.398000717163084
  endloop
endfacet
facet normal 0.0 0.0 -1.0
  outer loop
    vertex 8.505923271179197 8.362581253051758 9.398000717163084
    vertex 8.191499710083008 10.15999984741211 9.398000717163084
    vertex 8.678150177001953 8.67420196533203 9.398000717163084
  endloop
endfacet
facet normal 0.0 0.0 -1.0
  outer loop
    vertex 8.678150177001953 8.67420196533203 9.398000717163084
    vertex 8.191499710083008 10.15999984741211 9.398000717163084
    vertex 8.884183883666992 8.964580535888672 9.398000717163084
  endloop
endfacet
facet normal 0.0 0.0 -1.0
  outer loop
    vertex 8.884183883666992 8.964580535888672 9.398000717163084
    vertex 8.191499710083008 10.15999984741211 9.398000717163084
    vertex 9.121436119079588 9.230064392089844 9.398000717163084
  endloop
endfacet
facet normal 0.0 0.0 -1.0
  outer loop
    vertex 9.121436119079588 9.230064392089844 9.398000717163084
    vertex 8.191499710083008 10.15999984741211 9.398000717163084
    vertex 9.386919021606445 9.467314720153809 9.398000717163084
  endloop
endfacet
facet normal 0.0 0.0 -1.0
  outer loop
    vertex 9.386919021606445 9.467314720153809 9.398000717163084
    vertex 8.191499710083008 10.15999984741211 9.398000717163084
    vertex 9.677298545837402 9.673349380493164 9.398000717163084
  endloop
endfacet
facet normal 0.0 0.0 -1.0
  outer loop
    vertex 9.677298545837402 9.673349380493164 9.398000717163084
    vertex 8.191499710083008 10.15999984741211 9.398000717163084
    vertex 9.988919258117674 9.845576286315918 9.398000717163084
  endloop
endfacet
facet normal 0.0 0.0 -1.0
  outer loop
    vertex 9.988919258117674 9.845576286315918 9.398000717163084
    vertex 8.191499710083008 10.15999984741211 9.398000717163084
    vertex 10.317863464355469 9.981829643249512 9.398000717163084
  endloop
endfacet
facet normal 0.0 0.0 -1.0
  outer loop
    vertex 10.317863464355469 9.981829643249512 9.398000717163084
    vertex 8.191499710083008 10.15999984741211 9.398000717163084
    vertex 10.659995079040526 10.08039665222168 9.398000717163084
  endloop
endfacet
facet normal 0.0 0.0 -1.0
  outer loop
    vertex 10.659995079040526 10.08039665222168 9.398000717163084
    vertex 8.191499710083008 10.15999984741211 9.398000717163084
    vertex 11.01101303100586 10.140036582946777 9.398000717163084
  endloop
endfacet
facet normal -0.9858715796078897 -0.16750292093406732 3.1738609348326274e-16
  outer loop
    vertex 20.303895950317376 7.691504001617432 18.09047213539061
    vertex 20.36353492736816 7.340487003326415 9.398000717163084
    vertex 20.36353492736816 7.340487003326415 18.09047213539061
  endloop
endfacet
facet normal -0.9858715796078897 -0.16750292093406732 3.1738609348326274e-16
  outer loop
    vertex 20.36353492736816 7.340487003326415 9.398000717163084
    vertex 20.303895950317376 7.691504001617432 18.09047213539061
    vertex 20.303895950317376 7.691504001617432 9.398000717163084
  endloop
endfacet
facet normal -0.923879720762109 -0.38268297788708533 2.3017852564538194e-16
  outer loop
    vertex 20.205329895019524 8.033636093139648 18.09047213539061
    vertex 20.06907653808593 8.362581253051758 9.398000717163084
    vertex 20.20532989501953 8.033636093139647 9.398000717163084
  endloop
endfacet
facet normal -0.923879720762109 -0.38268297788708533 2.3017852564538194e-16
  outer loop
    vertex 20.06907653808593 8.362581253051758 9.398000717163084
    vertex 20.205329895019524 8.033636093139648 18.09047213539061
    vertex 20.06907653808593 8.362581253051763 18.09047213539061
  endloop
endfacet
facet normal 0.6663470483854267 -0.7456417444778893 0.0
  outer loop
    vertex 9.386919021606445 9.467314720153809 8.127999305725098
    vertex 9.121436119079588 9.230064392089844 6.223000526428222
    vertex 9.386919021606445 9.467314720153809 6.223000526428222
  endloop
endfacet
facet normal 0.6663470483854267 -0.7456417444778893 0.0
  outer loop
    vertex 9.121436119079588 9.230064392089844 6.223000526428222
    vertex 9.386919021606445 9.467314720153809 8.127999305725098
    vertex 9.121436119079588 9.230064392089844 8.127999305725098
  endloop
endfacet
facet normal 0.8155620309644461 -0.5786696584832731 0.0
  outer loop
    vertex 8.884183883666992 8.964580535888672 6.223000526428222
    vertex 8.678150177001953 8.67420196533203 8.127999305725098
    vertex 8.678150177001953 8.67420196533203 6.223000526428222
  endloop
endfacet
facet normal 0.8155620309644461 -0.5786696584832731 0.0
  outer loop
    vertex 8.678150177001953 8.67420196533203 8.127999305725098
    vertex 8.884183883666992 8.964580535888672 6.223000526428222
    vertex 8.884183883666992 8.964580535888672 8.127999305725098
  endloop
endfacet
facet normal 0.16750508196109534 -0.9858712124396406 -8.730014220167986e-17
  outer loop
    vertex 11.011013031005861 10.140036582946777 18.09047213539061
    vertex 10.659995079040526 10.08039665222168 9.398000717163084
    vertex 11.01101303100586 10.140036582946777 9.398000717163084
  endloop
endfacet
facet normal 0.16750508196109534 -0.9858712124396406 -8.730014220167986e-17
  outer loop
    vertex 10.659995079040526 10.08039665222168 9.398000717163084
    vertex 11.011013031005861 10.140036582946777 18.09047213539061
    vertex 10.65999507904053 10.08039665222168 18.09047213539061
  endloop
endfacet
facet normal 0.5786701759696001 -0.8155616637896316 -1.5210307328468358e-17
  outer loop
    vertex 9.677298545837402 9.673349380493164 18.09047213539061
    vertex 9.386919021606445 9.467314720153809 9.398000717163084
    vertex 9.677298545837402 9.673349380493164 9.398000717163084
  endloop
endfacet
facet normal 0.5786701759696001 -0.8155616637896316 -1.5210307328468358e-17
  outer loop
    vertex 9.386919021606445 9.467314720153809 9.398000717163084
    vertex 9.677298545837402 9.673349380493164 18.09047213539061
    vertex 9.386919021606447 9.46731472015381 18.090472135390613
  endloop
endfacet
facet normal -0.7456416029517122 -0.6663472067530569 5.783232163047237e-17
  outer loop
    vertex 19.690814971923825 8.964580535888675 18.09047213539061
    vertex 19.453563690185547 9.230064392089844 9.398000717163084
    vertex 19.690814971923825 8.964580535888672 9.398000717163084
  endloop
endfacet
facet normal -0.7456416029517122 -0.6663472067530569 5.783232163047237e-17
  outer loop
    vertex 19.453563690185547 9.230064392089844 9.398000717163084
    vertex 19.690814971923825 8.964580535888675 18.09047213539061
    vertex 19.45356369018554 9.230064392089844 18.090472135390606
  endloop
endfacet
facet normal 0.2768370383463464 -0.9609168820452805 1.3339871201207768e-18
  outer loop
    vertex 10.659995079040526 10.08039665222168 4.953000545501709
    vertex 10.317863464355469 9.981829643249512 1.1429991722106931
    vertex 10.659995079040526 10.08039665222168 1.1429991722106931
  endloop
endfacet
facet normal 0.2768370383463464 -0.9609168820452805 1.3339871201207768e-18
  outer loop
    vertex 10.317863464355469 9.981829643249512 1.1429991722106931
    vertex 10.659995079040526 10.08039665222168 4.953000545501709
    vertex 10.317863464355469 9.981829643249512 4.953000545501709
  endloop
endfacet
facet normal 0.48371937312363367 -0.875223153295706 -3.312387391265767e-32
  outer loop
    vertex 9.988919258117674 9.845576286315918 4.953000545501709
    vertex 9.677298545837402 9.673349380493164 1.1429991722106931
    vertex 9.988919258117674 9.845576286315918 1.1429991722106931
  endloop
endfacet
facet normal 0.48371937312363367 -0.875223153295706 -3.312387391265767e-32
  outer loop
    vertex 9.677298545837402 9.673349380493164 1.1429991722106931
    vertex 9.988919258117674 9.845576286315918 4.953000545501709
    vertex 9.677298545837402 9.673349380493164 4.953000545501709
  endloop
endfacet
facet normal 0.7456402721218937 -0.6663486959467906 1.6054581843745606e-18
  outer loop
    vertex 9.121436119079588 9.230064392089844 1.1429991722106931
    vertex 8.884183883666992 8.964580535888672 4.953000545501709
    vertex 8.884183883666992 8.964580535888672 1.1429991722106931
  endloop
endfacet
facet normal 0.7456402721218937 -0.6663486959467906 1.6054581843745606e-18
  outer loop
    vertex 8.884183883666992 8.964580535888672 4.953000545501709
    vertex 9.121436119079588 9.230064392089844 1.1429991722106931
    vertex 9.121436119079588 9.230064392089844 4.953000545501709
  endloop
endfacet
facet normal 0.8155620309644461 -0.5786696584832731 0.0
  outer loop
    vertex 8.884183883666992 8.964580535888672 1.1429991722106931
    vertex 8.678150177001953 8.67420196533203 4.953000545501709
    vertex 8.678150177001953 8.67420196533203 1.1429991722106931
  endloop
endfacet
facet normal 0.8155620309644461 -0.5786696584832731 0.0
  outer loop
    vertex 8.678150177001953 8.67420196533203 4.953000545501709
    vertex 8.884183883666992 8.964580535888672 1.1429991722106931
    vertex 8.884183883666992 8.964580535888672 4.953000545501709
  endloop
endfacet
facet normal 0.875223153295706 -0.48371937312363356 1.6561936956328836e-32
  outer loop
    vertex 8.678150177001953 8.67420196533203 1.1429991722106931
    vertex 8.505923271179197 8.362581253051758 4.953000545501709
    vertex 8.505923271179197 8.362581253051758 1.1429991722106931
  endloop
endfacet
facet normal 0.875223153295706 -0.48371937312363356 1.6561936956328836e-32
  outer loop
    vertex 8.505923271179197 8.362581253051758 4.953000545501709
    vertex 8.678150177001953 8.67420196533203 1.1429991722106931
    vertex 8.678150177001953 8.67420196533203 4.953000545501709
  endloop
endfacet
facet normal 0.05606918753503249 -0.9984268857603754 -4.269721443121407e-19
  outer loop
    vertex 11.366499900817871 10.15999984741211 6.223000526428222
    vertex 11.01101303100586 10.140036582946777 1.1429991722106931
    vertex 11.366499900817871 10.15999984741211 1.1429991722106931
  endloop
endfacet
facet normal 0.05606918753503249 -0.9984268857603754 -4.269721443121407e-19
  outer loop
    vertex 11.01101303100586 10.140036582946777 1.1429991722106931
    vertex 11.366499900817871 10.15999984741211 6.223000526428222
    vertex 11.01101303100586 10.140036582946777 4.953000545501709
  endloop
endfacet
facet normal 0.9609176972086475 -0.2768342088529345 0.0
  outer loop
    vertex 8.369669914245605 8.033636093139647 6.223000526428222
    vertex 8.271103858947752 7.691504001617432 8.127999305725098
    vertex 8.271103858947752 7.691504001617432 6.223000526428222
  endloop
endfacet
facet normal 0.9609176972086475 -0.2768342088529345 0.0
  outer loop
    vertex 8.271103858947752 7.691504001617432 8.127999305725098
    vertex 8.369669914245605 8.033636093139647 6.223000526428222
    vertex 8.369669914245605 8.033636093139647 8.127999305725098
  endloop
endfacet
facet normal -0.8155595027714783 -0.5786732216364768 2.1048250623777674e-16
  outer loop
    vertex 19.690814971923825 8.964580535888675 18.09047213539061
    vertex 19.8968505859375 8.67420196533203 9.398000717163084
    vertex 19.8968505859375 8.67420196533203 18.09047213539061
  endloop
endfacet
facet normal -0.8155595027714783 -0.5786732216364768 2.1048250623777674e-16
  outer loop
    vertex 19.8968505859375 8.67420196533203 9.398000717163084
    vertex 19.690814971923825 8.964580535888675 18.09047213539061
    vertex 19.690814971923825 8.964580535888672 9.398000717163084
  endloop
endfacet
facet normal 0.48371937312363367 -0.875223153295706 0.0
  outer loop
    vertex 9.988919258117674 9.845576286315918 8.127999305725098
    vertex 9.677298545837402 9.673349380493164 6.223000526428222
    vertex 9.988919258117674 9.845576286315918 6.223000526428222
  endloop
endfacet
facet normal 0.48371937312363367 -0.875223153295706 0.0
  outer loop
    vertex 9.677298545837402 9.673349380493164 6.223000526428222
    vertex 9.988919258117674 9.845576286315918 8.127999305725098
    vertex 9.677298545837402 9.673349380493164 8.127999305725098
  endloop
endfacet
facet normal -0.2768363258188138 -0.9609170873218665 -1.2110363448518541e-17
  outer loop
    vertex 18.25713539123535 9.98182964324951 18.09047213539061
    vertex 17.915002822875973 10.08039665222168 9.398000717163084
    vertex 18.25713539123535 9.981829643249512 9.398000717163084
  endloop
endfacet
facet normal -0.2768363258188138 -0.9609170873218665 -1.2110363448518541e-17
  outer loop
    vertex 17.915002822875973 10.08039665222168 9.398000717163084
    vertex 18.25713539123535 9.98182964324951 18.09047213539061
    vertex 17.91500282287598 10.080396652221678 18.09047213539061
  endloop
endfacet
facet normal 0.9984267400220429 -0.056071782644713124 0.0
  outer loop
    vertex 8.211463928222656 7.340487003326415 6.223000526428222
    vertex 8.191499710083008 6.984999656677246 8.127999305725098
    vertex 8.191499710083008 6.984999656677246 6.223000526428222
  endloop
endfacet
facet normal 0.9984267400220429 -0.056071782644713124 0.0
  outer loop
    vertex 8.191499710083008 6.984999656677246 8.127999305725098
    vertex 8.211463928222656 7.340487003326415 6.223000526428222
    vertex 8.211463928222656 7.340487003326415 8.127999305725098
  endloop
endfacet
facet normal 0.05606918753503249 -0.9984268857603754 0.0
  outer loop
    vertex 11.366499900817871 10.15999984741211 9.398000717163084
    vertex 11.01101303100586 10.140036582946777 6.223000526428222
    vertex 11.366499900817871 10.15999984741211 6.223000526428222
  endloop
endfacet
facet normal 0.05606918753503249 -0.9984268857603754 0.0
  outer loop
    vertex 11.01101303100586 10.140036582946777 6.223000526428222
    vertex 11.366499900817871 10.15999984741211 9.398000717163084
    vertex 11.01101303100586 10.140036582946777 8.127999305725098
  endloop
endfacet
facet normal 0.9238797207621107 -0.3826829778870812 0.0
  outer loop
    vertex 8.505923271179197 8.362581253051758 6.223000526428222
    vertex 8.369669914245605 8.033636093139647 8.127999305725098
    vertex 8.369669914245605 8.033636093139647 6.223000526428222
  endloop
endfacet
facet normal 0.9238797207621107 -0.3826829778870812 0.0
  outer loop
    vertex 8.369669914245605 8.033636093139647 8.127999305725098
    vertex 8.505923271179197 8.362581253051758 6.223000526428222
    vertex 8.505923271179197 8.362581253051758 8.127999305725098
  endloop
endfacet
facet normal -0.16750640893921923 -0.9858709869776506 8.987804944289008e-17
  outer loop
    vertex 17.91500282287598 10.080396652221678 18.09047213539061
    vertex 17.56398773193359 10.140036582946777 9.398000717163084
    vertex 17.915002822875973 10.08039665222168 9.398000717163084
  endloop
endfacet
facet normal -0.16750640893921923 -0.9858709869776506 8.987804944289008e-17
  outer loop
    vertex 17.56398773193359 10.140036582946777 9.398000717163084
    vertex 17.91500282287598 10.080396652221678 18.09047213539061
    vertex 17.563987731933594 10.140036582946777 18.09047213539061
  endloop
endfacet
facet normal 0.98587113728624 -0.1675055242848296 0.0
  outer loop
    vertex 8.271103858947752 7.691504001617432 6.223000526428222
    vertex 8.211463928222656 7.340487003326415 8.127999305725098
    vertex 8.211463928222656 7.340487003326415 6.223000526428222
  endloop
endfacet
facet normal 0.98587113728624 -0.1675055242848296 0.0
  outer loop
    vertex 8.211463928222656 7.340487003326415 8.127999305725098
    vertex 8.271103858947752 7.691504001617432 6.223000526428222
    vertex 8.271103858947752 7.691504001617432 8.127999305725098
  endloop
endfacet
facet normal 0.6663470483854267 -0.7456417444778893 -5.105965255972293e-32
  outer loop
    vertex 9.386919021606445 9.467314720153809 4.953000545501709
    vertex 9.121436119079588 9.230064392089844 1.1429991722106931
    vertex 9.386919021606445 9.467314720153809 1.1429991722106931
  endloop
endfacet
facet normal 0.6663470483854267 -0.7456417444778893 -5.105965255972293e-32
  outer loop
    vertex 9.121436119079588 9.230064392089844 1.1429991722106931
    vertex 9.386919021606445 9.467314720153809 4.953000545501709
    vertex 9.121436119079588 9.230064392089844 4.953000545501709
  endloop
endfacet
facet normal 0.9609176972086475 -0.2768342088529345 0.0
  outer loop
    vertex 8.369669914245605 8.033636093139647 1.1429991722106931
    vertex 8.271103858947752 7.691504001617432 4.953000545501709
    vertex 8.271103858947752 7.691504001617432 1.1429991722106931
  endloop
endfacet
facet normal 0.9609176972086475 -0.2768342088529345 0.0
  outer loop
    vertex 8.271103858947752 7.691504001617432 4.953000545501709
    vertex 8.369669914245605 8.033636093139647 1.1429991722106931
    vertex 8.369669914245605 8.033636093139647 4.953000545501709
  endloop
endfacet
facet normal -0.578671440064014 -0.8155607668679509 2.9421241071404343e-16
  outer loop
    vertex 19.18807983398437 9.46731472015381 18.09047213539061
    vertex 18.89770126342773 9.673349380493164 9.398000717163084
    vertex 19.18807983398437 9.467314720153809 9.398000717163084
  endloop
endfacet
facet normal -0.578671440064014 -0.8155607668679509 2.9421241071404343e-16
  outer loop
    vertex 18.89770126342773 9.673349380493164 9.398000717163084
    vertex 19.18807983398437 9.46731472015381 18.09047213539061
    vertex 18.89770126342773 9.673349380493162 18.09047213539061
  endloop
endfacet
facet normal 0.5786701759695991 -0.8155616637896324 0.0
  outer loop
    vertex 9.677298545837402 9.673349380493164 8.127999305725098
    vertex 9.386919021606445 9.467314720153809 6.223000526428222
    vertex 9.677298545837402 9.673349380493164 6.223000526428222
  endloop
endfacet
facet normal 0.5786701759695991 -0.8155616637896324 0.0
  outer loop
    vertex 9.386919021606445 9.467314720153809 6.223000526428222
    vertex 9.677298545837402 9.673349380493164 8.127999305725098
    vertex 9.386919021606445 9.467314720153809 8.127999305725098
  endloop
endfacet
facet normal -0.05606903758997254 -0.9984268941809082 1.3311996662742514e-17
  outer loop
    vertex 17.563987731933594 10.140036582946777 18.09047213539061
    vertex 17.20849990844726 10.15999984741211 9.398000717163084
    vertex 17.56398773193359 10.140036582946777 9.398000717163084
  endloop
endfacet
facet normal -0.05606903758997254 -0.9984268941809082 1.3311996662742514e-17
  outer loop
    vertex 17.20849990844726 10.15999984741211 9.398000717163084
    vertex 17.563987731933594 10.140036582946777 18.09047213539061
    vertex 17.20849990844726 10.15999984741211 18.09047213539061
  endloop
endfacet
facet normal 0.0026294953111570276 -0.9999965428710174 -6.497770440477651e-07
  outer loop
    vertex -1.8553144344105548 -0.026424362117667025 9.572637697735807
    vertex -1.8545194249989376 -0.02641604860412272 -0.004510864609387563
    vertex 8.191499710083008 0.0 0.0
  endloop
endfacet
facet normal -1.2800569397256557e-07 5.385361050282252e-06 -0.9999999999854907
  outer loop
    vertex 6.1947785750010675 12.035793951395872 -0.004510864609398843
    vertex 8.191499710083008 10.15999984741211 0.0
    vertex 6.1947785750010675 2.725655951395877 -0.004510864609390383
  endloop
endfacet
facet normal -1.2800569397256557e-07 5.385361050282252e-06 -0.9999999999854907
  outer loop
    vertex 8.191499710083008 10.15999984741211 0.0
    vertex 6.1947785750010675 12.035793951395872 -0.004510864609398843
    vertex 14.295957575001069 12.035793951395872 -0.004510864609398843
  endloop
endfacet
facet normal -1.2800569397256557e-07 5.385361050282252e-06 -0.9999999999854907
  outer loop
    vertex 8.191499710083008 10.15999984741211 0.0
    vertex 14.295957575001069 12.035793951395872 -0.004510864609398843
    vertex 20.38349914550781 10.15999984741211 0.0
  endloop
endfacet
facet normal -1.2800569397256557e-07 5.385361050282252e-06 -0.9999999999854907
  outer loop
    vertex 20.38349914550781 10.15999984741211 0.0
    vertex 14.295957575001069 12.035793951395872 -0.004510864609398843
    vertex 14.352672575001067 12.035793951395872 -0.004510864609398843
  endloop
endfacet
facet normal -1.2800569397256557e-07 5.385361050282252e-06 -0.9999999999854907
  outer loop
    vertex 20.38349914550781 10.15999984741211 0.0
    vertex 14.352672575001067 12.035793951395872 -0.004510864609398843
    vertex 22.400487575001065 12.035793951395872 -0.004510864609398843
  endloop
endfacet
facet normal -1.2800569397256557e-07 5.385361050282252e-06 -0.9999999999854907
  outer loop
    vertex 20.38349914550781 10.15999984741211 0.0
    vertex 22.400487575001065 12.035793951395872 -0.004510864609398843
    vertex 20.38349914550781 0.0 0.0
  endloop
endfacet
facet normal -1.2800569397256557e-07 5.385361050282252e-06 -0.9999999999854907
  outer loop
    vertex 20.38349914550781 0.0 0.0
    vertex 22.400487575001065 12.035793951395872 -0.004510864609398843
    vertex 20.395242575001067 -0.02641604860412272 -0.004510864609387563
  endloop
endfacet
facet normal -1.2800569397256557e-07 5.385361050282252e-06 -0.9999999999854907
  outer loop
    vertex 20.395242575001067 -0.02641604860412272 -0.004510864609387563
    vertex 22.400487575001065 12.035793951395872 -0.004510864609398843
    vertex 22.400487575001065 2.725655951395877 -0.004510864609390383
  endloop
endfacet
facet normal -1.2800569397256557e-07 5.385361050282252e-06 -0.9999999999854907
  outer loop
    vertex 20.395242575001067 -0.02641604860412272 -0.004510864609387563
    vertex 22.400487575001065 2.725655951395877 -0.004510864609390383
    vertex 30.446559575001082 -0.02641604860412272 -0.004510864609387563
  endloop
endfacet
facet normal -1.2800569397256557e-07 5.385361050282252e-06 -0.9999999999854907
  outer loop
    vertex 30.446559575001082 -0.02641604860412272 -0.004510864609387563
    vertex 22.400487575001065 2.725655951395877 -0.004510864609390383
    vertex 30.446559575001082 2.725655951395877 -0.004510864609390383
  endloop
endfacet
facet normal -1.2800569397256557e-07 5.385361050282252e-06 -0.9999999999854907
  outer loop
    vertex 6.1947785750010675 2.725655951395877 -0.004510864609390383
    vertex -1.8545194249989376 -0.02641604860412272 -0.004510864609387563
    vertex -1.8545194249989376 2.725655951395877 -0.004510864609390383
  endloop
endfacet
facet normal -1.2800569397256557e-07 5.385361050282252e-06 -0.9999999999854907
  outer loop
    vertex -1.8545194249989376 -0.02641604860412272 -0.004510864609387563
    vertex 6.1947785750010675 2.725655951395877 -0.004510864609390383
    vertex 8.191499710083008 0.0 0.0
  endloop
endfacet
facet normal -1.2800569397256557e-07 5.385361050282252e-06 -0.9999999999854907
  outer loop
    vertex 8.191499710083008 0.0 0.0
    vertex 6.1947785750010675 2.725655951395877 -0.004510864609390383
    vertex 8.191499710083008 10.15999984741211 0.0
  endloop
endfacet
facet normal -4.350228627894993e-17 1.0 -3.8992685697023885e-17
  outer loop
    vertex 6.1947785750010675 12.035793951395872 18.09047213539061
    vertex 14.295957575001069 12.035793951395872 -0.004510864609398843
    vertex 6.1947785750010675 12.035793951395872 -0.004510864609398843
  endloop
endfacet
facet normal -4.350228627894993e-17 1.0 -3.8992685697023885e-17
  outer loop
    vertex 14.295957575001069 12.035793951395872 -0.004510864609398843
    vertex 6.1947785750010675 12.035793951395872 18.09047213539061
    vertex 14.352672575001067 12.035793951395872 -0.004510864609398843
  endloop
endfacet
facet normal -4.350228627894993e-17 1.0 -3.8992685697023885e-17
  outer loop
    vertex 14.352672575001067 12.035793951395872 -0.004510864609398843
    vertex 6.1947785750010675 12.035793951395872 18.09047213539061
    vertex 22.400487575001065 12.035793951395872 -0.004510864609398843
  endloop
endfacet
facet normal -4.350228627894993e-17 1.0 -3.8992685697023885e-17
  outer loop
    vertex 22.400487575001065 12.035793951395872 -0.004510864609398843
    vertex 6.1947785750010675 12.035793951395872 18.09047213539061
    vertex 22.40048756701211 12.035793951395874 18.09047213539061
  endloop
endfacet
facet normal 1.0 9.765411139437495e-09 -7.949326543739936e-09
  outer loop
    vertex 22.400487575001065 12.035793951395872 -0.004510864609398843
    vertex 22.400487588212986 2.7270349411595056 9.533415817970775
    vertex 22.400487575001065 2.725655951395877 -0.004510864609390383
  endloop
endfacet
facet normal 1.0 9.765411139437495e-09 -7.949326543739936e-09
  outer loop
    vertex 22.400487588212986 2.7270349411595056 9.533415817970775
    vertex 22.400487906336288 -0.010512215743347838 18.09047213539061
    vertex 22.400487588212986 -0.020152741117845836 9.53341041358354
  endloop
endfacet
facet normal 1.0 9.765411139437495e-09 -7.949326543739936e-09
  outer loop
    vertex 22.400487906336288 -0.010512215743347838 18.09047213539061
    vertex 22.400487588212986 2.7270349411595056 9.533415817970775
    vertex 22.40048756701211 12.035793951395874 18.09047213539061
  endloop
endfacet
facet normal 1.0 9.765411139437495e-09 -7.949326543739936e-09
  outer loop
    vertex 22.40048756701211 12.035793951395874 18.09047213539061
    vertex 22.400487588212986 2.7270349411595056 9.533415817970775
    vertex 22.400487575001065 12.035793951395872 -0.004510864609398843
  endloop
endfacet
facet normal 0.9238797207621107 -0.38268297788708117 0.0
  outer loop
    vertex 8.505923271179197 8.362581253051758 1.1429991722106931
    vertex 8.369669914245605 8.033636093139647 4.953000545501709
    vertex 8.369669914245605 8.033636093139647 1.1429991722106931
  endloop
endfacet
facet normal 0.9238797207621107 -0.38268297788708117 0.0
  outer loop
    vertex 8.369669914245605 8.033636093139647 4.953000545501709
    vertex 8.505923271179197 8.362581253051758 1.1429991722106931
    vertex 8.505923271179197 8.362581253051758 4.953000545501709
  endloop
endfacet
facet normal 0.5786701759695992 -0.8155616637896324 0.0
  outer loop
    vertex 9.677298545837402 9.673349380493164 4.953000545501709
    vertex 9.386919021606445 9.467314720153809 1.1429991722106931
    vertex 9.677298545837402 9.673349380493164 1.1429991722106931
  endloop
endfacet
facet normal 0.5786701759695992 -0.8155616637896324 0.0
  outer loop
    vertex 9.386919021606445 9.467314720153809 1.1429991722106931
    vertex 9.677298545837402 9.673349380493164 4.953000545501709
    vertex 9.386919021606445 9.467314720153809 4.953000545501709
  endloop
endfacet
facet normal 1.900269169078126e-21 0.9999999895483677 -0.00014457961306565704
  outer loop
    vertex 22.400487588212986 2.7270349411595056 9.533415817970775
    vertex 30.446559575001082 2.725655951395877 -0.004510864609390383
    vertex 22.400487575001065 2.725655951395877 -0.004510864609390383
  endloop
endfacet
facet normal 1.900269169078126e-21 0.9999999895483677 -0.00014457961306565704
  outer loop
    vertex 30.446559575001082 2.725655951395877 -0.004510864609390383
    vertex 22.400487588212986 2.7270349411595056 9.533415817970775
    vertex 30.446559588213002 2.7270349411595056 9.533415817970775
  endloop
endfacet
facet normal -3.3613811943688906e-07 -9.81874512765609e-07 0.9999999999994615
  outer loop
    vertex 30.446559588213002 -0.025037058840495213 9.533415817970775
    vertex 22.400487588212986 2.7270349411595056 9.533415817970775
    vertex 22.400487588212986 -0.020152741117845836 9.53341041358354
  endloop
endfacet
facet normal -3.3613811943688906e-07 -9.81874512765609e-07 0.9999999999994615
  outer loop
    vertex 22.400487588212986 2.7270349411595056 9.533415817970775
    vertex 30.446559588213002 -0.025037058840495213 9.533415817970775
    vertex 30.446559588213002 2.7270349411595056 9.533415817970775
  endloop
endfacet
facet normal -0.9999999965545807 -1.2813696456450934e-16 -8.301107617813511e-05
  outer loop
    vertex -1.8553144344105554 2.7256476378823336 9.572637697735807
    vertex -1.8545194249989376 -0.02641604860412272 -0.004510864609387563
    vertex -1.8553144344105548 -0.026424362117667025 9.572637697735807
  endloop
endfacet
facet normal -0.9999999965545807 -1.2813696456450934e-16 -8.301107617813511e-05
  outer loop
    vertex -1.8545194249989376 -0.02641604860412272 -0.004510864609387563
    vertex -1.8553144344105554 2.7256476378823336 9.572637697735807
    vertex -1.8545194249989376 2.725655951395877 -0.004510864609390383
  endloop
endfacet
facet normal 0.9984267400220429 -0.056071782644713124 1.5034661947806856e-19
  outer loop
    vertex 8.211463928222656 7.340487003326415 1.1429991722106931
    vertex 8.191499710083008 6.984999656677246 4.953000545501709
    vertex 8.191499710083008 6.984999656677246 1.1429991722106931
  endloop
endfacet
facet normal 0.9984267400220429 -0.056071782644713124 1.5034661947806856e-19
  outer loop
    vertex 8.191499710083008 6.984999656677246 4.953000545501709
    vertex 8.211463928222656 7.340487003326415 1.1429991722106931
    vertex 8.211463928222656 7.340487003326415 4.953000545501709
  endloop
endfacet
facet normal 4.0057150635162614e-23 0.9999999999996232 8.680572813076312e-07
  outer loop
    vertex -1.8553144344105554 2.7256476378823336 9.572637697735807
    vertex 6.1947785750010675 2.725655951395877 -0.004510864609390383
    vertex -1.8545194249989376 2.725655951395877 -0.004510864609390383
  endloop
endfacet
facet normal 4.0057150635162614e-23 0.9999999999996232 8.680572813076312e-07
  outer loop
    vertex 6.1947785750010675 2.725655951395877 -0.004510864609390383
    vertex -1.8553144344105554 2.7256476378823336 9.572637697735807
    vertex 6.19398356558945 2.7256476378823336 9.572637697735807
  endloop
endfacet
facet normal 0.9887593223762428 -0.05552885914392586 0.13882200191701352
  outer loop
    vertex 8.191499710083008 10.15999984741211 9.398000717163084
    vertex 8.191499710083008 6.984999656677246 8.127999305725098
    vertex 8.211463928222656 7.340487003326415 8.127999305725098
  endloop
endfacet
facet normal -0.00035402444644034784 -0.9999995467272923 0.0008838619244466832
  outer loop
    vertex 30.446559588213002 -0.025037058840495213 9.533415817970775
    vertex 20.395242575001067 -0.02641604860412272 -0.004510864609387563
    vertex 30.446559575001082 -0.02641604860412272 -0.004510864609387563
  endloop
endfacet
facet normal -0.00035402444644034784 -0.9999995467272923 0.0008838619244466832
  outer loop
    vertex 20.395242575001067 -0.02641604860412272 -0.004510864609387563
    vertex 30.446559588213002 -0.025037058840495213 9.533415817970775
    vertex 20.391122591816888 -0.02178223715646006 8.017120781810734
  endloop
endfacet
facet normal -0.00035402444644034784 -0.9999995467272923 0.0008838619244466832
  outer loop
    vertex 20.391122591816888 -0.02178223715646006 8.017120781810734
    vertex 30.446559588213002 -0.025037058840495213 9.533415817970775
    vertex 22.400487588212986 -0.020152741117845836 9.53341041358354
  endloop
endfacet
facet normal -0.00035402444644034784 -0.9999995467272923 0.0008838619244466832
  outer loop
    vertex 22.400487588212986 -0.020152741117845836 9.53341041358354
    vertex 20.3859482041612 -0.007491275477040849 18.09047213539061
    vertex 20.391122591816888 -0.02178223715646006 8.017120781810734
  endloop
endfacet
facet normal -0.00035402444644034784 -0.9999995467272923 0.0008838619244466832
  outer loop
    vertex 20.3859482041612 -0.007491275477040849 18.09047213539061
    vertex 22.400487588212986 -0.020152741117845836 9.53341041358354
    vertex 22.400487906336288 -0.010512215743347838 18.09047213539061
  endloop
endfacet
facet normal 0.16750508196109548 -0.9858712124396406 0.0
  outer loop
    vertex 11.01101303100586 10.140036582946777 4.953000545501709
    vertex 10.659995079040526 10.08039665222168 1.1429991722106931
    vertex 11.01101303100586 10.140036582946777 1.1429991722106931
  endloop
endfacet
facet normal 0.16750508196109548 -0.9858712124396406 0.0
  outer loop
    vertex 10.659995079040526 10.08039665222168 1.1429991722106931
    vertex 11.01101303100586 10.140036582946777 4.953000545501709
    vertex 10.659995079040526 10.08039665222168 4.953000545501709
  endloop
endfacet
facet normal 1.0 -6.857543182029538e-25 -1.385198406942621e-09
  outer loop
    vertex 30.446559575001082 2.725655951395877 -0.004510864609390383
    vertex 30.446559588213002 -0.025037058840495213 9.533415817970775
    vertex 30.446559575001082 -0.02641604860412272 -0.004510864609387563
  endloop
endfacet
facet normal 1.0 -6.857543182029538e-25 -1.385198406942621e-09
  outer loop
    vertex 30.446559588213002 -0.025037058840495213 9.533415817970775
    vertex 30.446559575001082 2.725655951395877 -0.004510864609390383
    vertex 30.446559588213002 2.7270349411595056 9.533415817970775
  endloop
endfacet
facet normal 0.3826839248818544 -0.9238793285040093 -5.241044614083569e-32
  outer loop
    vertex 10.317863464355469 9.981829643249512 4.953000545501709
    vertex 9.988919258117674 9.845576286315918 1.1429991722106931
    vertex 10.317863464355469 9.981829643249512 1.1429991722106931
  endloop
endfacet
facet normal 0.3826839248818544 -0.9238793285040093 -5.241044614083569e-32
  outer loop
    vertex 9.988919258117674 9.845576286315918 1.1429991722106931
    vertex 10.317863464355469 9.981829643249512 4.953000545501709
    vertex 9.988919258117674 9.845576286315918 4.953000545501709
  endloop
endfacet
facet normal -0.9137883497820727 -0.40619059162420434 -0.00023468816627090128
  outer loop
    vertex 20.38349914550781 0.0 0.0
    vertex 20.395242575001067 -0.02641604860412272 -0.004510864609387563
    vertex 20.391122591816888 -0.02178223715646006 8.017120781810734
  endloop
endfacet
facet normal -0.0002569577243583328 0.0007500631810163272 0.9999996856889268
  outer loop
    vertex -1.8553144344105548 -0.026424362117667025 9.572637697735807
    vertex 6.19398356558945 2.7256476378823336 9.572637697735807
    vertex -1.8553144344105554 2.7256476378823336 9.572637697735807
  endloop
endfacet
facet normal -0.0002569577243583328 0.0007500631810163272 0.9999996856889268
  outer loop
    vertex 6.19398356558945 2.7256476378823336 9.572637697735807
    vertex -1.8553144344105548 -0.026424362117667025 9.572637697735807
    vertex 6.201603479675297 -0.018121251837407513 9.576768128669515
  endloop
endfacet
facet normal 0.0 0.0 1.0
  outer loop
    vertex 8.191499710083008 10.15999984741211 8.127999305725098
    vertex 10.659995079040526 10.08039665222168 8.127999305725098
    vertex 11.01101303100586 10.140036582946777 8.127999305725098
  endloop
endfacet
facet normal 0.0 0.0 1.0
  outer loop
    vertex 10.659995079040526 10.08039665222168 8.127999305725098
    vertex 8.191499710083008 10.15999984741211 8.127999305725098
    vertex 10.317863464355469 9.981829643249512 8.127999305725098
  endloop
endfacet
facet normal 0.0 0.0 1.0
  outer loop
    vertex 10.317863464355469 9.981829643249512 8.127999305725098
    vertex 8.191499710083008 10.15999984741211 8.127999305725098
    vertex 9.988919258117674 9.845576286315918 8.127999305725098
  endloop
endfacet
facet normal 0.0 0.0 1.0
  outer loop
    vertex 9.988919258117674 9.845576286315918 8.127999305725098
    vertex 8.191499710083008 10.15999984741211 8.127999305725098
    vertex 9.677298545837402 9.673349380493164 8.127999305725098
  endloop
endfacet
facet normal 0.0 0.0 1.0
  outer loop
    vertex 9.677298545837402 9.673349380493164 8.127999305725098
    vertex 8.191499710083008 10.15999984741211 8.127999305725098
    vertex 9.386919021606445 9.467314720153809 8.127999305725098
  endloop
endfacet
facet normal 0.0 0.0 1.0
  outer loop
    vertex 9.386919021606445 9.467314720153809 8.127999305725098
    vertex 8.191499710083008 10.15999984741211 8.127999305725098
    vertex 9.121436119079588 9.230064392089844 8.127999305725098
  endloop
endfacet
facet normal 0.0 0.0 1.0
  outer loop
    vertex 9.121436119079588 9.230064392089844 8.127999305725098
    vertex 8.191499710083008 10.15999984741211 8.127999305725098
    vertex 8.884183883666992 8.964580535888672 8.127999305725098
  endloop
endfacet
facet normal 0.0 0.0 1.0
  outer loop
    vertex 8.884183883666992 8.964580535888672 8.127999305725098
    vertex 8.191499710083008 10.15999984741211 8.127999305725098
    vertex 8.678150177001953 8.67420196533203 8.127999305725098
  endloop
endfacet
facet normal 0.0 0.0 1.0
  outer loop
    vertex 8.678150177001953 8.67420196533203 8.127999305725098
    vertex 8.191499710083008 10.15999984741211 8.127999305725098
    vertex 8.505923271179197 8.362581253051758 8.127999305725098
  endloop
endfacet
facet normal 0.0 0.0 1.0
  outer loop
    vertex 8.505923271179197 8.362581253051758 8.127999305725098
    vertex 8.191499710083008 10.15999984741211 8.127999305725098
    vertex 8.369669914245605 8.033636093139647 8.127999305725098
  endloop
endfacet
facet normal 0.0 0.0 1.0
  outer loop
    vertex 8.369669914245605 8.033636093139647 8.127999305725098
    vertex 8.191499710083008 10.15999984741211 8.127999305725098
    vertex 8.271103858947752 7.691504001617432 8.127999305725098
  endloop
endfacet
facet normal 0.0 0.0 1.0
  outer loop
    vertex 8.271103858947752 7.691504001617432 8.127999305725098
    vertex 8.191499710083008 10.15999984741211 8.127999305725098
    vertex 8.211463928222656 7.340487003326415 8.127999305725098
  endloop
endfacet
facet normal 0.0 0.0 -1.0
  outer loop
    vertex 8.191499710083008 10.15999984741211 6.223000526428222
    vertex 8.271103858947752 7.691504001617432 6.223000526428222
    vertex 8.211463928222656 7.340487003326415 6.223000526428222
  endloop
endfacet
facet normal 0.0 0.0 -1.0
  outer loop
    vertex 8.271103858947752 7.691504001617432 6.223000526428222
    vertex 8.191499710083008 10.15999984741211 6.223000526428222
    vertex 8.369669914245605 8.033636093139647 6.223000526428222
  endloop
endfacet
facet normal 0.0 0.0 -1.0
  outer loop
    vertex 8.369669914245605 8.033636093139647 6.223000526428222
    vertex 8.191499710083008 10.15999984741211 6.223000526428222
    vertex 8.505923271179197 8.362581253051758 6.223000526428222
  endloop
endfacet
facet normal 0.0 0.0 -1.0
  outer loop
    vertex 8.505923271179197 8.362581253051758 6.223000526428222
    vertex 8.191499710083008 10.15999984741211 6.223000526428222
    vertex 8.678150177001953 8.67420196533203 6.223000526428222
  endloop
endfacet
facet normal 0.0 0.0 -1.0
  outer loop
    vertex 8.678150177001953 8.67420196533203 6.223000526428222
    vertex 8.191499710083008 10.15999984741211 6.223000526428222
    vertex 8.884183883666992 8.964580535888672 6.223000526428222
  endloop
endfacet
facet normal 0.0 0.0 -1.0
  outer loop
    vertex 8.884183883666992 8.964580535888672 6.223000526428222
    vertex 8.191499710083008 10.15999984741211 6.223000526428222
    vertex 9.121436119079588 9.230064392089844 6.223000526428222
  endloop
endfacet
facet normal 0.0 0.0 -1.0
  outer loop
    vertex 9.121436119079588 9.230064392089844 6.223000526428222
    vertex 8.191499710083008 10.15999984741211 6.223000526428222
    vertex 9.386919021606445 9.467314720153809 6.223000526428222
  endloop
endfacet
facet normal 0.0 0.0 -1.0
  outer loop
    vertex 9.386919021606445 9.467314720153809 6.223000526428222
    vertex 8.191499710083008 10.15999984741211 6.223000526428222
    vertex 9.677298545837402 9.673349380493164 6.223000526428222
  endloop
endfacet
facet normal 0.0 0.0 -1.0
  outer loop
    vertex 9.677298545837402 9.673349380493164 6.223000526428222
    vertex 8.191499710083008 10.15999984741211 6.223000526428222
    vertex 9.988919258117674 9.845576286315918 6.223000526428222
  endloop
endfacet
facet normal 0.0 0.0 -1.0
  outer loop
    vertex 9.988919258117674 9.845576286315918 6.223000526428222
    vertex 8.191499710083008 10.15999984741211 6.223000526428222
    vertex 10.317863464355469 9.981829643249512 6.223000526428222
  endloop
endfacet
facet normal 0.0 0.0 -1.0
  outer loop
    vertex 10.317863464355469 9.981829643249512 6.223000526428222
    vertex 8.191499710083008 10.15999984741211 6.223000526428222
    vertex 10.659995079040526 10.08039665222168 6.223000526428222
  endloop
endfacet
facet normal 0.0 0.0 -1.0
  outer loop
    vertex 10.659995079040526 10.08039665222168 6.223000526428222
    vertex 8.191499710083008 10.15999984741211 6.223000526428222
    vertex 11.01101303100586 10.140036582946777 6.223000526428222
  endloop
endfacet
facet normal 0.98587113728624 -0.1675055242848296 6.750995114113681e-32
  outer loop
    vertex 8.271103858947752 7.691504001617432 1.1429991722106931
    vertex 8.211463928222656 7.340487003326415 4.953000545501709
    vertex 8.211463928222656 7.340487003326415 1.1429991722106931
  endloop
endfacet
facet normal 0.98587113728624 -0.1675055242848296 6.750995114113681e-32
  outer loop
    vertex 8.211463928222656 7.340487003326415 4.953000545501709
    vertex 8.271103858947752 7.691504001617432 1.1429991722106931
    vertex 8.271103858947752 7.691504001617432 4.953000545501709
  endloop
endfacet
facet normal 0.9887593009130129 -0.05552885793855026 0.13882215527087302
  outer loop
    vertex 8.191499710083008 10.15999984741211 6.223000526428222
    vertex 8.191499710083008 6.984999656677246 4.953000545501709
    vertex 8.211463928222656 7.340487003326415 4.953000545501709
  endloop
endfacet
facet normal 1.4583163401870156e-17 -1.932606170088549e-17 1.0
  outer loop
    vertex 8.194333249071128 1.8894221455052414e-06 18.09047213539061
    vertex 8.191499710083008 6.984999656677246 18.09047213539061
    vertex 7.552154837971741 -0.00582193309922681 18.09047213539061
  endloop
endfacet
facet normal 1.4583163401870156e-17 -1.932606170088549e-17 1.0
  outer loop
    vertex 6.1947785750010675 12.035793951395872 18.09047213539061
    vertex 11.011013031005861 10.140036582946777 18.09047213539061
    vertex 22.40048756701211 12.035793951395874 18.09047213539061
  endloop
endfacet
facet normal 1.4583163401870156e-17 -1.932606170088549e-17 1.0
  outer loop
    vertex 11.011013031005861 10.140036582946777 18.09047213539061
    vertex 6.1947785750010675 12.035793951395872 18.09047213539061
    vertex 10.65999507904053 10.08039665222168 18.09047213539061
  endloop
endfacet
facet normal 1.4583163401870156e-17 -1.932606170088549e-17 1.0
  outer loop
    vertex 10.65999507904053 10.08039665222168 18.09047213539061
    vertex 6.1947785750010675 12.035793951395872 18.09047213539061
    vertex 10.317863464355472 9.981829643249512 18.09047213539061
  endloop
endfacet
facet normal 1.4583163401870156e-17 -1.932606170088549e-17 1.0
  outer loop
    vertex 10.317863464355472 9.981829643249512 18.09047213539061
    vertex 6.1947785750010675 12.035793951395872 18.09047213539061
    vertex 9.988919258117674 9.845576286315916 18.09047213539061
  endloop
endfacet
facet normal 1.4583163401870156e-17 -1.932606170088549e-17 1.0
  outer loop
    vertex 9.988919258117674 9.845576286315916 18.09047213539061
    vertex 6.1947785750010675 12.035793951395872 18.09047213539061
    vertex 9.677298545837402 9.673349380493164 18.09047213539061
  endloop
endfacet
facet normal 1.4583163401870156e-17 -1.932606170088549e-17 1.0
  outer loop
    vertex 9.677298545837402 9.673349380493164 18.09047213539061
    vertex 6.1947785750010675 12.035793951395872 18.09047213539061
    vertex 9.386919021606447 9.46731472015381 18.090472135390613
  endloop
endfacet
facet normal 1.4583163401870156e-17 -1.932606170088549e-17 1.0
  outer loop
    vertex 9.386919021606447 9.46731472015381 18.090472135390613
    vertex 6.1947785750010675 12.035793951395872 18.09047213539061
    vertex 9.12143611907959 9.230064392089844 18.09047213539061
  endloop
endfacet
facet normal 1.4583163401870156e-17 -1.932606170088549e-17 1.0
  outer loop
    vertex 9.12143611907959 9.230064392089844 18.09047213539061
    vertex 6.1947785750010675 12.035793951395872 18.09047213539061
    vertex 8.884183883666994 8.964580535888672 18.09047213539061
  endloop
endfacet
facet normal 1.4583163401870156e-17 -1.932606170088549e-17 1.0
  outer loop
    vertex 8.884183883666994 8.964580535888672 18.09047213539061
    vertex 6.1947785750010675 12.035793951395872 18.09047213539061
    vertex 8.678150177001953 8.67420196533203 18.09047213539061
  endloop
endfacet
facet normal 1.4583163401870156e-17 -1.932606170088549e-17 1.0
  outer loop
    vertex 8.678150177001953 8.67420196533203 18.09047213539061
    vertex 6.1947785750010675 12.035793951395872 18.09047213539061
    vertex 8.505923271179197 8.36258125305176 18.09047213539061
  endloop
endfacet
facet normal 1.4583163401870156e-17 -1.932606170088549e-17 1.0
  outer loop
    vertex 8.505923271179197 8.36258125305176 18.09047213539061
    vertex 6.1947785750010675 12.035793951395872 18.09047213539061
    vertex 8.369669914245605 8.033636093139648 18.09047213539061
  endloop
endfacet
facet normal 1.4583163401870156e-17 -1.932606170088549e-17 1.0
  outer loop
    vertex 8.369669914245605 8.033636093139648 18.09047213539061
    vertex 6.1947785750010675 12.035793951395872 18.09047213539061
    vertex 6.194778575001068 0.8722841883367412 18.09047213539061
  endloop
endfacet
facet normal 1.4583163401870156e-17 -1.932606170088549e-17 1.0
  outer loop
    vertex 8.369669914245605 8.033636093139648 18.09047213539061
    vertex 6.194778575001068 0.8722841883367412 18.09047213539061
    vertex 8.271103858947754 7.691504001617433 18.09047213539061
  endloop
endfacet
facet normal 1.4583163401870156e-17 -1.932606170088549e-17 1.0
  outer loop
    vertex 8.271103858947754 7.691504001617433 18.09047213539061
    vertex 6.194778575001068 0.8722841883367412 18.09047213539061
    vertex 6.197227798271 -0.009384719318773861 18.09047213539061
  endloop
endfacet
facet normal 1.4583163401870156e-17 -1.932606170088549e-17 1.0
  outer loop
    vertex 8.271103858947754 7.691504001617433 18.09047213539061
    vertex 6.197227798271 -0.009384719318773861 18.09047213539061
    vertex 8.211463928222656 7.340487003326418 18.09047213539061
  endloop
endfacet
facet normal 1.4583163401870156e-17 -1.932606170088549e-17 1.0
  outer loop
    vertex 8.211463928222656 7.340487003326418 18.09047213539061
    vertex 6.197227798271 -0.009384719318773861 18.09047213539061
    vertex 7.552154837971741 -0.00582193309922681 18.09047213539061
  endloop
endfacet
facet normal 1.4583163401870156e-17 -1.932606170088549e-17 1.0
  outer loop
    vertex 8.211463928222656 7.340487003326418 18.09047213539061
    vertex 7.552154837971741 -0.00582193309922681 18.09047213539061
    vertex 8.191499710083008 6.984999656677246 18.09047213539061
  endloop
endfacet
facet normal 1.4583163401870156e-17 -1.932606170088549e-17 1.0
  outer loop
    vertex 22.40048756701211 12.035793951395874 18.09047213539061
    vertex 11.011013031005861 10.140036582946777 18.09047213539061
    vertex 11.366499900817871 10.15999984741211 18.09047213539061
  endloop
endfacet
facet normal 1.4583163401870156e-17 -1.932606170088549e-17 1.0
  outer loop
    vertex 22.40048756701211 12.035793951395874 18.09047213539061
    vertex 11.366499900817871 10.15999984741211 18.09047213539061
    vertex 17.20849990844726 10.15999984741211 18.09047213539061
  endloop
endfacet
facet normal 1.4583163401870156e-17 -1.932606170088549e-17 1.0
  outer loop
    vertex 22.40048756701211 12.035793951395874 18.09047213539061
    vertex 17.20849990844726 10.15999984741211 18.09047213539061
    vertex 17.563987731933594 10.140036582946777 18.09047213539061
  endloop
endfacet
facet normal 1.4583163401870156e-17 -1.932606170088549e-17 1.0
  outer loop
    vertex 22.40048756701211 12.035793951395874 18.09047213539061
    vertex 17.563987731933594 10.140036582946777 18.09047213539061
    vertex 17.91500282287598 10.080396652221678 18.09047213539061
  endloop
endfacet
facet normal 1.4583163401870156e-17 -1.932606170088549e-17 1.0
  outer loop
    vertex 22.40048756701211 12.035793951395874 18.09047213539061
    vertex 17.91500282287598 10.080396652221678 18.09047213539061
    vertex 18.25713539123535 9.98182964324951 18.09047213539061
  endloop
endfacet
facet normal 1.4583163401870156e-17 -1.932606170088549e-17 1.0
  outer loop
    vertex 22.40048756701211 12.035793951395874 18.09047213539061
    vertex 18.25713539123535 9.98182964324951 18.09047213539061
    vertex 18.586080551147454 9.845576286315922 18.090472135390613
  endloop
endfacet
facet normal 1.4583163401870156e-17 -1.932606170088549e-17 1.0
  outer loop
    vertex 22.40048756701211 12.035793951395874 18.09047213539061
    vertex 18.586080551147454 9.845576286315922 18.090472135390613
    vertex 18.89770126342773 9.673349380493162 18.09047213539061
  endloop
endfacet
facet normal 1.4583163401870156e-17 -1.932606170088549e-17 1.0
  outer loop
    vertex 22.40048756701211 12.035793951395874 18.09047213539061
    vertex 18.89770126342773 9.673349380493162 18.09047213539061
    vertex 19.18807983398437 9.46731472015381 18.09047213539061
  endloop
endfacet
facet normal 1.4583163401870156e-17 -1.932606170088549e-17 1.0
  outer loop
    vertex 22.40048756701211 12.035793951395874 18.09047213539061
    vertex 19.18807983398437 9.46731472015381 18.09047213539061
    vertex 19.45356369018554 9.230064392089844 18.090472135390606
  endloop
endfacet
facet normal 1.4583163401870156e-17 -1.932606170088549e-17 1.0
  outer loop
    vertex 22.40048756701211 12.035793951395874 18.09047213539061
    vertex 19.45356369018554 9.230064392089844 18.090472135390606
    vertex 19.690814971923825 8.964580535888675 18.09047213539061
  endloop
endfacet
facet normal 1.4583163401870156e-17 -1.932606170088549e-17 1.0
  outer loop
    vertex 22.40048756701211 12.035793951395874 18.09047213539061
    vertex 19.690814971923825 8.964580535888675 18.09047213539061
    vertex 19.8968505859375 8.67420196533203 18.09047213539061
  endloop
endfacet
facet normal 1.4583163401870156e-17 -1.932606170088549e-17 1.0
  outer loop
    vertex 22.40048756701211 12.035793951395874 18.09047213539061
    vertex 19.8968505859375 8.67420196533203 18.09047213539061
    vertex 20.06907653808593 8.362581253051763 18.09047213539061
  endloop
endfacet
facet normal 1.4583163401870156e-17 -1.932606170088549e-17 1.0
  outer loop
    vertex 22.40048756701211 12.035793951395874 18.09047213539061
    vertex 20.06907653808593 8.362581253051763 18.09047213539061
    vertex 20.205329895019524 8.033636093139648 18.09047213539061
  endloop
endfacet
facet normal 1.4583163401870156e-17 -1.932606170088549e-17 1.0
  outer loop
    vertex 22.40048756701211 12.035793951395874 18.09047213539061
    vertex 20.205329895019524 8.033636093139648 18.09047213539061
    vertex 20.303895950317376 7.691504001617432 18.09047213539061
  endloop
endfacet
facet normal 1.4583163401870156e-17 -1.932606170088549e-17 1.0
  outer loop
    vertex 22.40048756701211 12.035793951395874 18.09047213539061
    vertex 20.303895950317376 7.691504001617432 18.09047213539061
    vertex 20.36353492736816 7.340487003326415 18.09047213539061
  endloop
endfacet
facet normal 1.4583163401870156e-17 -1.932606170088549e-17 1.0
  outer loop
    vertex 22.40048756701211 12.035793951395874 18.09047213539061
    vertex 20.36353492736816 7.340487003326415 18.09047213539061
    vertex 20.38349914550781 6.984999656677246 18.09047213539061
  endloop
endfacet
facet normal 1.4583163401870156e-17 -1.932606170088549e-17 1.0
  outer loop
    vertex 22.40048756701211 12.035793951395874 18.09047213539061
    vertex 20.38349914550781 6.984999656677246 18.09047213539061
    vertex 20.3859482041612 -0.007491275477040849 18.09047213539061
  endloop
endfacet
facet normal 1.4583163401870156e-17 -1.932606170088549e-17 1.0
  outer loop
    vertex 22.40048756701211 12.035793951395874 18.09047213539061
    vertex 20.3859482041612 -0.007491275477040849 18.09047213539061
    vertex 22.400487906336288 -0.010512215743347838 18.09047213539061
  endloop
endfacet
endsolid gearmotor_br
